<?xml version="1.0" encoding="utf-8"?>
<!-- Generator: Adobe Illustrator 20.1.0, SVG Export Plug-In . SVG Version: 6.00 Build 0)  -->
<svg version="1.1" id="Layer_1" xmlns="http://www.w3.org/2000/svg" xmlns:xlink="http://www.w3.org/1999/xlink" x="0px" y="0px"
	 viewBox="0 0 45 45" style="enable-background:new 0 0 45 45;" xml:space="preserve">
<style type="text/css">
	.st0{fill:#3EAA74;}
</style>
<path class="st0" d="M42.3,23.8c-0.2-0.4-0.2-1.1,0-1.5l2.6-5.3c0.2-0.4,0-0.8-0.5-0.8h-7c-2.5-5.6-8.1-9.5-14.6-9.5
	c-6.5,0-12.1,3.9-14.6,9.5H1.8c-0.5,0-0.7,0.3-0.5,0.8L4,22.2c0.2,0.4,0.2,1.1,0,1.5l-2.6,5.3c-0.2,0.4,0,0.8,0.5,0.8h6.8
	c2.6,5.2,8,8.8,14.2,8.8c6.2,0,11.6-3.6,14.2-8.8h7.4c0.5,0,0.7-0.3,0.5-0.8L42.3,23.8z M22.9,37.7c-5.7,0-10.7-3.2-13.2-7.9
	c-1.2-2.1-1.8-4.6-1.8-7.2c0-2.3,0.5-4.5,1.5-6.5c2.4-5.1,7.6-8.6,13.6-8.6c6,0,11.1,3.5,13.6,8.6c0.9,2,1.5,4.2,1.5,6.5
	c0,2.6-0.7,5-1.8,7.2C33.6,34.5,28.6,37.7,22.9,37.7L22.9,37.7z M22.9,37.7"/>
<path class="st0" d="M22.9,10c-4.6,0-8.6,2.5-10.8,6.2c-1.1,1.9-1.8,4.1-1.8,6.5c0,2.7,0.8,5.1,2.2,7.2c2.3,3.3,6.1,5.4,10.4,5.4
	c4.3,0,8.1-2.2,10.4-5.4c1.4-2,2.2-4.5,2.2-7.2c0-2.4-0.7-4.6-1.8-6.5C31.5,12.5,27.5,10,22.9,10L22.9,10z M28,29.9
	c0.1,0.4,0,0.6-0.4,0.3L27,29.8l-3.6-2.6c-0.4-0.3-1-0.3-1.4,0l-3.6,2.6L18,30.2c-0.4,0.3-0.6,0.1-0.4-0.3l0-0.1l1.5-4.7
	c0.1-0.4,0-1-0.4-1.3l-4.1-3c-0.4-0.3-0.3-0.5,0.2-0.5h5c0.5,0,1-0.4,1.1-0.8l1.1-3.3l0.5-1.4c0.1-0.4,0.4-0.4,0.5,0l0.5,1.4
	l1.1,3.3c0.1,0.4,0.6,0.8,1.1,0.8h5c0.5,0,0.5,0.2,0.2,0.5l-4.1,3c-0.4,0.3-0.6,0.9-0.4,1.3L28,29.9L28,29.9z M28,29.9"/>
</svg>
