<?xml version="1.0" encoding="utf-8"?>
<!-- Generator: Adobe Illustrator 20.1.0, SVG Export Plug-In . SVG Version: 6.00 Build 0)  -->
<svg version="1.1" id="Layer_1" xmlns="http://www.w3.org/2000/svg" xmlns:xlink="http://www.w3.org/1999/xlink" x="0px" y="0px"
	 viewBox="0 0 45 45" style="enable-background:new 0 0 45 45;" xml:space="preserve">
<style type="text/css">
	.st0{fill:#D0D0CF;}
</style>
<path class="st0" d="M42.2,24.2c-0.2-0.4-0.2-1.1,0-1.6l2.7-5.4c0.2-0.4,0-0.8-0.5-0.8h-7.2c-2.6-5.7-8.3-9.7-14.9-9.7
	c-6.7,0-12.4,4-15,9.7H0.7c-0.5,0-0.7,0.4-0.5,0.8l2.7,5.4c0.2,0.4,0.2,1.1,0,1.6l-2.7,5.4c-0.2,0.4,0,0.8,0.5,0.8h7
	c2.7,5.3,8.2,9,14.6,9c6.4,0,11.9-3.7,14.6-9h7.6c0.5,0,0.7-0.3,0.5-0.8L42.2,24.2z M22.3,38.5c-5.9,0-10.9-3.3-13.6-8.1
	c-1.2-2.2-1.9-4.7-1.9-7.4c0-2.4,0.6-4.6,1.5-6.6c2.5-5.2,7.8-8.8,13.9-8.8c6.1,0,11.4,3.6,13.9,8.8c1,2,1.5,4.3,1.5,6.6
	c0,2.7-0.7,5.2-1.9,7.4C33.3,35.2,28.2,38.5,22.3,38.5L22.3,38.5z M22.3,38.5"/>
<path class="st0" d="M22.3,10.1c-4.7,0-8.8,2.5-11.1,6.3c-1.2,1.9-1.8,4.2-1.8,6.6c0,2.7,0.9,5.3,2.3,7.4C14,33.8,17.9,36,22.3,36
	c4.4,0,8.3-2.2,10.7-5.6c1.4-2.1,2.3-4.6,2.3-7.4c0-2.4-0.7-4.7-1.8-6.6C31.2,12.6,27,10.1,22.3,10.1L22.3,10.1z M27.5,30.5
	c0.1,0.5,0,0.6-0.4,0.3l-0.5-0.4l-3.7-2.7c-0.4-0.3-1-0.3-1.4,0l-3.7,2.7l-0.5,0.4c-0.4,0.3-0.6,0.1-0.4-0.3l0-0.1l1.6-4.8
	c0.1-0.5,0-1.1-0.4-1.3l-4.2-3c-0.4-0.3-0.3-0.5,0.2-0.5h5.2c0.5,0,1-0.4,1.1-0.8l1.1-3.4l0.5-1.5c0.1-0.5,0.4-0.5,0.5,0l0.5,1.5
	l1.1,3.4c0.1,0.5,0.7,0.8,1.1,0.8h5.2c0.5,0,0.6,0.2,0.2,0.5l-4.2,3c-0.4,0.3-0.6,0.9-0.4,1.3L27.5,30.5L27.5,30.5z M27.5,30.5"/>
</svg>
