<?xml version="1.0" encoding="utf-8"?>
<!-- Generator: Adobe Illustrator 19.0.0, SVG Export Plug-In . SVG Version: 6.00 Build 0)  -->
<svg version="1.1" id="Layer_1" xmlns="http://www.w3.org/2000/svg" xmlns:xlink="http://www.w3.org/1999/xlink" x="0px" y="0px"
	 viewBox="0 0 40 30" style="enable-background:new 0 0 40 30;" xml:space="preserve">
<style type="text/css">
	.st0{fill:#CFCFCF;}
</style>
<path id="XMLID_6_" class="st0" d="M37.5,0H2.6C1.2,0,0.1,1.1,0.1,2.4v25.1c0,1.3,1.1,2.4,2.5,2.4h34.9c1.4,0,2.5-1.1,2.5-2.4V2.4
	C40,1.1,38.9,0,37.5,0L37.5,0z M37.5,2.4v17.8l-5-4.4c-0.8-0.7-1.9-0.6-2.6,0.1l-5.1,4.9l-10-11.5c-0.8-0.9-2.1-0.9-2.9,0L2.6,19.7
	V2.4H37.5z M26.7,8.9c0-1.9,1.6-3.4,3.5-3.4s3.5,1.5,3.5,3.4c0,1.9-1.6,3.4-3.5,3.4S26.7,10.7,26.7,8.9L26.7,8.9z M26.7,8.9"/>
</svg>
