<?xml version="1.0" encoding="utf-8"?>
<!-- Generator: Adobe Illustrator 19.0.0, SVG Export Plug-In . SVG Version: 6.00 Build 0)  -->
<svg version="1.1" id="Layer_1" xmlns="http://www.w3.org/2000/svg" xmlns:xlink="http://www.w3.org/1999/xlink" x="0px" y="0px"
	 viewBox="0 0 65 65" style="enable-background:new 0 0 65 65;" xml:space="preserve">
<style type="text/css">
	.st0{fill:#CFCFD1;}
</style>
<path id="XMLID_3_" class="st0" d="M9.5,9.5c-12.7,12.7-12.7,33.3,0,45.9c12.7,12.7,33.3,12.7,45.9,0c12.7-12.7,12.7-33.3,0-45.9
	C42.8-3.2,22.2-3.2,9.5,9.5z M53.9,53.9c-11.8,11.8-31.1,11.8-42.9,0C-0.8,42.1-0.8,22.9,11,11C22.9-0.8,42.1-0.8,53.9,11
	C65.8,22.9,65.8,42.1,53.9,53.9z"/>
<polygon id="XMLID_2_" class="st0" points="34.2,34.2 34.2,42.7 30.7,42.7 30.7,34.2 22.2,34.2 22.2,30.7 30.7,30.7 30.7,22.2 
	34.2,22.2 34.2,30.7 42.7,30.7 42.7,34.2 "/>
</svg>
