<?xml version="1.0" encoding="utf-8"?>
<!-- Generator: Adobe Illustrator 19.0.0, SVG Export Plug-In . SVG Version: 6.00 Build 0)  -->
<svg version="1.1" id="Layer_1" xmlns="http://www.w3.org/2000/svg" xmlns:xlink="http://www.w3.org/1999/xlink" x="0px" y="0px"
	 viewBox="0 0 64.2 63.6" style="enable-background:new 0 0 64.2 63.6;" xml:space="preserve">
<style type="text/css">
	.st0{fill:#2197D4;}
	.st1{fill:#FFFFFF;}
</style>
<path class="st0" d="M32.1,63.6C14.4,63.6,0,49.3,0,31.8S14.4,0,32.1,0s32.1,14.3,32.1,31.8S49.8,63.6,32.1,63.6z"/>
<g id="XMLID_5_">
	<path id="XMLID_7_" class="st1" d="M29.9,30.6c4.3,0,7.8-4.1,7.8-9.2c0.1-7-3.4-9.2-7.8-9.2c-4.3,0-7.8,2.1-7.8,9.2
		C22.1,26.5,25.6,30.6,29.9,30.6z"/>
	<path id="XMLID_8_" class="st1" d="M37.6,47.7c-0.4,0.4-1.1,0.7-1.7,0.7s-1.3-0.3-1.7-0.7l-1.2-1.2c-0.9-0.9-0.9-2.5,0-3.4l0.6-0.6
		c-0.1-0.2-0.2-0.4-0.3-0.6h-0.8c-1.4,0-2.4-1.1-2.4-2.4v-1.7c0-1.4,1.1-2.4,2.4-2.4h0.8c0.1-0.2,0.1-0.4,0.3-0.6l-0.6-0.6
		c-0.4-0.4-0.6-0.9-0.7-1.5c-0.7,0.2-1.5,0.3-2.3,0.3c-2.1,0-4.2-0.7-5.9-2c-0.1-0.1-0.3-0.1-0.4,0l-6.2,3.2
		c-0.4,0.2-0.7,0.6-0.9,0.9l-3.3,7.4c4.2,4.4,10.1,7.1,16.6,7.1c2.9,0,5.7-0.6,8.2-1.5c0.1-0.1,0.3-0.1,0.6-0.3v-0.2h0.1
		c-0.2-0.1-0.4-0.1-0.6-0.3L37.6,47.7z"/>
	<path id="XMLID_11_" class="st1" d="M51.6,36.5h-1.1c-0.3,0-0.6-0.3-0.7-0.6c-0.1-0.3-0.2-0.6-0.4-0.9s-0.1-0.7,0.1-0.9l0.7-0.7
		c0.5-0.5,0.5-1.4,0-1.9l-1.2-1.2c-0.3-0.3-0.6-0.4-0.9-0.4c-0.4,0-0.7,0.1-0.9,0.4l-0.7,0.7c-0.1,0.1-0.3,0.2-0.5,0.2
		c-0.1,0-0.3,0-0.4-0.1c-0.3-0.1-0.6-0.2-0.9-0.4c-0.3-0.1-0.6-0.4-0.6-0.7v-1.1c0-0.7-0.6-1.4-1.4-1.4h-1.7c-0.7,0-1.4,0.6-1.4,1.4
		v1.1c0,0.3-0.3,0.6-0.6,0.7c-0.3,0.1-0.6,0.2-0.9,0.4c-0.1,0.1-0.2,0.1-0.4,0.1c-0.2,0-0.4-0.1-0.5-0.2l-0.7-0.7
		c-0.3-0.3-0.6-0.4-0.9-0.4s-0.7,0.1-0.9,0.4l-1.2,1.2c-0.2,0.3-0.4,0.6-0.4,0.9c0,0.4,0.1,0.7,0.4,0.9l0.7,0.7
		c0.2,0.2,0.3,0.6,0.1,0.9c-0.1,0.3-0.2,0.6-0.4,0.9c-0.1,0.3-0.4,0.6-0.7,0.6h-1.1c-0.7,0-1.4,0.6-1.4,1.4v1.7
		c0,0.7,0.6,1.4,1.4,1.4h1.1c0.3,0,0.6,0.3,0.7,0.6c0.1,0.3,0.2,0.6,0.4,0.9c0.1,0.3,0.1,0.7-0.1,0.9L33.7,44
		c-0.5,0.5-0.5,1.4,0,1.9l1.2,1.2c0.3,0.3,0.6,0.4,0.9,0.4s0.7-0.1,0.9-0.4l0.7-0.7c0.1-0.1,0.4-0.2,0.5-0.2c0.1,0,0.3,0,0.4,0.1
		c0.3,0.1,0.6,0.2,0.9,0.4c0.3,0.1,0.6,0.4,0.6,0.7v1.1c0,0.7,0.6,1.4,1.4,1.4h1.7c0.7,0,1.4-0.6,1.4-1.4v-1.1
		c0-0.3,0.3-0.6,0.6-0.7c0.3-0.1,0.6-0.2,0.9-0.4c0.1-0.1,0.2-0.1,0.4-0.1c0.2,0,0.4,0.1,0.5,0.2l0.7,0.7c0.3,0.3,0.6,0.4,0.9,0.4
		c0.4,0,0.7-0.1,0.9-0.4l1.2-1.2c0.5-0.5,0.5-1.4,0-1.9l-0.7-0.7c-0.2-0.2-0.3-0.6-0.1-0.9s0.2-0.6,0.4-0.9c0.1-0.3,0.4-0.6,0.7-0.6
		h1.1c0.7,0,1.4-0.6,1.4-1.4v-1.7C53,37.1,52.4,36.5,51.6,36.5z M42,42.6c-2.1,0-3.9-1.8-3.9-3.9c0-2.1,1.8-3.9,3.9-3.9
		c2.1,0,3.9,1.8,3.9,3.9C46,40.8,44.2,42.6,42,42.6z"/>
</g>
</svg>
