<?xml version="1.0" encoding="utf-8"?>
<!-- Generator: Adobe Illustrator 19.0.0, SVG Export Plug-In . SVG Version: 6.00 Build 0)  -->
<svg version="1.1" id="Layer_1" xmlns="http://www.w3.org/2000/svg" xmlns:xlink="http://www.w3.org/1999/xlink" x="0px" y="0px"
	 viewBox="-273 364.8 64.2 64.2" style="enable-background:new -273 364.8 64.2 64.2;" xml:space="preserve">
<style type="text/css">
	.st0{fill:#FFFFFF;}
	.st1{fill:#A5A5A5;}
</style>
<path class="st0" d="M-240.9,428.4c-17.7,0-32.1-14.3-32.1-31.8s14.4-31.8,32.1-31.8s32.1,14.3,32.1,31.8S-223.2,428.4-240.9,428.4z
	"/>
<path class="st1" d="M-241,402.4c6,0,10.9-5.7,10.9-12.8c0.1-9.8-4.8-12.8-10.9-12.8c-6,0-10.9,3-10.9,12.8
	C-251.9,396.7-247,402.4-241,402.4z"/>
<path class="st1" d="M-228.6,426c-0.3-0.1-0.6-0.2-0.9-0.4l-0.8,0.8c-0.6,0.6-1.5,1-2.4,1c-0.9,0-1.8-0.4-2.4-1l-1.7-1.7
	c-1.3-1.3-1.3-3.5,0-4.8l0.8-0.8c-0.1-0.3-0.3-0.6-0.4-0.9h-1.1c-1.9,0-3.4-1.5-3.4-3.4v-2.4c0-1.9,1.5-3.4,3.4-3.4h1.1
	c0.1-0.3,0.2-0.6,0.4-0.9l-0.8-0.8c-0.6-0.6-0.9-1.3-1-2.1c-1,0.3-2.1,0.4-3.2,0.4c-3,0-5.8-1-8.2-2.8c-0.2-0.1-0.4-0.1-0.6,0
	l-8.6,4.5c-0.6,0.3-1,0.8-1.2,1.3l-4.6,10.3c5.8,6.1,14.1,9.9,23.2,9.9c4.1,0,7.9-0.8,11.5-2.1c0.2-0.1,0.4-0.2,0.8-0.4V426z"/>
<path class="st1" d="M-210.7,410.7h-1.5c-0.4,0-0.9-0.4-1-0.8c-0.1-0.4-0.3-0.8-0.5-1.2c-0.2-0.4-0.1-1,0.2-1.3l1-1
	c0.7-0.7,0.7-1.9,0-2.6l-1.7-1.7c-0.4-0.4-0.8-0.5-1.3-0.5c-0.5,0-1,0.2-1.3,0.5l-1,1c-0.2,0.2-0.4,0.3-0.7,0.3
	c-0.2,0-0.4,0-0.5-0.1c-0.4-0.2-0.8-0.3-1.2-0.5c-0.4-0.2-0.8-0.6-0.8-1v-1.5c0-1-0.8-1.9-1.9-1.9h-2.4c-1,0-1.9,0.8-1.9,1.9v1.5
	c0,0.4-0.4,0.9-0.8,1c-0.4,0.1-0.8,0.3-1.2,0.5c-0.1,0.1-0.3,0.1-0.5,0.1c-0.3,0-0.6-0.1-0.7-0.3l-1-1c-0.4-0.4-0.8-0.5-1.3-0.5
	c-0.5,0-1,0.2-1.3,0.5l-1.7,1.7c-0.3,0.4-0.5,0.8-0.5,1.3c0,0.5,0.2,1,0.5,1.3l1,1c0.3,0.3,0.4,0.9,0.2,1.3
	c-0.2,0.4-0.3,0.8-0.5,1.2c-0.2,0.4-0.6,0.8-1,0.8h-1.5c-1,0-1.9,0.8-1.9,1.9v2.4c0,1,0.8,1.9,1.9,1.9h1.5c0.4,0,0.9,0.4,1,0.8
	c0.1,0.4,0.3,0.8,0.5,1.2c0.2,0.4,0.1,1-0.2,1.3l-1,1c-0.7,0.7-0.7,1.9,0,2.6l1.7,1.7c0.4,0.4,0.8,0.5,1.3,0.5c0.5,0,1-0.2,1.3-0.5
	l1-1c0.2-0.2,0.5-0.3,0.7-0.3c0.2,0,0.4,0,0.5,0.1c0.4,0.2,0.8,0.3,1.2,0.5c0.4,0.2,0.8,0.6,0.8,1v1.5c0,1,0.8,1.9,1.9,1.9h2.4
	c1,0,1.9-0.8,1.9-1.9v-1.5c0-0.4,0.4-0.9,0.8-1c0.4-0.1,0.8-0.3,1.2-0.5c0.1-0.1,0.3-0.1,0.5-0.1c0.3,0,0.6,0.1,0.7,0.3l1,1
	c0.4,0.4,0.8,0.5,1.3,0.5c0.5,0,1-0.2,1.3-0.5l1.7-1.7c0.7-0.7,0.7-1.9,0-2.6l-1-1c-0.3-0.3-0.4-0.9-0.2-1.3
	c0.2-0.4,0.3-0.8,0.5-1.2c0.1-0.4,0.6-0.8,1-0.8h1.5c1,0,1.9-0.8,1.9-1.9v-2.4C-208.8,411.5-209.6,410.7-210.7,410.7z M-224.1,419.2
	c-3,0-5.5-2.5-5.5-5.5c0-3,2.5-5.5,5.5-5.5c3,0,5.5,2.5,5.5,5.5C-218.6,416.7-221.1,419.2-224.1,419.2z"/>
</svg>
