<?xml version="1.0" encoding="utf-8"?>
<!-- Generator: Adobe Illustrator 16.0.0, SVG Export Plug-In . SVG Version: 6.00 Build 0)  -->
<!DOCTYPE svg PUBLIC "-//W3C//DTD SVG 1.1//EN" "http://www.w3.org/Graphics/SVG/1.1/DTD/svg11.dtd">
<svg version="1.1" id="Layer_1" xmlns="http://www.w3.org/2000/svg" xmlns:xlink="http://www.w3.org/1999/xlink" x="0px" y="0px"
	 width="20px" height="20px" viewBox="0 0 20 20" enable-background="new 0 0 20 20" xml:space="preserve">
<g>
	<path fill="#FFFFFF" d="M3.369,12.529c0-0.004,0.007-0.006,0.011-0.012c-0.072,0.107-0.11,0.222-0.11,0.329
		c0,0.777,3.143,2.816,5.244,3.666v-4.244L3.867,9.726L3.369,12.529z"/>
	<path fill="#FFFFFF" d="M14.949,16.456c-1.322,0-2.486-0.679-3.157-1.713l1.551-1.425h-2.105H9.928v3.138l0.928-0.855
		c0.91,1.277,2.407,2.113,4.093,2.113c2.563,0,4.675-1.921,4.984-4.396h-1.271C18.367,15.1,16.816,16.456,14.949,16.456z"/>
	<path fill="#FFFFFF" d="M14.949,6.254c1.137,0,2.233,0.305,3.193,0.853l1.316-0.67L9.856,2.357l-9.84,4.079l0.71,0.353v1.688
		c-0.193,0.041-0.344,0.204-0.344,0.41c0,0.104,0.042,0.199,0.105,0.273C0.486,9.172,0.482,9.179,0.482,9.188v0.8
		c0,0.182,0.146,0.328,0.328,0.328c0.183,0,0.33-0.146,0.33-0.328v-0.8c0-0.009-0.005-0.018-0.005-0.028
		c0.062-0.074,0.104-0.168,0.104-0.272c0-0.206-0.146-0.369-0.342-0.41V6.875l7.901,3.929C9.61,8.146,12.085,6.254,14.949,6.254z"/>
	<path fill="#FFFFFF" d="M19.075,9.825c-0.907-1.304-2.419-2.155-4.126-2.155c-2.559,0-4.676,1.914-4.982,4.396h1.27
		c0.297-1.785,1.849-3.139,3.712-3.139c1.364,0,2.557,0.72,3.219,1.805l-1.333,1.334h3.139V8.926L19.075,9.825z"/>
</g>
<g>
</g>
<g>
</g>
<g>
</g>
<g>
</g>
<g>
</g>
<g>
</g>
</svg>
