<?xml version="1.0" encoding="utf-8"?>
<!-- Generator: Adobe Illustrator 20.1.0, SVG Export Plug-In . SVG Version: 6.00 Build 0)  -->
<svg version="1.1" id="Layer_1" xmlns="http://www.w3.org/2000/svg" xmlns:xlink="http://www.w3.org/1999/xlink" x="0px" y="0px"
	 viewBox="0 0 45 45" style="enable-background:new 0 0 45 45;" xml:space="preserve">
<style type="text/css">
	.st0{fill:#D0D1CF;}
</style>
<path id="XMLID_111_" class="st0" d="M41.1,12.3c-2.3,0-3.9,1.9-3.9,3.9v0.2c-3.1,2.3-6,5-9.5,8.3c-0.2,0.2-0.4,0.4-0.6,0.6
	c-0.6,0.8-2.1,2.5-3.1,2.5l0,0c-1-0.8-1.7-2.5-2.1-4.1l-0.4-0.8c-0.6-1.9-1.5-4.1-3.1-6c-0.8-1-1.9-1.5-3.1-1.5
	c-1,0-2.3,0.4-3.5,1.2c-2.5,1.7-3.7,4.1-5.2,6.2c-0.6,1-1.2,1.9-1.9,2.9c-0.2,0-0.2,0-0.4,0c-2.3,0-3.9,1.9-3.9,3.9
	c0,2.3,1.9,3.9,3.9,3.9s3.9-1.9,3.9-3.9c0-0.4-0.2-1-0.4-1.5c0.6-0.8,1-1.7,1.7-2.5c1.2-2.3,2.7-4.4,4.8-5.8
	c0.2-0.2,0.6-0.4,0.8-0.4c0.2,0,0.4,0,0.8,0.8c0.6,1,1,2.3,1.5,3.3l0.4,1c0.6,1.7,1,3.3,2.1,4.8c1,1.7,2.5,2.5,4.1,2.5h0.4
	c2.1-0.2,3.7-1.9,5-3.3l0.4-0.4c3.1-3.1,6.2-6,9.5-8.5c0.6,0.2,1,0.4,1.7,0.4c2.3,0,3.9-1.9,3.9-3.9S43.4,12.3,41.1,12.3z"/>
<path class="st0" d="M-15.1,2.2c-4.7,0-8.8,2.5-11.1,6.3c-1.2,1.9-1.8,4.2-1.8,6.6c0,2.7,0.9,5.3,2.3,7.4c2.3,3.4,6.2,5.6,10.6,5.6
	s8.3-2.2,10.7-5.6c1.4-2.1,2.3-4.6,2.3-7.4c0-2.4-0.7-4.7-1.8-6.6C-6.2,4.7-10.4,2.2-15.1,2.2L-15.1,2.2z M-9.9,22.6
	c0.1,0.5,0,0.6-0.4,0.3l-0.5-0.4l-3.7-2.7c-0.4-0.3-1-0.3-1.4,0l-3.7,2.7l-0.5,0.4c-0.4,0.3-0.6,0.1-0.4-0.3v-0.1l1.6-4.8
	c0.1-0.5,0-1.1-0.4-1.3l-4.2-3c-0.4-0.3-0.3-0.5,0.2-0.5h5.2c0.5,0,1-0.4,1.1-0.8l1.1-3.4l0.5-1.5c0.1-0.5,0.4-0.5,0.5,0l0.5,1.5
	l1.1,3.4c0.1,0.5,0.7,0.8,1.1,0.8H-7c0.5,0,0.6,0.2,0.2,0.5l-4.2,3c-0.4,0.3-0.6,0.9-0.4,1.3L-9.9,22.6L-9.9,22.6z"/>
</svg>
