<?xml version="1.0" encoding="utf-8"?>
<!-- Generator: Adobe Illustrator 16.0.0, SVG Export Plug-In . SVG Version: 6.00 Build 0)  -->
<!DOCTYPE svg PUBLIC "-//W3C//DTD SVG 1.1//EN" "http://www.w3.org/Graphics/SVG/1.1/DTD/svg11.dtd">
<svg version="1.1" id="Layer_1" xmlns="http://www.w3.org/2000/svg" xmlns:xlink="http://www.w3.org/1999/xlink" x="0px" y="0px"
	 width="20px" height="20px" viewBox="0 0 20 20" enable-background="new 0 0 20 20" xml:space="preserve">
<g>
	<path fill="#FFFFFF" d="M8.272,12.26c0.42-0.441,1.004-0.689,1.604-0.689c0.602,0,1.185,0.246,1.6,0.678l1.376,1.426l1.909-1.986
		l-1.348-1.185l5.199-1.755l1.392-1.355l-6.908-1.004l-3.089-6.26l-3.089,6.26L0.009,7.393l4.999,4.873L4.29,16.451L8.272,12.26z"/>
	<polygon fill="#FFFFFF" points="14.562,18.293 16.185,19.145 15.815,16.99 	"/>
	<path fill="#FFFFFF" d="M16.308,11.084l0.584,0.514l-4.038,4.203l-2.442-2.529c-0.138-0.143-0.331-0.225-0.536-0.225
		c-0.2,0-0.396,0.082-0.535,0.229l-4.04,4.254c-0.28,0.297-0.27,0.766,0.027,1.049c0.139,0.131,0.32,0.203,0.51,0.203
		c0.207,0,0.396-0.084,0.54-0.232l3.505-3.691l2.438,2.527c0.138,0.145,0.335,0.227,0.534,0.227c0.2,0,0.396-0.082,0.535-0.229
		l4.618-4.805l0.872,0.768l0.338-1.68l0.338-1.679l-1.625,0.546L16.308,11.084z"/>
</g>
<g>
</g>
<g>
</g>
<g>
</g>
<g>
</g>
<g>
</g>
<g>
</g>
</svg>
