<?xml version="1.0" encoding="utf-8"?>
<!-- Generator: Adobe Illustrator 19.0.0, SVG Export Plug-In . SVG Version: 6.00 Build 0)  -->
<svg version="1.1" id="Layer_1" xmlns="http://www.w3.org/2000/svg" xmlns:xlink="http://www.w3.org/1999/xlink" x="0px" y="0px"
	 viewBox="0 0 64.2 64.2" style="enable-background:new 0 0 64.2 64.2;" xml:space="preserve">
<style type="text/css">
	.st0{fill:#F5F6F8;}
	.st1{fill:#A5A5A5;}
</style>
<path class="st0" d="M32.1,63.6C14.4,63.6,0,49.3,0,31.8C0,14.3,14.4,0,32.1,0c17.7,0,32.1,14.3,32.1,31.8
	C64.2,49.3,49.8,63.6,32.1,63.6z"/>
<g>
	<path class="st1" d="M32,37.6c6,0,10.9-5.7,10.9-12.8C43,15,38.1,12,32,12c-6,0-10.9,3-10.9,12.8C21.1,31.9,26,37.6,32,37.6z"/>
	<path class="st1" d="M50.7,44c-0.3-0.6-0.7-1-1.2-1.3l-8.6-4.5c-0.2-0.1-0.4-0.1-0.6,0c-2.4,1.8-5.3,2.8-8.2,2.8
		c-3,0-5.8-1-8.2-2.8c-0.2-0.1-0.4-0.1-0.6,0l-8.6,4.5c-0.6,0.3-1,0.8-1.2,1.3L8.9,54.3c5.8,6.1,14.1,9.9,23.2,9.9
		c4.1,0,7.9-0.8,11.5-2.1c0.8-0.5,3.7-1.7,3.7-1.7c3-1.6,5.6-3.7,8-6.1L50.7,44z"/>
</g>
</svg>
