<?xml version="1.0" encoding="utf-8"?>
<!-- Generator: Adobe Illustrator 19.0.0, SVG Export Plug-In . SVG Version: 6.00 Build 0)  -->
<svg version="1.1" id="Layer_1" xmlns="http://www.w3.org/2000/svg" xmlns:xlink="http://www.w3.org/1999/xlink" x="0px" y="0px"
	 viewBox="0 0 35.6 35.6" style="enable-background:new 0 0 35.6 35.6;" xml:space="preserve">
<style type="text/css">
	.st0{fill:#F3F3F3;}
	.st1{fill:#A5A5A5;}
</style>
<circle id="XMLID_9_" class="st0" cx="17.8" cy="17.8" r="17.8"/>
<g id="XMLID_10_">
	<path id="XMLID_12_" class="st1" d="M17.8,21.1c3.3,0,5.9-3.1,5.9-7c0-5.3-2.6-7-5.9-7c-3.3,0-5.9,1.6-5.9,7
		C11.9,18,14.5,21.1,17.8,21.1z"/>
	<path id="XMLID_13_" class="st1" d="M27.8,24.6c-0.1-0.3-0.4-0.6-0.7-0.7l-4.6-2.4c-0.1-0.1-0.2,0-0.3,0c-1.3,1-2.8,1.5-4.4,1.5
		c-1.6,0-3.1-0.5-4.4-1.5c-0.1-0.1-0.2-0.1-0.3,0l-4.6,2.4c-0.3,0.2-0.5,0.4-0.7,0.7l-2.5,5.6c3.2,3.3,7.6,5.4,12.5,5.4
		c2.2,0,4.3-0.4,6.2-1.2c0.4-0.3,2-0.9,2-0.9c1.6-0.9,3-2,4.3-3.3L27.8,24.6z M18.7,33.3l-0.9,1.5l-0.9-1.5l-0.9-1.5l1.9-8l1.9,8
		L18.7,33.3z"/>
</g>
<g id="XMLID_20_">
</g>
<g id="XMLID_21_">
</g>
<g id="XMLID_22_">
</g>
<g id="XMLID_23_">
</g>
<g id="XMLID_24_">
</g>
<g id="XMLID_25_">
</g>
</svg>
