<?xml version="1.0" encoding="utf-8"?>
<!-- Generator: Adobe Illustrator 19.0.0, SVG Export Plug-In . SVG Version: 6.00 Build 0)  -->
<svg version="1.1" id="Layer_1" xmlns="http://www.w3.org/2000/svg" xmlns:xlink="http://www.w3.org/1999/xlink" x="0px" y="0px"
	 viewBox="0 0 118.3 118.3" style="enable-background:new 0 0 118.3 118.3;" xml:space="preserve">
<style type="text/css">
	.st0{fill:#F4F5F7;}
	.st1{fill:#A4A4A4;}
</style>
<path id="XMLID_2_" class="st0" d="M59.2,118.3C26.5,118.3,0,91.8,0,59.1C0,26.5,26.5,0,59.2,0c32.6,0,59.2,26.5,59.2,59.1
	C118.3,91.8,91.8,118.3,59.2,118.3z"/>
<path id="XMLID_3_" class="st1" d="M80,101.6h1v12.7c4.5-1.7,8.7-4,12.6-6.7v-4.7c0-6.2-4.4-13.1-11-17.3c0.1-0.5,0.3-1,0.4-1.6
	c0.1-0.5,0.2-1,0.3-1.6c0.7-4.6,1.1-11.9,1.1-22.8c0-17-11-30.8-24.7-30.8c-5,0-9.6,1.8-13.4,5c-0.7,0.5-1.3,1-1.8,1.6
	C38.8,41,35,49.8,35,59.6c0,11.6,0.4,19,1.2,23.6c0.1,0.6,0.2,1.1,0.3,1.6c0.1,0.6,0.3,1.1,0.4,1.6c-6.4,4.2-11.2,10.7-11.2,16.5
	v4.7c3.8,2.7,8,4.9,12.4,6.7v-12.6h1v13c6.4,2.4,13.3,3.7,20.5,3.7c7.1,0,14-1.3,20.3-3.6V101.6z M59.7,110.4c-1,0-1.8-0.8-1.8-1.8
	c0-1,0.8-1.8,1.8-1.8c1,0,1.8,0.8,1.8,1.8C61.4,109.6,60.7,110.4,59.7,110.4z M59.7,104.7c-1,0-1.8-0.8-1.8-1.8s0.8-1.8,1.8-1.8
	c1,0,1.8,0.8,1.8,1.8S60.7,104.7,59.7,104.7z M70.4,91.1c-5.9,3.1-9.8,5.6-10.2,5.6c-1.9-0.3-10.9-5.5-10.9-5.5
	c-2.2-1.2-3.6-1.8-6.1-4.3c0.3-0.4,1.6-2.1,1.9-2.6c0.3-0.4,0.6-0.8,1-1.3c1.5-1.9,3-4,4.7-5.9c2.7,2.2,5.8,3.6,9,3.6
	c3.3,0,6.3-1.4,9-3.6c2.1,2.4,4.1,5.1,5.8,7.3c0.3,0.4,0.7,0.8,1,1.2c0.4,0.4,0.7,0.8,1,1.2C75.3,88.7,72.2,90.1,70.4,91.1z
	 M75.9,59.2l-0.3,1c-1.6,5.7-4.9,11.5-9,14.9c-2.1,1.7-4.5,2.8-6.9,2.8c-2.5,0-4.8-1.1-6.9-2.8c-4.1-3.3-7.5-9.2-9-14.9l-0.3-1
	l-1-0.1c-1.2-0.2-2.8-1.6-3.3-3.9c-0.4-1.6-0.3-3.1,0.4-4.2c0.2-0.4,0.7-0.9,1.3-1.1c0.1,0,0.2,0,0.3,0c0.1,0,0.2,0,0.3,0l1.4,0.1
	l0.2-1.4c0.2-1.2,0.4-2.3,0.8-3.4c1.8,5.8,6.8,5.2,13.9,6.1c2.2,0.3,5,0.4,6.5,0.4c0.3-4.5-5-9.6-5-9.6s0.1-0.1,0.7,0
	c0.8,0.1,2.4,0.7,2.8,0.9c5.7,3.2,6.8,7.9,6.9,8c2.9-0.8,5.2-2.3,6-5c0.2,0.8,0.4,1.7,0.6,2.7l0.2,1.4l1.4-0.1c0.2,0,0.4,0,0.6,0
	c0.6,0.2,1.1,0.7,1.3,1.1c0.6,1.1,0.8,2.7,0.4,4.2c-0.6,2.3-2.1,3.7-3.3,3.9L75.9,59.2z"/>
<g id="XMLID_21_">
</g>
<g id="XMLID_22_">
</g>
<g id="XMLID_23_">
</g>
<g id="XMLID_24_">
</g>
<g id="XMLID_25_">
</g>
<g id="XMLID_26_">
</g>
</svg>
