<?xml version="1.0" encoding="utf-8"?>
<!-- Generator: Adobe Illustrator 16.0.0, SVG Export Plug-In . SVG Version: 6.00 Build 0)  -->
<!DOCTYPE svg PUBLIC "-//W3C//DTD SVG 1.1//EN" "http://www.w3.org/Graphics/SVG/1.1/DTD/svg11.dtd">
<svg version="1.1" id="Layer_1" xmlns="http://www.w3.org/2000/svg" xmlns:xlink="http://www.w3.org/1999/xlink" x="0px" y="0px"
	 width="21.299px" height="23.179px" viewBox="0 0 21.299 23.179" enable-background="new 0 0 21.299 23.179" xml:space="preserve">
<path fill="#A5A5A5" d="M10.649,11.18c2.637,0,4.774-2.503,4.774-5.59C15.424,1.308,13.286,0,10.649,0
	C8.012,0,5.874,1.308,5.874,5.589C5.874,8.677,8.012,11.18,10.649,11.18L10.649,11.18z M10.649,11.18"/>
<path fill="#A5A5A5" d="M21.193,19.405l-2.407-5.429c-0.111-0.247-0.305-0.454-0.547-0.577l-3.737-1.947
	c-0.083-0.043-0.182-0.036-0.258,0.021c-1.056,0.799-2.3,1.221-3.595,1.221s-2.54-0.422-3.596-1.221
	c-0.075-0.057-0.174-0.065-0.256-0.021l-3.739,1.947c-0.242,0.123-0.433,0.33-0.545,0.577l-2.409,5.429
	c-0.166,0.373-0.132,0.803,0.092,1.145c0.223,0.345,0.598,0.549,1.01,0.549H3.84c0.874,1.208,3.369,2.08,6.317,2.08
	c2.95,0,5.447-0.872,6.32-2.08h3.615c0.408,0,0.788-0.204,1.011-0.549C21.325,20.208,21.361,19.778,21.193,19.405z"/>
<g>
</g>
<g>
</g>
<g>
</g>
<g>
</g>
<g>
</g>
<g>
</g>
</svg>
