<?xml version="1.0" encoding="utf-8"?>
<!-- Generator: Adobe Illustrator 19.0.0, SVG Export Plug-In . SVG Version: 6.00 Build 0)  -->
<svg version="1.1" id="Layer_1" xmlns="http://www.w3.org/2000/svg" xmlns:xlink="http://www.w3.org/1999/xlink" x="0px" y="0px"
	 viewBox="0 0 64.2 64.2" style="enable-background:new 0 0 64.2 64.2;" xml:space="preserve">
<style type="text/css">
	.st0{fill:#F5F6F8;}
	.st1{fill:#A5A5A5;}
</style>
<path class="st0" d="M32.1,64.2C14.4,64.2,0,49.8,0,32.1C0,14.4,14.4,0,32.1,0c17.7,0,32.1,14.4,32.1,32.1
	C64.2,49.8,49.8,64.2,32.1,64.2z"/>
<path class="st1" d="M43.4,55.1h0.5V62c2.4-0.9,4.7-2.2,6.8-3.7v-2.5c0-3.4-2.4-7.1-6-9.4c0.1-0.3,0.1-0.5,0.2-0.9
	c0.1-0.3,0.1-0.6,0.2-0.9c0.4-2.5,0.6-6.4,0.6-12.4c0-9.2-6-16.7-13.4-16.7c-2.7,0-5.2,1-7.3,2.7c-0.4,0.3-0.7,0.5-1,0.9
	C21,22.3,19,27,19,32.4c0,6.3,0.2,10.3,0.7,12.8c0.1,0.3,0.1,0.6,0.2,0.9c0.1,0.3,0.2,0.6,0.2,0.9c-3.5,2.3-6.1,5.8-6.1,9v2.5
	c2.1,1.5,4.3,2.7,6.7,3.6v-6.9h0.5v7.1c3.5,1.3,7.2,2,11.1,2c3.9,0,7.6-0.7,11-1.9V55.1z M32.4,59.9c-0.5,0-1-0.4-1-1
	c0-0.5,0.4-1,1-1c0.5,0,1,0.4,1,1C33.3,59.5,32.9,59.9,32.4,59.9z M32.4,56.8c-0.5,0-1-0.4-1-1c0-0.5,0.4-1,1-1c0.5,0,1,0.4,1,1
	C33.3,56.4,32.9,56.8,32.4,56.8z M38.2,49.4c-3.2,1.7-5.3,3-5.6,3c-1-0.1-5.9-3-5.9-3c-1.2-0.6-1.9-1-3.3-2.3c0.2-0.2,0.8-1.1,1-1.4
	c0.2-0.2,0.3-0.4,0.5-0.7c0.8-1,1.6-2.2,2.5-3.2c1.5,1.2,3.1,2,4.9,2c1.8,0,3.4-0.8,4.9-2c1.1,1.3,2.2,2.8,3.2,4
	c0.2,0.2,0.4,0.5,0.5,0.7c0.2,0.2,0.4,0.4,0.6,0.7C40.9,48.1,39.2,48.9,38.2,49.4z M41.2,32.1L41,32.6c-0.9,3.1-2.7,6.3-4.9,8.1
	c-1.2,0.9-2.4,1.5-3.8,1.5c-1.3,0-2.6-0.6-3.8-1.5c-2.2-1.8-4-5-4.9-8.1l-0.2-0.6L23,32c-0.7-0.1-1.5-0.8-1.8-2.1
	c-0.2-0.8-0.1-1.7,0.2-2.3c0.1-0.2,0.4-0.5,0.7-0.6c0.1,0,0.1,0,0.2,0c0.1,0,0.1,0,0.1,0l0.8,0.1l0.1-0.8c0.1-0.7,0.2-1.3,0.4-1.9
	c1,3.1,3.7,2.8,7.6,3.3c1.2,0.2,2.7,0.2,3.5,0.2c0.1-2.5-2.7-5.2-2.7-5.2s0.1,0,0.4,0c0.4,0.1,1.3,0.4,1.5,0.5
	c3.1,1.7,3.7,4.3,3.8,4.4c1.6-0.4,2.8-1.3,3.3-2.7c0.1,0.5,0.2,0.9,0.3,1.4l0.1,0.8l0.8-0.1c0.1,0,0.2,0,0.3,0
	c0.3,0.1,0.6,0.4,0.7,0.6c0.3,0.6,0.4,1.4,0.2,2.3c-0.3,1.3-1.2,2-1.8,2.1L41.2,32.1z"/>
</svg>
