<?xml version="1.0" encoding="utf-8"?>
<!-- Generator: Adobe Illustrator 19.0.0, SVG Export Plug-In . SVG Version: 6.00 Build 0)  -->
<svg version="1.1" id="Layer_1" xmlns="http://www.w3.org/2000/svg" xmlns:xlink="http://www.w3.org/1999/xlink" x="0px" y="0px"
	 viewBox="0 0 23 25.3" style="enable-background:new 0 0 23 25.3;" xml:space="preserve">
<style type="text/css">
	.st0{fill:#F5BB40;}
</style>
<g>
	<path class="st0" d="M8.4,20l-2,0.3c-0.6,0.1-1.1,0-1.6-0.4c-0.4-0.3-0.8-0.8-0.8-1.4l-0.2-1.2L0.2,21C0,21.1,0,21.4,0,21.6
		c0.1,0.2,0.3,0.4,0.5,0.5l2.2,0.4l0.4,2.2c0,0.2,0.2,0.4,0.5,0.5c0.2,0.1,0.5,0,0.7-0.2L9,20.5l-0.3-0.3C8.6,20.1,8.5,20,8.4,20z"
		/>
	<path class="st0" d="M16.8,19.5c0.3,0.1,0.7,0,0.9-0.2c0.3-0.2,0.5-0.5,0.5-0.8l0.3-2c0.1-0.4,0.3-0.7,0.7-0.9l1.8-0.9
		c0.3-0.1,0.5-0.4,0.6-0.7c0.1-0.3,0.1-0.7-0.1-1l-0.9-1.8c-0.2-0.4-0.2-0.8,0-1.1l0.9-1.8c0.2-0.3,0.2-0.6,0.1-1
		c-0.1-0.3-0.3-0.6-0.6-0.7l-1.8-0.9c-0.4-0.2-0.6-0.5-0.7-0.9l-0.3-2C18.2,2.5,18,2.2,17.7,2c-0.3-0.2-0.6-0.3-0.9-0.2l-2,0.3
		c-0.4,0.1-0.8-0.1-1.1-0.3l-1.4-1.4C12.1,0.1,11.8,0,11.5,0c-0.3,0-0.6,0.1-0.9,0.4L9.2,1.8C9,2.1,8.6,2.2,8.2,2.1l-2-0.3
		C5.9,1.8,5.5,1.8,5.3,2C5,2.2,4.8,2.5,4.7,2.9l-0.3,2C4.4,5.2,4.1,5.6,3.8,5.8L2,6.6C1.7,6.8,1.5,7.1,1.4,7.4
		C1.3,7.7,1.3,8,1.5,8.3l0.9,1.8c0.2,0.4,0.2,0.8,0,1.1L1.5,13c-0.2,0.3-0.2,0.6-0.1,1c0.1,0.3,0.3,0.6,0.6,0.7l1.8,0.9
		c0.4,0.2,0.6,0.5,0.7,0.9l0.3,2c0,0.3,0.2,0.6,0.5,0.8c0.3,0.2,0.6,0.3,0.9,0.2l2-0.3c0.4-0.1,0.8,0.1,1.1,0.3l1.4,1.4
		c0.2,0.2,0.5,0.4,0.9,0.4c0.3,0,0.6-0.1,0.9-0.4l1.4-1.4c0.3-0.3,0.7-0.4,1.1-0.3L16.8,19.5z M11.5,18.1c-4.2,0-7.6-3.4-7.6-7.6
		c0-4.2,3.4-7.6,7.6-7.6c4.2,0,7.6,3.4,7.6,7.6C19.1,14.7,15.7,18.1,11.5,18.1z"/>
	<path class="st0" d="M22.8,21l-3.5-3.5l-0.2,1.2c-0.1,0.6-0.4,1.1-0.8,1.4c-0.5,0.3-1,0.5-1.6,0.4l-2-0.3c-0.1,0-0.2,0-0.3,0.1
		L14,20.5l4.6,4.6c0.2,0.2,0.4,0.2,0.7,0.2c0.2-0.1,0.4-0.3,0.5-0.5l0.4-2.2l2.2-0.4c0.2,0,0.4-0.2,0.5-0.5C23,21.4,23,21.1,22.8,21
		z"/>
	<path class="st0" d="M11.5,4C7.9,4,5,6.9,5,10.5c0,3.6,2.9,6.5,6.5,6.5c3.6,0,6.5-2.9,6.5-6.5C18,6.9,15.1,4,11.5,4z M14.6,14.8
		l-3.1-1.6l-3.1,1.6L9,11.4L6.5,8.9l3.5-0.5l1.6-3.2l1.6,3.2l3.5,0.5L14,11.4L14.6,14.8z"/>
</g>
<g id="XMLID_14_">
</g>
<g id="XMLID_15_">
</g>
<g id="XMLID_16_">
</g>
<g id="XMLID_17_">
</g>
<g id="XMLID_18_">
</g>
<g id="XMLID_19_">
</g>
</svg>
