<?xml version="1.0" encoding="utf-8"?>
<!-- Generator: Adobe Illustrator 16.0.0, SVG Export Plug-In . SVG Version: 6.00 Build 0)  -->
<!DOCTYPE svg PUBLIC "-//W3C//DTD SVG 1.1//EN" "http://www.w3.org/Graphics/SVG/1.1/DTD/svg11.dtd">
<svg version="1.1" id="Layer_1" xmlns="http://www.w3.org/2000/svg" xmlns:xlink="http://www.w3.org/1999/xlink" x="0px" y="0px"
	 width="25px" height="25px" viewBox="0 0 25 25" enable-background="new 0 0 25 25" xml:space="preserve">
<path fill="#CFCFCF" d="M9.411,19.799l-2.014,0.327c-0.564,0.092-1.113-0.043-1.558-0.369c-0.443-0.321-0.748-0.822-0.832-1.366
	l-0.171-1.178l-3.502,3.496c-0.175,0.176-0.236,0.432-0.162,0.668s0.269,0.41,0.513,0.458l2.221,0.415l0.416,2.221
	c0.044,0.242,0.219,0.441,0.456,0.514c0.235,0.073,0.492,0.009,0.667-0.166l4.567-4.565l-0.338-0.342
	C9.606,19.84,9.508,19.799,9.411,19.799L9.411,19.799z M9.411,19.799"/>
<path fill="#CFCFCF" d="M15.792,18.983l1.949,0.319c0.327,0.055,0.661-0.022,0.929-0.22c0.268-0.194,0.444-0.487,0.498-0.814
	l0.29-1.947c0.063-0.396,0.307-0.731,0.661-0.91l1.769-0.883c0.293-0.147,0.515-0.407,0.618-0.72
	c0.104-0.319,0.072-0.66-0.081-0.954L21.519,11.1c-0.182-0.351-0.182-0.765,0-1.113l0.906-1.756
	c0.153-0.293,0.185-0.634,0.081-0.955c-0.104-0.308-0.325-0.572-0.618-0.72l-1.769-0.882c-0.354-0.179-0.599-0.516-0.661-0.903
	l-0.29-1.954c-0.054-0.327-0.23-0.621-0.498-0.814c-0.268-0.194-0.602-0.276-0.929-0.221l-1.949,0.322
	c-0.388,0.066-0.784-0.063-1.06-0.346l-1.388-1.406c-0.225-0.225-0.526-0.356-0.844-0.365c-0.316,0.01-0.62,0.14-0.843,0.365
	l-1.39,1.406C9.995,2.041,9.598,2.169,9.21,2.103l-1.95-0.322C6.937,1.726,6.599,1.809,6.333,2.002
	c-0.268,0.193-0.447,0.487-0.5,0.814l-0.29,1.954C5.481,5.157,5.238,5.494,4.885,5.673L3.117,6.556
	C2.822,6.703,2.6,6.967,2.499,7.275C2.395,7.596,2.424,7.937,2.576,8.23l0.907,1.756c0.183,0.349,0.183,0.762,0,1.113l-0.907,1.755
	c-0.152,0.294-0.182,0.635-0.078,0.954c0.101,0.313,0.324,0.572,0.619,0.72l1.768,0.883c0.353,0.179,0.596,0.515,0.659,0.91
	l0.295,1.947c0.047,0.327,0.227,0.62,0.495,0.814c0.265,0.197,0.603,0.274,0.927,0.22l1.95-0.319
	c0.387-0.066,0.785,0.064,1.062,0.343l1.386,1.407c0.227,0.225,0.526,0.355,0.843,0.367c0.317-0.012,0.615-0.143,0.844-0.367
	l1.386-1.407C15.008,19.048,15.404,18.917,15.792,18.983L15.792,18.983z M12.501,17.879c-4.13-0.021-7.483-3.385-7.483-7.52
	c0-4.136,3.353-7.505,7.483-7.524c4.131,0.02,7.485,3.388,7.485,7.524C19.986,14.494,16.632,17.857,12.501,17.879L12.501,17.879z
	 M12.501,17.879"/>
<path fill="#CFCFCF" d="M23.667,20.709l-3.5-3.496l-0.174,1.178c-0.083,0.544-0.388,1.045-0.829,1.366
	c-0.446,0.326-0.994,0.461-1.56,0.369l-2.012-0.327c-0.098,0-0.197,0.041-0.268,0.112l-0.336,0.342l4.568,4.565
	c0.174,0.175,0.432,0.239,0.67,0.166c0.232-0.072,0.41-0.271,0.45-0.514l0.42-2.221l2.219-0.415
	c0.245-0.048,0.439-0.222,0.513-0.458C23.903,21.141,23.842,20.885,23.667,20.709L23.667,20.709z M23.667,20.709"/>
<path fill="#CFCFCF" d="M12.501,3.919c-3.528,0.025-6.39,2.896-6.39,6.428c0,3.53,2.862,6.404,6.39,6.426
	c3.527-0.021,6.391-2.896,6.391-6.426C18.892,6.815,16.028,3.944,12.501,3.919z M15.58,14.646l-3.079-1.618l-3.077,1.618
	l0.588-3.426L7.521,8.794l3.441-0.501l1.539-3.118l1.539,3.118l3.442,0.501l-2.49,2.426L15.58,14.646z"/>
<g>
</g>
<g>
</g>
<g>
</g>
<g>
</g>
<g>
</g>
<g>
</g>
</svg>
