<?xml version="1.0" encoding="utf-8"?>
<!-- Generator: Adobe Illustrator 19.0.0, SVG Export Plug-In . SVG Version: 6.00 Build 0)  -->
<svg version="1.1" id="Layer_1" xmlns="http://www.w3.org/2000/svg" xmlns:xlink="http://www.w3.org/1999/xlink" x="0px" y="0px"
	 viewBox="0 0 45 45" style="enable-background:new 0 0 45 45;" xml:space="preserve">
<style type="text/css">
	.st0{fill:#F0B93D;}
</style>
<g id="XMLID_11_">
	<path id="XMLID_16_" class="st0" d="M29.7,19.9c0-4-3.2-7.2-7.2-7.2c-4,0-7.2,3.3-7.2,7.2c0,4,3.2,7.2,7.2,7.2
		C26.5,27.1,29.7,23.9,29.7,19.9z M22.5,26.1c-3.4,0-6.2-2.8-6.2-6.2c0-3.4,2.8-6.2,6.2-6.2c3.4,0,6.2,2.8,6.2,6.2
		C28.7,23.3,25.9,26,22.5,26.1z"/>
	<polygon id="XMLID_19_" class="st0" points="24,17.9 22.5,14.9 21,17.9 17.7,18.4 20.1,20.7 19.5,24 22.5,22.5 25.5,24 24.9,20.7 
		27.3,18.4 	"/>
	<path id="XMLID_22_" class="st0" d="M22.5,0C10.1,0,0,10.1,0,22.5C0,34.9,10.1,45,22.5,45S45,34.9,45,22.5C45,10.1,34.9,0,22.5,0z
		 M15.7,33.8C15.5,34,15.3,34,15.1,34c-0.2-0.1-0.4-0.3-0.4-0.5l-0.4-2.1l-2.1-0.4c-0.2,0-0.4-0.2-0.5-0.4c-0.1-0.2,0-0.5,0.2-0.6
		l3.4-3.4l0.2,1.1c0.1,0.5,0.4,1,0.8,1.3c0.4,0.3,1,0.4,1.5,0.4l1.9-0.3c0.1,0,0.2,0,0.3,0.1l0.3,0.3L15.7,33.8z M23.3,29.9
		c-0.2,0.2-0.5,0.3-0.8,0.4c-0.3,0-0.6-0.1-0.8-0.4l-1.3-1.4c-0.3-0.3-0.6-0.4-1-0.3l-1.9,0.3c-0.3,0.1-0.6,0-0.9-0.2
		c-0.3-0.2-0.4-0.5-0.5-0.8l-0.3-1.9c-0.1-0.4-0.3-0.7-0.6-0.9l-1.7-0.9c-0.3-0.1-0.5-0.4-0.6-0.7c-0.1-0.3-0.1-0.6,0.1-0.9l0.9-1.7
		c0.2-0.3,0.2-0.7,0-1.1l-0.9-1.7c-0.1-0.3-0.2-0.6-0.1-0.9c0.1-0.3,0.3-0.6,0.6-0.7l1.7-0.9c0.3-0.2,0.6-0.5,0.6-0.9l0.3-1.9
		c0.1-0.3,0.2-0.6,0.5-0.8c0.3-0.2,0.6-0.3,0.9-0.2l1.9,0.3c0.4,0.1,0.8-0.1,1-0.3l1.3-1.4c0.2-0.2,0.5-0.3,0.8-0.4
		c0.3,0,0.6,0.1,0.8,0.4l1.3,1.4c0.3,0.3,0.6,0.4,1,0.3l1.9-0.3c0.3-0.1,0.6,0,0.9,0.2c0.3,0.2,0.4,0.5,0.5,0.8l0.3,1.9
		c0.1,0.4,0.3,0.7,0.6,0.9l1.7,0.9c0.3,0.1,0.5,0.4,0.6,0.7c0.1,0.3,0.1,0.6-0.1,0.9l-0.9,1.7c-0.2,0.3-0.2,0.7,0,1.1l0.9,1.7
		c0.1,0.3,0.2,0.6,0.1,0.9c-0.1,0.3-0.3,0.6-0.6,0.7l-1.7,0.9c-0.3,0.2-0.6,0.5-0.6,0.9l-0.3,1.9c-0.1,0.3-0.2,0.6-0.5,0.8
		c-0.3,0.2-0.6,0.3-0.9,0.2l-1.9-0.3c-0.4-0.1-0.8,0.1-1,0.3L23.3,29.9z M33.4,30.5c-0.1,0.2-0.3,0.4-0.5,0.4l-2.1,0.4l-0.4,2.1
		c0,0.2-0.2,0.4-0.4,0.5c-0.2,0.1-0.5,0-0.6-0.2l-4.4-4.4l0.3-0.3c0.1-0.1,0.2-0.1,0.3-0.1l1.9,0.3c0.5,0.1,1.1,0,1.5-0.4
		c0.4-0.3,0.7-0.8,0.8-1.3l0.2-1.1l3.4,3.4C33.4,30,33.5,30.3,33.4,30.5z"/>
</g>
</svg>
