<?xml version="1.0" encoding="utf-8"?>
<!-- Generator: Adobe Illustrator 16.0.0, SVG Export Plug-In . SVG Version: 6.00 Build 0)  -->
<!DOCTYPE svg PUBLIC "-//W3C//DTD SVG 1.1//EN" "http://www.w3.org/Graphics/SVG/1.1/DTD/svg11.dtd">
<svg version="1.1" id="Layer_1" xmlns="http://www.w3.org/2000/svg" xmlns:xlink="http://www.w3.org/1999/xlink" x="0px" y="0px"
	 width="25px" height="25px" viewBox="0 0 25 25" enable-background="new 0 0 25 25" xml:space="preserve">
<path fill="#1E92CB" d="M9.411,19.799l-2.014,0.327c-0.564,0.092-1.113-0.043-1.558-0.369c-0.443-0.321-0.748-0.821-0.832-1.366
	l-0.171-1.178l-3.502,3.496c-0.175,0.176-0.236,0.432-0.162,0.668c0.074,0.236,0.269,0.41,0.513,0.458l2.221,0.415l0.416,2.221
	c0.044,0.242,0.219,0.441,0.456,0.514c0.235,0.074,0.492,0.01,0.667-0.166l4.567-4.564l-0.338-0.342
	C9.606,19.84,9.508,19.799,9.411,19.799L9.411,19.799z"/>
<path fill="#1E92CB" d="M15.792,18.982l1.949,0.319c0.327,0.056,0.661-0.022,0.929-0.22c0.268-0.193,0.444-0.486,0.498-0.814
	l0.29-1.947c0.063-0.396,0.308-0.73,0.661-0.909l1.77-0.884c0.293-0.146,0.514-0.406,0.617-0.719
	c0.104-0.319,0.072-0.66-0.081-0.955L21.52,11.1c-0.183-0.351-0.183-0.765,0-1.113l0.905-1.756c0.153-0.293,0.185-0.634,0.081-0.955
	c-0.104-0.308-0.324-0.572-0.617-0.72l-1.77-0.882c-0.354-0.179-0.6-0.516-0.661-0.903l-0.29-1.954
	c-0.054-0.327-0.23-0.621-0.498-0.814c-0.268-0.194-0.602-0.276-0.929-0.221l-1.949,0.322c-0.388,0.066-0.784-0.063-1.06-0.346
	l-1.389-1.406c-0.225-0.225-0.526-0.356-0.844-0.365c-0.316,0.01-0.62,0.14-0.843,0.365l-1.39,1.406
	C9.995,2.041,9.598,2.169,9.21,2.103L7.26,1.781C6.937,1.726,6.599,1.809,6.333,2.002c-0.268,0.193-0.447,0.487-0.5,0.814
	L5.543,4.77C5.481,5.157,5.238,5.494,4.885,5.673L3.117,6.556C2.822,6.703,2.6,6.967,2.499,7.275
	C2.395,7.596,2.424,7.937,2.576,8.23l0.907,1.756c0.183,0.349,0.183,0.762,0,1.113l-0.907,1.755
	c-0.152,0.294-0.182,0.635-0.078,0.955c0.101,0.313,0.324,0.571,0.619,0.719l1.768,0.884c0.353,0.179,0.596,0.515,0.659,0.909
	l0.295,1.947c0.047,0.328,0.227,0.621,0.495,0.814c0.265,0.197,0.603,0.273,0.927,0.22l1.95-0.319
	c0.387-0.065,0.785,0.064,1.062,0.344l1.386,1.406c0.227,0.226,0.526,0.355,0.843,0.367c0.317-0.012,0.615-0.143,0.844-0.367
	l1.387-1.406C15.008,19.048,15.404,18.917,15.792,18.982L15.792,18.982z M12.501,17.879c-4.13-0.021-7.483-3.385-7.483-7.52
	c0-4.136,3.353-7.505,7.483-7.524c4.131,0.02,7.485,3.388,7.485,7.524C19.986,14.494,16.632,17.857,12.501,17.879L12.501,17.879z"/>
<path fill="#1E92CB" d="M23.667,20.709l-3.5-3.496l-0.174,1.178c-0.083,0.545-0.388,1.045-0.829,1.366
	c-0.446,0.326-0.994,0.461-1.561,0.369l-2.012-0.327c-0.098,0-0.197,0.041-0.268,0.112l-0.336,0.342l4.568,4.565
	c0.174,0.175,0.432,0.238,0.67,0.166c0.231-0.072,0.409-0.271,0.449-0.514l0.42-2.222l2.219-0.415
	c0.246-0.048,0.439-0.223,0.514-0.458S23.842,20.885,23.667,20.709L23.667,20.709z"/>
<path fill="#1E92CB" d="M12.501,3.919c-3.528,0.025-6.39,2.896-6.39,6.428c0,3.53,2.862,6.404,6.39,6.426
	c3.526-0.021,6.392-2.896,6.392-6.426C18.893,6.815,16.027,3.944,12.501,3.919z M15.58,14.646l-3.079-1.619l-3.077,1.619
	l0.588-3.426L7.521,8.794l3.441-0.501l1.539-3.118l1.539,3.118l3.442,0.501l-2.49,2.426L15.58,14.646z"/>
</svg>
