<?xml version="1.0" encoding="utf-8"?>
<!-- Generator: Adobe Illustrator 16.0.0, SVG Export Plug-In . SVG Version: 6.00 Build 0)  -->
<!DOCTYPE svg PUBLIC "-//W3C//DTD SVG 1.1//EN" "http://www.w3.org/Graphics/SVG/1.1/DTD/svg11.dtd">
<svg version="1.1" id="Layer_1" xmlns="http://www.w3.org/2000/svg" xmlns:xlink="http://www.w3.org/1999/xlink" x="0px" y="0px"
	 width="380.292px" height="281.299px" viewBox="0 0 380.292 281.299" enable-background="new 0 0 380.292 281.299"
	 xml:space="preserve">
<g>
	<path fill="#EEF0F1" d="M380.292,278.299c0,1.65-1.35,3-3,3H13.346c-1.65,0-3-1.35-3-3V3c0-1.65,1.35-3,3-3h363.946
		c1.65,0,3,1.35,3,3V278.299z"/>
</g>
<rect x="26.018" y="33.545" fill="#FFFFFF" width="338.694" height="231.104"/>
<path fill="#FFFFFF" d="M36.117,21.342c0,2.898-2.346,5.246-5.246,5.246c-2.897,0-5.252-2.348-5.252-5.246
	c0-2.9,2.354-5.248,5.252-5.248C33.771,16.094,36.117,18.441,36.117,21.342z"/>
<path fill="#FFFFFF" d="M51.651,21.342c0,2.898-2.347,5.246-5.246,5.246c-2.902,0-5.252-2.348-5.252-5.246
	c0-2.9,2.35-5.248,5.252-5.248C49.304,16.094,51.651,18.441,51.651,21.342z"/>
<path fill="#FFFFFF" d="M66.8,21.342c0,2.898-2.35,5.246-5.251,5.246c-2.898,0-5.251-2.348-5.251-5.246
	c0-2.9,2.354-5.248,5.251-5.248C64.451,16.094,66.8,18.441,66.8,21.342z"/>
<rect x="145.834" y="59.673" fill="#EEF0F1" width="98.908" height="102.637"/>
<rect x="47.691" y="69.127" fill="#EEF0F1" width="80.687" height="83.729"/>
<rect x="262.479" y="70.585" fill="#EEF0F1" width="80.687" height="83.729"/>
<rect x="48.05" y="187.228" fill="#EEF0F1" width="138.207" height="56.191"/>
<rect x="204.345" y="187.228" fill="#EEF0F1" width="138.208" height="56.191"/>
<path fill="#A5A5A5" d="M199.86,38.204c-57.673,0-104.594,46.919-104.594,104.593c0,57.675,46.921,104.595,104.594,104.595
	c57.675,0,104.594-46.92,104.594-104.595C304.454,85.123,257.535,38.204,199.86,38.204z M199.86,246.7
	c-57.292,0-103.904-46.609-103.904-103.903c0-57.292,46.613-103.903,103.904-103.903c57.293,0,103.907,46.612,103.907,103.903
	C303.768,200.09,257.153,246.7,199.86,246.7z"/>
<g>
	<g>
		
			<line fill="none" stroke="#A4A4A4" stroke-width="1.5" stroke-linecap="round" stroke-miterlimit="10" x1="199.86" y1="246.7" x2="199.86" y2="246.7"/>
		
			<line fill="none" stroke="#A4A4A4" stroke-width="1.5" stroke-linecap="round" stroke-miterlimit="10" stroke-dasharray="0,4.9418" x1="199.86" y1="241.758" x2="199.86" y2="41.617"/>
		
			<line fill="none" stroke="#A4A4A4" stroke-width="1.5" stroke-linecap="round" stroke-miterlimit="10" x1="199.86" y1="39.146" x2="199.86" y2="39.146"/>
		
			<line fill="none" stroke="#A4A4A4" stroke-width="1.5" stroke-linecap="round" stroke-miterlimit="10" stroke-dasharray="0,4.9418" x1="199.86" y1="44.088" x2="199.86" y2="244.229"/>
	</g>
</g>
<g>
	<g>
		
			<line fill="none" stroke="#A4A4A4" stroke-width="1.5" stroke-linecap="round" stroke-miterlimit="10" x1="303.64" y1="143.181" x2="303.64" y2="143.181"/>
		
			<line fill="none" stroke="#A4A4A4" stroke-width="1.5" stroke-linecap="round" stroke-miterlimit="10" stroke-dasharray="0,4.9418" x1="298.698" y1="143.181" x2="98.555" y2="143.181"/>
		
			<line fill="none" stroke="#A4A4A4" stroke-width="1.5" stroke-linecap="round" stroke-miterlimit="10" x1="96.084" y1="143.181" x2="96.084" y2="143.181"/>
		
			<line fill="none" stroke="#A4A4A4" stroke-width="1.5" stroke-linecap="round" stroke-miterlimit="10" stroke-dasharray="0,4.9418" x1="101.026" y1="143.181" x2="301.169" y2="143.181"/>
	</g>
</g>
<circle fill="#8870B1" cx="18.52" cy="73.629" r="18.52"/>
<path fill="#F3B93F" d="M224.972,142.032c0,13.868-11.242,25.11-25.112,25.11c-13.866,0-25.107-11.242-25.107-25.11
	c0-13.866,11.241-25.108,25.107-25.108C213.729,116.924,224.972,128.166,224.972,142.032z"/>
<g>
	<path fill="#FFFFFF" d="M196.977,148.962l-2.214,0.356c-0.621,0.104-1.225-0.045-1.715-0.403c-0.486-0.354-0.821-0.903-0.914-1.505
		l-0.189-1.294l-3.85,3.847c-0.193,0.191-0.261,0.474-0.179,0.732c0.082,0.262,0.295,0.454,0.563,0.505l2.443,0.455l0.458,2.445
		c0.048,0.266,0.241,0.484,0.501,0.564c0.26,0.081,0.542,0.01,0.734-0.182l5.024-5.023l-0.372-0.374
		C197.193,149.006,197.086,148.962,196.977,148.962z"/>
	<path fill="#FFFFFF" d="M203.996,148.064l2.146,0.352c0.358,0.06,0.727-0.023,1.021-0.243c0.295-0.215,0.488-0.537,0.548-0.895
		l0.318-2.144c0.07-0.434,0.337-0.802,0.727-0.998l1.945-0.972c0.324-0.162,0.567-0.449,0.682-0.792
		c0.112-0.352,0.077-0.728-0.089-1.05l-0.997-1.931c-0.2-0.385-0.2-0.84,0-1.225l0.997-1.93c0.166-0.325,0.201-0.699,0.089-1.05
		c-0.114-0.34-0.357-0.629-0.682-0.792l-1.945-0.971c-0.39-0.196-0.656-0.568-0.727-0.993l-0.318-2.149
		c-0.06-0.359-0.253-0.684-0.548-0.896c-0.294-0.212-0.662-0.304-1.021-0.243l-2.146,0.354c-0.425,0.073-0.86-0.069-1.163-0.381
		l-1.529-1.546c-0.246-0.247-0.576-0.393-0.926-0.402c-0.349,0.011-0.682,0.155-0.928,0.402l-1.53,1.546
		c-0.3,0.312-0.737,0.454-1.163,0.381l-2.144-0.354c-0.357-0.062-0.729,0.03-1.021,0.243c-0.295,0.212-0.492,0.537-0.551,0.896
		l-0.318,2.149c-0.068,0.424-0.336,0.796-0.725,0.993l-1.944,0.971c-0.324,0.163-0.568,0.452-0.68,0.792
		c-0.114,0.352-0.082,0.726,0.085,1.05l0.998,1.93c0.202,0.384,0.202,0.839,0,1.225l-0.998,1.931c-0.167,0.322-0.2,0.698-0.085,1.05
		c0.112,0.343,0.356,0.63,0.68,0.792l1.944,0.972c0.389,0.196,0.656,0.564,0.725,0.998l0.324,2.144
		c0.053,0.357,0.25,0.68,0.545,0.895c0.291,0.22,0.663,0.303,1.021,0.243l2.144-0.352c0.426-0.074,0.863,0.072,1.169,0.378
		l1.524,1.548c0.25,0.248,0.579,0.392,0.928,0.401c0.35-0.01,0.678-0.153,0.926-0.401l1.527-1.548
		C203.136,148.136,203.571,147.99,203.996,148.064z M200.378,146.85c-4.545-0.023-8.232-3.726-8.232-8.272
		c0-4.549,3.688-8.256,8.232-8.275c4.541,0.019,8.232,3.726,8.232,8.275C208.61,143.125,204.919,146.827,200.378,146.85z"/>
	<path fill="#FFFFFF" d="M212.66,149.963l-3.853-3.847l-0.188,1.294c-0.092,0.602-0.426,1.15-0.912,1.505
		c-0.491,0.358-1.093,0.508-1.716,0.403l-2.215-0.356c-0.106,0-0.215,0.044-0.293,0.124l-0.369,0.374l5.025,5.023
		c0.191,0.191,0.475,0.263,0.735,0.182c0.257-0.08,0.452-0.299,0.499-0.564l0.457-2.445l2.443-0.455
		c0.27-0.051,0.482-0.243,0.563-0.505C212.919,150.437,212.852,150.155,212.66,149.963z"/>
	<path fill="#FFFFFF" d="M200.378,131.495c-3.883,0.027-7.03,3.184-7.03,7.069c0,3.884,3.147,7.043,7.03,7.07
		c3.881-0.023,7.03-3.187,7.03-7.07C207.408,134.679,204.259,131.522,200.378,131.495z M203.765,143.293l-3.387-1.779l-3.385,1.779
		l0.646-3.768l-2.74-2.67l3.785-0.55l1.693-3.429l1.693,3.429l3.785,0.55l-2.74,2.67L203.765,143.293z"/>
</g>
<g>
	<g>
		
			<line fill="none" stroke="#A4A4A4" stroke-width="1.5" stroke-linecap="round" stroke-miterlimit="10" x1="193.555" y1="243.959" x2="193.555" y2="243.959"/>
		
			<line fill="none" stroke="#A4A4A4" stroke-width="1.5" stroke-linecap="round" stroke-miterlimit="10" stroke-dasharray="0,4.9439" x1="190.059" y1="240.463" x2="100.914" y2="151.32"/>
		
			<line fill="none" stroke="#A4A4A4" stroke-width="1.5" stroke-linecap="round" stroke-miterlimit="10" x1="99.166" y1="149.572" x2="99.166" y2="149.572"/>
		
			<line fill="none" stroke="#A4A4A4" stroke-width="1.5" stroke-linecap="round" stroke-miterlimit="10" stroke-dasharray="0,4.9439" x1="102.662" y1="153.068" x2="191.807" y2="242.211"/>
	</g>
</g>
<g>
	<g>
		
			<line fill="none" stroke="#A4A4A4" stroke-width="1.5" stroke-linecap="round" stroke-miterlimit="10" x1="205.169" y1="244.795" x2="205.169" y2="244.795"/>
		
			<line fill="none" stroke="#A4A4A4" stroke-width="1.5" stroke-linecap="round" stroke-miterlimit="10" stroke-dasharray="0,4.9439" x1="208.664" y1="241.299" x2="297.811" y2="152.156"/>
		
			<line fill="none" stroke="#A4A4A4" stroke-width="1.5" stroke-linecap="round" stroke-miterlimit="10" x1="299.559" y1="150.408" x2="299.559" y2="150.408"/>
		
			<line fill="none" stroke="#A4A4A4" stroke-width="1.5" stroke-linecap="round" stroke-miterlimit="10" stroke-dasharray="0,4.9439" x1="296.063" y1="153.904" x2="206.916" y2="243.047"/>
	</g>
</g>
<circle fill="#EDEDEF" cx="200.375" cy="246.7" r="24.877"/>
<path fill="#A5A5A5" d="M200.374,221.823c-13.737,0-24.876,11.137-24.876,24.877c0,13.739,11.139,24.877,24.876,24.877
	c13.741,0,24.879-11.138,24.879-24.877C225.253,232.959,214.115,221.823,200.374,221.823z M200.374,268.467
	c-12.001,0-21.767-9.767-21.767-21.768c0-12.003,9.766-21.768,21.767-21.768c12.005,0,21.771,9.765,21.771,21.768
	C222.145,258.701,212.379,268.467,200.374,268.467z"/>
<path fill="#A5A5A5" d="M212.88,255.968l-2.856-6.437c-0.132-0.295-0.36-0.538-0.646-0.687l-4.434-2.308
	c-0.098-0.052-0.215-0.041-0.305,0.024c-1.254,0.949-2.729,1.449-4.264,1.449s-3.01-0.5-4.262-1.449
	c-0.09-0.065-0.209-0.076-0.307-0.024l-4.432,2.308c-0.286,0.148-0.515,0.392-0.646,0.687l-2.856,6.437
	c-0.197,0.444-0.158,0.951,0.108,1.356c0.265,0.408,0.711,0.649,1.197,0.649h3.124c1.035,1.432,3.998,2.468,7.492,2.468
	c3.496,0,6.457-1.036,7.493-2.468h4.287c0.484,0,0.935-0.241,1.197-0.649C213.035,256.919,213.078,256.413,212.88,255.968z"/>
<path fill="#A5A5A5" d="M200.376,246.213c3.128,0,5.663-2.968,5.663-6.628c0-5.075-2.535-6.628-5.663-6.628
	c-3.127,0-5.662,1.553-5.662,6.628C194.714,243.246,197.249,246.213,200.376,246.213L200.376,246.213z M200.376,246.213"/>
<g>
	<g>
		
			<line fill="none" stroke="#A4A4A4" stroke-width="1.5" stroke-linecap="round" stroke-miterlimit="10" x1="205.668" y1="42.325" x2="205.668" y2="42.325"/>
		
			<line fill="none" stroke="#A4A4A4" stroke-width="1.5" stroke-linecap="round" stroke-miterlimit="10" stroke-dasharray="0,4.9439" x1="209.164" y1="45.82" x2="298.31" y2="134.964"/>
		
			<line fill="none" stroke="#A4A4A4" stroke-width="1.5" stroke-linecap="round" stroke-miterlimit="10" x1="300.058" y1="136.712" x2="300.058" y2="136.712"/>
		
			<line fill="none" stroke="#A4A4A4" stroke-width="1.5" stroke-linecap="round" stroke-miterlimit="10" stroke-dasharray="0,4.9439" x1="296.562" y1="133.216" x2="207.416" y2="44.073"/>
	</g>
</g>
<g>
	<g>
		
			<line fill="none" stroke="#A4A4A4" stroke-width="1.5" stroke-linecap="round" stroke-miterlimit="10" x1="194.054" y1="41.488" x2="194.054" y2="41.488"/>
		
			<line fill="none" stroke="#A4A4A4" stroke-width="1.5" stroke-linecap="round" stroke-miterlimit="10" stroke-dasharray="0,4.9439" x1="190.557" y1="44.984" x2="101.412" y2="134.128"/>
		
			<line fill="none" stroke="#A4A4A4" stroke-width="1.5" stroke-linecap="round" stroke-miterlimit="10" x1="99.664" y1="135.876" x2="99.664" y2="135.876"/>
		
			<line fill="none" stroke="#A4A4A4" stroke-width="1.5" stroke-linecap="round" stroke-miterlimit="10" stroke-dasharray="0,4.9439" x1="103.16" y1="132.38" x2="192.306" y2="43.236"/>
	</g>
</g>
<circle fill="#EDEDEF" cx="303.639" cy="144.624" r="24.877"/>
<path fill="#A5A5A5" d="M303.638,119.746c-13.739,0-24.876,11.138-24.876,24.877c0,13.74,11.137,24.878,24.876,24.878
	s24.878-11.138,24.878-24.878C328.516,130.884,317.377,119.746,303.638,119.746z M303.638,166.393
	c-12.002,0-21.768-9.767-21.768-21.77c0-12.002,9.766-21.767,21.768-21.767c12.004,0,21.77,9.765,21.77,21.767
	C325.407,156.626,315.642,166.393,303.638,166.393z"/>
<path fill="#A5A5A5" d="M303.64,144.138c3.127,0,5.661-2.968,5.661-6.628c0-5.077-2.534-6.627-5.661-6.627s-5.662,1.55-5.662,6.627
	C297.978,141.17,300.513,144.138,303.64,144.138L303.64,144.138z M303.64,144.138"/>
<path fill="#A5A5A5" d="M316.142,153.891l-2.854-6.437c-0.132-0.293-0.361-0.539-0.647-0.685l-4.432-2.309
	c-0.099-0.052-0.216-0.042-0.307,0.025c-1.252,0.947-2.727,1.448-4.262,1.448s-3.012-0.501-4.264-1.448
	c-0.089-0.067-0.207-0.077-0.304-0.025l-4.434,2.309c-0.287,0.146-0.514,0.392-0.646,0.685l-2.856,6.437
	c-0.197,0.443-0.157,0.952,0.109,1.357c0.265,0.409,0.709,0.65,1.197,0.65h3.123c1.036,1.433,3.995,2.467,7.491,2.467
	c3.497,0,6.458-1.034,7.494-2.467h4.286c0.484,0,0.935-0.241,1.198-0.65C316.299,154.843,316.341,154.334,316.142,153.891z"/>
<circle fill="#EDEDEF" cx="96.084" cy="142.796" r="24.877"/>
<path fill="#A5A5A5" d="M96.083,117.92c-13.738,0-24.876,11.137-24.876,24.876c0,13.74,11.138,24.879,24.876,24.879
	c13.74,0,24.879-11.139,24.879-24.879C120.962,129.057,109.823,117.92,96.083,117.92z M96.083,164.565
	c-12.002,0-21.769-9.766-21.769-21.769c0-12.001,9.767-21.767,21.769-21.767c12.004,0,21.77,9.765,21.77,21.767
	C117.853,154.799,108.087,164.565,96.083,164.565z"/>
<path fill="#A5A5A5" d="M96.085,142.311c3.127,0,5.662-2.969,5.662-6.628c0-5.075-2.535-6.628-5.662-6.628
	c-3.128,0-5.664,1.553-5.664,6.628C90.421,139.342,92.957,142.311,96.085,142.311L96.085,142.311z M96.085,142.311"/>
<path fill="#A5A5A5" d="M108.588,152.065l-2.855-6.436c-0.132-0.294-0.361-0.538-0.647-0.688l-4.433-2.308
	c-0.098-0.05-0.217-0.041-0.305,0.025c-1.253,0.949-2.729,1.449-4.263,1.449c-1.535,0-3.012-0.5-4.264-1.449
	c-0.089-0.066-0.208-0.075-0.304-0.025l-4.434,2.308c-0.286,0.149-0.515,0.394-0.646,0.688l-2.856,6.436
	c-0.196,0.445-0.158,0.952,0.109,1.357c0.263,0.409,0.71,0.649,1.197,0.649h3.122c1.036,1.433,3.997,2.468,7.493,2.468
	c3.497,0,6.458-1.035,7.493-2.468h4.288c0.484,0,0.934-0.24,1.196-0.649C108.744,153.017,108.785,152.51,108.588,152.065z"/>
<circle fill="#1F96D3" cx="200.376" cy="38.203" r="25.11"/>
<path fill="#FFFFFF" d="M200.376,37.192c3.247,0,5.879-3.082,5.879-6.881c0-5.271-2.632-6.883-5.879-6.883s-5.879,1.612-5.879,6.883
	C194.497,34.11,197.129,37.192,200.376,37.192L200.376,37.192z M200.376,37.192"/>
<path fill="#FFFFFF" d="M213.358,47.321l-2.965-6.682c-0.136-0.306-0.374-0.56-0.671-0.714l-4.604-2.396
	c-0.101-0.053-0.226-0.043-0.315,0.027c-1.302,0.984-2.834,1.505-4.428,1.505c-1.595,0-3.125-0.521-4.428-1.505
	c-0.09-0.07-0.215-0.08-0.316-0.027l-4.604,2.396c-0.297,0.154-0.534,0.408-0.668,0.714l-2.968,6.682
	c-0.203,0.46-0.162,0.987,0.114,1.41c0.273,0.422,0.738,0.674,1.243,0.674h3.243c1.076,1.487,4.15,2.562,7.78,2.562
	s6.705-1.075,7.781-2.562h4.451c0.503,0,0.969-0.252,1.243-0.674C213.521,48.308,213.563,47.781,213.358,47.321z M201.313,49.177
	l-0.937,1.477l-0.938-1.477l-0.938-1.477l1.875-7.887l1.873,7.887L201.313,49.177z"/>
<path fill="#FFFFFF" d="M18.52,65.714c-5.159,0-9.342,3.213-9.342,7.187c0,1.944,1.01,3.714,2.645,5.006
	c-0.098,1.319-0.415,2.935-1.333,3.804c1.833,0,3.7-1.145,4.885-2.043c0.983,0.274,2.044,0.423,3.145,0.423
	c5.161,0,9.343-3.224,9.343-7.19C27.863,68.927,23.681,65.714,18.52,65.714z M13.363,69.418h6.386v2.043h-6.386V69.418z
	 M24.646,75.548H13.363v-2.043h11.283V75.548z"/>
<path fill="#E64C3B" d="M37.04,122.112c0,10.23-8.29,18.521-18.52,18.521C8.292,140.633,0,132.342,0,122.112
	c0-10.226,8.292-18.52,18.52-18.52C28.75,103.592,37.04,111.886,37.04,122.112z"/>
<path fill="#FFFFFF" d="M27.688,121.864l-2.158-2.159c-0.025-0.025-0.253-0.245-0.57-0.245c-0.188,0-0.367,0.08-0.517,0.23
	l-4.838,4.838c-0.604,0.604-1.406,0.936-2.26,0.936c-0.853,0-1.656-0.332-2.26-0.936c-0.603-0.604-0.936-1.406-0.936-2.261
	c0-0.853,0.333-1.656,0.936-2.26l4.758-4.756c0.31-0.311,0.319-0.605,0.272-0.799c-0.049-0.207-0.175-0.336-0.189-0.351
	l-2.177-2.176c-0.181-0.182-0.347-0.267-0.519-0.267c-0.242,0-0.411,0.168-0.573,0.33l-5.305,5.306
	c-3.024,3.024-3.024,7.944,0,10.967c1.465,1.465,3.412,2.271,5.483,2.271c2.072,0,4.02-0.806,5.483-2.271l5.306-5.305
	c0.14-0.139,0.27-0.271,0.315-0.449C28.019,122.196,27.77,121.946,27.688,121.864L27.688,121.864z M15.928,113.651l0.772-0.772
	c0.244-0.243,0.597-0.416,0.947-0.064l1.481,1.481c0,0,0.37,0.37-0.083,0.823l-0.958,0.958c-0.373,0.374-0.76-0.015-0.76-0.015
	l-1.463-1.463C15.513,114.248,15.685,113.895,15.928,113.651L15.928,113.651z M26.736,122.914l-0.773,0.772
	c-0.242,0.244-0.595,0.415-0.946,0.065l-1.481-1.482c0,0-0.369-0.369,0.084-0.822l0.957-0.958c0.373-0.373,0.76,0.015,0.76,0.015
	l1.464,1.463C27.15,122.317,26.979,122.67,26.736,122.914L26.736,122.914z M26.736,122.914"/>
<circle fill="#1F96D3" cx="18.52" cy="171.057" r="18.52"/>
<g>
	<path fill="#FFFFFF" d="M7.429,168.942v-1.787l9.99,4.967l1.741-0.886c-0.002-0.037-0.013-0.073-0.013-0.109
		c0-0.519,0.201-1.008,0.566-1.375l0.631-0.63c0.371-0.371,0.86-0.572,1.377-0.572c0.318,0,0.626,0.076,0.902,0.222
		c0.248-0.789,0.988-1.363,1.857-1.363h0.888c0.318,0,0.619,0.078,0.884,0.215l1.875-0.957l-10.71-4.548l-10.972,4.548l0.791,0.396
		v1.881c-0.215,0.045-0.382,0.226-0.382,0.458c0,0.115,0.046,0.219,0.117,0.303c-0.002,0.013-0.006,0.02-0.006,0.03v0.891
		c0,0.205,0.164,0.368,0.365,0.368c0.204,0,0.368-0.163,0.368-0.368v-0.891c0-0.011-0.005-0.021-0.006-0.031
		c0.069-0.084,0.117-0.187,0.117-0.302C7.811,169.167,7.646,168.988,7.429,168.942z"/>
	<path fill="#FFFFFF" d="M18.002,174.774v-0.888c0-0.069,0.01-0.137,0.017-0.203l-0.585,0.313l-6.692-3.664l-0.555,3.128
		c0-0.005,0.007-0.008,0.01-0.014c-0.08,0.119-0.122,0.245-0.122,0.369c0,1.104,5.711,4.51,7.425,4.51
		c0.39,0,0.99-0.181,1.677-0.465c-0.019-0.108-0.032-0.217-0.032-0.329c0-0.32,0.077-0.626,0.221-0.9
		C18.576,176.382,18.002,175.645,18.002,174.774z"/>
	<path fill="#FFFFFF" d="M29.901,173.193h-0.542c-0.148,0-0.32-0.134-0.375-0.29c-0.051-0.147-0.112-0.291-0.181-0.434
		c-0.072-0.146-0.046-0.362,0.059-0.465l0.385-0.387c0.273-0.271,0.273-0.712,0-0.982l-0.625-0.628
		c-0.132-0.13-0.306-0.201-0.493-0.201c-0.184,0-0.359,0.071-0.491,0.201l-0.385,0.386c-0.063,0.063-0.166,0.1-0.277,0.1
		c-0.068,0-0.134-0.014-0.19-0.04c-0.141-0.067-0.287-0.129-0.431-0.181c-0.16-0.056-0.292-0.228-0.292-0.374v-0.542
		c0-0.386-0.309-0.695-0.692-0.695h-0.888c-0.383,0-0.694,0.31-0.694,0.695v0.542c0,0.146-0.132,0.318-0.291,0.374
		c-0.146,0.052-0.29,0.111-0.432,0.181c-0.055,0.026-0.122,0.04-0.19,0.04c-0.112,0-0.214-0.036-0.277-0.1l-0.385-0.386
		c-0.132-0.13-0.308-0.205-0.491-0.205c-0.187,0-0.361,0.075-0.491,0.205l-0.628,0.629c-0.13,0.131-0.203,0.303-0.203,0.49
		c0,0.184,0.072,0.358,0.203,0.491l0.385,0.387c0.106,0.103,0.134,0.318,0.059,0.465c-0.066,0.143-0.128,0.286-0.178,0.434
		c-0.058,0.156-0.23,0.29-0.376,0.29H19.95c-0.383,0-0.695,0.31-0.695,0.693v0.888c0,0.384,0.312,0.693,0.695,0.693h0.542
		c0.146,0,0.318,0.132,0.376,0.29c0.05,0.146,0.111,0.291,0.178,0.433c0.075,0.148,0.047,0.362-0.059,0.468l-0.385,0.386
		c-0.271,0.27-0.271,0.711,0,0.98l0.628,0.63c0.131,0.131,0.305,0.202,0.491,0.202c0.184,0,0.359-0.071,0.491-0.202l0.386-0.387
		c0.062-0.063,0.167-0.101,0.276-0.101c0.071,0,0.135,0.016,0.191,0.041c0.141,0.068,0.285,0.131,0.431,0.181
		c0.159,0.056,0.291,0.227,0.291,0.374v0.541c0,0.384,0.311,0.695,0.694,0.695h0.888c0.383,0,0.694-0.312,0.694-0.695v-0.541
		c0-0.147,0.131-0.318,0.291-0.374c0.145-0.05,0.29-0.112,0.431-0.181c0.055-0.025,0.122-0.041,0.19-0.041
		c0.111,0,0.215,0.037,0.277,0.101l0.386,0.387c0.131,0.131,0.307,0.202,0.49,0.202c0.187,0,0.36-0.071,0.493-0.202l0.626-0.63
		c0.271-0.27,0.271-0.711,0-0.98l-0.386-0.385c-0.104-0.105-0.131-0.32-0.059-0.469c0.069-0.142,0.129-0.286,0.18-0.433
		c0.055-0.157,0.227-0.29,0.375-0.29h0.542c0.382,0,0.694-0.31,0.694-0.693v-0.888C30.593,173.502,30.282,173.193,29.901,173.193z
		 M24.924,176.365c-1.123,0-2.034-0.912-2.034-2.035c0-1.121,0.912-2.036,2.034-2.036c1.123,0,2.034,0.913,2.034,2.036
		S26.047,176.365,24.924,176.365z"/>
</g>
<circle fill="#41AA74" cx="18.52" cy="218.602" r="18.52"/>
<g>
	<path fill="#FFFFFF" d="M18.453,208.386c-5.633,0-10.217,4.582-10.217,10.216s4.583,10.218,10.217,10.218
		c5.634,0,10.218-4.584,10.218-10.218S24.087,208.386,18.453,208.386z M18.453,227.326c-4.81,0-8.723-3.912-8.723-8.724
		c0-4.811,3.914-8.723,8.723-8.723c4.81,0,8.724,3.912,8.724,8.723C27.177,223.414,23.263,227.326,18.453,227.326z"/>
	<path fill="#FFFFFF" d="M18.453,211.042c-4.167,0-7.56,3.393-7.561,7.562v0.21h1.495v-0.21c0-3.347,2.721-6.066,6.066-6.066
		s6.067,2.72,6.068,6.066v0.21h1.493v-0.21C26.014,214.434,22.623,211.042,18.453,211.042z"/>
	<path fill="#FFFFFF" d="M18,217.426v-0.003c-0.672-0.003-1.22,0.542-1.224,1.218c-0.004,0.674,0.539,1.225,1.212,1.229v-0.004
		l2.378-0.597l2.38-0.599l-2.373-0.623L18,217.426z"/>
</g>
<rect x="25.144" y="224.588" transform="matrix(0.7072 -0.707 0.707 0.7072 -153.0986 85.0177)" fill="#FFFFFF" width="1.916" height="5.549"/>
<g>
</g>
<g>
</g>
<g>
</g>
<g>
</g>
<g>
</g>
<g>
</g>
</svg>
