<?xml version="1.0" encoding="utf-8"?>
<!-- Generator: Adobe Illustrator 16.0.0, SVG Export Plug-In . SVG Version: 6.00 Build 0)  -->
<!DOCTYPE svg PUBLIC "-//W3C//DTD SVG 1.1//EN" "http://www.w3.org/Graphics/SVG/1.1/DTD/svg11.dtd">
<svg version="1.1" id="Layer_1" xmlns="http://www.w3.org/2000/svg" xmlns:xlink="http://www.w3.org/1999/xlink" x="0px" y="0px"
	 width="337.542px" height="314.539px" viewBox="0 0 337.542 314.539" enable-background="new 0 0 337.542 314.539"
	 xml:space="preserve">
<path opacity="0.25" fill="#A5A5A5" d="M172.635,16.592c-71.763,0-130.146,58.382-130.146,130.145
	c0,71.762,58.383,130.145,130.146,130.145c71.764,0,130.144-58.383,130.144-130.145C302.779,74.974,244.399,16.592,172.635,16.592z
	 M172.635,276.021c-71.288,0-129.288-57.998-129.288-129.285c0-71.288,58-129.286,129.288-129.286
	c71.289,0,129.288,57.998,129.288,129.286C301.923,218.023,243.924,276.021,172.635,276.021z"/>
<path opacity="0.15" fill="#A5A5A5" d="M172.209,253.359c-58.988,0-106.975-47.99-106.975-106.975
	c0-58.985,47.986-106.975,106.975-106.975s106.979,47.989,106.979,106.975C279.188,205.369,231.198,253.359,172.209,253.359z"/>
<circle opacity="0.2" fill="#A5A5A5" cx="172.281" cy="146.314" r="83.377"/>
<rect x="25.945" y="145.253" opacity="0.25" fill="#A5A5A5" width="293.471" height="1.132"/>
<rect x="171.645" opacity="0.25" fill="#A5A5A5" width="1.131" height="293.473"/>
<path fill="#FFFFFF" d="M172.209,206.303c-33.036,0-59.918-26.879-59.918-59.918c0-33.04,26.882-59.918,59.918-59.918
	c33.044,0,59.923,26.878,59.923,59.918C232.132,179.424,205.253,206.303,172.209,206.303z"/>
<path fill="#41AA73" d="M172.068,86.096c-33.022,0-59.887,26.867-59.887,59.889s26.865,59.881,59.887,59.881
	c33.013,0,59.878-26.859,59.878-59.881S205.081,86.096,172.068,86.096z M124.933,161.756c-1.67-4.966-2.607-10.256-2.607-15.771
	c0-27.416,22.317-49.734,49.742-49.734c17.075,0,32.158,8.662,41.122,21.809l-31.801,33.093L162.227,131.3
	c-1.086-1.13-2.605-1.77-4.201-1.77c-1.57,0-3.104,0.659-4.204,1.81L124.933,161.756z M221.801,145.984
	c0,27.424-22.309,49.736-49.733,49.736c-17.493,0-32.879-9.105-41.743-22.791c0.082-0.068,0.165-0.119,0.245-0.203l27.506-28.973
	l19.133,19.828c1.087,1.135,2.624,1.787,4.2,1.787c1.57,0,3.106-0.662,4.193-1.813l33.165-34.506
	C220.702,134.344,221.801,140.029,221.801,145.984z"/>
<path fill="#FFFFFF" d="M172.063,123.051c-15.675,0-28.428-12.752-28.428-28.428c0-15.674,12.752-28.427,28.428-28.427
	c15.676,0,28.429,12.753,28.429,28.427C200.492,110.299,187.739,123.051,172.063,123.051z"/>
<circle fill="#1F99D5" cx="172.063" cy="94.623" r="23.428"/>
<g>
	<path fill="#FFFFFF" d="M158.88,92.912v-2.39l13.358,6.644l14.323-7.297l-14.323-6.084l-14.673,6.084l1.058,0.527v2.516
		c-0.287,0.06-0.511,0.305-0.511,0.611c0,0.156,0.063,0.296,0.157,0.407c-0.002,0.016-0.009,0.026-0.009,0.04v1.191
		c0,0.273,0.219,0.492,0.489,0.492c0.271,0,0.492-0.219,0.492-0.492v-1.191c0-0.014-0.008-0.026-0.008-0.041
		c0.092-0.111,0.155-0.25,0.155-0.406C159.39,93.217,159.171,92.973,158.88,92.912z"/>
	<path fill="#FFFFFF" d="M181.382,94.773l-9.124,4.898l-8.949-4.898l-0.742,4.181c0-0.005,0.01-0.009,0.016-0.018
		c-0.107,0.159-0.164,0.327-0.164,0.493c0,1.477,7.638,6.032,9.93,6.032c2.296,0,9.929-4.55,9.929-6.032
		c0-0.158-0.057-0.314-0.147-0.785L181.382,94.773z"/>
</g>
<g>
	<path fill="#F5BB41" d="M36.251,62.937c0,10.011-8.115,18.126-18.126,18.126S0,72.947,0,62.937
		c0-10.008,8.114-18.124,18.125-18.124S36.251,52.929,36.251,62.937z"/>
	<path fill="#FFFFFF" d="M18.125,62.411c2.398,0,4.342-2.275,4.342-5.081c0-3.892-1.943-5.081-4.342-5.081
		c-2.397,0-4.341,1.189-4.341,5.081C13.784,60.136,15.728,62.411,18.125,62.411z"/>
	<path fill="#FFFFFF" d="M18.518,72.47c-1.22-1.222-1.892-2.844-1.892-4.568c0-1.521,0.522-2.96,1.48-4.113
		c-1.169-0.004-2.294-0.387-3.248-1.109c-0.068-0.051-0.16-0.059-0.234-0.021l-3.398,1.771c-0.22,0.114-0.395,0.301-0.495,0.527
		l-2.189,4.933c-0.15,0.341-0.121,0.729,0.083,1.041c0.202,0.313,0.546,0.498,0.919,0.498h2.393
		c0.795,1.097,3.063,1.891,5.744,1.891c0.599,0,1.172-0.045,1.717-0.119C19.087,72.983,18.791,72.742,18.518,72.47z"/>
	<path fill="#FFFFFF" d="M29.579,73.256l-2.472-2.471c0.602-0.836,0.931-1.832,0.931-2.884c0-1.324-0.515-2.566-1.451-3.504
		c-0.936-0.936-2.181-1.453-3.505-1.453c-1.323,0-2.568,0.516-3.504,1.453c-0.938,0.935-1.452,2.18-1.452,3.504
		c0,1.323,0.515,2.568,1.452,3.507c0.936,0.935,2.181,1.449,3.504,1.449c1.051,0,2.048-0.328,2.882-0.929l2.472,2.47
		c0.159,0.157,0.364,0.236,0.571,0.236c0.208,0,0.414-0.079,0.572-0.236C29.895,74.082,29.895,73.572,29.579,73.256L29.579,73.256z
		 M20.721,70.263c-0.632-0.631-0.979-1.47-0.979-2.361s0.347-1.73,0.979-2.361c0.631-0.632,1.47-0.979,2.361-0.979
		c0.893,0,1.73,0.347,2.362,0.979c0.631,0.631,0.979,1.47,0.979,2.361s-0.348,1.73-0.979,2.361c-0.632,0.631-1.47,0.979-2.362,0.979
		C22.188,71.241,21.35,70.894,20.721,70.263L20.721,70.263z M20.721,70.263"/>
</g>
<g>
	<circle fill="#1F99D5" cx="279.884" cy="21.592" r="18.125"/>
	<g>
		<path fill="#FFFFFF" d="M282.762,11.145h-8.389c-1.226,0-2.225,1-2.225,2.225v8.223h-0.006v7.225h0.006v0.998
			c0,1.225,0.999,2.223,2.225,2.223h11.447c1.225,0,2.224-0.998,2.224-2.223V16.408L282.762,11.145z M285.821,30.678h-11.447
			c-0.477,0-0.862-0.389-0.862-0.863v-0.463v-0.535V13.369c0-0.475,0.386-0.861,0.862-0.861l7.882-0.008v2.916
			c0,0.848,0.688,1.539,1.54,1.539l2.854-0.008l0.029,12.867C286.679,30.289,286.296,30.678,285.821,30.678z"/>
		<path fill="#FFFFFF" d="M280.093,20.395v-1.359h-4.622c-0.017,0-0.031-0.02-0.049-0.023v1.371
			c0.018,0.004,0.032,0.012,0.049,0.012H280.093z"/>
		<path fill="#FFFFFF" d="M275.422,22.494v1.371c0.033,0.004,0.064,0.012,0.099,0.012h9.243v-1.359h-9.243
			C275.485,22.518,275.456,22.498,275.422,22.494z"/>
		<path fill="#FFFFFF" d="M275.422,25.977v1.371c0.032,0.004,0.064,0.012,0.099,0.012h9.243V26h-9.243
			C275.487,26,275.455,25.98,275.422,25.977z"/>
	</g>
</g>
<circle fill="#A5A5A5" cx="319.417" cy="253.359" r="18.125"/>
<path fill="#FFFFFF" d="M317.142,262.982c0-0.107,0.006-0.213,0.019-0.316c-0.083-0.064-0.15-0.146-0.225-0.221h-3.029
	c-0.477,0-0.862-0.387-0.862-0.863v-0.463v-0.533v-15.449c0-0.473,0.386-0.859,0.862-0.859l7.882-0.01v2.916
	c0,0.85,0.688,1.541,1.54,1.541l2.854-0.008l0.013,5.701c0.519,0.09,0.998,0.328,1.381,0.703l0.001,0.002v-6.947l-5.282-5.262
	h-8.389c-1.226,0-2.225,0.998-2.225,2.223v8.223h-0.006v7.227h0.006v0.996c0,1.227,0.999,2.225,2.225,2.225h3.379
	C317.198,263.543,317.142,263.27,317.142,262.982z"/>
<path fill="#FFFFFF" d="M327.268,259.271h-0.464c-0.126,0-0.272-0.113-0.32-0.248c-0.044-0.123-0.096-0.248-0.154-0.369
	c-0.062-0.127-0.039-0.311,0.05-0.398l0.33-0.332c0.233-0.23,0.233-0.607,0-0.84l-0.535-0.535c-0.113-0.111-0.262-0.174-0.422-0.174
	c-0.156,0-0.307,0.063-0.419,0.174l-0.33,0.328c-0.054,0.057-0.142,0.086-0.237,0.086c-0.058,0-0.115-0.012-0.162-0.033
	c-0.121-0.059-0.246-0.111-0.369-0.154c-0.137-0.049-0.249-0.195-0.249-0.32v-0.465c0-0.328-0.265-0.594-0.593-0.594h-0.76
	c-0.328,0-0.593,0.266-0.593,0.594v0.465c0,0.125-0.114,0.271-0.25,0.32c-0.124,0.043-0.247,0.094-0.368,0.154
	c-0.047,0.021-0.104,0.033-0.163,0.033c-0.096,0-0.183-0.029-0.236-0.086l-0.33-0.328c-0.111-0.111-0.263-0.176-0.419-0.176
	c-0.16,0-0.309,0.064-0.421,0.176l-0.537,0.537c-0.111,0.111-0.173,0.26-0.173,0.42c0,0.156,0.062,0.307,0.173,0.418l0.33,0.332
	c0.09,0.088,0.113,0.271,0.051,0.398c-0.058,0.121-0.11,0.246-0.153,0.369c-0.049,0.135-0.195,0.248-0.321,0.248h-0.464
	c-0.328,0-0.594,0.268-0.594,0.594v0.76c0,0.328,0.266,0.592,0.594,0.592h0.464c0.126,0,0.272,0.113,0.321,0.25
	c0.043,0.125,0.096,0.248,0.153,0.367c0.063,0.129,0.039,0.313-0.051,0.402l-0.33,0.33c-0.232,0.23-0.232,0.607,0,0.838l0.537,0.539
	c0.113,0.111,0.261,0.174,0.421,0.174c0.156,0,0.308-0.063,0.419-0.174l0.331-0.332c0.053-0.053,0.143-0.086,0.235-0.086
	c0.062,0,0.116,0.014,0.164,0.035c0.12,0.061,0.243,0.111,0.368,0.156c0.135,0.047,0.249,0.193,0.249,0.318v0.463
	c0,0.33,0.265,0.596,0.593,0.596h0.76c0.328,0,0.593-0.266,0.593-0.596v-0.463c0-0.125,0.112-0.271,0.249-0.318
	c0.123-0.045,0.248-0.096,0.369-0.156c0.047-0.021,0.104-0.035,0.162-0.035c0.096,0,0.184,0.033,0.237,0.086l0.331,0.332
	c0.111,0.111,0.262,0.174,0.418,0.174c0.16,0,0.309-0.063,0.422-0.174l0.536-0.539c0.232-0.23,0.232-0.607,0-0.838l-0.331-0.33
	c-0.088-0.09-0.111-0.273-0.05-0.4c0.06-0.121,0.11-0.244,0.154-0.369c0.048-0.135,0.194-0.25,0.32-0.25h0.464
	c0.328,0,0.594-0.264,0.594-0.592v-0.76C327.861,259.539,327.594,259.271,327.268,259.271L327.268,259.271z M324.752,260.244
	c0,0.961-0.78,1.742-1.74,1.742s-1.739-0.781-1.739-1.742c0-0.959,0.779-1.74,1.739-1.74S324.752,259.285,324.752,260.244
	L324.752,260.244z M324.752,260.244"/>
<circle fill="#41AA73" cx="109.126" cy="296.414" r="18.125"/>
<path fill="#FFFFFF" d="M118.793,290.752c-1.151,0-2.089,0.938-2.089,2.09c0,0.051,0.006,0.098,0.016,0.146
	c-1.624,1.221-3.218,2.619-4.998,4.385c-0.086,0.086-0.202,0.223-0.34,0.383c-0.355,0.412-1.084,1.262-1.644,1.262
	c-0.014,0-0.027-0.002-0.043-0.002c-0.575-0.453-0.861-1.355-1.113-2.15l-0.167-0.51c-0.354-1.02-0.797-2.191-1.59-3.156
	c-0.415-0.506-0.976-0.773-1.62-0.773c-0.595,0-1.245,0.23-1.831,0.646c-1.264,0.9-2.016,2.139-2.743,3.336
	c-0.311,0.51-0.62,1.021-0.973,1.514c-0.058-0.014-0.127-0.025-0.201-0.025c-1.15,0-2.09,0.938-2.09,2.09s0.939,2.088,2.09,2.088
	c1.151,0,2.089-0.936,2.089-2.088c0-0.271-0.063-0.541-0.193-0.822c0.301-0.438,0.575-0.893,0.847-1.348
	c0.709-1.18,1.376-2.293,2.481-3.078c0.159-0.115,0.293-0.174,0.387-0.174c0.083,0,0.206,0.043,0.434,0.389
	c0.359,0.547,0.594,1.193,0.801,1.766l0.206,0.59c0.294,0.85,0.598,1.729,1.111,2.51c0.576,0.883,1.362,1.369,2.22,1.369
	l0.168-0.006c1.116-0.084,1.967-0.99,2.648-1.721l0.23-0.246c1.617-1.693,3.313-3.205,5.046-4.498
	c0.295,0.143,0.576,0.215,0.861,0.215c1.151,0,2.09-0.938,2.09-2.09S119.944,290.752,118.793,290.752z"/>
<g>
</g>
<g>
</g>
<g>
</g>
<g>
</g>
<g>
</g>
<g>
</g>
</svg>
