<?xml version="1.0" encoding="utf-8"?>
<!-- Generator: Adobe Illustrator 16.0.0, SVG Export Plug-In . SVG Version: 6.00 Build 0)  -->
<!DOCTYPE svg PUBLIC "-//W3C//DTD SVG 1.1//EN" "http://www.w3.org/Graphics/SVG/1.1/DTD/svg11.dtd">
<svg version="1.1" id="Layer_1" xmlns="http://www.w3.org/2000/svg" xmlns:xlink="http://www.w3.org/1999/xlink" x="0px" y="0px"
	 width="383.897px" height="283.966px" viewBox="0 0 383.897 283.966" enable-background="new 0 0 383.897 283.966"
	 xml:space="preserve">
<g>
	<path fill="#EDEDED" d="M383.897,280.966c0,1.65-1.35,3-3,3H13.444c-1.65,0-3-1.35-3-3V3c0-1.65,1.35-3,3-3h367.454
		c1.65,0,3,1.35,3,3V280.966z"/>
</g>
<rect x="26.265" y="33.863" fill="#FFFFFF" width="341.904" height="233.295"/>
<circle fill="#FFFFFF" cx="31.16" cy="21.544" r="5.299"/>
<path fill="#FFFFFF" d="M52.141,21.544c0,2.926-2.37,5.296-5.295,5.296c-2.93,0-5.302-2.371-5.302-5.296
	c0-2.928,2.372-5.297,5.302-5.297C49.771,16.247,52.141,18.616,52.141,21.544z"/>
<circle fill="#FFFFFF" cx="62.133" cy="21.544" r="5.301"/>
<rect x="147.217" y="60.238" fill="#EDEDED" width="99.846" height="103.611"/>
<rect x="48.143" y="69.783" fill="#EDEDED" width="81.452" height="84.522"/>
<rect x="264.967" y="71.254" fill="#EDEDED" width="81.452" height="84.522"/>
<rect x="48.506" y="189.003" fill="#EDEDED" width="139.518" height="56.725"/>
<rect x="206.283" y="189.003" fill="#EDEDED" width="139.518" height="56.725"/>
<path fill="#A5A5A5" d="M201.756,38.565c-58.22,0-105.586,47.364-105.586,105.585c0,58.221,47.366,105.586,105.586,105.586
	c58.221,0,105.585-47.365,105.585-105.586C307.341,85.93,259.977,38.565,201.756,38.565z M201.756,249.039
	c-57.835,0-104.89-47.052-104.89-104.888c0-57.835,47.054-104.889,104.89-104.889c57.836,0,104.892,47.054,104.892,104.889
	C306.647,201.987,259.592,249.039,201.756,249.039z"/>
<g>
	<g>
		
			<line fill="none" stroke="#A5A4A4" stroke-width="1.5" stroke-linecap="round" stroke-miterlimit="10" x1="201.756" y1="249.039" x2="201.756" y2="249.039"/>
		
			<line fill="none" stroke="#A5A4A4" stroke-width="1.5" stroke-linecap="round" stroke-miterlimit="10" stroke-dasharray="0,4.9886" x1="201.756" y1="244.05" x2="201.756" y2="42.011"/>
		
			<line fill="none" stroke="#A5A4A4" stroke-width="1.5" stroke-linecap="round" stroke-miterlimit="10" x1="201.756" y1="39.517" x2="201.756" y2="39.517"/>
		
			<line fill="none" stroke="#A5A4A4" stroke-width="1.5" stroke-linecap="round" stroke-miterlimit="10" stroke-dasharray="0,4.9886" x1="201.756" y1="44.506" x2="201.756" y2="246.544"/>
	</g>
</g>
<g>
	<g>
		
			<line fill="none" stroke="#A5A4A4" stroke-width="1.5" stroke-linecap="round" stroke-miterlimit="10" x1="306.519" y1="144.539" x2="306.519" y2="144.539"/>
		
			<line fill="none" stroke="#A5A4A4" stroke-width="1.5" stroke-linecap="round" stroke-miterlimit="10" stroke-dasharray="0,4.9887" x1="301.53" y1="144.539" x2="99.489" y2="144.539"/>
		
			<line fill="none" stroke="#A5A4A4" stroke-width="1.5" stroke-linecap="round" stroke-miterlimit="10" x1="96.995" y1="144.539" x2="96.995" y2="144.539"/>
		
			<line fill="none" stroke="#A5A4A4" stroke-width="1.5" stroke-linecap="round" stroke-miterlimit="10" stroke-dasharray="0,4.9887" x1="101.984" y1="144.539" x2="304.024" y2="144.539"/>
	</g>
</g>
<circle fill="#8A70B2" cx="18.696" cy="74.328" r="18.696"/>
<circle fill="#F3BA40" cx="201.757" cy="143.378" r="25.348"/>
<g>
	<path fill="#FFFFFF" d="M198.845,150.375l-2.235,0.36c-0.627,0.104-1.236-0.046-1.731-0.407c-0.49-0.358-0.829-0.912-0.922-1.519
		l-0.191-1.308l-3.887,3.884c-0.194,0.193-0.263,0.478-0.18,0.739c0.083,0.265,0.298,0.458,0.569,0.51l2.465,0.46l0.463,2.468
		c0.049,0.268,0.244,0.489,0.506,0.57c0.262,0.082,0.547,0.01,0.741-0.184l5.071-5.071l-0.375-0.378
		C199.063,150.418,198.954,150.375,198.845,150.375z"/>
	<path fill="#FFFFFF" d="M205.931,149.467l2.166,0.355c0.362,0.06,0.734-0.024,1.03-0.246c0.298-0.216,0.493-0.542,0.554-0.902
		l0.321-2.164c0.07-0.438,0.34-0.81,0.732-1.008l1.965-0.98c0.326-0.163,0.572-0.453,0.688-0.8c0.113-0.354,0.078-0.733-0.09-1.06
		l-1.006-1.949c-0.202-0.39-0.202-0.848,0-1.237l1.006-1.948c0.168-0.328,0.203-0.705,0.09-1.06c-0.115-0.344-0.361-0.635-0.688-0.8
		l-1.965-0.98c-0.393-0.198-0.662-0.573-0.732-1.002l-0.321-2.169c-0.061-0.363-0.256-0.69-0.554-0.905
		c-0.296-0.214-0.668-0.307-1.03-0.245l-2.166,0.357c-0.43,0.074-0.869-0.07-1.176-0.385l-1.543-1.561
		c-0.248-0.25-0.582-0.396-0.935-0.405c-0.352,0.011-0.688,0.156-0.937,0.405l-1.545,1.561c-0.302,0.314-0.743,0.458-1.174,0.385
		l-2.164-0.357c-0.36-0.062-0.735,0.031-1.03,0.245c-0.298,0.215-0.497,0.542-0.556,0.905l-0.32,2.169
		c-0.07,0.429-0.34,0.804-0.732,1.002l-1.963,0.98c-0.327,0.165-0.574,0.456-0.687,0.8c-0.115,0.355-0.083,0.732,0.086,1.06
		l1.007,1.948c0.204,0.389,0.204,0.847,0,1.237l-1.007,1.949c-0.169,0.326-0.202,0.705-0.086,1.06
		c0.113,0.347,0.359,0.637,0.687,0.8l1.963,0.98c0.393,0.198,0.662,0.57,0.732,1.008l0.326,2.164c0.053,0.36,0.252,0.687,0.55,0.902
		c0.295,0.222,0.67,0.306,1.03,0.246l2.164-0.355c0.431-0.074,0.872,0.073,1.18,0.383l1.539,1.562
		c0.252,0.25,0.585,0.396,0.937,0.405c0.353-0.01,0.685-0.155,0.935-0.405l1.541-1.562
		C205.062,149.541,205.501,149.393,205.931,149.467z M202.277,148.243c-4.587-0.024-8.311-3.761-8.311-8.351
		c0-4.592,3.724-8.334,8.311-8.354c4.585,0.019,8.311,3.762,8.311,8.354C210.588,144.482,206.862,148.218,202.277,148.243z"/>
	<path fill="#FFFFFF" d="M214.676,151.385l-3.888-3.884l-0.191,1.308c-0.092,0.606-0.43,1.16-0.92,1.519
		c-0.496,0.361-1.104,0.512-1.732,0.407l-2.235-0.36c-0.108,0-0.218,0.044-0.296,0.125l-0.374,0.378l5.073,5.071
		c0.193,0.193,0.479,0.266,0.743,0.184c0.26-0.081,0.456-0.303,0.503-0.57l0.463-2.468l2.466-0.46
		c0.271-0.052,0.487-0.245,0.568-0.51C214.938,151.863,214.87,151.579,214.676,151.385z"/>
	<path fill="#FFFFFF" d="M202.277,132.742c-3.919,0.027-7.097,3.214-7.097,7.136c0,3.92,3.178,7.11,7.097,7.136
		c3.918-0.022,7.098-3.216,7.098-7.136C209.375,135.956,206.195,132.769,202.277,132.742z M205.696,144.653l-3.419-1.797
		l-3.416,1.797l0.651-3.805l-2.766-2.695l3.82-0.556l1.71-3.461l1.71,3.461l3.821,0.556l-2.767,2.695L205.696,144.653z"/>
</g>
<g>
	<g>
		
			<line fill="none" stroke="#A5A4A4" stroke-width="1.5" stroke-linecap="round" stroke-miterlimit="10" x1="195.39" y1="246.273" x2="195.39" y2="246.273"/>
		
			<line fill="none" stroke="#A5A4A4" stroke-width="1.5" stroke-linecap="round" stroke-miterlimit="10" stroke-dasharray="0,4.9908" x1="191.86" y1="242.744" x2="101.87" y2="152.754"/>
		
			<line fill="none" stroke="#A5A4A4" stroke-width="1.5" stroke-linecap="round" stroke-miterlimit="10" x1="100.105" y1="150.99" x2="100.105" y2="150.99"/>
		
			<line fill="none" stroke="#A5A4A4" stroke-width="1.5" stroke-linecap="round" stroke-miterlimit="10" stroke-dasharray="0,4.9908" x1="103.635" y1="154.519" x2="193.625" y2="244.508"/>
	</g>
</g>
<g>
	<g>
		
			<line fill="none" stroke="#A5A4A4" stroke-width="1.5" stroke-linecap="round" stroke-miterlimit="10" x1="207.114" y1="247.117" x2="207.114" y2="247.117"/>
		
			<line fill="none" stroke="#A5A4A4" stroke-width="1.5" stroke-linecap="round" stroke-miterlimit="10" stroke-dasharray="0,4.9908" x1="210.644" y1="243.587" x2="300.634" y2="153.598"/>
		
			<line fill="none" stroke="#A5A4A4" stroke-width="1.5" stroke-linecap="round" stroke-miterlimit="10" x1="302.398" y1="151.833" x2="302.398" y2="151.833"/>
		
			<line fill="none" stroke="#A5A4A4" stroke-width="1.5" stroke-linecap="round" stroke-miterlimit="10" stroke-dasharray="0,4.9908" x1="298.869" y1="155.363" x2="208.879" y2="245.352"/>
	</g>
</g>
<circle fill="#EDEEEF" cx="202.275" cy="249.039" r="25.114"/>
<path fill="#A5A5A5" d="M202.274,223.926c-13.868,0-25.113,11.242-25.113,25.112s11.245,25.113,25.113,25.113
	c13.87,0,25.114-11.243,25.114-25.113S216.145,223.926,202.274,223.926z M202.274,271.013c-12.116,0-21.974-9.859-21.974-21.975
	c0-12.116,9.858-21.974,21.974-21.974c12.118,0,21.976,9.857,21.976,21.974C224.25,261.154,214.393,271.013,202.274,271.013z"/>
<path fill="#A5A5A5" d="M214.897,258.395l-2.883-6.497c-0.133-0.298-0.364-0.544-0.652-0.693l-4.475-2.33
	c-0.099-0.052-0.218-0.041-0.309,0.025c-1.265,0.958-2.754,1.463-4.303,1.463c-1.55,0-3.039-0.505-4.303-1.463
	c-0.091-0.066-0.211-0.077-0.31-0.025l-4.474,2.33c-0.289,0.149-0.521,0.396-0.652,0.693l-2.884,6.497
	c-0.199,0.448-0.159,0.96,0.109,1.369c0.268,0.412,0.718,0.656,1.208,0.656h3.152c1.047,1.445,4.036,2.491,7.564,2.491
	c3.529,0,6.519-1.046,7.564-2.491h4.327c0.489,0,0.943-0.244,1.209-0.656C215.055,259.355,215.098,258.843,214.897,258.395z"/>
<path fill="#A5A5A5" d="M202.276,248.547c3.156,0,5.716-2.996,5.716-6.69c0-5.124-2.56-6.69-5.716-6.69
	c-3.158,0-5.716,1.566-5.716,6.69C196.561,245.551,199.118,248.547,202.276,248.547L202.276,248.547z M202.276,248.547"/>
<g>
	<g>
		
			<line fill="none" stroke="#A5A4A4" stroke-width="1.5" stroke-linecap="round" stroke-miterlimit="10" x1="207.617" y1="42.726" x2="207.617" y2="42.726"/>
		
			<line fill="none" stroke="#A5A4A4" stroke-width="1.5" stroke-linecap="round" stroke-miterlimit="10" stroke-dasharray="0,4.9908" x1="211.146" y1="46.254" x2="301.138" y2="136.244"/>
		
			<line fill="none" stroke="#A5A4A4" stroke-width="1.5" stroke-linecap="round" stroke-miterlimit="10" x1="302.902" y1="138.009" x2="302.902" y2="138.009"/>
		
			<line fill="none" stroke="#A5A4A4" stroke-width="1.5" stroke-linecap="round" stroke-miterlimit="10" stroke-dasharray="0,4.9908" x1="299.373" y1="134.48" x2="209.382" y2="44.49"/>
	</g>
</g>
<g>
	<g>
		
			<line fill="none" stroke="#A5A4A4" stroke-width="1.5" stroke-linecap="round" stroke-miterlimit="10" x1="195.894" y1="41.881" x2="195.894" y2="41.881"/>
		
			<line fill="none" stroke="#A5A4A4" stroke-width="1.5" stroke-linecap="round" stroke-miterlimit="10" stroke-dasharray="0,4.9908" x1="192.364" y1="45.41" x2="102.374" y2="135.4"/>
		
			<line fill="none" stroke="#A5A4A4" stroke-width="1.5" stroke-linecap="round" stroke-miterlimit="10" x1="100.609" y1="137.165" x2="100.609" y2="137.165"/>
		
			<line fill="none" stroke="#A5A4A4" stroke-width="1.5" stroke-linecap="round" stroke-miterlimit="10" stroke-dasharray="0,4.9908" x1="104.138" y1="133.636" x2="194.128" y2="43.646"/>
	</g>
</g>
<circle fill="#EDEEEF" cx="306.518" cy="145.995" r="25.113"/>
<path fill="#A5A5A5" d="M306.517,120.881c-13.869,0-25.112,11.244-25.112,25.113c0,13.87,11.243,25.114,25.112,25.114
	c13.87,0,25.114-11.244,25.114-25.114C331.631,132.125,320.387,120.881,306.517,120.881z M306.517,167.97
	c-12.116,0-21.974-9.859-21.974-21.976s9.857-21.974,21.974-21.974c12.117,0,21.976,9.857,21.976,21.974
	S318.634,167.97,306.517,167.97z"/>
<path fill="#A5A5A5" d="M306.519,145.504c3.156,0,5.715-2.996,5.715-6.691c0-5.125-2.559-6.69-5.715-6.69
	c-3.157,0-5.716,1.565-5.716,6.69C300.803,142.508,303.361,145.504,306.519,145.504L306.519,145.504z M306.519,145.504"/>
<path fill="#A5A5A5" d="M319.14,155.35l-2.883-6.497c-0.133-0.296-0.364-0.544-0.652-0.691l-4.475-2.33
	c-0.099-0.053-0.218-0.043-0.309,0.025c-1.265,0.956-2.754,1.462-4.303,1.462c-1.55,0-3.04-0.506-4.304-1.462
	c-0.09-0.068-0.209-0.078-0.308-0.025l-4.475,2.33c-0.29,0.147-0.52,0.396-0.653,0.691l-2.883,6.497
	c-0.199,0.448-0.159,0.961,0.109,1.37c0.268,0.413,0.717,0.657,1.209,0.657h3.152c1.046,1.445,4.033,2.489,7.563,2.489
	c3.53,0,6.52-1.044,7.565-2.489h4.327c0.489,0,0.943-0.244,1.209-0.657C319.297,156.311,319.34,155.798,319.14,155.35z"/>
<circle fill="#EDEEEF" cx="96.995" cy="144.151" r="25.113"/>
<path fill="#A5A5A5" d="M96.994,119.038c-13.869,0-25.112,11.243-25.112,25.113s11.244,25.113,25.112,25.113
	c13.871,0,25.114-11.243,25.114-25.113S110.865,119.038,96.994,119.038z M96.994,166.125c-12.116,0-21.976-9.858-21.976-21.975
	c0-12.116,9.859-21.974,21.976-21.974c12.118,0,21.976,9.858,21.976,21.974C118.97,156.267,109.112,166.125,96.994,166.125z"/>
<path fill="#A5A5A5" d="M96.996,143.661c3.157,0,5.715-2.997,5.715-6.691c0-5.124-2.559-6.691-5.715-6.691
	c-3.158,0-5.717,1.567-5.717,6.691C91.279,140.664,93.838,143.661,96.996,143.661L96.996,143.661z M96.996,143.661"/>
<path fill="#A5A5A5" d="M109.618,153.507l-2.883-6.497c-0.133-0.297-0.365-0.544-0.653-0.693l-4.475-2.33
	c-0.099-0.051-0.22-0.041-0.308,0.025c-1.265,0.958-2.755,1.463-4.303,1.463c-1.549,0-3.04-0.505-4.304-1.463
	c-0.09-0.066-0.209-0.076-0.307-0.025l-4.476,2.33c-0.289,0.149-0.52,0.396-0.652,0.693l-2.884,6.497
	c-0.198,0.448-0.159,0.961,0.11,1.37c0.266,0.412,0.717,0.655,1.208,0.655h3.152c1.046,1.446,4.035,2.491,7.564,2.491
	c3.53,0,6.52-1.045,7.564-2.491h4.329c0.489,0,0.943-0.243,1.208-0.655C109.775,154.468,109.816,153.956,109.618,153.507z"/>
<circle fill="#2097D4" cx="202.276" cy="38.565" r="25.348"/>
<path fill="#FFFFFF" d="M202.276,37.544c3.277,0,5.935-3.11,5.935-6.947c0-5.321-2.657-6.948-5.935-6.948
	c-3.278,0-5.936,1.627-5.936,6.948C196.341,34.434,198.998,37.544,202.276,37.544L202.276,37.544z M202.276,37.544"/>
<path fill="#FFFFFF" d="M215.381,47.77l-2.993-6.746c-0.137-0.309-0.377-0.565-0.677-0.721l-4.647-2.419
	c-0.102-0.053-0.227-0.043-0.318,0.027c-1.314,0.994-2.861,1.52-4.469,1.52c-1.61,0-3.155-0.525-4.471-1.52
	c-0.091-0.07-0.216-0.08-0.318-0.027l-4.648,2.419c-0.299,0.156-0.539,0.412-0.674,0.721l-2.996,6.746
	c-0.205,0.465-0.164,0.997,0.114,1.423c0.277,0.427,0.745,0.681,1.255,0.681h3.274c1.086,1.501,4.189,2.586,7.854,2.586
	c3.666,0,6.77-1.085,7.855-2.586h4.493c0.508,0,0.979-0.254,1.255-0.681S215.587,48.234,215.381,47.77z M203.222,49.643
	l-0.945,1.491l-0.947-1.491l-0.946-1.491l1.894-7.961l1.89,7.961L203.222,49.643z"/>
<path fill="#FFFFFF" d="M18.696,66.337c-5.208,0-9.431,3.244-9.431,7.255c0,1.962,1.02,3.749,2.67,5.054
	c-0.099,1.332-0.418,2.962-1.346,3.84c1.85,0,3.735-1.155,4.931-2.062c0.993,0.276,2.063,0.427,3.175,0.427
	c5.209,0,9.431-3.255,9.431-7.259C28.127,69.581,23.905,66.337,18.696,66.337z M13.49,70.076h6.447v2.063H13.49V70.076z
	 M24.879,76.265H13.49v-2.063h11.389V76.265z"/>
<path fill="#E64C3C" d="M37.391,123.27c0,10.327-8.369,18.697-18.695,18.697C8.371,141.966,0,133.597,0,123.27
	c0-10.323,8.371-18.695,18.696-18.695C29.022,104.574,37.391,112.947,37.391,123.27z"/>
<path fill="#FFFFFF" d="M27.951,123.02l-2.179-2.179c-0.025-0.025-0.256-0.247-0.575-0.247c-0.189,0-0.371,0.081-0.522,0.232
	l-4.883,4.883c-0.609,0.61-1.419,0.945-2.282,0.945c-0.861,0-1.672-0.334-2.281-0.945c-0.608-0.609-0.945-1.419-0.945-2.282
	c0-0.861,0.336-1.672,0.945-2.281l4.803-4.801c0.313-0.314,0.322-0.611,0.275-0.807c-0.049-0.208-0.176-0.339-0.19-0.354
	l-2.198-2.197c-0.183-0.184-0.351-0.269-0.524-0.269c-0.244,0-0.415,0.17-0.578,0.333l-5.356,5.355
	c-3.053,3.053-3.053,8.02,0,11.071c1.479,1.479,3.444,2.293,5.535,2.293c2.091,0,4.058-0.814,5.535-2.293l5.356-5.355
	c0.141-0.14,0.273-0.273,0.318-0.454C28.284,123.354,28.033,123.102,27.951,123.02L27.951,123.02z M16.079,114.728l0.78-0.779
	c0.246-0.245,0.602-0.419,0.956-0.064l1.495,1.495c0,0,0.374,0.374-0.083,0.831l-0.967,0.967c-0.376,0.377-0.768-0.015-0.768-0.015
	l-1.477-1.478C15.66,115.331,15.833,114.974,16.079,114.728L16.079,114.728z M26.99,124.079l-0.781,0.78
	c-0.245,0.246-0.601,0.419-0.956,0.065l-1.495-1.496c0,0-0.373-0.373,0.084-0.83l0.966-0.967c0.376-0.376,0.768,0.015,0.768,0.015
	l1.478,1.477C27.408,123.477,27.234,123.833,26.99,124.079L26.99,124.079z M26.99,124.079"/>
<circle fill="#2097D4" cx="18.696" cy="172.679" r="18.696"/>
<g>
	<path fill="#FFFFFF" d="M7.5,170.543v-1.804l10.084,5.014l1.757-0.894c-0.002-0.038-0.014-0.074-0.014-0.111
		c0-0.522,0.203-1.017,0.572-1.388l0.637-0.636c0.375-0.374,0.868-0.577,1.39-0.577c0.322,0,0.632,0.076,0.911,0.224
		c0.25-0.797,0.997-1.377,1.875-1.377h0.896c0.322,0,0.625,0.079,0.893,0.217l1.894-0.966l-10.812-4.591l-11.076,4.591l0.798,0.398
		v1.899c-0.217,0.045-0.385,0.229-0.385,0.462c0,0.117,0.047,0.222,0.118,0.307c-0.002,0.013-0.006,0.02-0.006,0.03v0.899
		c0,0.207,0.166,0.371,0.369,0.371c0.206,0,0.372-0.164,0.372-0.371v-0.899c0-0.011-0.005-0.021-0.007-0.031
		c0.07-0.085,0.118-0.188,0.118-0.306C7.885,170.772,7.719,170.589,7.5,170.543z"/>
	<path fill="#FFFFFF" d="M18.173,176.431v-0.896c0-0.07,0.01-0.138,0.017-0.205l-0.591,0.316l-6.756-3.698l-0.56,3.157
		c0-0.005,0.007-0.008,0.011-0.015c-0.081,0.121-0.123,0.248-0.123,0.373c0,1.115,5.765,4.553,7.495,4.553
		c0.394,0,1-0.182,1.693-0.469c-0.019-0.109-0.033-0.22-0.033-0.332c0-0.323,0.078-0.633,0.223-0.909
		C18.752,178.055,18.173,177.31,18.173,176.431z"/>
	<path fill="#FFFFFF" d="M30.184,174.834h-0.547c-0.15,0-0.323-0.135-0.378-0.293c-0.052-0.147-0.113-0.293-0.183-0.437
		c-0.072-0.148-0.046-0.366,0.059-0.471l0.389-0.39c0.276-0.273,0.276-0.719,0-0.992l-0.631-0.633
		c-0.133-0.132-0.309-0.204-0.497-0.204c-0.186,0-0.362,0.072-0.496,0.204l-0.389,0.389c-0.063,0.064-0.167,0.101-0.28,0.101
		c-0.069,0-0.135-0.014-0.192-0.04c-0.143-0.068-0.29-0.13-0.435-0.183c-0.162-0.057-0.295-0.229-0.295-0.378v-0.547
		c0-0.389-0.312-0.702-0.699-0.702h-0.896c-0.387,0-0.7,0.313-0.7,0.702v0.547c0,0.148-0.134,0.321-0.294,0.378
		c-0.147,0.053-0.292,0.112-0.436,0.183c-0.056,0.026-0.123,0.04-0.192,0.04c-0.113,0-0.216-0.036-0.279-0.101l-0.389-0.389
		c-0.133-0.132-0.311-0.207-0.496-0.207c-0.188,0-0.364,0.075-0.496,0.207l-0.634,0.634c-0.131,0.132-0.205,0.307-0.205,0.495
		c0,0.187,0.073,0.362,0.205,0.496l0.389,0.39c0.107,0.104,0.135,0.322,0.06,0.471c-0.067,0.144-0.129,0.289-0.18,0.437
		c-0.059,0.158-0.232,0.293-0.38,0.293h-0.547c-0.387,0-0.701,0.313-0.701,0.7v0.896c0,0.388,0.314,0.699,0.701,0.699h0.547
		c0.148,0,0.321,0.134,0.38,0.294c0.05,0.147,0.112,0.294,0.18,0.436c0.075,0.15,0.047,0.366-0.06,0.473l-0.389,0.39
		c-0.273,0.271-0.273,0.718,0,0.99l0.634,0.636c0.132,0.132,0.308,0.204,0.496,0.204c0.186,0,0.363-0.072,0.496-0.204l0.39-0.392
		c0.063-0.063,0.169-0.101,0.278-0.101c0.072,0,0.137,0.016,0.193,0.041c0.142,0.069,0.287,0.132,0.435,0.183
		c0.16,0.057,0.293,0.229,0.293,0.378v0.546c0,0.388,0.313,0.701,0.7,0.701h0.896c0.387,0,0.701-0.313,0.701-0.701v-0.546
		c0-0.149,0.132-0.321,0.293-0.378c0.146-0.051,0.292-0.113,0.435-0.183c0.056-0.025,0.123-0.041,0.192-0.041
		c0.113,0,0.217,0.037,0.28,0.101l0.39,0.392c0.132,0.132,0.309,0.204,0.495,0.204c0.188,0,0.364-0.072,0.497-0.204l0.633-0.636
		c0.274-0.272,0.274-0.719,0-0.99l-0.39-0.389c-0.104-0.106-0.132-0.323-0.059-0.473c0.069-0.143,0.13-0.289,0.182-0.437
		c0.056-0.159,0.229-0.294,0.378-0.294h0.547c0.386,0,0.701-0.312,0.701-0.699v-0.896C30.883,175.148,30.569,174.834,30.184,174.834
		z M25.161,178.037c-1.133,0-2.054-0.921-2.054-2.054c0-1.132,0.92-2.056,2.054-2.056s2.054,0.922,2.054,2.056
		C27.214,177.116,26.294,178.037,25.161,178.037z"/>
</g>
<circle fill="#41AA73" cx="18.696" cy="220.674" r="18.696"/>
<g>
	<path fill="#FFFFFF" d="M18.628,210.362c-5.687,0-10.314,4.626-10.314,10.313c0,5.688,4.627,10.314,10.314,10.314
		c5.688,0,10.314-4.627,10.314-10.314C28.943,214.988,24.316,210.362,18.628,210.362z M18.628,229.481
		c-4.855,0-8.806-3.949-8.806-8.807c0-4.855,3.951-8.805,8.806-8.805s8.807,3.949,8.807,8.805
		C27.435,225.532,23.484,229.481,18.628,229.481z"/>
	<path fill="#FFFFFF" d="M18.628,213.042c-4.208,0-7.632,3.425-7.633,7.633v0.212h1.508v-0.212c0-3.378,2.747-6.124,6.125-6.124
		c3.376,0,6.124,2.746,6.125,6.124v0.212h1.507v-0.212C26.26,216.467,22.837,213.042,18.628,213.042z"/>
	<path fill="#FFFFFF" d="M18.17,219.488v-0.003c-0.679-0.003-1.232,0.547-1.236,1.229s0.544,1.237,1.224,1.24v-0.003l2.401-0.603
		l2.403-0.604l-2.396-0.629L18.17,219.488z"/>
</g>
<rect x="25.383" y="226.717" transform="matrix(0.7074 -0.7069 0.7069 0.7074 -154.5248 85.7919)" fill="#FFFFFF" width="1.934" height="5.601"/>
<g>
</g>
<g>
</g>
<g>
</g>
<g>
</g>
<g>
</g>
<g>
</g>
</svg>
