<?xml version="1.0" encoding="utf-8"?>
<!-- Generator: Adobe Illustrator 19.0.0, SVG Export Plug-In . SVG Version: 6.00 Build 0)  -->
<svg version="1.1" xmlns="http://www.w3.org/2000/svg" xmlns:xlink="http://www.w3.org/1999/xlink" x="0px" y="0px"
	 viewBox="0 0 40 40" style="enable-background:new 0 0 40 40;" xml:space="preserve">
<style type="text/css">
	.st0{display:none;}
	.st1{display:inline;}
	.st2{fill:#D0D0CF;}
</style>
<g id="Layer_1" class="st0">
	<g id="XMLID_3_" class="st1">
		<path id="XMLID_35_" class="st2" d="M14.9,15.8c0,3.5,2.4,6.3,5.3,6.3c2.9,0,5.3-2.8,5.3-6.3c0-0.9-0.1-1.7-0.2-2.4
			c-0.2,0.2-0.5,0.2-0.8,0.2h-8.7c-0.3,0-0.5-0.1-0.7-0.2C14.9,14.1,14.9,14.9,14.9,15.8z"/>
		<path id="XMLID_36_" class="st2" d="M24.5,12.7c0.2,0,0.3-0.2,0.3-0.3v-0.8c0-0.2-0.2-0.3-0.3-0.3h-8.7c-0.2,0-0.3,0.2-0.3,0.3
			v0.8c0,0.2,0.2,0.3,0.3,0.3H24.5z"/>
		<path id="XMLID_37_" class="st2" d="M14.6,7.1c0,0,0,0.1,0,0.1l0.7,3c0,0.2,0.2,0.3,0.3,0.3h4.5l4.5,0c0.2,0,0.3-0.1,0.3-0.3
			l0.7-3c0,0,0-0.1,0-0.1C26,7,26.2,6.8,26.2,6.5c0-0.4-0.3-0.7-0.7-0.7c-0.4,0-0.7,0.3-0.7,0.7c0,0.2,0.1,0.4,0.3,0.6l-0.9,0.9
			c-0.2,0.2-0.6,0.4-0.9,0.4c-0.4,0-0.8-0.2-1-0.5l-1.5-2c0,0,0,0,0,0c0.1-0.1,0.2-0.3,0.2-0.5c0-0.4-0.3-0.7-0.7-0.7
			c-0.4,0-0.7,0.3-0.7,0.7c0,0.2,0.1,0.4,0.2,0.5l-1.5,2c-0.2,0.3-0.6,0.5-1,0.5c-0.3,0-0.7-0.1-0.9-0.4L15.3,7
			c0.2-0.1,0.3-0.3,0.3-0.5c0-0.4-0.3-0.7-0.7-0.7c-0.4,0-0.7,0.3-0.7,0.7C14.1,6.8,14.3,7,14.6,7.1z"/>
		<path id="XMLID_38_" class="st2" d="M29.3,25.2c-0.1-0.3-0.3-0.5-0.6-0.6l-4.2-2.2c-0.1,0-0.2,0-0.3,0c-0.2,0.2-0.5,0.3-0.8,0.5
			c-0.1,0.1-0.2,0.1-0.4,0.2c0,0,0,0,0,0c-0.4,0.2-0.7,0.3-1.1,0.4c0,0-0.1,0-0.1,0c-0.1,0-0.2,0-0.3,0.1c-0.1,0-0.2,0-0.2,0
			c-0.1,0-0.1,0-0.2,0c-0.1,0-0.2,0-0.3,0c-0.1,0-0.1,0-0.2,0c-0.2,0-0.3,0-0.5,0c-1.4,0-2.8-0.5-4-1.4c-0.1-0.1-0.2-0.1-0.3,0
			l-4.2,2.2c-0.3,0.1-0.5,0.4-0.6,0.6l-2.2,5c1,1.1,2.3,2.1,3.6,2.8c0,0,0.1,0.1,0.1,0.1c0.2,0.1,0.3,0.2,0.5,0.3
			c0.3,0.2,0.6,0.3,0.9,0.4c0,0,0.1,0,0.1,0c0.4,0.1,0.7,0.3,1.1,0.4c0,0,0.1,0,0.1,0c0.4,0.1,0.8,0.2,1.2,0.3c0.1,0,0.1,0,0.2,0
			c0.4,0.1,0.8,0.2,1.2,0.2h0l0,0c0.8,0.1,1.6,0.2,2.4,0.2c1,0,1.9-0.1,2.9-0.3l0-0.1c0.9-0.2,1.8-0.4,2.6-0.8
			c0.4-0.3,1.8-0.8,1.8-0.8c1.4-0.8,2.8-1.8,3.9-3L29.3,25.2z"/>
	</g>
</g>
<g id="Layer_2" class="st0">
	<g id="XMLID_346_" class="st1">
		<path id="XMLID_347_" class="st2" d="M32.5,8.1c-0.2-0.2-0.4-0.2-0.6-0.1L8.3,17c-0.5,0.2-0.9,0.7-1,1.3c-0.1,0.6,0.2,1.2,0.6,1.5
			l5.2,3.8L31.6,9.1L15.3,25.1l7.1,5.2c0.4,0.3,1,0.4,1.6,0.3c0.5-0.2,1-0.6,1.2-1.1l7.6-20.8C32.8,8.5,32.7,8.2,32.5,8.1z"/>
		<path id="XMLID_354_" class="st2" d="M11.9,25.1l1,5.5c0.1,0.4,0.3,0.8,0.7,0.9c0.4,0.2,0.8,0.1,1.2-0.1c1.4-0.9,3.2-2.1,3.2-2.2
			l-6.1-4.4L11.9,25.1z"/>
	</g>
</g>
<g id="Layer_3">
	<g id="XMLID_1_">
		<path id="XMLID_2_" class="st2" d="M13.6,13.9H14c0.5,0,1-0.4,1-1V9.3c0-0.5-0.4-1-1-1h-0.4c-0.5,0-1,0.4-1,1v3.7
			C12.6,13.5,13.1,13.9,13.6,13.9z"/>
		<path id="XMLID_4_" class="st2" d="M26,13.9h0.4c0.5,0,1-0.4,1-1V9.2c0-0.5-0.4-1-1-1H26c-0.5,0-1,0.4-1,1v3.7
			C25.1,13.4,25.5,13.9,26,13.9z"/>
		<path id="XMLID_51_" class="st2" d="M30.6,10.3h-2.5v2.9c0,1-0.8,1.5-1.8,1.5H26c-1,0-1.8-0.8-1.8-1.8v-2.6h-8.6v2.7
			c0,1-0.8,1.8-1.8,1.8h-0.4c-1,0-1.8-0.8-1.8-1.8v-2.7H9.2c-0.9,0-1.6,0.7-1.6,1.6v19c0,0.9,0.7,1.6,1.6,1.6h21.4
			c0.9,0,1.6-0.7,1.6-1.6v-19C32.2,11,31.5,10.3,30.6,10.3z M30.6,30.8H9.2V16.5h21.4L30.6,30.8C30.6,30.8,30.6,30.8,30.6,30.8z"/>
		<path id="XMLID_52_" class="st2" d="M20.7,21.3h2.8c0.1,0,0.2-0.1,0.2-0.2v-2.4c0-0.1-0.1-0.2-0.2-0.2h-2.8
			c-0.1,0-0.2,0.1-0.2,0.2v2.4C20.5,21.2,20.6,21.3,20.7,21.3z"/>
		<path id="XMLID_53_" class="st2" d="M28.1,18.5h-2.8c-0.1,0-0.2,0.1-0.2,0.2v2.4c0,0.1,0.1,0.2,0.2,0.2h2.8c0.1,0,0.2-0.1,0.2-0.2
			v-2.4C28.4,18.5,28.3,18.5,28.1,18.5z"/>
		<path id="XMLID_54_" class="st2" d="M14.3,22.5h-2.8c-0.1,0-0.2,0.1-0.2,0.2v2.4c0,0.1,0.1,0.2,0.2,0.2h2.8c0.1,0,0.2-0.1,0.2-0.2
			v-2.4C14.5,22.5,14.4,22.5,14.3,22.5z"/>
		<path id="XMLID_55_" class="st2" d="M18.9,22.5h-2.8c-0.1,0-0.2,0.1-0.2,0.2v2.4c0,0.1,0.1,0.2,0.2,0.2h2.8c0.1,0,0.2-0.1,0.2-0.2
			v-2.4C19.1,22.5,19,22.5,18.9,22.5z"/>
		<path id="XMLID_56_" class="st2" d="M20.7,25.3h2.8c0.1,0,0.2-0.1,0.2-0.2v-2.4c0-0.1-0.1-0.2-0.2-0.2h-2.8
			c-0.1,0-0.2,0.1-0.2,0.2v2.4C20.5,25.2,20.6,25.3,20.7,25.3z"/>
		<path id="XMLID_57_" class="st2" d="M28.1,22.5h-2.8c-0.1,0-0.2,0.1-0.2,0.2v2.4c0,0.1,0.1,0.2,0.2,0.2h2.8c0.1,0,0.2-0.1,0.2-0.2
			v-2.4C28.4,22.5,28.3,22.5,28.1,22.5z"/>
		<path id="XMLID_58_" class="st2" d="M14.3,26.5h-2.8c-0.1,0-0.2,0.1-0.2,0.2v2.4c0,0.1,0.1,0.2,0.2,0.2h2.8c0.1,0,0.2-0.1,0.2-0.2
			v-2.4C14.5,26.6,14.4,26.5,14.3,26.5z"/>
		<path id="XMLID_59_" class="st2" d="M18.9,26.5h-2.8c-0.1,0-0.2,0.1-0.2,0.2v2.4c0,0.1,0.1,0.2,0.2,0.2h2.8c0.1,0,0.2-0.1,0.2-0.2
			v-2.4C19.1,26.6,19,26.5,18.9,26.5z"/>
		<path id="XMLID_60_" class="st2" d="M23.5,26.5h-2.8c-0.1,0-0.2,0.1-0.2,0.2v2.4c0,0.1,0.1,0.2,0.2,0.2h2.8c0.1,0,0.2-0.1,0.2-0.2
			v-2.4C23.7,26.6,23.6,26.5,23.5,26.5z"/>
		<path id="XMLID_61_" class="st2" d="M28.1,26.5h-2.8c-0.1,0-0.2,0.1-0.2,0.2v2.4c0,0.1,0.1,0.2,0.2,0.2h2.8c0.1,0,0.2-0.1,0.2-0.2
			v-2.4C28.4,26.6,28.3,26.5,28.1,26.5z"/>
	</g>
</g>
<g id="Layer_4" class="st0">
</g>
</svg>
