<?xml version="1.0" encoding="utf-8"?>
<!-- Generator: Adobe Illustrator 20.1.0, SVG Export Plug-In . SVG Version: 6.00 Build 0)  -->
<svg version="1.1" id="Layer_1" xmlns="http://www.w3.org/2000/svg" xmlns:xlink="http://www.w3.org/1999/xlink" x="0px" y="0px"
	 viewBox="0 0 14.2 14" style="enable-background:new 0 0 14.2 14;" xml:space="preserve">
<style type="text/css">
	.st0{fill:#CFCFCF;}
	.st1{clip-path:url(#XMLID_2_);fill:#CFCFCF;}
</style>
<path id="XMLID_402_" class="st0" d="M3.5,3.3h0.2C4,3.3,4.2,3,4.2,2.7V0.6C4.2,0.3,4,0,3.7,0H3.5C3.2,0,2.9,0.3,2.9,0.6v2.1
	C2.9,3,3.2,3.3,3.5,3.3L3.5,3.3z M3.5,3.3"/>
<g id="XMLID_393_">
	<defs>
		<rect id="XMLID_394_" width="14.2" height="14"/>
	</defs>
	<clipPath id="XMLID_2_">
		<use xlink:href="#XMLID_394_"  style="overflow:visible;"/>
	</clipPath>
	<path id="XMLID_399_" class="st1" d="M10.7,3.2h0.2c0.3,0,0.6-0.3,0.6-0.6V0.6c0-0.3-0.3-0.6-0.6-0.6h-0.2c-0.3,0-0.6,0.3-0.6,0.6
		v2.1C10.1,3,10.4,3.2,10.7,3.2L10.7,3.2z M10.7,3.2"/>
	<path id="XMLID_395_" class="st1" d="M13.3,1.2h-1.4v1.7c0,0.6-0.5,0.9-1,0.9h-0.2c-0.6,0-1-0.5-1-1V1.2h-5v1.5c0,0.6-0.5,1-1,1
		H3.5c-0.6,0-1-0.5-1-1V1.2H0.9C0.4,1.2,0,1.6,0,2.1v11C0,13.6,0.4,14,0.9,14h12.4c0.5,0,0.9-0.4,0.9-0.9v-11
		C14.2,1.6,13.8,1.2,13.3,1.2L13.3,1.2z M13.3,13.1H0.9V4.8h12.4L13.3,13.1L13.3,13.1L13.3,13.1z M13.3,13.1"/>
</g>
<path id="XMLID_390_" class="st0" d="M7.6,7.6h1.6c0.1,0,0.1-0.1,0.1-0.1V6c0-0.1-0.1-0.1-0.1-0.1H7.6C7.5,5.9,7.5,6,7.5,6v1.4
	C7.5,7.5,7.5,7.6,7.6,7.6L7.6,7.6z M7.6,7.6"/>
<path id="XMLID_387_" class="st0" d="M10.3,7.6h1.6C12,7.6,12,7.5,12,7.4V6C12,6,12,5.9,11.9,5.9h-1.6c-0.1,0-0.1,0.1-0.1,0.1v1.4
	C10.1,7.5,10.2,7.6,10.3,7.6L10.3,7.6z M10.3,7.6"/>
<path id="XMLID_384_" class="st0" d="M2.2,9.9h1.6C4,9.9,4,9.8,4,9.8V8.3C4,8.3,4,8.2,3.9,8.2H2.2c-0.1,0-0.1,0.1-0.1,0.1v1.4
	C2.1,9.8,2.2,9.9,2.2,9.9L2.2,9.9z M2.2,9.9"/>
<path id="XMLID_381_" class="st0" d="M4.9,9.9h1.6c0.1,0,0.1-0.1,0.1-0.1V8.3c0-0.1-0.1-0.1-0.1-0.1H4.9c-0.1,0-0.1,0.1-0.1,0.1v1.4
	C4.8,9.8,4.9,9.9,4.9,9.9L4.9,9.9z M4.9,9.9"/>
<path id="XMLID_378_" class="st0" d="M7.6,9.9h1.6c0.1,0,0.1-0.1,0.1-0.1V8.3c0-0.1-0.1-0.1-0.1-0.1H7.6c-0.1,0-0.1,0.1-0.1,0.1v1.4
	C7.5,9.8,7.5,9.9,7.6,9.9L7.6,9.9z M7.6,9.9"/>
<path id="XMLID_375_" class="st0" d="M10.3,9.9h1.6C12,9.9,12,9.8,12,9.8V8.3c0-0.1-0.1-0.1-0.1-0.1h-1.6c-0.1,0-0.1,0.1-0.1,0.1
	v1.4C10.1,9.8,10.2,9.9,10.3,9.9L10.3,9.9z M10.3,9.9"/>
<path id="XMLID_372_" class="st0" d="M3.9,10.5H2.2c-0.1,0-0.1,0.1-0.1,0.1v1.4c0,0.1,0.1,0.1,0.1,0.1h1.6C4,12.2,4,12.1,4,12.1
	v-1.4C4,10.6,4,10.5,3.9,10.5L3.9,10.5z M3.9,10.5"/>
<path id="XMLID_369_" class="st0" d="M6.6,10.5H4.9c-0.1,0-0.1,0.1-0.1,0.1v1.4c0,0.1,0.1,0.1,0.1,0.1h1.6c0.1,0,0.1-0.1,0.1-0.1
	v-1.4C6.7,10.6,6.6,10.5,6.6,10.5L6.6,10.5z M6.6,10.5"/>
<path id="XMLID_366_" class="st0" d="M9.2,10.5H7.6c-0.1,0-0.1,0.1-0.1,0.1v1.4c0,0.1,0.1,0.1,0.1,0.1h1.6c0.1,0,0.1-0.1,0.1-0.1
	v-1.4C9.3,10.6,9.3,10.5,9.2,10.5L9.2,10.5z M9.2,10.5"/>
<path id="XMLID_363_" class="st0" d="M11.9,10.5h-1.6c-0.1,0-0.1,0.1-0.1,0.1v1.4c0,0.1,0.1,0.1,0.1,0.1h1.6c0.1,0,0.1-0.1,0.1-0.1
	v-1.4C12,10.6,12,10.5,11.9,10.5L11.9,10.5z M11.9,10.5"/>
</svg>
