<?xml version="1.0" encoding="utf-8"?>
<!-- Generator: Adobe Illustrator 16.0.0, SVG Export Plug-In . SVG Version: 6.00 Build 0)  -->
<!DOCTYPE svg PUBLIC "-//W3C//DTD SVG 1.1//EN" "http://www.w3.org/Graphics/SVG/1.1/DTD/svg11.dtd">
<svg version="1.1" id="Layer_1" xmlns="http://www.w3.org/2000/svg" xmlns:xlink="http://www.w3.org/1999/xlink" x="0px" y="0px"
	 width="322.604px" height="268.502px" viewBox="238.948 165.496 322.604 268.502"
	 enable-background="new 238.948 165.496 322.604 268.502" xml:space="preserve">
<path fill="#FFFFFF" d="M364.324,190.728C430.306,190.728,484,244.032,484,309.51c0,65.508-53.694,118.83-119.676,118.83
	c-66,0-119.688-53.322-119.688-118.83C244.63,244.032,298.324,190.728,364.324,190.728 M405.958,313.032
	c17.01,0,30.864-13.734,30.864-30.654c0-16.938-13.854-30.696-30.864-30.696c-17.016,0-30.864,13.758-30.864,30.696
	C375.1,299.298,388.942,313.032,405.958,313.032 M321.484,313.032c17.028,0,30.858-13.734,30.858-30.654
	c0-16.938-13.83-30.696-30.858-30.696c-17.028,0-30.882,13.758-30.882,30.696C290.602,299.298,304.456,313.032,321.484,313.032
	 M364.324,185.07c-69.24,0-125.376,55.722-125.376,124.44c0,68.767,56.13,124.488,125.376,124.488
	c69.204,0,125.34-55.722,125.34-124.488C489.658,240.792,433.528,185.07,364.324,185.07L364.324,185.07z M405.958,307.368
	c-13.902,0-25.194-11.178-25.194-24.99s11.292-25.032,25.194-25.032c13.902,0,25.176,11.22,25.176,25.032
	S419.866,307.368,405.958,307.368L405.958,307.368z M321.484,307.368c-13.908,0-25.182-11.178-25.182-24.99
	s11.274-25.032,25.182-25.032c13.878,0,25.17,11.22,25.17,25.032S335.368,307.368,321.484,307.368L321.484,307.368z"/>
<path fill="#FFFFFF" d="M510.1,299.556c2.887,0,5.58,0.522,8.053,1.59c2.496,1.043,4.686,2.489,6.54,4.26
	c1.884,1.788,3.329,3.888,4.374,6.3c1.056,2.4,1.59,4.992,1.59,7.818c0,2.808-0.534,5.399-1.59,7.884
	c-1.045,2.436-2.484,4.554-4.374,6.33c-1.854,1.817-4.044,3.222-6.54,4.218c-2.473,0.996-5.16,1.524-8.053,1.524
	c-2.262,0-4.367-0.408-6.378-1.009c1.674-9.396,2.604-19.067,2.604-28.956c0-3.21-0.12-6.396-0.3-9.552
	C507.322,299.7,508.69,299.556,510.1,299.556 M510.1,293.886c-1.758,0-3.456,0.162-5.111,0.48l-4.944,0.888l0.3,5.04
	c0.168,3.036,0.276,6.108,0.276,9.21c0,9.187-0.828,18.6-2.484,27.96l-0.87,4.962l4.818,1.482c2.742,0.81,5.37,1.218,8.016,1.218
	c3.631,0,7.074-0.63,10.219-1.926c3.12-1.26,5.922-3.078,8.334-5.376c2.334-2.232,4.266-4.992,5.628-8.178
	c1.374-3.223,2.058-6.624,2.058-10.135c0-3.563-0.684-6.924-2.058-10.08c-1.356-3.107-3.258-5.85-5.664-8.142
	c-2.376-2.298-5.143-4.092-8.274-5.382C517.246,294.558,513.778,293.886,510.1,293.886L510.1,293.886z"/>
<path fill="#FFFFFF" d="M473.35,182.736c2.58-2.28,5.389-4.44,8.46-6.48c3.072-2.052,6.408-3.852,9.96-5.37
	c3.559-1.5,7.446-2.706,11.616-3.582c4.164-0.864,8.683-1.308,13.53-1.308c6.594,0,12.612,0.918,18.03,2.73
	c5.399,1.818,10.08,4.41,13.92,7.8c3.888,3.372,6.87,7.434,9,12.234c2.111,4.776,3.186,10.116,3.186,16.038
	c0,5.754-0.857,10.734-2.52,14.958c-1.662,4.2-3.756,7.848-6.294,10.962c-2.557,3.108-5.299,5.814-8.263,8.076
	c-2.952,2.286-5.754,4.44-8.399,6.438c-2.658,1.998-4.962,3.978-6.889,5.922c-1.92,1.92-3.09,4.116-3.479,6.516l-2.61,16.626H503.38
	l-1.944-18.546c-0.084-0.378-0.119-0.708-0.119-0.96c0-0.27,0-0.6,0-0.966c0-3.336,0.857-6.24,2.52-8.7
	c1.668-2.484,3.744-4.776,6.258-6.936c2.484-2.166,5.179-4.29,8.076-6.318c2.874-2.04,5.55-4.266,8.07-6.666
	c2.502-2.37,4.596-5.094,6.264-8.124c1.662-3.018,2.496-6.594,2.496-10.68c0-2.742-0.516-5.178-1.536-7.338
	c-1.038-2.178-2.441-4.032-4.266-5.592c-1.83-1.548-3.996-2.742-6.552-3.594c-2.532-0.816-5.299-1.236-8.232-1.236
	c-4.32,0-7.986,0.474-10.98,1.422c-3.006,0.948-5.537,1.998-7.626,3.18c-2.069,1.194-3.852,2.238-5.292,3.186
	c-1.445,0.96-2.718,1.428-3.857,1.428c-2.742,0-4.698-1.134-5.922-3.42L473.35,182.736z"/>
</svg>
