<?xml version="1.0" encoding="utf-8"?>
<!-- Generator: Adobe Illustrator 16.0.0, SVG Export Plug-In . SVG Version: 6.00 Build 0)  -->
<!DOCTYPE svg PUBLIC "-//W3C//DTD SVG 1.1//EN" "http://www.w3.org/Graphics/SVG/1.1/DTD/svg11.dtd">
<svg version="1.1" id="Layer_1" xmlns="http://www.w3.org/2000/svg" xmlns:xlink="http://www.w3.org/1999/xlink" x="0px" y="0px"
	 width="23px" height="23px" viewBox="0 0 23 23" enable-background="new 0 0 23 23" xml:space="preserve">
<circle fill="#FFFFFF" cx="12.378" cy="6.544" r="0.446"/>
<path fill="#FFFFFF" d="M11.979,2.316c0.195-0.058,0.305-0.261,0.246-0.456c-0.035-0.12-0.047-0.229-0.035-0.34
	c0.053-0.482,0.488-0.83,0.971-0.778c0.232,0.025,0.441,0.14,0.586,0.322c0.145,0.184,0.211,0.414,0.186,0.651
	c-0.067,0.631-0.367,0.9-0.891,1.322c-0.682,0.547-0.82,1.062-0.867,1.491L12.141,4.85c-0.021,0.201,0.123,0.381,0.324,0.403
	c0.014,0.002,0.026,0.002,0.04,0.002c0.185,0,0.344-0.139,0.363-0.326l0.035-0.32c0.023-0.227,0.061-0.569,0.599-1
	c0.519-0.418,1.055-0.85,1.159-1.814c0.047-0.428-0.074-0.848-0.341-1.183c-0.268-0.338-0.651-0.55-1.079-0.596
	c-0.886-0.097-1.682,0.544-1.777,1.427c-0.023,0.208-0.003,0.414,0.061,0.628C11.582,2.265,11.785,2.375,11.979,2.316z"/>
<path fill="#FFFFFF" d="M7.466,7.114C7.582,7.292,7.819,7.34,7.995,7.223C8.172,7.106,8.221,6.87,8.104,6.694
	c-0.116-0.177-0.353-0.226-0.53-0.109C7.399,6.701,7.35,6.938,7.466,7.114z"/>
<path fill="#FFFFFF" d="M5.188,4.879C5.356,4.99,5.584,4.946,5.696,4.777C5.808,4.609,5.763,4.382,5.595,4.27
	c-0.063-0.042-0.11-0.088-0.148-0.146C5.368,4.004,5.341,3.861,5.37,3.722c0.03-0.14,0.112-0.263,0.232-0.341
	c0.245-0.161,0.577-0.088,0.741,0.16c0.232,0.352,0.193,0.611,0.098,1.075C6.305,5.272,6.474,5.647,6.658,5.926l0.129,0.196
	c0.07,0.107,0.187,0.164,0.305,0.164c0.069,0,0.139-0.02,0.202-0.061c0.168-0.111,0.215-0.339,0.104-0.508L7.27,5.523
	C7.184,5.392,7.065,5.211,7.158,4.762c0.096-0.47,0.206-1.002-0.203-1.624C6.57,2.552,5.782,2.386,5.2,2.769
	C4.917,2.956,4.722,3.241,4.653,3.572C4.584,3.903,4.649,4.243,4.835,4.525C4.926,4.665,5.042,4.782,5.188,4.879z"/>
<circle fill="#FFFFFF" cx="14.708" cy="6.867" r="0.382"/>
<path fill="#FFFFFF" d="M9.796,6.389c-0.031,0.209,0.113,0.403,0.322,0.435c0.21,0.031,0.403-0.113,0.435-0.322
	c0.031-0.209-0.113-0.403-0.323-0.436C10.021,6.036,9.827,6.18,9.796,6.389z"/>
<path fill="#FFFFFF" d="M15.1,6.128c0.06,0.033,0.122,0.05,0.185,0.05c0.126,0,0.248-0.065,0.316-0.182l0.119-0.201
	c0.078-0.135,0.188-0.321,0.633-0.436c0.463-0.121,0.99-0.257,1.367-0.897c0.357-0.605,0.16-1.385-0.441-1.738
	c-0.293-0.173-0.633-0.222-0.961-0.137c-0.328,0.084-0.605,0.292-0.775,0.583c-0.086,0.145-0.141,0.3-0.163,0.475
	c-0.025,0.2,0.116,0.384,0.317,0.411c0.199,0.027,0.383-0.116,0.408-0.316c0.01-0.075,0.031-0.136,0.066-0.197
	c0.072-0.123,0.189-0.21,0.328-0.246c0.137-0.036,0.283-0.015,0.408,0.06c0.252,0.148,0.334,0.478,0.182,0.734
	c-0.213,0.364-0.461,0.443-0.92,0.562c-0.65,0.167-0.912,0.485-1.08,0.772L14.97,5.625C14.867,5.8,14.925,6.025,15.1,6.128z"/>
<path fill="#FFFFFF" d="M9.548,5.222c0.032,0.151,0.165,0.254,0.313,0.254c0.022,0,0.044-0.001,0.067-0.007
	c0.173-0.037,0.284-0.207,0.248-0.38L9.458,1.69c-0.037-0.173-0.207-0.285-0.38-0.247C8.904,1.479,8.793,1.649,8.83,1.823
	L9.548,5.222z"/>
<path fill="#FFFFFF" d="M8.075,19.025c-1.095,0-1.985,0.89-1.985,1.984s0.891,1.984,1.985,1.984c1.094,0,1.985-0.89,1.985-1.984
	S9.169,19.025,8.075,19.025z M8.075,22.249c-0.683,0-1.239-0.557-1.239-1.239s0.556-1.238,1.239-1.238s1.239,0.556,1.239,1.238
	S8.758,22.249,8.075,22.249z"/>
<circle fill="#FFFFFF" cx="8.075" cy="21.01" r="0.434"/>
<path fill="#FFFFFF" d="M15.304,19.025c-1.094,0-1.986,0.89-1.986,1.984s0.893,1.984,1.986,1.984s1.984-0.89,1.984-1.984
	C17.29,19.915,16.397,19.025,15.304,19.025z M15.304,22.249c-0.684,0-1.239-0.557-1.239-1.239s0.557-1.238,1.239-1.238
	c0.684,0,1.238,0.556,1.238,1.238S15.987,22.249,15.304,22.249z"/>
<circle fill="#FFFFFF" cx="15.304" cy="21.01" r="0.434"/>
<path fill="#FFFFFF" d="M10.16,9.429C9.576,9.451,8.964,9.502,8.356,9.617c-0.382,0.11-0.555,0.27-0.422,0.812
	c0.048,0.2,0.148,0.34,0.308,0.429c0.382,0.214,1.025,0.081,1.241,0.012c0.117-0.04,0.243,0.025,0.28,0.144
	c0.038,0.117-0.026,0.242-0.143,0.28c-0.023,0.007-0.371,0.119-0.782,0.126c-0.268,0.006-0.563-0.033-0.813-0.173
	c-0.27-0.15-0.446-0.39-0.524-0.712l0,0c-0.003-0.011-0.007-0.024-0.01-0.042c-0.003-0.021-0.006-0.041-0.011-0.062
	c-0.001-0.007-0.003-0.013-0.003-0.02C7.407,10.07,7.215,9.9,6.83,10.065c-0.333,0.141-0.654,0.312-0.957,0.517
	c-0.176,0.173-0.168,0.411-0.015,0.688l0.822,1.267c0.067,0.104,0.037,0.242-0.066,0.309c-0.036,0.024-0.077,0.035-0.117,0.036
	c-0.075,0.001-0.148-0.035-0.191-0.102l-0.841-1.296c-0.213-0.351-0.471-0.141-0.674,0.105c-0.591,0.751-1.023,1.757-1.203,3.103
	c-0.018,0.338,0.307,0.55,0.563,0.364c0.008-0.006,0.013-0.008,0.018-0.012l0.375-0.301c0.096-0.077,0.236-0.061,0.313,0.034
	c0.077,0.097,0.062,0.237-0.035,0.313L3.82,15.895l0.002-0.001c0,0-0.003,0.003-0.007,0.006l-0.065,0.052
	c-0.104,0.095-0.279,0.313-0.231,0.681c0.002,0.014,0,0.026,0,0.038c0.067,0.415,0.287,0.741,0.603,0.997
	c0.341,0.228,0.678-0.028,0.659-0.405c-0.001-0.025,0-0.048,0.001-0.067c-0.002-0.429,0.114-0.808,0.348-1.106
	c0.309-0.393,0.798-0.634,1.416-0.695c0.121-0.01,0.232,0.077,0.244,0.199c0.013,0.121-0.077,0.23-0.2,0.243
	c-0.494,0.05-0.877,0.232-1.109,0.528c-0.22,0.279-0.299,0.649-0.236,1.099c0.085,0.601,0.506,0.87,0.983,0.978
	c0.145,0.021,0.29,0.041,0.434,0.057c0.083,0.005,0.165,0.006,0.245,0.003c0.186-0.003,0.446-0.003,0.734-0.001l-0.001-0.002
	c0.272-0.005,0.669-0.042,0.527-0.618c-0.002-0.007-0.003-0.013-0.005-0.021c0-0.003-0.002-0.005-0.002-0.008
	c-0.002-0.007-0.002-0.013-0.004-0.021C8.156,17.819,8.153,17.81,8.152,17.8c-0.026-0.122-0.048-0.241-0.067-0.358
	c0-0.003-0.001-0.003-0.002-0.006c-0.03-0.172-0.167-0.281-0.413-0.242l-1.118,0.178c-0.011,0.002-0.021,0.003-0.031,0.003
	c-0.109,0.003-0.207-0.077-0.224-0.188c-0.019-0.121,0.063-0.235,0.185-0.254l1.127-0.18c0.35-0.057,0.38-0.268,0.377-0.403l0,0
	c-0.014-0.764,0.086-1.286,0.092-1.319c0.025-0.12,0.142-0.199,0.262-0.175c0.121,0.025,0.199,0.142,0.176,0.262
	c-0.003,0.013-0.234,1.219,0.081,2.636c0.131,0.587,0.572,0.739,0.872,0.772c0.16,0.002,0.266,0.005,0.29,0.005l0.446-0.008
	c0.06-0.004,0.117-0.007,0.173-0.01l-0.012-0.008c0.467-0.035,0.791-0.064,0.78-0.622l-0.141-7.296
	C10.989,9.778,10.949,9.415,10.16,9.429z M9.896,17.27c-0.007,0-0.014,0-0.021,0.002c-0.114,0.001-0.212-0.082-0.225-0.199
	c-0.028-0.243-0.27-2.396-0.275-2.688c-0.007-0.324,0.006-1.063,0.013-1.43l-1.245-0.082c0.001,0.333-0.088,0.887-0.622,1.291
	C6.63,14.84,5.583,14.234,5.155,13.82c-0.089-0.087-0.091-0.227-0.006-0.315c0.085-0.089,0.227-0.091,0.315-0.005
	c0.041,0.039,0.981,0.921,1.788,0.309c0.571-0.434,0.431-1.121,0.43-1.128c-0.015-0.068,0.003-0.141,0.048-0.191
	c0.046-0.055,0.113-0.082,0.183-0.078l1.716,0.111c0.119,0.008,0.211,0.109,0.208,0.229c0,0.011-0.026,1.203-0.018,1.625
	c0.004,0.229,0.198,1.989,0.273,2.647C10.106,17.145,10.018,17.255,9.896,17.27z"/>
<path fill="#FFFFFF" d="M19.247,15.94l-0.064-0.052c-0.006-0.003-0.008-0.004-0.008-0.004h0.002l-1.006-0.799
	c-0.096-0.076-0.111-0.215-0.035-0.312c0.076-0.096,0.217-0.112,0.313-0.037l0.377,0.299c0.006,0.004,0.012,0.006,0.018,0.012
	c0.258,0.185,0.582-0.028,0.563-0.367c-0.188-1.344-0.625-2.349-1.221-3.095c-0.203-0.245-0.463-0.455-0.674-0.104l-0.836,1.303
	c-0.043,0.066-0.115,0.104-0.189,0.103c-0.041,0-0.082-0.013-0.117-0.036c-0.104-0.065-0.135-0.203-0.068-0.307l0.814-1.272
	c0.15-0.279,0.158-0.517-0.02-0.69c-0.303-0.202-0.623-0.372-0.957-0.511c-0.389-0.163-0.578,0.006-0.646,0.35
	c0,0.006-0.002,0.012-0.004,0.019c-0.004,0.021-0.006,0.041-0.01,0.062c-0.002,0.019-0.005,0.032-0.01,0.043l0,0
	c-0.076,0.323-0.252,0.563-0.521,0.715c-0.248,0.14-0.543,0.18-0.811,0.176c-0.41-0.004-0.76-0.114-0.783-0.122
	c-0.117-0.038-0.182-0.161-0.144-0.279c0.036-0.117,0.163-0.182,0.28-0.145c0.215,0.068,0.857,0.198,1.239-0.02
	c0.159-0.089,0.259-0.23,0.306-0.429c0.129-0.543-0.045-0.702-0.427-0.811c-0.608-0.11-1.22-0.16-1.805-0.177
	c-0.79-0.01-0.827,0.353-0.839,1.159l-0.102,7.297c-0.007,0.558,0.317,0.587,0.784,0.619l-0.013,0.007
	c0.057,0.003,0.113,0.006,0.174,0.009l0.445,0.008c0.023-0.001,0.13-0.005,0.291-0.008c0.299-0.034,0.738-0.189,0.867-0.778
	c0.309-1.418,0.068-2.623,0.067-2.635c-0.024-0.121,0.053-0.238,0.173-0.264c0.121-0.024,0.238,0.054,0.263,0.174
	c0.007,0.033,0.11,0.555,0.101,1.318l0,0c-0.003,0.136,0.029,0.347,0.38,0.401l1.128,0.173c0.121,0.019,0.205,0.133,0.186,0.255
	c-0.018,0.11-0.113,0.189-0.223,0.188c-0.01-0.001-0.02-0.001-0.031-0.003l-1.119-0.171c-0.246-0.039-0.383,0.071-0.412,0.244
	c0,0.002,0,0.003-0.002,0.005c-0.019,0.118-0.039,0.238-0.064,0.359c-0.002,0.009-0.004,0.021-0.006,0.029
	c-0.002,0.007-0.003,0.014-0.004,0.02c0,0.004,0,0.006-0.002,0.008c-0.002,0.008-0.004,0.015-0.006,0.022
	c-0.139,0.575,0.259,0.61,0.53,0.615l-0.001,0.001c0.289-0.003,0.549-0.004,0.734-0.002c0.08,0.001,0.162-0.001,0.246-0.005
	c0.143-0.017,0.289-0.036,0.434-0.059c0.477-0.11,0.896-0.381,0.977-0.982c0.063-0.45-0.02-0.819-0.238-1.098
	c-0.236-0.295-0.619-0.476-1.113-0.523c-0.123-0.011-0.213-0.119-0.201-0.242c0.012-0.122,0.123-0.209,0.242-0.201
	c0.617,0.06,1.109,0.297,1.42,0.688c0.236,0.298,0.354,0.676,0.354,1.105c0.004,0.019,0.004,0.042,0.002,0.067
	c-0.016,0.376,0.322,0.631,0.662,0.4c0.314-0.257,0.531-0.583,0.598-0.999c0-0.013-0.002-0.026-0.002-0.039
	C19.528,16.251,19.351,16.034,19.247,15.94z M17.833,13.817c-0.428,0.417-1.471,1.027-2.365,0.355
	c-0.535-0.401-0.627-0.954-0.627-1.287l-1.244,0.089c0.008,0.366,0.023,1.105,0.02,1.43c-0.004,0.292-0.234,2.446-0.26,2.69
	c-0.014,0.116-0.111,0.201-0.225,0.198c-0.007,0-0.015,0-0.021,0c-0.121-0.015-0.211-0.123-0.197-0.246
	c0.07-0.658,0.255-2.419,0.258-2.648c0.006-0.423-0.027-1.612-0.027-1.625c-0.003-0.12,0.09-0.22,0.208-0.229l1.716-0.122
	c0.07-0.004,0.138,0.023,0.184,0.076c0.046,0.052,0.064,0.123,0.051,0.192c-0.002,0.007-0.139,0.694,0.436,1.124
	c0.811,0.609,1.744-0.277,1.785-0.317c0.088-0.086,0.229-0.084,0.314,0.004S17.921,13.732,17.833,13.817z"/>
</svg>
