<?xml version="1.0" encoding="utf-8"?>
<!-- Generator: Adobe Illustrator 19.0.0, SVG Export Plug-In . SVG Version: 6.00 Build 0)  -->
<svg version="1.1" id="Layer_1" xmlns="http://www.w3.org/2000/svg" xmlns:xlink="http://www.w3.org/1999/xlink" x="0px" y="0px"
	 viewBox="0 0 20 20" style="enable-background:new 0 0 20 20;" xml:space="preserve">
<style type="text/css">
	.st0{fill:#FFFFFF;}
</style>
<path id="XMLID_12_" class="st0" d="M12.2,11.7h-0.6c-0.2,0-0.4-0.2-0.4-0.3c0-0.2-0.1-0.3-0.2-0.5c-0.1-0.2,0-0.4,0.1-0.5l0.4-0.4
	c0.3-0.3,0.3-0.8,0-1.1l-0.7-0.7c-0.2-0.2-0.3-0.2-0.5-0.2C10,7.9,9.8,8,9.6,8.1L9.2,8.5C9.1,8.6,9,8.7,8.9,8.7c-0.1,0-0.2,0-0.2,0
	C8.5,8.5,8.4,8.5,8.2,8.4S7.9,8.1,7.9,8V7.3c0-0.4-0.3-0.8-0.8-0.8h-1c-0.4,0-0.8,0.3-0.8,0.8V8c0,0.2-0.2,0.4-0.3,0.4
	c-0.2,0-0.3,0.1-0.5,0.2c0,0-0.1,0-0.2,0c-0.1,0-0.3,0-0.3-0.1L3.5,8.1C3.3,7.9,3.1,7.9,2.9,7.9S2.5,8,2.4,8.1L1.7,8.8
	C1.5,9,1.5,9.2,1.5,9.4c0,0.2,0.1,0.4,0.2,0.5l0.4,0.4c0.1,0.1,0.2,0.4,0.1,0.5c-0.1,0.2-0.1,0.3-0.2,0.5c-0.1,0.2-0.3,0.3-0.4,0.3
	H0.9c-0.4,0-0.8,0.3-0.8,0.8v1c0,0.4,0.3,0.8,0.8,0.8h0.6c0.2,0,0.4,0.2,0.4,0.3c0,0.2,0.1,0.3,0.2,0.5c0.1,0.2,0,0.4-0.1,0.5
	l-0.4,0.4c-0.3,0.3-0.3,0.8,0,1.1L2.4,18c0.2,0.2,0.3,0.2,0.5,0.2s0.4-0.1,0.5-0.2l0.4-0.4c0.1-0.1,0.2-0.1,0.3-0.1
	c0.1,0,0.2,0,0.2,0c0.2,0.1,0.3,0.1,0.5,0.2c0.2,0.1,0.3,0.3,0.3,0.4v0.6c0,0.4,0.3,0.8,0.8,0.8h1c0.4,0,0.8-0.3,0.8-0.8v-0.6
	c0-0.2,0.2-0.4,0.3-0.4c0.2,0,0.3-0.1,0.5-0.2c0,0,0.1,0,0.2,0c0.1,0,0.3,0,0.3,0.1L9.6,18c0.2,0.2,0.3,0.2,0.5,0.2
	c0.2,0,0.4-0.1,0.5-0.2l0.7-0.7c0.3-0.3,0.3-0.8,0-1.1L11,15.7c-0.1-0.1-0.2-0.4-0.1-0.5c0.1-0.2,0.1-0.3,0.2-0.5
	c0-0.2,0.3-0.3,0.4-0.3h0.6c0.4,0,0.8-0.3,0.8-0.8v-1C13,12.1,12.7,11.7,12.2,11.7z M6.6,15.3c-1.3,0-2.3-1.1-2.3-2.3
	s1.1-2.3,2.3-2.3s2.3,1.1,2.3,2.3S7.8,15.3,6.6,15.3z"/>
<path id="XMLID_2_" class="st0" d="M19.4,4.3H19c-0.1,0-0.3-0.1-0.3-0.2s-0.1-0.2-0.1-0.3c-0.1-0.1,0-0.3,0.1-0.4L18.9,3
	c0.2-0.2,0.2-0.5,0-0.8l-0.5-0.5c-0.1-0.1-0.2-0.1-0.4-0.1s-0.3,0.1-0.4,0.1l-0.3,0.3c-0.1,0.1-0.1,0.1-0.2,0.1c-0.1,0-0.1,0-0.1,0
	c-0.1-0.1-0.2-0.1-0.3-0.1c-0.1-0.1-0.2-0.2-0.2-0.3V1.3c0-0.3-0.2-0.5-0.5-0.5h-0.7c-0.3,0-0.5,0.2-0.5,0.5v0.4
	c0,0.1-0.1,0.3-0.2,0.3c-0.1,0-0.2,0.1-0.3,0.1c0,0-0.1,0-0.1,0c-0.1,0-0.2,0-0.2-0.1l-0.3-0.3c-0.1-0.1-0.2-0.1-0.4-0.1
	c-0.1,0-0.3,0.1-0.4,0.1l-0.5,0.5C12.1,2.4,12,2.5,12,2.7S12.1,3,12.2,3l0.3,0.3c0.1,0.1,0.1,0.3,0.1,0.4c-0.1,0.1-0.1,0.2-0.1,0.3
	c-0.1,0.1-0.2,0.2-0.3,0.2h-0.4c-0.3,0-0.5,0.2-0.5,0.5v0.7c0,0.3,0.2,0.5,0.5,0.5h0.4c0.1,0,0.3,0.1,0.3,0.2c0,0.1,0.1,0.2,0.1,0.3
	c0.1,0.1,0,0.3-0.1,0.4l-0.3,0.3c-0.2,0.2-0.2,0.5,0,0.8l0.5,0.5c0.1,0.1,0.2,0.1,0.4,0.1c0.1,0,0.3-0.1,0.4-0.1l0.3-0.3
	c0.1-0.1,0.1-0.1,0.2-0.1c0.1,0,0.1,0,0.1,0c0.1,0.1,0.2,0.1,0.3,0.1c0.1,0.1,0.2,0.2,0.2,0.3v0.4c0,0.3,0.2,0.5,0.5,0.5h0.7
	c0.3,0,0.5-0.2,0.5-0.5V8.7c0-0.1,0.1-0.3,0.2-0.3c0.1,0,0.2-0.1,0.3-0.1c0,0,0.1,0,0.1,0c0.1,0,0.2,0,0.2,0.1l0.3,0.3
	c0.1,0.1,0.2,0.1,0.4,0.1s0.3-0.1,0.4-0.1l0.5-0.5c0.2-0.2,0.2-0.5,0-0.8L18.6,7c-0.1-0.1-0.1-0.3-0.1-0.4c0.1-0.1,0.1-0.2,0.1-0.3
	c0-0.1,0.2-0.2,0.3-0.2h0.4c0.3,0,0.5-0.2,0.5-0.5V4.8C20,4.5,19.7,4.3,19.4,4.3z M15.5,6.8c-0.9,0-1.6-0.7-1.6-1.6s0.7-1.6,1.6-1.6
	s1.6,0.7,1.6,1.6S16.4,6.8,15.5,6.8z"/>
</svg>
