<?xml version="1.0" encoding="utf-8"?>
<!-- Generator: Adobe Illustrator 20.1.0, SVG Export Plug-In . SVG Version: 6.00 Build 0)  -->
<svg version="1.1" id="Layer_1" xmlns="http://www.w3.org/2000/svg" xmlns:xlink="http://www.w3.org/1999/xlink" x="0px" y="0px"
	 viewBox="0 0 25 25" style="enable-background:new 0 0 25 25;" xml:space="preserve">
<style type="text/css">
	.st0{fill:#CFCFCF;}
</style>
<path class="st0" d="M5.5,6.2h0.3c0.5,0,0.9-0.4,0.9-0.9V2c0-0.5-0.4-0.9-0.9-0.9H5.5C5,1.2,4.6,1.6,4.6,2v3.3
	C4.6,5.8,5,6.2,5.5,6.2z"/>
<path class="st0" d="M16.6,6.2h0.3c0.5,0,0.9-0.4,0.9-0.9V2c0-0.5-0.4-0.9-0.9-0.9h-0.3c-0.5,0-0.9,0.4-0.9,0.9v3.3
	C15.7,5.8,16.1,6.2,16.6,6.2z"/>
<path class="st0" d="M6.1,13.9H3.6c-0.1,0-0.2,0.1-0.2,0.2v2.2c0,0.1,0.1,0.2,0.2,0.2h2.5c0.1,0,0.2-0.1,0.2-0.2v-2.2
	C6.3,14,6.2,13.9,6.1,13.9z"/>
<path class="st0" d="M10.2,13.9H7.7c-0.1,0-0.2,0.1-0.2,0.2v2.2c0,0.1,0.1,0.2,0.2,0.2h2.5c0.1,0,0.2-0.1,0.2-0.2v-2.2
	C10.4,14,10.3,13.9,10.2,13.9z"/>
<path class="st0" d="M6.1,17.5H3.6c-0.1,0-0.2,0.1-0.2,0.2v2.2C3.4,20,3.5,20,3.6,20h2.5c0.1,0,0.2-0.1,0.2-0.2v-2.2
	C6.3,17.6,6.2,17.5,6.1,17.5z"/>
<path class="st0" d="M10.2,17.5H7.7c-0.1,0-0.2,0.1-0.2,0.2v2.2C7.5,20,7.6,20,7.7,20h2.5c0.1,0,0.2-0.1,0.2-0.2v-2.2
	C10.4,17.6,10.3,17.5,10.2,17.5z"/>
<path class="st0" d="M11.5,21.4h-10V8.5h19.2v1c0.5,0.1,1,0.3,1.4,0.5V4.4c0-0.8-0.6-1.4-1.4-1.4h-2.2v2.6c0,0.9-0.7,1.3-1.6,1.3
	h-0.3c-0.9,0-1.6-0.7-1.6-1.6V2.9H7.3v2.4c0,0.9-0.7,1.6-1.6,1.6H5.5c-0.9,0-1.6-0.7-1.6-1.6V2.9H1.5c-0.8,0-1.4,0.6-1.4,1.4v17.1
	c0,0.8,0.6,1.4,1.4,1.4h11C12.1,22.4,11.8,21.9,11.5,21.4z"/>
<path class="st0" d="M11.8,12.8L11.8,12.8c0.8-1,1.7-1.8,2.7-2.4c0-0.1-0.1-0.1-0.2-0.1h-2.5c-0.1,0-0.2,0.1-0.2,0.2v2.2
	C11.6,12.8,11.7,12.8,11.8,12.8z"/>
<path class="st0" d="M18.7,11.2c-3.5,0-6.3,2.8-6.3,6.3c0,3.5,2.8,6.3,6.3,6.3c3.5,0,6.3-2.8,6.3-6.3C25,14,22.2,11.2,18.7,11.2z
	 M18.7,22.4c-2.7,0-5-2.2-5-5c0-2.7,2.2-5,5-5s5,2.2,5,5C23.6,20.2,21.4,22.4,18.7,22.4z"/>
<path class="st0" d="M22,17.3h-2.8v-3.4c0-0.3-0.2-0.5-0.5-0.5c-0.3,0-0.5,0.2-0.5,0.5v3.9c0,0.3,0.2,0.5,0.5,0.5H22
	c0.3,0,0.5-0.2,0.5-0.5C22.5,17.5,22.2,17.3,22,17.3z"/>
<path class="st0" d="M6.1,10.3H3.6c-0.1,0-0.2,0.1-0.2,0.2v2.2c0,0.1,0.1,0.2,0.2,0.2h2.5c0.1,0,0.2-0.1,0.2-0.2v-2.2
	C6.3,10.4,6.2,10.3,6.1,10.3z"/>
<path class="st0" d="M10.3,10.3H7.7c-0.1,0-0.2,0.1-0.2,0.2v2.2c0,0.1,0.1,0.2,0.2,0.2h2.5c0.1,0,0.2-0.1,0.2-0.2v-2.2
	C10.5,10.4,10.4,10.3,10.3,10.3z"/>
</svg>
