<?xml version="1.0" encoding="utf-8"?>
<!-- Generator: Adobe Illustrator 19.0.0, SVG Export Plug-In . SVG Version: 6.00 Build 0)  -->
<svg version="1.1" id="Layer_1" xmlns="http://www.w3.org/2000/svg" xmlns:xlink="http://www.w3.org/1999/xlink" x="0px" y="0px"
	 viewBox="0 0 20 20" style="enable-background:new 0 0 20 20;" xml:space="preserve">
<style type="text/css">
	.st0{fill:#FFFFFF;}
</style>
<path id="XMLID_38_" class="st0" d="M5.2,19.2c-0.8,0-1.5-0.6-1.5-1.5V6.6H2.6V4.4c0-0.8,0.6-1.5,1.5-1.5h2.2V1.6
	c0-0.5,0.4-0.8,0.8-0.8c0,0,5.8,0,5.8,0c0.5,0,0.8,0.4,0.8,0.8v1.3h2.1c0.8,0,1.5,0.6,1.5,1.5v2.3h-1.1v11.2c0,0.8-0.6,1.5-1.5,1.5
	H5.2z M14.7,17.6v-11H5.3v11H14.7z M15.7,5V4.5H4.3V5H15.7z M12.1,2.9V2.4H7.9v0.5H12.1z"/>
<path id="XMLID_23_" class="st0" d="M15.9,3.1h-2.4V1.6c0-0.3-0.3-0.6-0.6-0.6c0,0-0.1,0-0.1,0c0,0,0,0,0,0H7.1
	C6.8,1,6.5,1.3,6.5,1.6v1.6H4.1c-0.7,0-1.2,0.5-1.2,1.2v2H4v11.4C4,18.5,4.5,19,5.2,19h9.6c0.7,0,1.2-0.5,1.2-1.2V6.4h1.1v-2
	C17.1,3.7,16.6,3.1,15.9,3.1L15.9,3.1z M7.6,2.1h4.7v1H7.6V2.1z M14.9,17.8c0,0.1,0,0.1-0.1,0.1H5.2c-0.1,0-0.1,0-0.1-0.1V6.4h9.8
	V17.8z M16,5.2H4V4.4c0-0.1,0-0.1,0.1-0.1h11.8c0.1,0,0.1,0,0.1,0.1V5.2z M16,5.2"/>
<path id="XMLID_14_" class="st0" d="M15.9,3.1h-2.4V1.6c0-0.3-0.3-0.6-0.6-0.6c0,0-0.1,0-0.1,0c0,0,0,0,0,0H7.1
	C6.8,1,6.5,1.3,6.5,1.6v1.6H4.1c-0.7,0-1.2,0.5-1.2,1.2v2H4v11.4C4,18.5,4.5,19,5.2,19h9.6c0.7,0,1.2-0.5,1.2-1.2V6.4h1.1v-2
	C17.1,3.7,16.6,3.1,15.9,3.1L15.9,3.1z M7.6,2.1h4.7v1H7.6V2.1z M14.9,17.8c0,0.1,0,0.1-0.1,0.1H5.2c-0.1,0-0.1,0-0.1-0.1V6.4h9.8
	V17.8z M16,5.2H4V4.4c0-0.1,0-0.1,0.1-0.1h11.8c0.1,0,0.1,0,0.1,0.1V5.2z M16,5.2"/>
<path id="XMLID_6_" class="st0" d="M15.9,3.1h-2.4V1.6c0-0.3-0.3-0.6-0.6-0.6c0,0-0.1,0-0.1,0c0,0,0,0,0,0H7.1
	C6.8,1,6.5,1.3,6.5,1.6v1.6H4.1c-0.7,0-1.2,0.5-1.2,1.2v2H4v11.4C4,18.5,4.5,19,5.2,19h9.6c0.7,0,1.2-0.5,1.2-1.2V6.4h1.1v-2
	C17.1,3.7,16.6,3.1,15.9,3.1L15.9,3.1z M7.6,2.1h4.7v1H7.6V2.1z M14.9,17.8c0,0.1,0,0.1-0.1,0.1H5.2c-0.1,0-0.1,0-0.1-0.1V6.4h9.8
	V17.8z M16,5.2H4V4.4c0-0.1,0-0.1,0.1-0.1h11.8c0.1,0,0.1,0,0.1,0.1V5.2z M16,5.2"/>
<g id="XMLID_2_">
	<rect id="XMLID_29_" x="11.8" y="7.8" class="st0" width="1.6" height="8.6"/>
	<rect id="XMLID_33_" x="9.2" y="7.8" class="st0" width="1.6" height="8.6"/>
	<rect id="XMLID_34_" x="6.6" y="7.8" class="st0" width="1.6" height="8.6"/>
</g>
</svg>
