<?xml version="1.0" encoding="utf-8"?>
<!-- Generator: Adobe Illustrator 20.1.0, SVG Export Plug-In . SVG Version: 6.00 Build 0)  -->
<svg version="1.1" id="Layer_1" xmlns="http://www.w3.org/2000/svg" xmlns:xlink="http://www.w3.org/1999/xlink" x="0px" y="0px"
	 viewBox="0 0 25 25" style="enable-background:new 0 0 25 25;" xml:space="preserve">
<style type="text/css">
	.st0{fill:#A4A4A4;}
</style>
<g>
	<path class="st0" d="M20.7,2.9h-3.3V0.8C17.3,0.3,17,0,16.5,0h-0.1c0,0,0,0-0.1,0h-8C8,0,7.7,0.3,7.7,0.8V3H4.3
		c-1,0-1.7,0.7-1.7,1.7v2.8h1.5v15.9c0,1,0.7,1.7,1.7,1.7h13.4c1,0,1.7-0.7,1.7-1.7v-16h1.5V4.6C22.4,3.7,21.6,2.9,20.7,2.9
		L20.7,2.9z M9.2,1.5h6.6v1.4H9.2V1.5z M19.4,23.3c0,0.1,0,0.1-0.1,0.1H5.8c-0.1,0-0.1,0-0.1-0.1V7.4h13.7V23.3z M20.8,5.9H4.2V4.6
		c0-0.1,0-0.2,0.1-0.2h16.4c0.1,0,0.1,0.1,0.1,0.2V5.9z"/>
	<rect x="15.3" y="9.2" class="st0" width="1.6" height="12.8"/>
	<rect x="11.7" y="9.2" class="st0" width="1.6" height="12.8"/>
	<rect x="8.1" y="9.2" class="st0" width="1.6" height="12.8"/>
</g>
</svg>
