<?xml version="1.0" encoding="utf-8"?>
<!-- Generator: Adobe Illustrator 19.0.0, SVG Export Plug-In . SVG Version: 6.00 Build 0)  -->
<svg version="1.1" id="Layer_1" xmlns="http://www.w3.org/2000/svg" xmlns:xlink="http://www.w3.org/1999/xlink" x="0px" y="0px"
	 viewBox="0 0 40 40" style="enable-background:new 0 0 40 40;" xml:space="preserve">
<style type="text/css">
	.st0{fill:#2397D4;}
	.st1{fill:#FFFFFF;}
</style>
<path class="st0" d="M20,0C9,0,0,9,0,20s9,20,20,20s20-9,20-20S31,0,20,0z"/>
<path id="XMLID_38_" class="st1" d="M15.2,29.7c-0.8,0-1.5-0.6-1.5-1.5V17.1h-1.1v-2.2c0-0.8,0.6-1.5,1.5-1.5h2.2v-1.3
	c0-0.5,0.4-0.8,0.8-0.8h5.8c0.5,0,0.8,0.4,0.8,0.8v1.3h2.1c0.8,0,1.5,0.6,1.5,1.5v2.3h-1.1v11.2c0,0.8-0.6,1.5-1.5,1.5h-9.5V29.7z
	 M24.7,28.1v-11h-9.4v11H24.7z M25.7,15.5V15H14.3v0.5H25.7z M22.1,13.4v-0.5h-4.2v0.5H22.1z"/>
<path id="XMLID_24_" class="st1" d="M25.9,13.6h-2.4v-1.5c0-0.3-0.3-0.6-0.6-0.6h-0.1l0,0h-5.7c-0.3,0-0.6,0.3-0.6,0.6v1.6h-2.4
	c-0.7,0-1.2,0.5-1.2,1.2v2H14v11.4c0,0.7,0.5,1.2,1.2,1.2h9.6c0.7,0,1.2-0.5,1.2-1.2V16.9h1.1v-2C27.1,14.2,26.6,13.6,25.9,13.6
	L25.9,13.6z M17.6,12.6h4.7v1h-4.7V12.6z M24.9,28.3c0,0.1,0,0.1-0.1,0.1h-9.6c-0.1,0-0.1,0-0.1-0.1V16.9h9.8V28.3z M26,15.7H14
	v-0.8c0-0.1,0-0.1,0.1-0.1h11.8c0.1,0,0.1,0,0.1,0.1V15.7z"/>
<path id="XMLID_23_" class="st1" d="M25.9,13.6h-2.4v-1.5c0-0.3-0.3-0.6-0.6-0.6h-0.1l0,0h-5.7c-0.3,0-0.6,0.3-0.6,0.6v1.6h-2.4
	c-0.7,0-1.2,0.5-1.2,1.2v2H14v11.4c0,0.7,0.5,1.2,1.2,1.2h9.6c0.7,0,1.2-0.5,1.2-1.2V16.9h1.1v-2C27.1,14.2,26.6,13.6,25.9,13.6
	L25.9,13.6z M17.6,12.6h4.7v1h-4.7V12.6z M24.9,28.3c0,0.1,0,0.1-0.1,0.1h-9.6c-0.1,0-0.1,0-0.1-0.1V16.9h9.8V28.3z M26,15.7H14
	v-0.8c0-0.1,0-0.1,0.1-0.1h11.8c0.1,0,0.1,0,0.1,0.1V15.7z"/>
<path id="XMLID_22_" class="st1" d="M25.9,13.6h-2.4v-1.5c0-0.3-0.3-0.6-0.6-0.6h-0.1l0,0h-5.7c-0.3,0-0.6,0.3-0.6,0.6v1.6h-2.4
	c-0.7,0-1.2,0.5-1.2,1.2v2H14v11.4c0,0.7,0.5,1.2,1.2,1.2h9.6c0.7,0,1.2-0.5,1.2-1.2V16.9h1.1v-2C27.1,14.2,26.6,13.6,25.9,13.6
	L25.9,13.6z M17.6,12.6h4.7v1h-4.7V12.6z M24.9,28.3c0,0.1,0,0.1-0.1,0.1h-9.6c-0.1,0-0.1,0-0.1-0.1V16.9h9.8V28.3z M26,15.7H14
	v-0.8c0-0.1,0-0.1,0.1-0.1h11.8c0.1,0,0.1,0,0.1,0.1V15.7z"/>
<g id="XMLID_14_">
	<rect id="XMLID_29_" x="21.8" y="18.3" class="st1" width="1.6" height="8.6"/>
	<rect id="XMLID_33_" x="19.2" y="18.3" class="st1" width="1.6" height="8.6"/>
	<rect id="XMLID_34_" x="16.6" y="18.3" class="st1" width="1.6" height="8.6"/>
</g>
</svg>
