<?xml version="1.0" encoding="utf-8"?>
<!-- Generator: Adobe Illustrator 19.0.0, SVG Export Plug-In . SVG Version: 6.00 Build 0)  -->
<svg version="1.1" id="Layer_1" xmlns="http://www.w3.org/2000/svg" xmlns:xlink="http://www.w3.org/1999/xlink" x="0px" y="0px"
	 viewBox="0 0 20 20" style="enable-background:new 0 0 20 20;" xml:space="preserve">
<style type="text/css">
	.st0{fill:#FFFFFF;}
</style>
<path id="XMLID_6_" class="st0" d="M5.2,17.3c-0.3,0.1-0.5,0.1-0.8,0.1c-0.6,0.1-1.3,0.1-1.9,0.1c-0.1,0-0.1-0.1-0.1-0.1
	c0-0.1,0-0.2,0-0.3c0-0.1,0-0.3,0-0.4c0-0.3,0.1-0.6,0.1-1c0.1-0.6,0.2-1.1,0.5-1.6c0-0.1,0.1-0.1,0.1-0.2c-0.6,0.2-1.1,0.7-1.4,1.2
	c-0.3,0.5-0.5,1.1-0.7,1.7C1,17.2,1,17.5,1,17.9c0,0.2,0,0.4,0,0.6c0.1,0.3,0.3,0.5,0.6,0.5c0.3,0,0.5,0,0.8,0
	c1.2-0.1,2.4-0.4,3.2-1.3C5.8,17.5,6,17.3,6.1,17C5.8,17.1,5.5,17.2,5.2,17.3z"/>
<path id="XMLID_2_" class="st0" d="M12.5,13.8l-0.1-0.6l1.9-1.9c4.1-4.1,4.9-8.4,5-10c0-0.2,0-0.3-0.2-0.5c-0.1-0.1-0.3-0.2-0.5-0.2
	c-1.6,0.1-5.9,0.8-10,5L6.7,7.6L6.2,7.5C5,7.3,3.9,7.6,3.1,8.4l-2.2,2.2c-0.1,0.1-0.2,0.3-0.1,0.5c0.1,0.2,0.2,0.3,0.4,0.3L3,11.8
	c0.5,0.1,1,0.4,1.4,0.7L4.8,13l0.4,0.4l1.4,1.4L7,15.2l0.3,0.3C7.8,16,8,16.4,8.1,17l0.4,1.9c0,0.2,0.2,0.3,0.3,0.4
	c0.2,0.1,0.4,0,0.5-0.1l2.2-2.2C12.4,16.1,12.7,14.9,12.5,13.8z M17.8,2.2c-0.2,0.9-0.5,2.1-1.1,3.5c-0.1-0.6-0.4-1.1-0.8-1.6
	c-0.4-0.4-1-0.7-1.5-0.8C15.7,2.6,16.9,2.3,17.8,2.2z M12.5,7.5c-0.7-0.7-0.7-1.8,0-2.5c0.7-0.7,1.8-0.7,2.5,0
	c0.7,0.7,0.7,1.8,0,2.5C14.2,8.2,13.1,8.2,12.5,7.5z"/>
</svg>
