<?xml version="1.0" encoding="utf-8"?>
<!-- Generator: Adobe Illustrator 19.0.0, SVG Export Plug-In . SVG Version: 6.00 Build 0)  -->
<svg version="1.1" id="Layer_1" xmlns="http://www.w3.org/2000/svg" xmlns:xlink="http://www.w3.org/1999/xlink" x="0px" y="0px"
	 viewBox="10 -10 40 40" style="enable-background:new 10 -10 40 40;" xml:space="preserve">
<style type="text/css">
	.st0{fill:#2397D4;}
	.st1{fill:#FFFFFF;}
</style>
<path class="st0" d="M30-10c-11,0-20,9-20,20s9,20,20,20s20-9,20-20S41-10,30-10z"/>
<g>
	<path class="st1" d="M24.5,17.4c-0.6,0.1-1.3,0.1-1.9,0.1c-0.1,0-0.1-0.1-0.1-0.1c0-0.1,0-0.2,0-0.3c0-0.1,0-0.3,0-0.4
		c0-0.3,0.1-0.6,0.1-1c0.1-0.6,0.2-1.1,0.5-1.6c0-0.1,0.1-0.1,0.1-0.2c-0.6,0.2-1.1,0.7-1.4,1.2c-0.3,0.5-0.5,1.1-0.7,1.7
		C21,17.2,21,17.5,21,17.9c0,0.2,0,0.4,0,0.6c0.1,0.3,0.3,0.5,0.6,0.5c0.3,0,0.5,0,0.8,0c1.2-0.1,2.4-0.4,3.2-1.3
		c0.2-0.2,0.4-0.4,0.5-0.7c-0.3,0.1-0.6,0.2-0.9,0.3C25,17.4,24.7,17.4,24.5,17.4z"/>
	<path class="st1" d="M39.3,1.4c0-0.2,0-0.3-0.2-0.5c-0.1-0.1-0.3-0.2-0.5-0.2c-1.6,0.1-5.9,0.8-10,5l-1.9,1.9l-0.6-0.1
		c-1.1-0.2-2.2,0.1-3,0.9l-2.2,2.2c-0.1,0.1-0.2,0.3-0.1,0.5c0.1,0.2,0.2,0.3,0.4,0.3l1.9,0.4c0.5,0.1,1,0.4,1.4,0.7l0.4,0.4
		l0.4,0.4l1.4,1.4l0.5,0.5l0.3,0.3c0.4,0.4,0.6,0.9,0.7,1.4l0.4,1.9c0,0.2,0.2,0.3,0.3,0.4c0.2,0.1,0.4,0,0.5-0.1l2.2-2.2
		c0.8-0.8,1.1-1.9,0.9-3l-0.1-0.6l1.9-1.9C38.4,7.3,39.1,3,39.3,1.4z M37.8,2.2c-0.2,0.9-0.5,2.1-1.1,3.5c-0.1-0.6-0.4-1.1-0.8-1.6
		c-0.4-0.4-1-0.7-1.5-0.8C35.7,2.7,36.9,2.4,37.8,2.2z M32.5,7.5c-0.7-0.7-0.7-1.8,0-2.5c0.7-0.7,1.8-0.7,2.5,0
		c0.7,0.7,0.7,1.8,0,2.5C34.2,8.2,33.1,8.2,32.5,7.5z"/>
</g>
</svg>
