<?xml version="1.0" encoding="utf-8"?>
<!-- Generator: Adobe Illustrator 19.0.0, SVG Export Plug-In . SVG Version: 6.00 Build 0)  -->
<svg version="1.1" id="Layer_1" xmlns="http://www.w3.org/2000/svg" xmlns:xlink="http://www.w3.org/1999/xlink" x="0px" y="0px"
	 viewBox="0 0 35 35" style="enable-background:new 0 0 35 35;" xml:space="preserve">
<style type="text/css">
	.st0{fill:#1E99D5;}
</style>
<path class="st0" d="M17.5,0C7.8,0,0,7.8,0,17.5C0,27.1,7.8,35,17.5,35C27.1,35,35,27.1,35,17.5C35,7.8,27.1,0,17.5,0z M9.9,25.5
	c-0.3,0.1-0.5-0.2-0.5-0.4l0.8-3.7l3.3,3.3L9.9,25.5z M14.5,23.7l-3.3-3.3l8.3-8.3l3.3,3.3L14.5,23.7z M25.2,13l-1.6,1.6l-3.3-3.3
	l1.4-1.4c0.6-0.6,1.5-0.6,2,0l1.5,1.5C25.6,11.8,25.6,12.5,25.2,13z"/>
</svg>
