<?xml version="1.0" encoding="utf-8"?>
<!-- Generator: Adobe Illustrator 16.0.0, SVG Export Plug-In . SVG Version: 6.00 Build 0)  -->
<!DOCTYPE svg PUBLIC "-//W3C//DTD SVG 1.1//EN" "http://www.w3.org/Graphics/SVG/1.1/DTD/svg11.dtd">
<svg version="1.1" id="Layer_1" xmlns="http://www.w3.org/2000/svg" xmlns:xlink="http://www.w3.org/1999/xlink" x="0px" y="0px"
	 width="20.245px" height="14.462px" viewBox="0 0 20.245 14.462" enable-background="new 0 0 20.245 14.462" xml:space="preserve">
<g>
	<path fill="#A5A5A5" d="M10.127,10.126L7.62,7.931l-7.161,6.137c0.26,0.246,0.607,0.395,0.997,0.395h17.336
		c0.387,0,0.733-0.148,0.994-0.395l-7.16-6.137L10.127,10.126z M10.127,10.126"/>
	<path fill="#A5A5A5" d="M19.786,0.396C19.532,0.148,19.179,0,18.792,0H1.456C1.073,0,0.719,0.148,0.459,0.396l9.668,8.283
		L19.786,0.396z M19.786,0.396"/>
	<path fill="#A5A5A5" d="M0,1.271v12.011l6.991-5.939L0,1.271z M0,1.271"/>
	<path fill="#A5A5A5" d="M13.255,7.343l6.99,5.939V1.264L13.255,7.343z M13.255,7.343"/>
</g>
<g>
</g>
<g>
</g>
<g>
</g>
<g>
</g>
<g>
</g>
<g>
</g>
</svg>
