<?xml version="1.0" encoding="utf-8"?>
<!-- Generator: Adobe Illustrator 16.0.0, SVG Export Plug-In . SVG Version: 6.00 Build 0)  -->
<!DOCTYPE svg PUBLIC "-//W3C//DTD SVG 1.1//EN" "http://www.w3.org/Graphics/SVG/1.1/DTD/svg11.dtd">
<svg version="1.1" id="Layer_1" xmlns="http://www.w3.org/2000/svg" xmlns:xlink="http://www.w3.org/1999/xlink" x="0px" y="0px"
	 width="20px" height="20px" viewBox="0 0 20 20" enable-background="new 0 0 20 20" xml:space="preserve">
<g>
	<path fill="#FFFFFF" d="M6.78,14.825c0.162-0.412,0.107-0.875-0.201-1.191c-0.277-0.285-0.682-0.359-1.068-0.271
		c0.108-0.385,0.048-0.791-0.231-1.078c-0.278-0.285-0.682-0.359-1.068-0.27c0.108-0.381,0.048-0.789-0.231-1.077
		c-0.437-0.448-1.192-0.429-1.689,0.044c-0.494,0.472-0.81,1.331-0.369,1.837c0.44,0.504,0.946,0.197,1.331,0.109
		c-0.107,0.383-0.429,0.738-0.032,1.238c0.395,0.5,0.944,0.197,1.33,0.109c-0.106,0.381-0.414,0.773-0.034,1.236
		c0.384,0.465,1.012,0.219,1.428,0.088c-0.161,0.412-0.503,0.857-0.063,1.354c0.44,0.504,1.457,0.271,1.954-0.203
		c0.495-0.475,0.543-1.225,0.107-1.676C7.642,14.769,7.194,14.696,6.78,14.825z"/>
	<path fill="#FFFFFF" d="M16.869,5.245c-0.498,0.106-0.81-0.154-0.81-0.154s-0.959-0.825-2.035-1.731
		c-0.873-0.736-1.332-0.707-1.969-0.368C11.01,3.548,8.495,4.958,7.303,5.681c-0.44,0.247-0.748,0.583-0.748,1.076
		c0,0.636,0.819,1.471,1.809,0.944c0.523-0.254,1.775-0.907,2.62-1.352c0.921-0.485,1.493,0.076,1.493,0.076s3.324,3.306,4.26,4.202
		c0.607,0.583,1.444,0.313,1.71,0.281c0.268-0.033,1.564-0.29,1.564-0.29V4.557C20.011,4.557,18.092,4.986,16.869,5.245z"/>
	<path fill="#FFFFFF" d="M15.842,11.673c-3.59-3.591-1.901-1.901-3.833-3.837c0,0-0.581-0.579-1.346-0.242
		c-0.537,0.235-1.229,0.557-1.75,0.801c-0.572,0.3-0.984,0.392-1.177,0.392c-1.106-0.009-2.003-0.897-2.003-2
		c0-0.718,0.381-1.34,0.948-1.694c0.798-0.552,2.634-1.53,2.634-1.53S8.757,2.854,7.531,2.854c-1.225,0-3.785,1.676-3.785,1.676
		S3.02,4.997,1.985,4.577L-0.01,3.882v6.936c0,0,0.569,0.165,1.082,0.373c0.116-0.329,0.302-0.633,0.562-0.886
		c0.849-0.808,2.256-0.816,3.029-0.021c0.232,0.241,0.395,0.531,0.477,0.85c0.312,0.096,0.594,0.267,0.821,0.501
		c0.233,0.238,0.395,0.529,0.479,0.848c0.311,0.096,0.593,0.268,0.82,0.5c0.257,0.264,0.427,0.584,0.507,0.928
		c0.325,0.096,0.619,0.271,0.855,0.514c0.464,0.477,0.628,1.123,0.529,1.748c0.001,0,0.002,0,0.003,0
		c0.007,0.012,0.288,0.322,0.462,0.5c0.342,0.342,0.901,0.342,1.245,0c0.341-0.342,0.342-0.902,0-1.246
		c-0.012-0.012-1.235-1.289-1.136-1.389c0.097-0.1,1.654,1.523,1.683,1.551c0.343,0.342,0.902,0.342,1.245,0
		c0.342-0.342,0.342-0.9,0-1.244c-0.017-0.016-0.088-0.082-0.113-0.107c0,0-1.544-1.377-1.427-1.494
		c0.119-0.121,2.038,1.672,2.042,1.672c0.344,0.309,0.875,0.307,1.206-0.023c0.324-0.324,0.33-0.834,0.044-1.178
		c-0.006-0.018-1.462-1.539-1.348-1.656c0.114-0.115,1.556,1.369,1.559,1.371c0.341,0.342,0.9,0.342,1.244,0
		c0.342-0.34,0.342-0.9,0-1.244C15.854,11.679,15.848,11.675,15.842,11.673z"/>
</g>
<g>
</g>
<g>
</g>
<g>
</g>
<g>
</g>
<g>
</g>
<g>
</g>
</svg>
