<?xml version="1.0" encoding="utf-8"?>
<!-- Generator: Adobe Illustrator 19.0.0, SVG Export Plug-In . SVG Version: 6.00 Build 0)  -->
<svg version="1.1" id="Layer_1" xmlns="http://www.w3.org/2000/svg" xmlns:xlink="http://www.w3.org/1999/xlink" x="0px" y="0px"
	 viewBox="0 0 40 40" style="enable-background:new 0 0 40 40;" xml:space="preserve">
<style type="text/css">
	.st0{fill:#D0D0CF;}
</style>
<g id="XMLID_3_">
	<path id="XMLID_35_" class="st0" d="M14.9,15.8c0,3.5,2.4,6.3,5.3,6.3c2.9,0,5.3-2.8,5.3-6.3c0-0.9-0.1-1.7-0.2-2.4
		c-0.2,0.2-0.5,0.2-0.8,0.2h-8.7c-0.3,0-0.5-0.1-0.7-0.2C14.9,14.1,14.9,14.9,14.9,15.8z"/>
	<path id="XMLID_36_" class="st0" d="M24.5,12.7c0.2,0,0.3-0.2,0.3-0.3v-0.8c0-0.2-0.2-0.3-0.3-0.3h-8.7c-0.2,0-0.3,0.2-0.3,0.3v0.8
		c0,0.2,0.2,0.3,0.3,0.3H24.5z"/>
	<path id="XMLID_37_" class="st0" d="M14.6,7.1c0,0,0,0.1,0,0.1l0.7,3c0,0.2,0.2,0.3,0.3,0.3h4.5l4.5,0c0.2,0,0.3-0.1,0.3-0.3l0.7-3
		c0,0,0-0.1,0-0.1C26,7,26.2,6.8,26.2,6.5c0-0.4-0.3-0.7-0.7-0.7c-0.4,0-0.7,0.3-0.7,0.7c0,0.2,0.1,0.4,0.3,0.6l-0.9,0.9
		c-0.2,0.2-0.6,0.4-0.9,0.4c-0.4,0-0.8-0.2-1-0.5l-1.5-2c0,0,0,0,0,0c0.1-0.1,0.2-0.3,0.2-0.5c0-0.4-0.3-0.7-0.7-0.7
		c-0.4,0-0.7,0.3-0.7,0.7c0,0.2,0.1,0.4,0.2,0.5l-1.5,2c-0.2,0.3-0.6,0.5-1,0.5c-0.3,0-0.7-0.1-0.9-0.4L15.3,7
		c0.2-0.1,0.3-0.3,0.3-0.5c0-0.4-0.3-0.7-0.7-0.7c-0.4,0-0.7,0.3-0.7,0.7C14.1,6.8,14.3,7,14.6,7.1z"/>
	<path id="XMLID_38_" class="st0" d="M29.3,25.2c-0.1-0.3-0.3-0.5-0.6-0.6l-4.2-2.2c-0.1,0-0.2,0-0.3,0c-0.2,0.2-0.5,0.3-0.8,0.5
		c-0.1,0.1-0.2,0.1-0.4,0.2c0,0,0,0,0,0c-0.4,0.2-0.7,0.3-1.1,0.4c0,0-0.1,0-0.1,0c-0.1,0-0.2,0-0.3,0.1c-0.1,0-0.2,0-0.2,0
		c-0.1,0-0.1,0-0.2,0c-0.1,0-0.2,0-0.3,0c-0.1,0-0.1,0-0.2,0c-0.2,0-0.3,0-0.5,0c-1.4,0-2.8-0.5-4-1.4c-0.1-0.1-0.2-0.1-0.3,0
		l-4.2,2.2c-0.3,0.1-0.5,0.4-0.6,0.6l-2.2,5c1,1.1,2.3,2.1,3.6,2.8c0,0,0.1,0.1,0.1,0.1c0.2,0.1,0.3,0.2,0.5,0.3
		c0.3,0.2,0.6,0.3,0.9,0.4c0,0,0.1,0,0.1,0c0.4,0.1,0.7,0.3,1.1,0.4c0,0,0.1,0,0.1,0c0.4,0.1,0.8,0.2,1.2,0.3c0.1,0,0.1,0,0.2,0
		c0.4,0.1,0.8,0.2,1.2,0.2h0l0,0c0.8,0.1,1.6,0.2,2.4,0.2c1,0,1.9-0.1,2.9-0.3l0-0.1c0.9-0.2,1.8-0.4,2.6-0.8
		c0.4-0.3,1.8-0.8,1.8-0.8c1.4-0.8,2.8-1.8,3.9-3L29.3,25.2z"/>
</g>
</svg>
