<?xml version="1.0" encoding="utf-8"?>
<!-- Generator: Adobe Illustrator 16.0.0, SVG Export Plug-In . SVG Version: 6.00 Build 0)  -->
<!DOCTYPE svg PUBLIC "-//W3C//DTD SVG 1.1//EN" "http://www.w3.org/Graphics/SVG/1.1/DTD/svg11.dtd">
<svg version="1.1" id="Layer_1" xmlns="http://www.w3.org/2000/svg" xmlns:xlink="http://www.w3.org/1999/xlink" x="0px" y="0px"
	 width="20px" height="20px" viewBox="0 0 20 20" enable-background="new 0 0 20 20" xml:space="preserve">
<path fill="#FFFFFF" d="M15.879,9.108c1.025,0,1.855-0.974,1.855-2.176c0-1.664-0.83-2.175-1.855-2.175
	c-1.027,0-1.859,0.511-1.859,2.175C14.02,8.134,14.852,9.108,15.879,9.108z"/>
<path fill="#FFFFFF" d="M4.122,9.044c1.026,0,1.858-0.974,1.858-2.175c0-1.665-0.832-2.175-1.858-2.175s-1.858,0.51-1.858,2.175
	C2.264,8.07,3.096,9.044,4.122,9.044z"/>
<path fill="#FFFFFF" d="M10.112,9.834c1.429,0,2.585-1.355,2.585-3.027c0-2.318-1.156-3.027-2.585-3.027
	c-1.429,0-2.587,0.709-2.587,3.027C7.524,8.479,8.683,9.834,10.112,9.834z"/>
<path fill="#FFFFFF" d="M19.982,12.309l-0.938-2.112c-0.043-0.096-0.119-0.176-0.213-0.225l-1.455-0.757
	c-0.031-0.017-0.072-0.013-0.1,0.009c-0.412,0.312-0.895,0.475-1.398,0.475s-0.988-0.164-1.398-0.475
	c-0.029-0.022-0.068-0.025-0.1-0.009L13.754,9.54l0.982,0.512c0.35,0.181,0.633,0.482,0.795,0.845l1.23,2.769
	c0.65-0.137,1.158-0.389,1.385-0.699h1.406c0.16,0,0.307-0.078,0.393-0.215C20.033,12.619,20.045,12.453,19.982,12.309z"/>
<path fill="#FFFFFF" d="M4.69,10.899c0.163-0.364,0.446-0.666,0.799-0.849l0.931-0.484l-0.8-0.417
	C5.589,9.134,5.55,9.136,5.52,9.158C5.11,9.47,4.625,9.633,4.122,9.633S3.133,9.47,2.723,9.158C2.694,9.136,2.655,9.134,2.624,9.15
	L1.167,9.907c-0.093,0.049-0.168,0.129-0.21,0.226l-0.938,2.111c-0.065,0.146-0.052,0.313,0.036,0.445
	c0.086,0.133,0.233,0.213,0.394,0.213h1.023c0.292,0.402,1.047,0.707,1.979,0.789L4.69,10.899z"/>
<path fill="#FFFFFF" d="M15.822,14.289l-1.305-2.938c-0.061-0.135-0.164-0.248-0.295-0.316l-2.025-1.053
	c-0.045-0.023-0.1-0.018-0.139,0.012c-0.574,0.433-1.247,0.661-1.947,0.661s-1.375-0.228-1.947-0.661
	c-0.041-0.03-0.095-0.035-0.139-0.012L6,11.035c-0.131,0.068-0.234,0.182-0.293,0.316l-1.306,2.938
	c-0.09,0.203-0.072,0.436,0.05,0.621c0.12,0.188,0.324,0.295,0.547,0.295h1.426c0.473,0.654,1.825,1.127,3.422,1.127
	c1.596,0,2.949-0.473,3.42-1.127h1.961c0.221,0,0.426-0.107,0.545-0.295C15.893,14.725,15.912,14.492,15.822,14.289z"/>
<g>
</g>
<g>
</g>
<g>
</g>
<g>
</g>
<g>
</g>
<g>
</g>
</svg>
