<?xml version="1.0" encoding="utf-8"?>
<!-- Generator: Adobe Illustrator 19.0.0, SVG Export Plug-In . SVG Version: 6.00 Build 0)  -->
<svg version="1.1" id="Layer_1" xmlns="http://www.w3.org/2000/svg" xmlns:xlink="http://www.w3.org/1999/xlink" x="0px" y="0px"
	 viewBox="0 0 20 20" style="enable-background:new 0 0 20 20;" xml:space="preserve">
<style type="text/css">
	.st0{fill:#FFFFFF;}
</style>
<path id="XMLID_24_" class="st0" d="M8.3,13.7l6.9,0l0,0v1.9c0,0.3,0.3,0.6,0.6,0.6l0,0l0,0c0.2,0,0.3-0.1,0.4-0.2l3.7-3.7
	c0.2-0.2,0.2-0.6,0-0.9l-3.7-3.7c-0.2-0.2-0.6-0.2-0.9,0c-0.1,0.1-0.2,0.3-0.2,0.4V10l-6.9,0c-0.3,0-0.6,0.3-0.6,0.6l0,2.5
	C7.7,13.4,7.9,13.7,8.3,13.7z"/>
<path class="st0" d="M16.2,17.5H13H1.2V6.3h14.6v0h1.6V1.9c0-0.3-0.3-0.6-0.6-0.6H0.6C0.3,1.3,0,1.6,0,1.9v16.2
	c0,0.3,0.3,0.6,0.6,0.6h16.2c0.3,0,0.6-0.3,0.6-0.6v-0.6H16.2z M8.1,3c0.5,0,0.8,0.4,0.8,0.8c0,0.4-0.3,0.8-0.8,0.8S7.3,4.2,7.3,3.8
	C7.3,3.4,7.6,3,8.1,3z M5.6,3c0.5,0,0.8,0.4,0.8,0.8c0,0.4-0.3,0.8-0.8,0.8S4.8,4.2,4.8,3.8C4.8,3.4,5.1,3,5.6,3z M3.1,3
	c0.5,0,0.8,0.4,0.8,0.8c0,0.4-0.3,0.8-0.8,0.8S2.3,4.2,2.3,3.8C2.3,3.4,2.6,3,3.1,3z"/>
</svg>
