<?xml version="1.0" encoding="utf-8"?>
<!-- Generator: Adobe Illustrator 19.0.0, SVG Export Plug-In . SVG Version: 6.00 Build 0)  -->
<svg version="1.1" id="Layer_1" xmlns="http://www.w3.org/2000/svg" xmlns:xlink="http://www.w3.org/1999/xlink" x="0px" y="0px"
	 viewBox="2 -3 20 20" style="enable-background:new 2 -3 20 20;" xml:space="preserve">
<style type="text/css">
	.st0{fill:#FFFFFF;}
</style>
<g id="XMLID_2_">
	<path id="XMLID_12_" class="st0" d="M11.9-2.9c4.3,0,8,1.8,8.1,3.9c-0.1,2.2-3.8,4-8.1,4s-8-1.8-8.1-3.9C3.9-1.1,7.5-2.9,11.9-2.9
		L11.9-2.9z"/>
	<path id="XMLID_9_" class="st0" d="M20,12.8c0,2.2-3.7,4.1-8.2,4.1c-4.4,0-8.2-1.9-8.2-4.1v-1.9c1.4,1.7,4.5,2.8,8.2,2.8
		s6.8-1.1,8.2-2.8V12.8z"/>
	<path id="XMLID_6_" class="st0" d="M20,8.8c0,2.2-3.7,4.1-8.2,4.1c-4.4,0-8.2-1.9-8.2-4.1v-2C5,8.5,8.1,9.6,11.8,9.6
		s6.8-1.1,8.2-2.8V8.8z"/>
	<path id="XMLID_3_" class="st0" d="M20,4.8c0,2.2-3.7,4-8.2,4c-4.4,0-8.2-1.9-8.2-4V3C5,4.7,8.1,5.8,11.8,5.8S18.6,4.7,20,3V4.8z"
		/>
</g>
</svg>
