<?xml version="1.0" encoding="utf-8"?>
<!-- Generator: Adobe Illustrator 20.1.0, SVG Export Plug-In . SVG Version: 6.00 Build 0)  -->
<svg version="1.1" id="Layer_1" xmlns="http://www.w3.org/2000/svg" xmlns:xlink="http://www.w3.org/1999/xlink" x="0px" y="0px"
	 viewBox="0 0 25 25" style="enable-background:new 0 0 25 25;" xml:space="preserve">
<style type="text/css">
	.st0{fill:#A4A4A4;}
</style>
<path class="st0" d="M23.1,3H2C0.9,3,0,3.9,0,5v12.9c0,1.1,0.9,2,2,2h11.5l0,0h3.1l3.8,3.8c0.2,0.2,0.4,0.3,0.7,0.3
	c0.1,0,0.2,0,0.4-0.1c0.4-0.1,0.6-0.5,0.6-0.9v-3.2H23c1.1,0,2-0.9,2-2V5C25,3.9,24.1,3,23.1,3z M20.5,15.8h-8
	c-0.5,0-0.9-0.4-0.9-0.9S12,14,12.5,14h8c0.5,0,0.9,0.4,0.9,0.9S21,15.8,20.5,15.8z M20.5,12.4H4.6c-0.5,0-0.9-0.4-0.9-0.9
	s0.4-0.9,0.9-0.9h15.9c0.5,0,0.9,0.4,0.9,0.9S21,12.4,20.5,12.4z M20.5,9.1H4.6c-0.5,0-0.9-0.4-0.9-0.9s0.4-0.9,0.9-0.9h15.9
	c0.5,0,0.9,0.4,0.9,0.9S21,9.1,20.5,9.1z"/>
</svg>
