<?xml version="1.0" encoding="utf-8"?>
<!-- Generator: Adobe Illustrator 16.0.0, SVG Export Plug-In . SVG Version: 6.00 Build 0)  -->
<!DOCTYPE svg PUBLIC "-//W3C//DTD SVG 1.1//EN" "http://www.w3.org/Graphics/SVG/1.1/DTD/svg11.dtd">
<svg version="1.1" id="Layer_1" xmlns="http://www.w3.org/2000/svg" xmlns:xlink="http://www.w3.org/1999/xlink" x="0px" y="0px"
	 width="20px" height="20px" viewBox="0 0 20 20" enable-background="new 0 0 20 20" xml:space="preserve">
<path fill="#FFFFFF" d="M9.798,7.039c0.792,0.002,1.436-0.634,1.439-1.423h-0.003l-0.7-2.788L9.834,0.036L9.102,2.82L8.375,5.601
	H8.37C8.366,6.39,9.006,7.033,9.798,7.039z"/>
<path fill="#FFFFFF" d="M11.716,0.243l0.459,1.825c1.917,0.525,3.56,1.718,4.652,3.321l-5.278,5.494L8.368,7.588
	C8.188,7.4,7.936,7.293,7.671,7.293c-0.261,0-0.516,0.11-0.699,0.3l-4.793,5.049c-0.278-0.823-0.434-1.702-0.434-2.618
	c0-3.653,2.39-6.756,5.687-7.839l0.493-1.879c-4.486,0.958-7.863,4.95-7.863,9.718c0,5.482,4.458,9.939,9.94,9.939
	c5.479,0,9.938-4.457,9.938-9.939C19.939,5.13,16.379,1.06,11.716,0.243z M18.256,10.025c0,4.552-3.703,8.254-8.254,8.254
	c-2.903,0-5.457-1.511-6.929-3.782c0.013-0.012,0.026-0.021,0.041-0.033l4.565-4.81l3.176,3.291
	c0.181,0.188,0.436,0.297,0.697,0.297c0.261,0,0.516-0.108,0.696-0.301l5.505-5.728C18.074,8.092,18.256,9.037,18.256,10.025z"/>
<g>
</g>
<g>
</g>
<g>
</g>
<g>
</g>
<g>
</g>
<g>
</g>
</svg>
