<?xml version="1.0" encoding="utf-8"?>
<!-- Generator: Adobe Illustrator 19.0.0, SVG Export Plug-In . SVG Version: 6.00 Build 0)  -->
<svg version="1.1" id="Layer_1" xmlns="http://www.w3.org/2000/svg" xmlns:xlink="http://www.w3.org/1999/xlink" x="0px" y="0px"
	 viewBox="0 0 35 35" style="enable-background:new 0 0 35 35;" xml:space="preserve">
<style type="text/css">
	.st0{fill:#CFCFCF;}
</style>
<g id="XMLID_3_">
	<path id="XMLID_15_" class="st0" d="M32.4,6.9c-1.4,0-2.5,1.1-2.5,2.5c0,0.4,0.1,0.8,0.3,1.1l-5.8,5.8c-0.4-0.2-0.7-0.3-1.1-0.3
		c-0.4,0-0.8,0.1-1.1,0.3L19.7,14c0.2-0.4,0.3-0.7,0.3-1.1c0-1.4-1.1-2.5-2.5-2.5c-1.4,0-2.5,1.1-2.5,2.5c0,0.2,0,0.5,0.1,0.7
		l-11,11c-0.4-0.3-0.8-0.4-1.2-0.5V4.3c0-0.8,0.7-1.5,1.5-1.5h26.4c0.8,0,1.5,0.7,1.5,1.5v1.1c0,0.5,0.4,0.8,0.8,0.8
		s0.8-0.4,0.8-0.8V4.3c0-1.7-1.4-3.1-3.1-3.1H4.3c-1.7,0-3.1,1.4-3.1,3.1v20.3C0.4,25,0,25.8,0,26.7c0,1.4,1.1,2.5,2.5,2.5
		s2.5-1.1,2.5-2.5c0-0.2,0-0.5-0.1-0.7l11-11c0.4,0.3,0.9,0.5,1.5,0.5c0.4,0,0.8-0.1,1.1-0.3l2.3,2.3c-0.2,0.4-0.3,0.7-0.3,1.1
		c0,1.4,1.1,2.5,2.5,2.5c1.4,0,2.5-1.1,2.5-2.5c0-0.4-0.1-0.8-0.3-1.1l5.8-5.8c0.3,0.1,0.6,0.2,0.9,0.3v18.7c0,0.8-0.7,1.5-1.5,1.5
		h-1.2l-0.2,0H4.5l0,0H4.3c-0.8,0-1.5-0.7-1.5-1.5c0-0.5-0.4-0.8-0.8-0.8s-0.8,0.4-0.8,0.8c0,1.7,1.4,3.1,3.1,3.1h26.4
		c1.7,0,3.1-1.4,3.1-3.1V11.6c0.7-0.5,1.1-1.3,1.1-2.1C34.9,8.1,33.8,6.9,32.4,6.9z M31.7,10.1c-0.2-0.2-0.3-0.4-0.3-0.6
		c0-0.5,0.4-0.9,0.9-0.9c0.5,0,0.9,0.4,0.9,0.9c0,0.5-0.4,0.9-0.9,0.9C32.1,10.4,31.9,10.3,31.7,10.1z M23.2,17.7
		c0.5,0,0.9,0.4,0.9,0.9c0,0.5-0.4,0.9-0.9,0.9c-0.5,0-0.9-0.4-0.9-0.9C22.3,18.1,22.7,17.7,23.2,17.7z M17.4,13.8
		c-0.5,0-0.9-0.4-0.9-0.9c0-0.5,0.4-0.9,0.9-0.9c0.5,0,0.9,0.4,0.9,0.9C18.3,13.4,17.9,13.8,17.4,13.8z M3.4,26.7
		c0,0.5-0.4,0.9-0.9,0.9c-0.5,0-0.9-0.4-0.9-0.9c0-0.5,0.4-0.9,0.9-0.9C3,25.8,3.4,26.2,3.4,26.7z"/>
	<rect id="XMLID_25_" x="9.2" y="23.7" class="st0" width="20.2" height="1.6"/>
	<rect id="XMLID_26_" x="9.2" y="27.9" class="st0" width="20.2" height="1.6"/>
</g>
</svg>
