<?xml version="1.0" encoding="utf-8"?>
<!-- Generator: Adobe Illustrator 20.1.0, SVG Export Plug-In . SVG Version: 6.00 Build 0)  -->
<svg version="1.1" id="Layer_1" xmlns="http://www.w3.org/2000/svg" xmlns:xlink="http://www.w3.org/1999/xlink" x="0px" y="0px"
	 viewBox="0 0 45 45" style="enable-background:new 0 0 45 45;" xml:space="preserve">
<style type="text/css">
	.st0{fill:#F3BB3B;}
</style>
<path id="XMLID_590_" class="st0" d="M13.5,23.3c3.5,0,6.3-3.3,6.3-7.4c0-5.7-2.8-7.4-6.3-7.4c-3.5,0-6.3,1.7-6.3,7.4
	C7.1,20,10,23.3,13.5,23.3z"/>
<path id="XMLID_534_" class="st0" d="M29.6,20.3c4,0,7.3-3.8,7.3-8.5c0-6.5-3.2-8.5-7.3-8.5c-4,0-7.2,2-7.2,8.5
	C22.3,16.5,25.6,20.3,29.6,20.3z"/>
<g>
	<path class="st0" d="M41.9,24.6c-0.2-0.4-0.5-0.7-0.8-0.9l-0.4-0.2l-1.4,7.1L36.4,28L27,37.8c0.9,0.1,1.7,0.2,2.6,0.2
		c2.7,0,5.3-0.5,7.6-1.4c0.5-0.3,2.5-1.1,2.5-1.1c2-1.1,3.7-2.4,5.3-4L41.9,24.6z"/>
	<path class="st0" d="M25.4,26.5l1.2,2.6l5.1-5.3l-1.5-1.3c-0.2,0-0.4,0-0.6,0c-2,0-3.9-0.6-5.5-1.9c-0.1-0.1-0.3-0.1-0.4,0l-4,2.1
		l4.4,2.3C24.7,25.4,25.2,25.9,25.4,26.5z"/>
</g>
<g>
	<path class="st0" d="M16.1,33.7l-4.6,4.9c0.7,0.1,1.3,0.1,2,0.1c2.2,0,4.4-0.4,6.4-1.1L16.1,33.7z"/>
	<path class="st0" d="M13.8,27.1c0.6-0.6,1.4-1,2.2-1c0.8,0,1.7,0.3,2.2,0.9l5.2,5.3l2.2-2.3L24.3,27c-0.1-0.3-0.4-0.6-0.7-0.8
		l-5-2.6c-0.1-0.1-0.2,0-0.3,0c-1.4,1.1-3.1,1.6-4.8,1.6c-1.7,0-3.4-0.6-4.8-1.6c-0.1-0.1-0.2-0.1-0.3,0l-5,2.6
		c-0.3,0.2-0.6,0.4-0.7,0.8L0,33c1.4,1.4,3,2.7,4.8,3.6L13.8,27.1z"/>
</g>
<path class="st0" d="M36.1,21.2l-4,1.4l1.5,1.3l-10,10.4L17.4,28c-0.3-0.4-0.8-0.6-1.3-0.6c-0.5,0-1,0.2-1.3,0.6l-10,10.6
	C4,39.3,4,40.5,4.8,41.2c0.3,0.3,0.8,0.5,1.3,0.5c0.5,0,1-0.2,1.3-0.6l8.7-9.2l6.1,6.3c0.3,0.4,0.8,0.6,1.3,0.6c0.5,0,1-0.2,1.3-0.6
	l11.5-11.9l2.2,1.9l0.8-4.2l0.8-4.2L36.1,21.2z"/>
</svg>
