<?xml version="1.0" encoding="utf-8"?>
<!-- Generator: Adobe Illustrator 16.0.0, SVG Export Plug-In . SVG Version: 6.00 Build 0)  -->
<!DOCTYPE svg PUBLIC "-//W3C//DTD SVG 1.1//EN" "http://www.w3.org/Graphics/SVG/1.1/DTD/svg11.dtd">
<svg version="1.1" id="Layer_1" xmlns="http://www.w3.org/2000/svg" xmlns:xlink="http://www.w3.org/1999/xlink" x="0px" y="0px"
	 width="248.696px" height="474.647px" viewBox="0 0 248.696 474.647" enable-background="new 0 0 248.696 474.647"
	 xml:space="preserve">
<g>
	<path fill="#7B808D" d="M72.1,8.126c-5.523,0-10.001,4.477-10.001,10s4.478,10,10.001,10c5.522,0,10-4.477,10-10
		S77.622,8.126,72.1,8.126z M72.1,26.126c-4.412,0-8.001-3.588-8.001-8s3.589-8,8.001-8c4.411,0,8,3.588,8,8
		S76.511,26.126,72.1,26.126z"/>
	<path fill="#7B808D" d="M72.1,14.126c-2.207,0-4.001,1.794-4.001,4s1.794,4,4.001,4c2.205,0,4-1.794,4-4S74.305,14.126,72.1,14.126
		z"/>
</g>
<rect x="21.788" y="16.732" fill="#7B808D" width="40.311" height="2"/>
<g>
	<path fill="#7B808D" d="M73.204,72.913c-5.523,0-10.001,4.477-10.001,10s4.478,10,10.001,10c5.522,0,10-4.477,10-10
		S78.726,72.913,73.204,72.913z M73.204,90.913c-4.412,0-8.001-3.588-8.001-8s3.589-8,8.001-8c4.411,0,8,3.588,8,8
		S77.615,90.913,73.204,90.913z"/>
	<path fill="#7B808D" d="M73.204,78.913c-2.207,0-4.001,1.794-4.001,4s1.794,4,4.001,4c2.205,0,4-1.794,4-4
		S75.409,78.913,73.204,78.913z"/>
</g>
<rect x="22.892" y="81.519" fill="#7B808D" width="40.311" height="2"/>
<g>
	<path fill="#7B808D" d="M73.336,136.57c-5.523,0-10.001,4.477-10.001,10s4.478,10,10.001,10c5.522,0,10-4.477,10-10
		S78.858,136.57,73.336,136.57z M73.336,154.57c-4.412,0-8.001-3.588-8.001-8s3.589-8,8.001-8c4.411,0,8,3.588,8,8
		S77.747,154.57,73.336,154.57z"/>
	<path fill="#7B808D" d="M73.336,142.57c-2.207,0-4.001,1.794-4.001,4s1.794,4,4.001,4c2.205,0,4-1.794,4-4
		S75.541,142.57,73.336,142.57z"/>
</g>
<rect x="23.024" y="145.176" fill="#7B808D" width="40.311" height="2"/>
<g>
	<path fill="#7B808D" d="M73.87,200.187c-5.523,0-10.001,4.477-10.001,10s4.478,10,10.001,10c5.522,0,10-4.477,10-10
		S79.393,200.187,73.87,200.187z M73.87,218.187c-4.412,0-8.001-3.588-8.001-8s3.589-8,8.001-8c4.411,0,8,3.588,8,8
		S78.281,218.187,73.87,218.187z"/>
	<path fill="#7B808D" d="M73.87,206.187c-2.207,0-4.001,1.794-4.001,4s1.794,4,4.001,4c2.205,0,4-1.794,4-4
		S76.075,206.187,73.87,206.187z"/>
</g>
<rect x="23.559" y="208.793" fill="#7B808D" width="40.311" height="2"/>
<g>
	<path fill="#7B808D" d="M73.903,261.36c-5.523,0-10.001,4.477-10.001,10s4.478,10,10.001,10c5.522,0,10-4.477,10-10
		S79.426,261.36,73.903,261.36z M73.903,279.36c-4.412,0-8.001-3.588-8.001-8s3.589-8,8.001-8c4.411,0,8,3.588,8,8
		S78.314,279.36,73.903,279.36z"/>
	<path fill="#7B808D" d="M73.903,267.36c-2.207,0-4.001,1.794-4.001,4s1.794,4,4.001,4c2.205,0,4-1.794,4-4
		S76.108,267.36,73.903,267.36z"/>
</g>
<rect x="23.592" y="269.966" fill="#7B808D" width="40.311" height="2"/>
<rect x="17.559" y="18.125" fill="#7B808D" width="2" height="271.043"/>
<path fill="#FFFFFF" d="M126.986,431.076c13.448,0,24.347-12.758,24.347-28.495c0-21.824-10.898-28.497-24.347-28.497
	c-13.444,0-24.343,6.673-24.343,28.497C102.643,418.318,113.542,431.076,126.986,431.076L126.986,431.076z M126.986,431.076"/>
<path fill="#FFFFFF" d="M180.743,473.017l-12.279-27.669c-0.562-1.267-1.545-2.318-2.777-2.956l-19.063-9.922
	c-0.414-0.219-0.927-0.179-1.307,0.109c-5.388,4.077-11.733,6.233-18.331,6.233c-6.603,0-12.94-2.156-18.332-6.233
	c-0.376-0.288-0.888-0.328-1.31-0.109l-19.065,9.922c-1.226,0.638-2.209,1.689-2.767,2.956l-12.289,27.669
	c-0.233,0.527-0.38,1.076-0.459,1.63h108.438C181.124,474.093,180.977,473.544,180.743,473.017z M129.604,468.238l-2.621,4.538
	l-2.62-4.538l-2.619-4.537l5.239-20.921l5.24,20.921L129.604,468.238z"/>
<path fill="#EDECED" d="M122.146,315.456c-3.228-0.116-4.035,2.593-4.035,2.593c-5.131,0.289-5.708,3.17-5.708,3.17
	c-3.977,1.27-3.804,5.361-3.804,5.361c-2.94,2.305-1.518,5.418-1.518,5.418c-2.397,2.771,0,5.881,0,5.881
	c-0.457,4.415,2.037,5.763,2.037,5.763c1.268,4.842,5.649,5.015,5.649,5.015c2.191,3.401,6.745,2.247,6.745,2.247
	c4.035-0.115,4.612-4.89,4.612-4.89v-27.331C125.777,317.991,125.374,315.57,122.146,315.456z M125.142,346.013
	c0,0-0.949,4.314-4.984,4.256c0,0-4.843-0.037-5.591-4.256c0,0-0.75-3.121,1.614-4.851c0,0-0.058-1.211-0.98-0.634
	c0,0-2.94,2.709-1.211,6.974c0,0-2.714-0.057-4.269-4.381c0,0-2.187-1.728-1.957-4.322c0,0,2.364,1.384,4.323,1.009
	c0,0,1.845-0.432,2.249-1.009c0,0,2.42,2.478,5.763,0.635c0,0,0.692,0.865,1.269,0.374c0,0-0.403-0.317-1.211-1.066l0.058-1.383
	c0,0-0.691-0.522-0.634,0.258l-0.057,1.067c0,0-2.768,1.553-4.9-1.067l-0.499,0.432c0,0-2.441,1.788-5.15,0.232
	c0,0-3.804-1.556-0.864-5.994c0,0-1.327-2.883,0.691-4.497c0,0,1.441,5.766,7.551,4.728c0,0,0.807,0.923,1.557,1.21l-1.841,0.173
	c0,0-0.983,0.807,0.285,1.153c0,0,5.587-0.114,8.788-5.707V346.013z M125.142,325.946c-1.356,5.591-5.561,7.089-5.561,7.089
	c-3.803-0.114-2.939-3.977-2.939-3.977c0.288,0,0.792-0.174,0.792-0.174c0.905-0.575,0-0.575,0-0.575
	c-1.979,0.519-2.118-0.403-2.118-0.403c-0.633-0.346-0.691,0.173-0.691,0.173c0,0.23,0.921,1.037,0.921,1.037
	c-0.057,0.635,0.289,2.421,0.289,2.421c-0.865,0.173-2.248,0-2.248,0c-3.689-0.806-3.863-5.072-3.863-5.072
	c-0.115-3.861,3.286-4.496,3.286-4.496c1.499-3.286,4.554-2.882,4.554-2.882c-0.172,2.768,1.326,3.746,1.326,3.746
	c1.268,1.095,2.925,1.211,2.925,1.211c-0.073,0.173,0.418,0.921,0.418,0.921c0.692,0.463,0.519-0.401,0.519-0.401
	c-0.692-1.27-0.116-2.134-0.116-2.134c0.173-0.402-0.115-0.519-0.115-0.519c-0.806-0.346-0.707,1.183-0.707,1.183
	c-1.807-0.305-2.246-0.913-2.246-0.913c-2.433-2.331,0-4.966,0-4.966c3.648-2.432,5.573,1.435,5.573,1.435V325.946z"/>
<g>
	<path fill="#F4BA3F" d="M133.444,352.398h-14.09c-0.583,0-1.056,0.39-1.056,0.874v0.582c0,0.483,0.473,0.875,1.056,0.875h14.09
		c0.583,0,1.058-0.392,1.058-0.875v-0.582C134.502,352.788,134.027,352.398,133.444,352.398z"/>
	<path fill="#F4BA3F" d="M133.444,355.893h-14.09c-0.583,0-1.056,0.393-1.056,0.876v0.583c0,0.482,0.473,0.873,1.056,0.873h14.09
		c0.583,0,1.058-0.391,1.058-0.873v-0.583C134.502,356.286,134.027,355.893,133.444,355.893z"/>
	<path fill="#F4BA3F" d="M133.444,359.392h-14.09c-0.583,0-1.056,0.39-1.056,0.874v0.583c0,0.482,0.473,0.874,1.056,0.874h14.09
		c0.583,0,1.058-0.392,1.058-0.874v-0.583C134.502,359.782,134.027,359.392,133.444,359.392z"/>
	<path fill="#F4BA3F" d="M121.116,362.888h10.568c0,1.748-2.818,2.914-5.284,2.914S121.116,364.636,121.116,362.888z"/>
</g>
<path fill="#F4BA3F" d="M127.737,312.449c0,0.739-0.6,1.337-1.337,1.337l0,0c-0.738,0-1.337-0.598-1.337-1.337v-9.234
	c0-0.738,0.599-1.337,1.337-1.337l0,0c0.737,0,1.337,0.599,1.337,1.337V312.449z"/>
<path fill="#F4BA3F" d="M149.869,336.561c-0.738,0-1.337-0.597-1.337-1.335l0,0c0-0.738,0.599-1.338,1.337-1.338h9.234
	c0.738,0,1.337,0.6,1.337,1.338l0,0c0,0.738-0.599,1.335-1.337,1.335H149.869z"/>
<path fill="#F4BA3F" d="M93.567,336.561c-0.738,0-1.337-0.597-1.337-1.335l0,0c0-0.738,0.599-1.338,1.337-1.338h9.236
	c0.738,0,1.336,0.6,1.336,1.338l0,0c0,0.738-0.599,1.335-1.336,1.335H93.567z"/>
<path fill="#F4BA3F" d="M142.794,317.996c-0.521,0.522-1.367,0.522-1.89,0l0,0c-0.522-0.521-0.522-1.368,0-1.89l6.53-6.53
	c0.521-0.522,1.368-0.522,1.891,0l0,0c0.521,0.522,0.521,1.368,0,1.891L142.794,317.996z"/>
<path fill="#F4BA3F" d="M110.005,317.996c0.522,0.522,1.369,0.522,1.89,0l0,0c0.522-0.521,0.522-1.368,0-1.89l-6.531-6.53
	c-0.522-0.522-1.367-0.522-1.89,0l0,0c-0.522,0.522-0.522,1.368,0,1.891L110.005,317.996z"/>
<path fill="#EDECED" d="M134.826,323.594c-0.749,0-1.356,0.608-1.356,1.357c0,0.75,0.607,1.357,1.356,1.357
	c0.75,0,1.357-0.607,1.357-1.357C136.184,324.203,135.576,323.594,134.826,323.594z M134.826,325.56
	c-0.335,0-0.607-0.272-0.607-0.608c0-0.335,0.272-0.607,0.607-0.607s0.608,0.272,0.608,0.607
	C135.435,325.288,135.161,325.56,134.826,325.56z"/>
<path fill="#EDECED" d="M145.718,331.998c0,0,1.422-3.113-1.518-5.418c0,0,0.172-4.092-3.805-5.361c0,0-0.576-2.881-5.707-3.17
	c0,0-0.807-2.709-4.033-2.593c-3.229,0.114-3.633,2.535-3.979,3.227v27.331c0,0,0.577,4.774,4.612,4.89c0,0,4.554,1.154,6.744-2.247
	c0,0,4.381-0.173,5.649-5.015c0,0,2.493-1.348,2.036-5.763C145.718,337.878,148.116,334.769,145.718,331.998z M143.87,342.299
	c-0.323,0.403-0.619,0.674-0.736,0.775c-0.186,0.602-0.457,1.168-0.805,1.688c-1.463,2.554-3.309,2.729-3.502,2.74
	c-0.424,0.161-0.867,0.286-1.325,0.375c-1.577,2.365-4.861,2.392-4.861,2.392c-4.034,0.059-4.983-4.256-4.983-4.256v-10.221v-6.446
	v-3.4v-1.196v-6.101c0,0,1.925-3.866,5.574-1.435c0,0,0.957,1.039,1.068,2.387c0.003,0.036,0.002,2.544,0,4.162
	c0.162-0.067,0.34-0.106,0.526-0.106c0.144,0,0.283,0.022,0.414,0.064c0.003-1.728,0.005-4.47-0.005-4.635
	c0,0,3.055-0.404,4.553,2.882c0,0,3.402,0.635,3.286,4.496c0,0-0.011,0.265-0.083,0.674c0.36,0.175,0.697,0.398,1,0.67
	c0.004-0.012,0.006-0.019,0.006-0.019c2.018,1.614,0.691,4.497,0.691,4.497c1.752,2.644,1.109,4.265,0.303,5.144
	c0.064,0.375,0.104,0.766,0.104,1.17c0,0.311-0.022,0.613-0.06,0.907c-0.051,0.665-0.249,1.258-0.504,1.763
	C144.348,341.665,144.124,342.009,143.87,342.299z"/>
<rect x="127.584" y="328.378" fill="#EDECED" width="12.126" height="0.916"/>
<rect x="138.794" y="328.378" fill="#EDECED" width="0.916" height="3.722"/>
<path fill="#EDECED" d="M139.251,331.604c-0.748,0-1.357,0.607-1.357,1.357s0.609,1.356,1.357,1.356c0.75,0,1.357-0.606,1.357-1.356
	S140.001,331.604,139.251,331.604z M139.251,333.57c-0.336,0-0.607-0.274-0.607-0.608c0-0.337,0.271-0.609,0.607-0.609
	s0.609,0.272,0.609,0.609C139.86,333.295,139.587,333.57,139.251,333.57z"/>
<rect x="131.831" y="328.834" fill="#EDECED" width="0.916" height="6.235"/>
<path fill="#EDECED" d="M132.288,334.574c-0.748,0-1.355,0.607-1.355,1.356c0,0.75,0.607,1.358,1.355,1.358
	c0.75,0,1.357-0.608,1.357-1.358C133.646,335.181,133.038,334.574,132.288,334.574z M132.288,336.539
	c-0.334,0-0.607-0.272-0.607-0.608c0-0.334,0.273-0.607,0.607-0.607c0.337,0,0.609,0.273,0.609,0.607
	C132.897,336.266,132.625,336.539,132.288,336.539z"/>
<rect x="135.259" y="340.503" fill="#EDECED" width="0.914" height="3.722"/>
<path fill="#EDECED" d="M135.716,343.729c-0.75,0-1.357,0.607-1.357,1.357c0,0.749,0.607,1.357,1.357,1.357s1.357-0.608,1.357-1.357
	C137.073,344.336,136.466,343.729,135.716,343.729z M135.716,345.695c-0.336,0-0.609-0.272-0.609-0.608
	c0-0.335,0.273-0.608,0.609-0.608s0.607,0.273,0.607,0.608C136.323,345.422,136.052,345.695,135.716,345.695z"/>
<rect x="142.226" y="336.537" fill="#EDECED" width="0.915" height="3.722"/>
<path fill="#EDECED" d="M142.683,337.033c0.75,0,1.357-0.607,1.357-1.358c0-0.749-0.607-1.356-1.357-1.356
	c-0.748,0-1.357,0.607-1.357,1.356C141.325,336.425,141.935,337.033,142.683,337.033z M142.683,335.067
	c0.336,0,0.609,0.272,0.609,0.607c0,0.337-0.273,0.609-0.609,0.609c-0.335,0-0.607-0.272-0.607-0.609
	C142.075,335.339,142.348,335.067,142.683,335.067z"/>
<path fill="#EDECED" d="M132.666,340.045c0.052,0.144,0.081,0.298,0.081,0.458s-0.029,0.314-0.081,0.457h12.647v-0.915H132.666z"/>
<path fill="#EDECED" d="M131.39,341.862c-0.16,0-0.314-0.029-0.457-0.083v8.614h0.914v-8.614
	C131.704,341.833,131.551,341.862,131.39,341.862z"/>
<path fill="#EDECED" d="M131.39,339.147c-0.75,0-1.357,0.607-1.357,1.356s0.607,1.358,1.357,1.358s1.357-0.609,1.357-1.358
	S132.14,339.147,131.39,339.147z M131.39,341.112c-0.335,0-0.609-0.274-0.609-0.608c0-0.337,0.274-0.608,0.609-0.608
	s0.609,0.271,0.609,0.608C131.999,340.837,131.725,341.112,131.39,341.112z"/>
<g>
	<path fill="#FFFFFF" d="M102.729,138.73h2.299v2.532c-0.553,0.111-1.099,0.166-1.635,0.166c-1.029,0-1.814-0.347-2.354-1.042
		c-0.54-0.694-0.81-1.7-0.81-3.017c0-1.262,0.335-2.266,1.005-3.013c0.669-0.747,1.561-1.121,2.672-1.121
		c0.958,0,1.879,0.221,2.765,0.664l0.854-2.059c-1.156-0.498-2.357-0.747-3.602-0.747c-1.987,0-3.541,0.548-4.661,1.644
		c-1.121,1.096-1.681,2.623-1.681,4.582c0,2.014,0.482,3.56,1.448,4.636c0.966,1.076,2.364,1.614,4.196,1.614
		c0.719,0,1.423-0.051,2.112-0.153c0.688-0.103,1.423-0.281,2.204-0.536v-6.292h-4.814V138.73z"/>
	<path fill="#FFFFFF" d="M112.764,138.681c0-0.747,0.226-1.328,0.677-1.743c0.45-0.415,1.08-0.623,1.888-0.623
		c0.294,0,0.543,0.028,0.748,0.083l0.19-2.374c-0.228-0.05-0.512-0.075-0.854-0.075c-0.576,0-1.108,0.159-1.599,0.477
		c-0.489,0.318-0.878,0.738-1.166,1.258h-0.124l-0.374-1.561h-1.917v9.28h2.531V138.681z"/>
	<path fill="#FFFFFF" d="M125.19,142.292c0.797-0.852,1.196-2.034,1.196-3.544c0-0.974-0.182-1.823-0.547-2.548
		c-0.366-0.725-0.889-1.281-1.57-1.668s-1.466-0.581-2.357-0.581c-1.433,0-2.546,0.42-3.337,1.262s-1.188,2.02-1.188,3.536
		c0,0.974,0.184,1.826,0.549,2.557s0.888,1.291,1.568,1.681c0.681,0.39,1.467,0.585,2.357,0.585
		C123.284,143.57,124.393,143.144,125.19,142.292z M120.421,140.831c-0.302-0.47-0.452-1.165-0.452-2.083
		c0-0.924,0.149-1.615,0.448-2.071c0.299-0.457,0.786-0.685,1.461-0.685c0.681,0,1.171,0.229,1.47,0.689s0.447,1.148,0.447,2.067
		c0,0.924-0.147,1.62-0.443,2.087c-0.297,0.468-0.781,0.702-1.457,0.702C121.214,141.536,120.723,141.301,120.421,140.831z"/>
	<path fill="#FFFFFF" d="M132.679,143.404l1.693-7.346h0.057l0.963,4.101l0.715,3.246h2.756l2.672-9.28h-2.48l-1.113,4.109
		c-0.055,0.244-0.146,0.712-0.273,1.407c-0.127,0.695-0.217,1.241-0.266,1.64h-0.051c-0.004-0.155-0.025-0.361-0.063-0.618
		c-0.035-0.258-0.074-0.521-0.119-0.789c-0.045-0.268-0.09-0.521-0.137-0.759s-0.082-0.418-0.104-0.54l-1.088-4.449h-2.789
		l-1.146,4.449l-0.133,0.706c-0.17,0.913-0.268,1.58-0.289,2h-0.051c-0.178-1.295-0.352-2.311-0.523-3.046l-1.07-4.109h-2.523
		l2.641,9.28H132.679z"/>
	<path fill="#FFFFFF" d="M148.532,143.146v-1.884c-0.619,0.194-1.15,0.291-1.594,0.291c-0.332,0-0.6-0.086-0.801-0.257
		s-0.303-0.437-0.303-0.797v-4.474h2.598v-1.901h-2.598v-1.976h-1.619l-0.73,1.959l-1.395,0.847v1.071h1.213v4.474
		c0,1.024,0.23,1.792,0.691,2.304c0.463,0.512,1.201,0.768,2.213,0.768C147.126,143.57,147.901,143.429,148.532,143.146z"/>
	<path fill="#FFFFFF" d="M152.94,139.038c0-1.079,0.158-1.859,0.473-2.341c0.316-0.481,0.828-0.722,1.535-0.722
		c0.996,0,1.494,0.669,1.494,2.009v5.42h2.533v-6.051c0-1.096-0.283-1.937-0.848-2.523s-1.391-0.88-2.482-0.88
		c-1.229,0-2.125,0.454-2.689,1.361h-0.133l0.059-0.747c0.039-0.758,0.059-1.24,0.059-1.444v-2.631h-2.531v12.916h2.531V139.038z"/>
	<rect x="160.759" y="137.809" fill="#FFFFFF" width="4.459" height="2.075"/>
	<path fill="#FFFFFF" d="M171.062,131.268h-3.811v12.136h3.436c2.148,0,3.789-0.531,4.928-1.594c1.137-1.063,1.705-2.593,1.705-4.59
		c0-1.876-0.547-3.337-1.643-4.383S173.042,131.268,171.062,131.268z M170.929,141.279h-1.105v-7.902h1.371
		c2.301,0,3.453,1.303,3.453,3.91C174.647,139.948,173.407,141.279,170.929,141.279z"/>
	<path fill="#FFFFFF" d="M182.167,138.681c0-0.747,0.227-1.328,0.676-1.743c0.451-0.415,1.082-0.623,1.889-0.623
		c0.295,0,0.543,0.028,0.748,0.083l0.191-2.374c-0.229-0.05-0.512-0.075-0.855-0.075c-0.576,0-1.109,0.159-1.598,0.477
		c-0.49,0.318-0.879,0.738-1.166,1.258h-0.125l-0.373-1.561h-1.918v9.28h2.531V138.681z"/>
	<path fill="#FFFFFF" d="M188.626,132.97c0.459,0,0.803-0.109,1.033-0.328c0.229-0.219,0.344-0.524,0.344-0.917
		c0-0.825-0.459-1.237-1.377-1.237c-0.92,0-1.379,0.412-1.379,1.237C187.247,132.555,187.706,132.97,188.626,132.97z"/>
	<rect x="187.354" y="134.124" fill="#FFFFFF" width="2.533" height="9.28"/>
	<path fill="#FFFFFF" d="M198.237,134.124l-1.785,5.288c-0.221,0.736-0.346,1.37-0.373,1.901h-0.049
		c-0.051-0.598-0.176-1.231-0.375-1.901l-1.793-5.288h-2.646l3.535,9.28h2.598l3.537-9.28H198.237z"/>
	<path fill="#FFFFFF" d="M206.04,133.949c-1.373,0-2.447,0.425-3.225,1.274c-0.777,0.85-1.166,2.052-1.166,3.607
		c0,1.511,0.42,2.678,1.262,3.503c0.84,0.825,2.008,1.237,3.502,1.237c0.725,0,1.34-0.054,1.844-0.162
		c0.504-0.107,0.977-0.272,1.418-0.494v-1.959c-0.541,0.254-1.063,0.44-1.561,0.556s-1.025,0.174-1.584,0.174
		c-0.721,0-1.279-0.202-1.678-0.606s-0.611-0.966-0.639-1.685h5.984v-1.229c0-1.317-0.365-2.349-1.096-3.096
		S207.351,133.949,206.04,133.949z M204.272,137.709c0.043-0.625,0.219-1.108,0.521-1.448c0.305-0.341,0.727-0.511,1.262-0.511
		c0.537,0,0.963,0.17,1.279,0.511c0.314,0.34,0.479,0.823,0.49,1.448H204.272z"/>
	<path fill="#FFFFFF" d="M219.985,134.825c-0.559-0.583-1.379-0.875-2.457-0.875c-0.631,0-1.193,0.115-1.689,0.344
		c-0.494,0.23-0.885,0.569-1.166,1.017h-0.141l-0.342-1.187h-1.934v9.28h2.531v-4.366c0-1.096,0.158-1.88,0.475-2.354
		c0.314-0.473,0.826-0.709,1.535-0.709c0.52,0,0.898,0.167,1.137,0.502c0.238,0.334,0.357,0.837,0.357,1.506v5.42h2.531v-6.051
		C220.823,136.251,220.544,135.409,219.985,134.825z"/>
	<path fill="#FFFFFF" d="M102.868,151.668h-3.877v12.135h2.574v-4.316h1.104c1.506,0,2.666-0.346,3.482-1.037
		s1.225-1.69,1.225-2.996c0-1.257-0.384-2.201-1.15-2.835C105.459,151.985,104.34,151.668,102.868,151.668z M104.188,156.91
		c-0.394,0.313-0.985,0.47-1.777,0.47h-0.846v-3.604h1.17c0.703,0,1.219,0.145,1.548,0.432c0.329,0.288,0.494,0.734,0.494,1.337
		C104.777,156.142,104.581,156.597,104.188,156.91z"/>
	<path fill="#FFFFFF" d="M113.293,154.349c-1.373,0-2.447,0.425-3.225,1.274s-1.166,2.051-1.166,3.606
		c0,1.511,0.42,2.679,1.262,3.503c0.841,0.824,2.008,1.236,3.502,1.236c0.726,0,1.34-0.054,1.844-0.161
		c0.503-0.108,0.977-0.272,1.419-0.494v-1.959c-0.542,0.255-1.063,0.44-1.561,0.556c-0.498,0.117-1.026,0.175-1.585,0.175
		c-0.72,0-1.279-0.202-1.678-0.606c-0.398-0.403-0.611-0.965-0.639-1.685h5.984v-1.229c0-1.317-0.365-2.349-1.096-3.097
		C115.625,154.723,114.605,154.349,113.293,154.349z M111.526,158.11c0.044-0.626,0.219-1.108,0.522-1.449
		c0.304-0.34,0.726-0.51,1.262-0.51s0.963,0.17,1.278,0.51c0.315,0.341,0.479,0.823,0.49,1.449H111.526z"/>
	<path fill="#FFFFFF" d="M123.092,154.827c-0.489,0.318-0.879,0.737-1.166,1.258h-0.125l-0.373-1.561h-1.918v9.279h2.532v-4.723
		c0-0.747,0.226-1.328,0.677-1.743s1.08-0.622,1.889-0.622c0.293,0,0.542,0.027,0.746,0.082l0.191-2.373
		c-0.227-0.051-0.512-0.075-0.855-0.075C124.115,154.349,123.583,154.508,123.092,154.827z"/>
	<path fill="#FFFFFF" d="M130.409,153.125c0.162-0.213,0.422-0.319,0.781-0.319c0.432,0,0.902,0.08,1.41,0.24l0.648-1.859
		c-0.682-0.26-1.459-0.39-2.332-0.39c-1.146,0-1.979,0.244-2.5,0.73c-0.52,0.487-0.779,1.259-0.779,2.315v0.682l-1.395,0.68v1.221
		h1.395v7.379h2.531v-7.379h2.191v-1.9h-2.191v-0.582C130.169,153.61,130.249,153.338,130.409,153.125z"/>
	<path fill="#FFFFFF" d="M140.13,154.93c-0.68-0.387-1.467-0.581-2.357-0.581c-1.434,0-2.545,0.421-3.336,1.262
		c-0.793,0.841-1.188,2.021-1.188,3.536c0,0.975,0.182,1.826,0.547,2.557s0.889,1.291,1.57,1.681
		c0.68,0.391,1.465,0.585,2.357,0.585c1.422,0,2.531-0.426,3.328-1.277c0.797-0.853,1.195-2.034,1.195-3.545
		c0-0.975-0.184-1.823-0.549-2.549C141.333,155.874,140.812,155.317,140.13,154.93z M139.212,161.235
		c-0.295,0.467-0.781,0.701-1.455,0.701c-0.682,0-1.172-0.235-1.475-0.705c-0.301-0.471-0.451-1.166-0.451-2.084
		c0-0.924,0.148-1.614,0.447-2.071c0.299-0.456,0.785-0.685,1.461-0.685c0.682,0,1.17,0.229,1.469,0.689
		c0.299,0.459,0.449,1.148,0.449,2.066C139.657,160.071,139.509,160.767,139.212,161.235z"/>
	<path fill="#FFFFFF" d="M147.921,154.827c-0.49,0.318-0.879,0.737-1.166,1.258h-0.125l-0.373-1.561h-1.918v9.279h2.531v-4.723
		c0-0.747,0.227-1.328,0.676-1.743c0.451-0.415,1.082-0.622,1.889-0.622c0.295,0,0.543,0.027,0.748,0.082l0.191-2.373
		c-0.229-0.051-0.512-0.075-0.855-0.075C148.942,154.349,148.409,154.508,147.921,154.827z"/>
	<path fill="#FFFFFF" d="M162.958,154.349c-0.609,0-1.156,0.119-1.641,0.356c-0.484,0.238-0.85,0.573-1.1,1.005h-0.225
		c-0.492-0.907-1.432-1.361-2.822-1.361c-0.607,0-1.148,0.12-1.617,0.361c-0.471,0.24-0.83,0.573-1.08,1h-0.141l-0.34-1.187h-1.936
		v9.279h2.533v-4.365c0-1.091,0.146-1.873,0.439-2.35s0.764-0.714,1.41-0.714c0.482,0,0.834,0.167,1.059,0.502
		s0.336,0.837,0.336,1.507v5.42h2.533v-4.656c0-0.963,0.152-1.666,0.459-2.108c0.309-0.442,0.771-0.664,1.391-0.664
		c0.482,0,0.834,0.167,1.059,0.502s0.336,0.837,0.336,1.507v5.42h2.541v-6.051c0-1.189-0.27-2.055-0.811-2.594
		C164.804,154.619,164.009,154.349,162.958,154.349z"/>
	<path fill="#FFFFFF" d="M172.554,154.333c-1.301,0-2.486,0.279-3.553,0.838l0.838,1.711c1.002-0.449,1.873-0.673,2.615-0.673
		c0.963,0,1.443,0.47,1.443,1.411v0.406l-1.609,0.051c-1.391,0.049-2.43,0.309-3.117,0.775c-0.689,0.468-1.033,1.194-1.033,2.18
		c0,0.94,0.256,1.665,0.768,2.174c0.512,0.51,1.213,0.764,2.104,0.764c0.725,0,1.313-0.104,1.764-0.311
		c0.451-0.208,0.891-0.58,1.316-1.117h0.066l0.49,1.262h1.768v-6.184c0-1.107-0.332-1.932-0.996-2.474
		S173.798,154.333,172.554,154.333z M173.897,160.268c0,0.559-0.176,1.007-0.527,1.344c-0.352,0.338-0.82,0.507-1.406,0.507
		c-0.818,0-1.229-0.356-1.229-1.071c0-0.498,0.18-0.868,0.539-1.111c0.359-0.244,0.908-0.377,1.645-0.398l0.979-0.033V160.268z"/>
	<path fill="#FFFFFF" d="M184.29,154.349c-0.631,0-1.193,0.114-1.689,0.345c-0.494,0.229-0.883,0.568-1.166,1.017h-0.141
		l-0.34-1.187h-1.936v9.279h2.533v-4.365c0-1.096,0.156-1.881,0.473-2.354c0.314-0.474,0.826-0.71,1.535-0.71
		c0.52,0,0.9,0.167,1.137,0.502c0.238,0.335,0.357,0.837,0.357,1.507v5.42h2.531v-6.051c0-1.102-0.279-1.943-0.838-2.527
		S185.37,154.349,184.29,154.349z"/>
	<path fill="#FFFFFF" d="M194.185,156.391c0.344,0,0.686,0.051,1.029,0.153s0.713,0.233,1.111,0.395l0.748-1.959
		c-0.852-0.421-1.814-0.631-2.889-0.631c-1.467,0-2.592,0.417-3.379,1.249c-0.785,0.833-1.178,2.038-1.178,3.615
		c0,3.171,1.443,4.756,4.332,4.756c0.637,0,1.164-0.049,1.582-0.148s0.832-0.279,1.24-0.54v-2.167
		c-0.414,0.277-0.83,0.48-1.244,0.61c-0.416,0.13-0.867,0.195-1.354,0.195c-1.316,0-1.975-0.907-1.975-2.723
		C192.21,157.327,192.868,156.391,194.185,156.391z"/>
	<path fill="#FFFFFF" d="M202.759,154.349c-1.371,0-2.447,0.425-3.225,1.274s-1.166,2.051-1.166,3.606
		c0,1.511,0.422,2.679,1.262,3.503c0.842,0.824,2.01,1.236,3.504,1.236c0.725,0,1.338-0.054,1.842-0.161
		c0.504-0.108,0.977-0.272,1.42-0.494v-1.959c-0.543,0.255-1.063,0.44-1.561,0.556c-0.498,0.117-1.027,0.175-1.586,0.175
		c-0.719,0-1.277-0.202-1.676-0.606c-0.398-0.403-0.611-0.965-0.641-1.685h5.986v-1.229c0-1.317-0.365-2.349-1.096-3.097
		C205.093,154.723,204.071,154.349,202.759,154.349z M200.991,158.11c0.045-0.626,0.219-1.108,0.523-1.449
		c0.305-0.34,0.725-0.51,1.262-0.51s0.963,0.17,1.277,0.51c0.316,0.341,0.48,0.823,0.49,1.449H200.991z"/>
</g>
<g>
	<path fill="#FFFFFF" d="M100.818,10.963l-4.283,12.186h2.772l0.88-2.889h4.424l0.88,2.889h2.772l-4.3-12.186H100.818z
		 M100.834,18.102c0.863-2.795,1.386-4.546,1.569-5.254c0.044,0.199,0.118,0.47,0.22,0.813c0.102,0.344,0.56,1.824,1.374,4.441
		H100.834z"/>
	<path fill="#FFFFFF" d="M113.747,13.765c-0.357-0.047-0.666-0.071-0.926-0.071c-1.223,0-2.164,0.277-2.822,0.83
		c-0.659,0.554-0.988,1.337-0.988,2.35c0,0.631,0.143,1.179,0.427,1.644c0.285,0.465,0.671,0.803,1.158,1.013
		c-0.387,0.227-0.684,0.458-0.888,0.693s-0.307,0.529-0.307,0.884c0,0.282,0.097,0.549,0.291,0.801s0.42,0.434,0.681,0.544
		c-0.675,0.16-1.187,0.429-1.536,0.805c-0.349,0.377-0.523,0.845-0.523,1.403c0,0.813,0.342,1.445,1.025,1.896
		c0.684,0.451,1.673,0.677,2.968,0.677c1.693,0,2.992-0.299,3.897-0.896c0.904-0.598,1.357-1.438,1.357-2.523
		c0-0.847-0.267-1.488-0.801-1.926c-0.534-0.438-1.31-0.656-2.328-0.656h-1.577c-0.93,0-1.395-0.182-1.395-0.547
		c0-0.244,0.13-0.465,0.39-0.664l0.374,0.041l0.457,0.025c1.234,0,2.198-0.278,2.893-0.835c0.694-0.556,1.042-1.332,1.042-2.328
		c0-0.515-0.133-0.979-0.398-1.395l1.453-0.374v-1.286h-3.237C114.332,13.846,114.103,13.812,113.747,13.765z M112.14,23.265h1.312
		c0.636,0,1.107,0.066,1.411,0.199s0.457,0.374,0.457,0.722c0,0.432-0.257,0.772-0.772,1.021s-1.226,0.373-2.133,0.373
		c-0.603,0-1.072-0.1-1.407-0.299c-0.335-0.199-0.502-0.473-0.502-0.821c0-0.359,0.156-0.648,0.469-0.867
		C111.287,23.374,111.675,23.265,112.14,23.265z M113.867,18.102c-0.221,0.293-0.57,0.439-1.046,0.439
		c-0.47,0-0.82-0.146-1.05-0.439c-0.23-0.293-0.345-0.691-0.345-1.195c0-1.118,0.465-1.677,1.395-1.677
		c0.918,0,1.378,0.559,1.378,1.677C114.199,17.41,114.088,17.809,113.867,18.102z"/>
	<path fill="#FFFFFF" d="M120.466,10.232c-0.918,0-1.378,0.412-1.378,1.236c0,0.83,0.459,1.246,1.378,1.246
		c0.459,0,0.804-0.109,1.034-0.328c0.229-0.219,0.344-0.524,0.344-0.918C121.844,10.645,121.384,10.232,120.466,10.232z"/>
	<rect x="119.196" y="13.868" fill="#FFFFFF" width="2.532" height="9.28"/>
	<rect x="124.384" y="10.232" fill="#FFFFFF" width="2.531" height="12.916"/>
	<path fill="#FFFFFF" d="M133.398,13.693c-1.372,0-2.447,0.425-3.226,1.274c-0.777,0.85-1.166,2.052-1.166,3.606
		c0,1.512,0.421,2.679,1.262,3.504c0.842,0.824,2.01,1.236,3.504,1.236c0.725,0,1.339-0.054,1.842-0.162
		c0.504-0.107,0.977-0.272,1.42-0.494v-1.959c-0.543,0.255-1.063,0.44-1.561,0.557s-1.026,0.174-1.586,0.174
		c-0.719,0-1.277-0.201-1.676-0.605s-0.611-0.966-0.64-1.686h5.985V17.91c0-1.316-0.365-2.349-1.096-3.096
		S134.71,13.693,133.398,13.693z M131.63,17.454c0.045-0.625,0.219-1.108,0.523-1.448c0.305-0.341,0.725-0.511,1.262-0.511
		s0.963,0.17,1.278,0.511c0.315,0.34,0.479,0.823,0.489,1.448H131.63z"/>
	<polygon fill="#FFFFFF" points="146.804,11.013 144.231,11.013 144.231,23.148 151.727,23.148 151.727,21.023 146.804,21.023 	"/>
	<path fill="#FFFFFF" d="M157.462,13.693c-1.372,0-2.447,0.425-3.225,1.274s-1.166,2.052-1.166,3.606
		c0,1.512,0.42,2.679,1.262,3.504c0.842,0.824,2.009,1.236,3.503,1.236c0.726,0,1.339-0.054,1.843-0.162
		c0.504-0.107,0.977-0.272,1.42-0.494v-1.959c-0.543,0.255-1.063,0.44-1.561,0.557s-1.027,0.174-1.586,0.174
		c-0.719,0-1.278-0.201-1.677-0.605s-0.611-0.966-0.64-1.686h5.985V17.91c0-1.316-0.365-2.349-1.096-3.096
		S158.774,13.693,157.462,13.693z M155.694,17.454c0.045-0.625,0.219-1.108,0.523-1.448c0.304-0.341,0.725-0.511,1.262-0.511
		c0.536,0,0.963,0.17,1.277,0.511c0.316,0.34,0.479,0.823,0.49,1.448H155.694z"/>
	<path fill="#FFFFFF" d="M167.481,13.678c-1.301,0-2.484,0.279-3.553,0.838l0.838,1.71c1.002-0.448,1.873-0.673,2.615-0.673
		c0.963,0,1.444,0.471,1.444,1.412v0.406l-1.61,0.05c-1.389,0.05-2.428,0.309-3.117,0.776s-1.033,1.193-1.033,2.179
		c0,0.94,0.256,1.666,0.768,2.175s1.213,0.764,2.104,0.764c0.726,0,1.313-0.104,1.765-0.312c0.45-0.207,0.889-0.579,1.314-1.116
		h0.066l0.49,1.262h1.768v-6.184c0-1.107-0.332-1.932-0.996-2.475C169.681,13.948,168.727,13.678,167.481,13.678z M168.826,19.612
		c0,0.559-0.176,1.007-0.526,1.345c-0.352,0.338-0.821,0.506-1.408,0.506c-0.818,0-1.229-0.356-1.229-1.07
		c0-0.498,0.18-0.869,0.54-1.112s0.907-0.376,1.644-0.398l0.979-0.033V19.612z"/>
	<path fill="#FFFFFF" d="M177.53,14.171c-0.49,0.318-0.879,0.737-1.167,1.258h-0.124l-0.374-1.561h-1.917v9.28h2.531v-4.723
		c0-0.748,0.226-1.328,0.676-1.744c0.451-0.414,1.081-0.622,1.889-0.622c0.294,0,0.543,0.027,0.748,0.083l0.19-2.374
		c-0.228-0.05-0.512-0.075-0.854-0.075C178.552,13.693,178.019,13.853,177.53,14.171z"/>
	<path fill="#FFFFFF" d="M186.938,13.693c-0.631,0-1.193,0.115-1.689,0.345c-0.495,0.229-0.884,0.569-1.166,1.017h-0.141
		l-0.341-1.187h-1.935v9.28h2.532v-4.366c0-1.096,0.157-1.88,0.474-2.354c0.314-0.473,0.826-0.71,1.535-0.71
		c0.52,0,0.899,0.168,1.137,0.503c0.238,0.335,0.357,0.837,0.357,1.507v5.42h2.531v-6.051c0-1.102-0.279-1.944-0.838-2.528
		S188.018,13.693,186.938,13.693z"/>
	<rect x="192.841" y="13.868" fill="#FFFFFF" width="2.531" height="9.28"/>
	<path fill="#FFFFFF" d="M194.11,10.232c-0.918,0-1.378,0.412-1.378,1.236c0,0.83,0.46,1.246,1.378,1.246
		c0.459,0,0.804-0.109,1.033-0.328c0.23-0.219,0.345-0.524,0.345-0.918C195.488,10.645,195.028,10.232,194.11,10.232z"/>
	<path fill="#FFFFFF" d="M203.3,13.693c-0.631,0-1.194,0.115-1.689,0.345c-0.496,0.229-0.885,0.569-1.166,1.017h-0.142l-0.341-1.187
		h-1.934v9.28h2.531v-4.366c0-1.096,0.158-1.88,0.474-2.354c0.315-0.473,0.827-0.71,1.536-0.71c0.52,0,0.898,0.168,1.137,0.503
		s0.357,0.837,0.357,1.507v5.42h2.531v-6.051c0-1.102-0.279-1.944-0.838-2.528C205.197,13.985,204.378,13.693,203.3,13.693z"/>
	<path fill="#FFFFFF" d="M217.278,13.868h-3.238c-0.1-0.022-0.328-0.057-0.684-0.104c-0.357-0.047-0.666-0.071-0.926-0.071
		c-1.223,0-2.164,0.277-2.822,0.83c-0.659,0.554-0.988,1.337-0.988,2.35c0,0.631,0.143,1.179,0.428,1.644s0.671,0.803,1.158,1.013
		c-0.388,0.227-0.684,0.458-0.889,0.693s-0.307,0.529-0.307,0.884c0,0.282,0.096,0.549,0.29,0.801s0.421,0.434,0.681,0.544
		c-0.676,0.16-1.188,0.429-1.535,0.805c-0.35,0.377-0.523,0.845-0.523,1.403c0,0.813,0.342,1.445,1.025,1.896
		s1.672,0.677,2.967,0.677c1.693,0,2.992-0.299,3.898-0.896c0.904-0.598,1.357-1.438,1.357-2.523c0-0.847-0.268-1.488-0.803-1.926
		c-0.533-0.438-1.309-0.656-2.328-0.656h-1.576c-0.93,0-1.395-0.182-1.395-0.547c0-0.244,0.129-0.465,0.391-0.664l0.373,0.041
		l0.457,0.025c1.232,0,2.197-0.278,2.893-0.835c0.693-0.556,1.041-1.332,1.041-2.328c0-0.515-0.133-0.979-0.398-1.395l1.453-0.374
		V13.868z M211.749,23.265h1.313c0.637,0,1.107,0.066,1.41,0.199c0.305,0.133,0.457,0.374,0.457,0.722
		c0,0.432-0.258,0.772-0.771,1.021c-0.516,0.249-1.227,0.373-2.133,0.373c-0.604,0-1.072-0.1-1.408-0.299
		c-0.334-0.199-0.502-0.473-0.502-0.821c0-0.359,0.156-0.648,0.469-0.867S211.284,23.265,211.749,23.265z M213.476,18.102
		c-0.221,0.293-0.568,0.439-1.045,0.439c-0.471,0-0.82-0.146-1.051-0.439c-0.229-0.293-0.344-0.691-0.344-1.195
		c0-1.118,0.465-1.677,1.395-1.677c0.918,0,1.377,0.559,1.377,1.677C213.808,17.41,213.698,17.809,213.476,18.102z"/>
</g>
<g>
	<path fill="#FFFFFF" d="M105.482,265.156l-4.283,12.186h2.772l0.88-2.889h4.425l0.879,2.889h2.773l-4.301-12.186H105.482z
		 M105.499,272.294c0.863-2.795,1.387-4.546,1.568-5.254c0.045,0.199,0.118,0.47,0.221,0.813c0.103,0.344,0.561,1.824,1.373,4.441
		H105.499z"/>
	<path fill="#FFFFFF" d="M118.249,269.929c0.344,0,0.687,0.051,1.029,0.153c0.344,0.103,0.715,0.233,1.113,0.394l0.746-1.959
		c-0.852-0.42-1.814-0.631-2.889-0.631c-1.466,0-2.592,0.417-3.378,1.25s-1.179,2.037-1.179,3.615c0,3.17,1.444,4.756,4.333,4.756
		c0.637,0,1.163-0.05,1.581-0.149s0.832-0.279,1.241-0.54v-2.166c-0.415,0.276-0.83,0.48-1.245,0.61s-0.866,0.194-1.354,0.194
		c-1.316,0-1.975-0.907-1.975-2.723C116.274,270.864,116.933,269.929,118.249,269.929z"/>
	<path fill="#FFFFFF" d="M128.235,267.886c-1.229,0-2.125,0.454-2.689,1.361h-0.133l0.058-0.746c0.039-0.759,0.058-1.24,0.058-1.445
		v-2.631h-2.531v12.916h2.531v-4.366c0-1.079,0.158-1.859,0.474-2.341s0.827-0.723,1.536-0.723c0.996,0,1.494,0.67,1.494,2.01v5.42
		h2.531v-6.051c0-1.096-0.282-1.938-0.847-2.523C130.152,268.18,129.325,267.886,128.235,267.886z"/>
	<rect x="134.17" y="268.061" fill="#FFFFFF" width="2.532" height="9.28"/>
	<path fill="#FFFFFF" d="M135.44,264.425c-0.919,0-1.379,0.412-1.379,1.236c0,0.83,0.46,1.246,1.379,1.246
		c0.459,0,0.804-0.109,1.033-0.328s0.344-0.524,0.344-0.918C136.817,264.837,136.358,264.425,135.44,264.425z"/>
	<path fill="#FFFFFF" d="M143.185,267.886c-1.372,0-2.447,0.425-3.225,1.274s-1.166,2.052-1.166,3.606
		c0,1.512,0.421,2.679,1.262,3.504c0.841,0.824,2.009,1.236,3.503,1.236c0.725,0,1.339-0.054,1.843-0.162
		c0.504-0.107,0.977-0.272,1.42-0.494v-1.959c-0.543,0.255-1.063,0.44-1.561,0.557s-1.027,0.174-1.586,0.174
		c-0.72,0-1.278-0.201-1.677-0.605s-0.611-0.966-0.64-1.686h5.985v-1.229c0-1.316-0.365-2.349-1.096-3.096
		S144.497,267.886,143.185,267.886z M141.417,271.647c0.044-0.625,0.219-1.108,0.523-1.448c0.304-0.341,0.725-0.511,1.262-0.511
		c0.536,0,0.963,0.17,1.277,0.511c0.316,0.34,0.479,0.823,0.49,1.448H141.417z"/>
	<path fill="#FFFFFF" d="M153.312,273.349c-0.222,0.735-0.347,1.369-0.374,1.9h-0.05c-0.05-0.598-0.174-1.231-0.373-1.9
		l-1.793-5.288h-2.648l3.536,9.28h2.599l3.535-9.28h-2.647L153.312,273.349z"/>
	<path fill="#FFFFFF" d="M162.899,267.886c-1.373,0-2.448,0.425-3.226,1.274s-1.166,2.052-1.166,3.606
		c0,1.512,0.421,2.679,1.262,3.504c0.841,0.824,2.009,1.236,3.503,1.236c0.725,0,1.339-0.054,1.843-0.162
		c0.504-0.107,0.977-0.272,1.419-0.494v-1.959c-0.542,0.255-1.063,0.44-1.561,0.557s-1.026,0.174-1.585,0.174
		c-0.72,0-1.278-0.201-1.677-0.605s-0.611-0.966-0.639-1.686h5.984v-1.229c0-1.316-0.365-2.349-1.096-3.096
		S164.21,267.886,162.899,267.886z M161.131,271.647c0.044-0.625,0.219-1.108,0.522-1.448c0.305-0.341,0.726-0.511,1.262-0.511
		c0.537,0,0.963,0.17,1.279,0.511c0.314,0.34,0.479,0.823,0.489,1.448H161.131z"/>
	<path fill="#FFFFFF" d="M177.608,265.206h-3.877v12.136h2.573v-4.316h1.104c1.505,0,2.665-0.346,3.481-1.037
		c0.816-0.692,1.225-1.691,1.225-2.997c0-1.256-0.383-2.201-1.149-2.835S179.08,265.206,177.608,265.206z M178.928,270.448
		c-0.393,0.313-0.985,0.469-1.776,0.469h-0.847v-3.603h1.171c0.702,0,1.219,0.144,1.548,0.432s0.493,0.733,0.493,1.336
		C179.517,269.679,179.32,270.135,178.928,270.448z"/>
	<path fill="#FFFFFF" d="M190.524,268.468c-0.682-0.388-1.467-0.582-2.357-0.582c-1.434,0-2.546,0.421-3.338,1.262
		c-0.791,0.842-1.187,2.021-1.187,3.537c0,0.974,0.183,1.826,0.548,2.557s0.889,1.29,1.568,1.681
		c0.682,0.39,1.467,0.585,2.357,0.585c1.423,0,2.532-0.426,3.329-1.278s1.195-2.034,1.195-3.544c0-0.975-0.183-1.824-0.548-2.549
		S191.204,268.855,190.524,268.468z M189.606,274.772c-0.296,0.468-0.781,0.702-1.457,0.702c-0.68,0-1.171-0.235-1.473-0.706
		s-0.453-1.165-0.453-2.083c0-0.925,0.15-1.615,0.449-2.071c0.299-0.457,0.785-0.685,1.461-0.685c0.68,0,1.17,0.229,1.469,0.688
		s0.448,1.148,0.448,2.067C190.051,273.609,189.902,274.304,189.606,274.772z"/>
	<path fill="#FFFFFF" d="M197.841,275.233c-0.202-0.172-0.303-0.438-0.303-0.797v-4.474h2.598v-1.901h-2.598v-1.976h-1.619
		l-0.73,1.959l-1.395,0.847v1.071h1.213v4.474c0,1.023,0.23,1.792,0.692,2.304s1.2,0.768,2.212,0.768
		c0.919,0,1.693-0.141,2.324-0.424V275.2c-0.619,0.193-1.15,0.29-1.594,0.29C198.31,275.49,198.043,275.405,197.841,275.233z"/>
	<path fill="#FFFFFF" d="M205.938,267.886c-1.372,0-2.447,0.425-3.225,1.274s-1.166,2.052-1.166,3.606
		c0,1.512,0.421,2.679,1.262,3.504c0.841,0.824,2.009,1.236,3.503,1.236c0.725,0,1.339-0.054,1.843-0.162
		c0.504-0.107,0.977-0.272,1.42-0.494v-1.959c-0.543,0.255-1.063,0.44-1.561,0.557s-1.027,0.174-1.586,0.174
		c-0.72,0-1.278-0.201-1.677-0.605s-0.611-0.966-0.64-1.686h5.985v-1.229c0-1.316-0.365-2.349-1.096-3.096
		S207.251,267.886,205.938,267.886z M204.171,271.647c0.044-0.625,0.219-1.108,0.523-1.448c0.304-0.341,0.725-0.511,1.262-0.511
		c0.536,0,0.963,0.17,1.277,0.511c0.316,0.34,0.479,0.823,0.49,1.448H204.171z"/>
	<path fill="#FFFFFF" d="M217.427,267.886c-0.631,0-1.194,0.115-1.689,0.345s-0.885,0.569-1.166,1.017h-0.142l-0.341-1.187h-1.934
		v9.28h2.531v-4.366c0-1.096,0.158-1.88,0.474-2.354c0.315-0.473,0.827-0.71,1.536-0.71c0.52,0,0.898,0.168,1.137,0.503
		s0.357,0.837,0.357,1.507v5.42h2.531v-6.051c0-1.102-0.279-1.944-0.838-2.528C219.324,268.178,218.505,267.886,217.427,267.886z"/>
	<path fill="#FFFFFF" d="M226.438,275.233c-0.202-0.172-0.303-0.438-0.303-0.797v-4.474h2.599v-1.901h-2.599v-1.976h-1.618
		l-0.73,1.959l-1.395,0.847v1.071h1.211v4.474c0,1.023,0.231,1.792,0.693,2.304s1.199,0.768,2.213,0.768
		c0.918,0,1.693-0.141,2.324-0.424V275.2c-0.62,0.193-1.151,0.29-1.594,0.29C226.907,275.49,226.64,275.405,226.438,275.233z"/>
	<path fill="#FFFFFF" d="M231.978,264.425c-0.918,0-1.377,0.412-1.377,1.236c0,0.83,0.459,1.246,1.377,1.246
		c0.46,0,0.805-0.109,1.034-0.328s0.345-0.524,0.345-0.918C233.356,264.837,232.896,264.425,231.978,264.425z"/>
	<rect x="230.708" y="268.061" fill="#FFFFFF" width="2.531" height="9.28"/>
	<path fill="#FFFFFF" d="M239.697,267.871c-1.301,0-2.484,0.279-3.553,0.838l0.839,1.71c1.001-0.448,1.873-0.673,2.614-0.673
		c0.963,0,1.444,0.471,1.444,1.412v0.406l-1.61,0.05c-1.389,0.05-2.428,0.309-3.117,0.776c-0.688,0.468-1.033,1.193-1.033,2.179
		c0,0.94,0.256,1.666,0.768,2.175s1.214,0.764,2.104,0.764c0.725,0,1.313-0.104,1.764-0.312c0.451-0.207,0.89-0.579,1.316-1.116
		h0.066l0.489,1.262h1.769v-6.184c0-1.107-0.332-1.932-0.996-2.475C241.897,268.141,240.942,267.871,239.697,267.871z
		 M241.042,273.805c0,0.559-0.176,1.007-0.527,1.345s-0.82,0.506-1.406,0.506c-0.819,0-1.229-0.356-1.229-1.07
		c0-0.498,0.18-0.869,0.539-1.112s0.907-0.376,1.644-0.398l0.979-0.033V273.805z"/>
	<rect x="246.164" y="264.425" fill="#FFFFFF" width="2.532" height="12.916"/>
</g>
<g>
	<path fill="#FFFFFF" d="M101.283,87.197h-1.968v-7.643h-2.521v-1.638h7.008v1.638h-2.52V87.197z"/>
	<path fill="#FFFFFF" d="M109.04,79.967c0.263,0,0.48,0.019,0.653,0.057l-0.146,1.815c-0.156-0.042-0.347-0.063-0.571-0.063
		c-0.618,0-1.1,0.159-1.444,0.476s-0.517,0.762-0.517,1.333v3.612h-1.937v-7.097h1.466l0.286,1.193h0.095
		c0.221-0.398,0.518-0.718,0.893-0.962C108.192,80.089,108.599,79.967,109.04,79.967z"/>
	<path fill="#FFFFFF" d="M116.009,87.197l-0.26-0.908h-0.102c-0.208,0.33-0.502,0.585-0.883,0.765
		c-0.381,0.18-0.814,0.27-1.301,0.27c-0.834,0-1.463-0.223-1.886-0.67c-0.423-0.446-0.635-1.088-0.635-1.926v-4.627h1.937v4.145
		c0,0.512,0.091,0.896,0.272,1.152c0.182,0.256,0.472,0.384,0.87,0.384c0.541,0,0.933-0.181,1.174-0.542
		c0.241-0.362,0.361-0.962,0.361-1.8v-3.339h1.937v7.097H116.009z"/>
	<path fill="#FFFFFF" d="M124.477,85.09c0,0.728-0.253,1.282-0.759,1.663s-1.262,0.571-2.27,0.571c-0.516,0-0.956-0.035-1.32-0.104
		c-0.363-0.07-0.704-0.173-1.021-0.308v-1.6c0.359,0.169,0.765,0.311,1.216,0.425c0.45,0.114,0.847,0.171,1.19,0.171
		c0.702,0,1.053-0.203,1.053-0.609c0-0.152-0.046-0.276-0.139-0.372c-0.094-0.095-0.254-0.203-0.482-0.323
		c-0.229-0.121-0.533-0.262-0.914-0.422c-0.547-0.229-0.947-0.44-1.203-0.635s-0.442-0.418-0.559-0.669
		c-0.116-0.252-0.175-0.562-0.175-0.93c0-0.63,0.244-1.118,0.733-1.463c0.488-0.345,1.182-0.517,2.078-0.517
		c0.855,0,1.687,0.186,2.495,0.559l-0.584,1.396c-0.355-0.152-0.688-0.277-0.997-0.375c-0.309-0.097-0.624-0.146-0.945-0.146
		c-0.571,0-0.857,0.154-0.857,0.463c0,0.173,0.093,0.324,0.276,0.451c0.185,0.127,0.587,0.315,1.21,0.565
		c0.554,0.224,0.96,0.434,1.219,0.628c0.258,0.195,0.448,0.419,0.57,0.673C124.416,84.436,124.477,84.739,124.477,85.09z"/>
	<path fill="#FFFFFF" d="M128.978,85.782c0.338,0,0.744-0.074,1.219-0.222V87c-0.482,0.216-1.074,0.324-1.777,0.324
		c-0.775,0-1.338-0.196-1.691-0.587c-0.354-0.392-0.531-0.979-0.531-1.762v-3.421h-0.925v-0.819l1.066-0.647l0.559-1.498h1.238
		v1.511h1.986v1.454h-1.986v3.421c0,0.275,0.076,0.478,0.23,0.609S128.724,85.782,128.978,85.782z"/>
</g>
<polygon fill="#FFFFFF" points="18.331,61.98 13.937,57.586 12.824,58.686 18.316,64.252 23.885,58.759 22.815,57.675 "/>
<circle fill="#7B808D" cx="18.415" cy="18.125" r="18.125"/>
<g>
	<path fill="#FFFFFF" d="M10.945,20.311c0-0.005,0.008-0.008,0.012-0.014c-0.081,0.122-0.125,0.249-0.125,0.372
		c0,0.875,3.543,3.175,5.912,4.131v-4.784l-5.238-2.866L10.945,20.311z"/>
	<path fill="#FFFFFF" d="M24,24.738c-1.489,0-2.802-0.767-3.559-1.933l1.749-1.606h-2.375h-1.476v3.539l1.047-0.966
		c1.026,1.441,2.713,2.383,4.614,2.383c2.889,0,5.271-2.165,5.62-4.956h-1.431C27.854,23.207,26.105,24.738,24,24.738z"/>
	<path fill="#FFFFFF" d="M24,13.236c1.281,0,2.518,0.343,3.601,0.961l1.484-0.756L18.258,8.843L7.165,13.441l0.801,0.398v1.902
		c-0.218,0.046-0.387,0.23-0.387,0.462c0,0.118,0.047,0.225,0.119,0.309c-0.001,0.013-0.006,0.02-0.006,0.03v0.901
		c0,0.206,0.165,0.37,0.37,0.37s0.372-0.164,0.372-0.37v-0.901c0-0.011-0.006-0.02-0.006-0.031c0.07-0.084,0.118-0.189,0.118-0.308
		c0-0.231-0.165-0.416-0.386-0.462v-1.807l8.908,4.43C17.981,15.369,20.77,13.236,24,13.236z"/>
	<path fill="#FFFFFF" d="M28.652,17.261c-1.023-1.47-2.727-2.43-4.652-2.43c-2.885,0-5.271,2.158-5.616,4.955h1.431
		c0.335-2.012,2.084-3.538,4.185-3.538c1.539,0,2.882,0.812,3.629,2.035l-1.503,1.503h3.539v-3.538L28.652,17.261z"/>
</g>
<path fill="#7B808D" d="M36.84,82.377c0,10.012-8.113,18.127-18.125,18.127c-10.011,0-18.125-8.115-18.125-18.127
	c0-10.008,8.114-18.125,18.125-18.125C28.727,64.252,36.84,72.369,36.84,82.377z"/>
<g>
	<path fill="#FFFFFF" d="M15.688,88.152c0.171-0.438,0.114-0.93-0.214-1.266c-0.295-0.303-0.725-0.381-1.134-0.287
		c0.115-0.408,0.051-0.84-0.245-1.145c-0.296-0.303-0.724-0.383-1.134-0.287c0.114-0.404,0.051-0.838-0.246-1.143
		c-0.463-0.477-1.266-0.455-1.793,0.047c-0.524,0.502-0.86,1.414-0.392,1.951c0.467,0.533,1.004,0.209,1.413,0.115
		c-0.113,0.406-0.455,0.783-0.034,1.314c0.419,0.531,1.003,0.209,1.413,0.115c-0.113,0.406-0.44,0.822-0.036,1.314
		c0.408,0.494,1.075,0.23,1.516,0.094c-0.17,0.438-0.534,0.91-0.066,1.438c0.467,0.533,1.547,0.287,2.074-0.217
		c0.526-0.504,0.577-1.301,0.114-1.779C16.603,88.092,16.127,88.016,15.688,88.152z"/>
	<path fill="#FFFFFF" d="M26.399,77.981c-0.528,0.112-0.86-0.164-0.86-0.164s-1.017-0.876-2.16-1.838
		c-0.927-0.781-1.415-0.75-2.09-0.391c-1.111,0.591-3.78,2.089-5.046,2.855c-0.468,0.262-0.794,0.618-0.794,1.142
		c0,0.676,0.87,1.561,1.92,1.002c0.555-0.27,1.885-0.963,2.781-1.435c0.977-0.516,1.585,0.081,1.585,0.081s3.529,3.51,4.522,4.461
		c0.645,0.619,1.533,0.332,1.816,0.297c0.284-0.035,1.661-0.307,1.661-0.307V77.25C29.734,77.25,27.698,77.707,26.399,77.981z"/>
	<path fill="#FFFFFF" d="M25.31,84.807c-3.812-3.814-2.019-2.02-4.07-4.074c0,0-0.617-0.615-1.429-0.258
		c-0.571,0.25-1.305,0.592-1.857,0.852c-0.608,0.318-1.044,0.416-1.25,0.416c-1.174-0.01-2.126-0.953-2.126-2.125
		c0-0.761,0.404-1.422,1.006-1.798c0.847-0.586,2.797-1.624,2.797-1.624s-0.594-0.753-1.896-0.753c-1.3,0-4.018,1.78-4.018,1.78
		s-0.771,0.495-1.87,0.05l-2.118-0.738v7.363c0,0,0.604,0.176,1.148,0.396c0.123-0.35,0.321-0.672,0.596-0.939
		c0.902-0.857,2.396-0.867,3.216-0.023c0.247,0.256,0.419,0.564,0.507,0.902c0.331,0.102,0.63,0.283,0.871,0.531
		c0.248,0.254,0.419,0.563,0.508,0.9c0.33,0.102,0.629,0.283,0.871,0.531c0.272,0.279,0.453,0.619,0.538,0.984
		c0.345,0.102,0.656,0.289,0.908,0.545c0.493,0.506,0.668,1.193,0.562,1.855c0.001,0,0.002,0,0.003,0.002
		c0.007,0.012,0.305,0.342,0.491,0.529c0.363,0.363,0.957,0.363,1.321,0c0.362-0.363,0.364-0.957,0-1.322
		c-0.013-0.012-1.311-1.369-1.206-1.475c0.103-0.105,1.757,1.617,1.788,1.646c0.363,0.363,0.957,0.363,1.321,0
		c0.363-0.363,0.363-0.955,0-1.32c-0.018-0.018-0.093-0.088-0.12-0.115c0,0-1.64-1.461-1.515-1.586
		c0.126-0.127,2.163,1.775,2.167,1.775c0.366,0.328,0.93,0.326,1.282-0.025c0.343-0.344,0.35-0.885,0.046-1.25
		c-0.006-0.02-1.552-1.635-1.431-1.758c0.122-0.123,1.652,1.453,1.655,1.455c0.362,0.363,0.956,0.363,1.32,0
		c0.363-0.361,0.363-0.955,0-1.32C25.321,84.813,25.314,84.809,25.31,84.807z"/>
</g>
<path fill="#7B808D" d="M36.25,271.042c0,10.012-8.113,18.127-18.125,18.127C8.114,289.168,0,281.053,0,271.042
	c0-10.008,8.114-18.125,18.125-18.125C28.137,252.917,36.25,261.034,36.25,271.042z"/>
<g>
	<path fill="#FFFFFF" d="M16.55,273.424c0.382-0.4,0.912-0.627,1.457-0.627c0.547,0,1.076,0.225,1.453,0.616l1.25,1.296l1.733-1.805
		l-1.224-1.076l4.723-1.594l1.264-1.231l-6.274-0.912l-2.807-5.687l-2.806,5.687l-6.275,0.912l4.541,4.426l-0.652,3.802
		L16.55,273.424z"/>
	<polygon fill="#FFFFFF" points="22.263,278.904 23.737,279.678 23.401,277.72 	"/>
	<path fill="#FFFFFF" d="M23.849,272.356l0.531,0.467l-3.668,3.818l-2.219-2.298c-0.125-0.13-0.301-0.205-0.486-0.205
		c-0.182,0-0.359,0.076-0.486,0.208l-3.669,3.863c-0.255,0.27-0.245,0.696,0.024,0.953c0.126,0.119,0.291,0.185,0.463,0.185
		c0.188,0,0.359-0.075,0.49-0.21l3.184-3.354l2.215,2.295c0.126,0.132,0.305,0.207,0.486,0.207s0.359-0.076,0.485-0.209l4.194-4.363
		l0.793,0.697l0.307-1.525l0.307-1.525l-1.476,0.497L23.849,272.356z"/>
</g>
<path fill="#7B808D" d="M36.84,209.674c0,10.012-8.113,18.127-18.125,18.127c-10.011,0-18.125-8.115-18.125-18.127
	c0-10.008,8.114-18.125,18.125-18.125C28.727,191.549,36.84,199.667,36.84,209.674z"/>
<path fill="#7B808D" d="M36.684,146.461c0,10.012-8.113,18.127-18.125,18.127c-10.011,0-18.125-8.115-18.125-18.127
	c0-10.008,8.114-18.125,18.125-18.125C28.57,128.336,36.684,136.454,36.684,146.461z"/>
<g>
	<path fill="#FFFFFF" d="M20.334,136.361l0.475,1.89c1.985,0.543,3.687,1.779,4.817,3.438l-5.465,5.688l-3.293-3.411
		c-0.188-0.194-0.448-0.305-0.722-0.305c-0.271,0-0.534,0.113-0.724,0.311l-4.963,5.228c-0.288-0.854-0.449-1.763-0.449-2.711
		c0-3.782,2.475-6.995,5.888-8.117l0.51-1.945c-4.645,0.992-8.141,5.125-8.141,10.062c0,5.675,4.616,10.291,10.292,10.291
		c5.673,0,10.289-4.616,10.289-10.291C28.849,141.42,25.162,137.206,20.334,136.361z M18.56,155.036
		c-3.006,0-5.65-1.564-7.174-3.917c0.014-0.012,0.027-0.021,0.042-0.035l4.727-4.979l3.288,3.406
		c0.188,0.196,0.451,0.309,0.722,0.309s0.534-0.114,0.721-0.312l5.699-5.931c0.333,0.91,0.521,1.888,0.521,2.911
		C27.105,151.201,23.271,155.036,18.56,155.036z"/>
	<path fill="#FFFFFF" d="M18.349,143.397c0.82,0.002,1.487-0.656,1.49-1.474h-0.003l-0.725-2.886l-0.726-2.89l-0.758,2.882
		l-0.753,2.879H16.87C16.866,142.725,17.528,143.391,18.349,143.397z"/>
</g>
<g>
	<path fill="#FFFFFF" d="M25.257,208.62c1.142,0,2.066-1.084,2.066-2.422c0-1.852-0.925-2.419-2.066-2.419
		c-1.143,0-2.068,0.567-2.068,2.419C23.189,207.536,24.115,208.62,25.257,208.62z"/>
	<path fill="#FFFFFF" d="M12.174,208.547c1.142,0,2.067-1.082,2.067-2.42c0-1.853-0.926-2.42-2.067-2.42s-2.068,0.567-2.068,2.42
		C10.106,207.465,11.033,208.547,12.174,208.547z"/>
	<path fill="#FFFFFF" d="M23.743,211.116c-0.067-0.15-0.183-0.275-0.329-0.35l-2.252-1.174c-0.051-0.025-0.111-0.02-0.156,0.014
		c-0.637,0.482-1.387,0.736-2.166,0.736s-1.53-0.254-2.167-0.736c-0.045-0.033-0.105-0.039-0.154-0.014l-2.254,1.174
		c-0.146,0.074-0.261,0.199-0.327,0.35l-1.453,3.27c-0.1,0.227-0.08,0.484,0.056,0.691c0.134,0.207,0.36,0.328,0.608,0.328h1.587
		c0.526,0.729,2.031,1.256,3.809,1.256c1.776,0,3.282-0.527,3.808-1.256h2.18c0.246,0,0.475-0.121,0.607-0.328
		c0.135-0.207,0.156-0.465,0.057-0.691L23.743,211.116z"/>
	<path fill="#FFFFFF" d="M18.839,209.428c1.59,0,2.878-1.508,2.878-3.369c0-2.579-1.288-3.368-2.878-3.368s-2.879,0.789-2.879,3.368
		C15.96,207.92,17.25,209.428,18.839,209.428z"/>
	<path fill="#FFFFFF" d="M29.823,212.182l-1.043-2.352c-0.048-0.107-0.132-0.197-0.236-0.25l-1.618-0.844
		c-0.035-0.018-0.08-0.014-0.111,0.01c-0.458,0.348-0.996,0.529-1.557,0.529s-1.101-0.182-1.557-0.529
		c-0.033-0.023-0.076-0.027-0.111-0.01l-0.697,0.363l1.093,0.568c0.39,0.203,0.704,0.537,0.886,0.941l1.368,3.084
		c0.725-0.152,1.29-0.432,1.541-0.779h1.565c0.178,0,0.342-0.088,0.438-0.238C29.879,212.528,29.894,212.342,29.823,212.182z"/>
	<path fill="#FFFFFF" d="M13.696,209.668l1.036-0.539l-0.891-0.463c-0.035-0.02-0.078-0.016-0.111,0.008
		c-0.457,0.348-0.996,0.529-1.556,0.529c-0.561,0-1.101-0.182-1.558-0.529c-0.032-0.023-0.075-0.027-0.11-0.008l-1.62,0.842
		c-0.104,0.055-0.188,0.145-0.234,0.252l-1.044,2.35c-0.071,0.162-0.058,0.348,0.04,0.496c0.096,0.148,0.26,0.236,0.438,0.236h1.14
		c0.324,0.449,1.165,0.789,2.202,0.877l1.379-3.105C12.988,210.208,13.303,209.872,13.696,209.668z"/>
</g>
<g>
	<path fill="#FFFFFF" d="M105.503,214.187h-5.345v-9.28h5.345v1.612h-3.377v2.038h3.142v1.612h-3.142v2.393h3.377V214.187z"/>
	<path fill="#FFFFFF" d="M113.838,214.187h-1.936v-4.145c0-0.512-0.091-0.896-0.273-1.152c-0.182-0.256-0.472-0.384-0.87-0.384
		c-0.542,0-0.933,0.181-1.174,0.542c-0.241,0.362-0.362,0.962-0.362,1.8v3.339h-1.936v-7.097h1.479l0.26,0.908h0.108
		c0.216-0.343,0.513-0.602,0.892-0.778c0.378-0.175,0.809-0.263,1.292-0.263c0.825,0,1.452,0.223,1.879,0.669
		c0.427,0.447,0.641,1.091,0.641,1.933V214.187z"/>
	<path fill="#FFFFFF" d="M122.007,207.09v0.984l-1.111,0.286c0.203,0.317,0.305,0.673,0.305,1.066c0,0.762-0.266,1.355-0.797,1.78
		c-0.531,0.426-1.268,0.638-2.212,0.638l-0.349-0.019l-0.286-0.032c-0.199,0.152-0.298,0.322-0.298,0.508
		c0,0.279,0.355,0.419,1.066,0.419h1.206c0.779,0,1.372,0.167,1.781,0.501c0.408,0.334,0.612,0.825,0.612,1.473
		c0,0.83-0.346,1.473-1.038,1.93c-0.691,0.457-1.685,0.686-2.98,0.686c-0.99,0-1.747-0.172-2.269-0.518
		c-0.523-0.345-0.784-0.828-0.784-1.45c0-0.427,0.133-0.785,0.4-1.073s0.658-0.493,1.174-0.616
		c-0.199-0.084-0.373-0.223-0.521-0.416c-0.148-0.192-0.222-0.396-0.222-0.612c0-0.271,0.078-0.496,0.235-0.676
		c0.157-0.18,0.383-0.357,0.679-0.53c-0.373-0.161-0.667-0.419-0.885-0.774c-0.218-0.355-0.327-0.774-0.327-1.257
		c0-0.774,0.252-1.373,0.755-1.796s1.223-0.635,2.158-0.635c0.199,0,0.435,0.018,0.708,0.054c0.273,0.036,0.448,0.062,0.524,0.079
		H122.007z M116.529,215.189c0,0.267,0.128,0.476,0.384,0.628c0.256,0.152,0.615,0.229,1.076,0.229c0.694,0,1.238-0.095,1.631-0.286
		s0.59-0.451,0.59-0.781c0-0.267-0.116-0.451-0.349-0.552s-0.592-0.152-1.079-0.152h-1.003c-0.355,0-0.653,0.083-0.892,0.251
		C116.649,214.693,116.529,214.915,116.529,215.189z M117.234,209.413c0,0.385,0.088,0.69,0.263,0.914
		c0.176,0.224,0.443,0.336,0.803,0.336c0.364,0,0.63-0.112,0.8-0.336s0.254-0.529,0.254-0.914c0-0.855-0.351-1.282-1.054-1.282
		C117.589,208.131,117.234,208.558,117.234,209.413z"/>
	<path fill="#FFFFFF" d="M127.683,214.187l-0.375-0.965h-0.051c-0.326,0.411-0.661,0.695-1.006,0.854
		c-0.346,0.159-0.795,0.238-1.349,0.238c-0.681,0-1.218-0.195-1.609-0.584c-0.392-0.389-0.587-0.944-0.587-1.663
		c0-0.753,0.263-1.309,0.791-1.666c0.526-0.358,1.321-0.556,2.384-0.594l1.23-0.038v-0.311c0-0.719-0.367-1.079-1.104-1.079
		c-0.567,0-1.234,0.171-2,0.514l-0.641-1.308c0.817-0.427,1.722-0.641,2.717-0.641c0.951,0,1.682,0.208,2.189,0.622
		s0.762,1.045,0.762,1.892v4.729H127.683z M127.11,210.898l-0.748,0.025c-0.563,0.017-0.982,0.119-1.257,0.305
		s-0.413,0.47-0.413,0.851c0,0.546,0.313,0.819,0.939,0.819c0.449,0,0.807-0.129,1.076-0.387c0.269-0.258,0.402-0.601,0.402-1.028
		V210.898z"/>
	<path fill="#FFFFFF" d="M137.204,207.09v0.984l-1.111,0.286c0.203,0.317,0.305,0.673,0.305,1.066c0,0.762-0.266,1.355-0.797,1.78
		c-0.531,0.426-1.268,0.638-2.212,0.638l-0.349-0.019l-0.286-0.032c-0.198,0.152-0.298,0.322-0.298,0.508
		c0,0.279,0.355,0.419,1.066,0.419h1.205c0.779,0,1.373,0.167,1.781,0.501s0.612,0.825,0.612,1.473c0,0.83-0.346,1.473-1.038,1.93
		c-0.691,0.457-1.686,0.686-2.98,0.686c-0.99,0-1.746-0.172-2.269-0.518c-0.522-0.345-0.784-0.828-0.784-1.45
		c0-0.427,0.133-0.785,0.4-1.073c0.266-0.288,0.658-0.493,1.174-0.616c-0.199-0.084-0.373-0.223-0.521-0.416
		c-0.147-0.192-0.222-0.396-0.222-0.612c0-0.271,0.078-0.496,0.234-0.676c0.156-0.18,0.383-0.357,0.68-0.53
		c-0.373-0.161-0.668-0.419-0.886-0.774s-0.327-0.774-0.327-1.257c0-0.774,0.252-1.373,0.756-1.796
		c0.503-0.423,1.223-0.635,2.158-0.635c0.198,0,0.435,0.018,0.707,0.054c0.273,0.036,0.447,0.062,0.523,0.079H137.204z
		 M131.726,215.189c0,0.267,0.128,0.476,0.384,0.628c0.257,0.152,0.614,0.229,1.076,0.229c0.694,0,1.237-0.095,1.632-0.286
		c0.393-0.19,0.59-0.451,0.59-0.781c0-0.267-0.116-0.451-0.35-0.552c-0.232-0.102-0.592-0.152-1.078-0.152h-1.004
		c-0.355,0-0.652,0.083-0.892,0.251C131.845,214.693,131.726,214.915,131.726,215.189z M132.431,209.413
		c0,0.385,0.088,0.69,0.263,0.914c0.176,0.224,0.443,0.336,0.804,0.336c0.363,0,0.63-0.112,0.799-0.336
		c0.17-0.224,0.254-0.529,0.254-0.914c0-0.855-0.351-1.282-1.053-1.282C132.786,208.131,132.431,208.558,132.431,209.413z"/>
	<path fill="#FFFFFF" d="M141.583,214.313c-1.143,0-2.035-0.315-2.678-0.946c-0.644-0.63-0.965-1.523-0.965-2.679
		c0-1.189,0.297-2.108,0.892-2.758c0.595-0.649,1.417-0.974,2.466-0.974c1.003,0,1.783,0.286,2.342,0.857s0.838,1.36,0.838,2.368
		v0.939h-4.576c0.021,0.55,0.184,0.979,0.488,1.289s0.732,0.463,1.283,0.463c0.427,0,0.831-0.044,1.212-0.133
		s0.778-0.23,1.193-0.425v1.498c-0.339,0.169-0.7,0.295-1.085,0.377C142.607,214.272,142.138,214.313,141.583,214.313z
		 M141.311,208.334c-0.411,0-0.731,0.13-0.965,0.391c-0.233,0.26-0.366,0.629-0.399,1.107h2.717
		c-0.009-0.478-0.134-0.848-0.375-1.107C142.047,208.464,141.722,208.334,141.311,208.334z"/>
	<path fill="#FFFFFF" d="M152.406,214.187h-1.937v-4.145c0-0.512-0.085-0.896-0.257-1.152c-0.171-0.256-0.44-0.384-0.81-0.384
		c-0.494,0-0.854,0.182-1.078,0.546c-0.225,0.364-0.337,0.963-0.337,1.796v3.339h-1.937v-7.097h1.479l0.261,0.908h0.107
		c0.19-0.326,0.465-0.581,0.825-0.765c0.36-0.184,0.772-0.276,1.237-0.276c1.063,0,1.782,0.347,2.158,1.041h0.172
		c0.19-0.33,0.471-0.586,0.841-0.768s0.788-0.273,1.254-0.273c0.804,0,1.412,0.207,1.825,0.619c0.412,0.413,0.619,1.074,0.619,1.984
		v4.627h-1.943v-4.145c0-0.512-0.085-0.896-0.257-1.152c-0.171-0.256-0.44-0.384-0.81-0.384c-0.474,0-0.828,0.169-1.063,0.508
		c-0.235,0.338-0.353,0.876-0.353,1.612V214.187z"/>
	<path fill="#FFFFFF" d="M162.029,214.313c-1.143,0-2.036-0.315-2.679-0.946s-0.965-1.523-0.965-2.679
		c0-1.189,0.297-2.108,0.892-2.758c0.595-0.649,1.417-0.974,2.466-0.974c1.004,0,1.784,0.286,2.343,0.857s0.838,1.36,0.838,2.368
		v0.939h-4.577c0.021,0.55,0.185,0.979,0.489,1.289s0.731,0.463,1.282,0.463c0.428,0,0.832-0.044,1.213-0.133
		s0.778-0.23,1.193-0.425v1.498c-0.339,0.169-0.701,0.295-1.086,0.377C163.054,214.272,162.583,214.313,162.029,214.313z
		 M161.757,208.334c-0.411,0-0.732,0.13-0.965,0.391c-0.233,0.26-0.367,0.629-0.4,1.107h2.717c-0.008-0.478-0.133-0.848-0.375-1.107
		C162.493,208.464,162.167,208.334,161.757,208.334z"/>
	<path fill="#FFFFFF" d="M173.049,214.187h-1.937v-4.145c0-0.512-0.09-0.896-0.272-1.152c-0.183-0.256-0.472-0.384-0.87-0.384
		c-0.541,0-0.933,0.181-1.174,0.542c-0.241,0.362-0.361,0.962-0.361,1.8v3.339h-1.937v-7.097h1.479l0.26,0.908h0.107
		c0.217-0.343,0.514-0.602,0.893-0.778c0.379-0.175,0.809-0.263,1.291-0.263c0.826,0,1.452,0.223,1.879,0.669
		c0.428,0.447,0.642,1.091,0.642,1.933V214.187z"/>
	<path fill="#FFFFFF" d="M178.032,212.771c0.338,0,0.744-0.074,1.219-0.222v1.441c-0.482,0.216-1.075,0.324-1.777,0.324
		c-0.775,0-1.339-0.196-1.692-0.587c-0.353-0.392-0.53-0.979-0.53-1.762v-3.421h-0.926v-0.819l1.066-0.647l0.559-1.498h1.237v1.511
		h1.987v1.454h-1.987v3.421c0,0.275,0.077,0.478,0.231,0.609S177.778,212.771,178.032,212.771z"/>
</g>
<polygon fill="#FFFFFF" points="18.535,126.064 14.141,121.67 13.027,122.77 18.52,128.336 24.089,122.843 23.019,121.759 "/>
<polygon fill="#FFFFFF" points="18.535,189.251 14.141,184.857 13.027,185.957 18.52,191.523 24.089,186.029 23.019,184.945 "/>
<polygon fill="#FFFFFF" points="18.331,250.645 13.937,246.25 12.824,247.35 18.316,252.917 23.885,247.422 22.815,246.338 "/>
<g>
</g>
<g>
</g>
<g>
</g>
<g>
</g>
<g>
</g>
<g>
</g>
</svg>
