<?xml version="1.0" encoding="utf-8"?>
<!-- Generator: Adobe Illustrator 16.0.0, SVG Export Plug-In . SVG Version: 6.00 Build 0)  -->
<!DOCTYPE svg PUBLIC "-//W3C//DTD SVG 1.1//EN" "http://www.w3.org/Graphics/SVG/1.1/DTD/svg11.dtd">
<svg version="1.1" id="Layer_1" xmlns="http://www.w3.org/2000/svg" xmlns:xlink="http://www.w3.org/1999/xlink" x="0px" y="0px"
	 width="768.621px" height="402.577px" viewBox="0 0 768.621 402.577" enable-background="new 0 0 768.621 402.577"
	 xml:space="preserve">
<path opacity="0.05" fill="#FFFFFF" d="M384.313,18.126C172.062,18.126,0,190.188,0,402.437h768.621
	C768.621,190.188,596.559,18.126,384.313,18.126z"/>
<g>
	<path fill="#7B808D" d="M382.754,58.436c-5.523,0-10.001,4.478-10.001,10s4.478,10,10.001,10c5.522,0,10-4.478,10-10
		S388.276,58.436,382.754,58.436z M382.754,76.437c-4.412,0-8.001-3.589-8.001-8s3.589-8,8.001-8c4.411,0,8,3.589,8,8
		S387.165,76.437,382.754,76.437z"/>
	<path fill="#7B808D" d="M382.754,64.436c-2.207,0-4.001,1.794-4.001,4s1.794,4,4.001,4c2.205,0,4-1.794,4-4
		S384.959,64.436,382.754,64.436z"/>
</g>
<path fill="#FFFFFF" d="M383.005,336.937c20.259,0,36.678-19.22,36.678-42.929c0-32.879-16.419-42.931-36.678-42.931
	c-20.254,0-36.675,10.052-36.675,42.931C346.33,317.717,362.751,336.937,383.005,336.937L383.005,336.937z M383.005,336.937"/>
<path fill="#FFFFFF" d="M463.99,400.121l-18.5-41.684c-0.845-1.907-2.326-3.492-4.184-4.452l-28.718-14.949
	c-0.624-0.329-1.396-0.268-1.968,0.166c-8.117,6.143-17.678,9.39-27.616,9.39c-9.948,0-19.496-3.247-27.618-9.39
	c-0.566-0.434-1.338-0.495-1.974-0.166l-28.721,14.949c-1.847,0.96-3.329,2.545-4.17,4.452l-18.512,41.684
	c-0.351,0.795-0.573,1.621-0.693,2.456h163.365C464.563,401.742,464.341,400.916,463.99,400.121z M386.947,392.922L383,399.758
	l-3.946-6.836l-3.946-6.837L383,354.569l7.894,31.516L386.947,392.922z"/>
<path fill="#EDECED" d="M375.711,162.752c-4.861-0.175-6.078,3.906-6.078,3.906c-7.729,0.436-8.598,4.776-8.598,4.776
	c-5.991,1.912-5.731,8.076-5.731,8.076c-4.429,3.474-2.287,8.163-2.287,8.163c-3.611,4.175,0,8.859,0,8.859
	c-0.688,6.652,3.068,8.682,3.068,8.682c1.91,7.295,8.51,7.555,8.51,7.555c3.302,5.123,10.161,3.386,10.161,3.386
	c6.079-0.173,6.947-7.366,6.947-7.366v-41.174C381.183,166.572,380.575,162.925,375.711,162.752z M380.226,208.788
	c0,0-1.43,6.498-7.508,6.411c0,0-7.296-0.057-8.424-6.411c0,0-1.129-4.703,2.432-7.308c0,0-0.087-1.824-1.477-0.955
	c0,0-4.429,4.081-1.823,10.507c0,0-4.09-0.086-6.432-6.6c0,0-3.294-2.605-2.947-6.512c0,0,3.561,2.084,6.513,1.52
	c0,0,2.778-0.651,3.388-1.52c0,0,3.646,3.733,8.683,0.955c0,0,1.043,1.304,1.912,0.564c0,0-0.608-0.477-1.824-1.606l0.087-2.084
	c0,0-1.042-0.786-0.955,0.389l-0.087,1.609c0,0-4.169,2.339-7.382-1.609l-0.752,0.651c0,0-3.678,2.693-7.759,0.35
	c0,0-5.731-2.344-1.302-9.03c0,0-1.998-4.342,1.041-6.774c0,0,2.171,8.685,11.378,7.122c0,0,1.215,1.39,2.344,1.824l-2.773,0.261
	c0,0-1.482,1.214,0.43,1.736c0,0,8.416-0.173,13.238-8.597V208.788z M380.226,178.556c-2.044,8.422-8.376,10.68-8.376,10.68
	c-5.731-0.172-4.43-5.991-4.43-5.991c0.435,0,1.192-0.261,1.192-0.261c1.363-0.867,0-0.868,0-0.868
	c-2.98,0.782-3.19-0.608-3.19-0.608c-0.955-0.521-1.041,0.261-1.041,0.261c0,0.347,1.389,1.563,1.389,1.563
	c-0.086,0.955,0.435,3.646,0.435,3.646c-1.303,0.261-3.387,0-3.387,0c-5.558-1.214-5.819-7.641-5.819-7.641
	c-0.172-5.818,4.951-6.773,4.951-6.773c2.257-4.95,6.86-4.342,6.86-4.342c-0.26,4.169,1.998,5.644,1.998,5.644
	c1.91,1.65,4.406,1.824,4.406,1.824c-0.109,0.261,0.63,1.388,0.63,1.388c1.043,0.696,0.782-0.606,0.782-0.606
	c-1.043-1.912-0.174-3.214-0.174-3.214c0.261-0.606-0.174-0.781-0.174-0.781c-1.215-0.521-1.064,1.78-1.064,1.78
	c-2.723-0.458-3.384-1.375-3.384-1.375c-3.664-3.511,0-7.481,0-7.481c5.496-3.664,8.396,2.162,8.396,2.162V178.556z"/>
<g>
	<path fill="#F4BA3F" d="M392.734,218.406h-21.228c-0.879,0-1.592,0.587-1.592,1.316v0.877c0,0.729,0.713,1.319,1.592,1.319h21.228
		c0.878,0,1.592-0.59,1.592-1.319v-0.877C394.326,218.993,393.612,218.406,392.734,218.406z"/>
	<path fill="#F4BA3F" d="M392.734,223.673h-21.228c-0.879,0-1.592,0.591-1.592,1.318v0.878c0,0.728,0.713,1.316,1.592,1.316h21.228
		c0.878,0,1.592-0.589,1.592-1.316v-0.878C394.326,224.264,393.612,223.673,392.734,223.673z"/>
	<path fill="#F4BA3F" d="M392.734,228.943h-21.228c-0.879,0-1.592,0.587-1.592,1.316v0.878c0,0.728,0.713,1.317,1.592,1.317h21.228
		c0.878,0,1.592-0.59,1.592-1.317v-0.878C394.326,229.53,393.612,228.943,392.734,228.943z"/>
	<path fill="#F4BA3F" d="M374.16,234.209h15.922c0,2.635-4.246,4.392-7.961,4.392C378.405,238.601,374.16,236.844,374.16,234.209z"
		/>
</g>
<path fill="#F4BA3F" d="M384.135,158.223c0,1.113-0.901,2.014-2.014,2.014l0,0c-1.112,0-2.014-0.901-2.014-2.014v-13.912
	c0-1.113,0.901-2.015,2.014-2.015l0,0c1.112,0,2.014,0.902,2.014,2.015V158.223z"/>
<path fill="#F4BA3F" d="M417.478,194.549c-1.113,0-2.015-0.901-2.015-2.013l0,0c0-1.113,0.901-2.014,2.015-2.014h13.912
	c1.112,0,2.015,0.901,2.015,2.014l0,0c0,1.112-0.902,2.013-2.015,2.013H417.478z"/>
<path fill="#F4BA3F" d="M332.658,194.549c-1.113,0-2.014-0.901-2.014-2.013l0,0c0-1.113,0.9-2.014,2.014-2.014h13.913
	c1.112,0,2.014,0.901,2.014,2.014l0,0c0,1.112-0.901,2.013-2.014,2.013H332.658z"/>
<path fill="#F4BA3F" d="M406.819,166.58c-0.786,0.786-2.062,0.786-2.848,0l0,0c-0.787-0.786-0.787-2.062,0-2.848l9.838-9.838
	c0.787-0.786,2.062-0.786,2.847,0l0,0c0.788,0.787,0.788,2.062,0.002,2.849L406.819,166.58z"/>
<path fill="#F4BA3F" d="M357.422,166.58c0.786,0.786,2.062,0.786,2.848,0l0,0c0.785-0.786,0.785-2.062,0-2.848l-9.839-9.838
	c-0.786-0.786-2.061-0.786-2.848,0l0,0c-0.787,0.787-0.787,2.062,0,2.849L357.422,166.58z"/>
<path fill="#EDECED" d="M394.815,175.014c-1.128,0-2.044,0.916-2.044,2.045c0,1.129,0.916,2.043,2.044,2.043
	c1.129,0,2.044-0.914,2.044-2.043C396.859,175.93,395.944,175.014,394.815,175.014z M394.815,177.975
	c-0.505,0-0.915-0.411-0.915-0.916c0-0.506,0.41-0.917,0.915-0.917c0.506,0,0.917,0.411,0.917,0.917
	C395.732,177.564,395.321,177.975,394.815,177.975z"/>
<path fill="#EDECED" d="M411.224,187.673c0,0,2.142-4.689-2.286-8.163c0,0,0.26-6.164-5.731-8.076c0,0-0.868-4.341-8.597-4.776
	c0,0-1.217-4.081-6.078-3.906c-4.865,0.173-5.473,3.82-5.994,4.862v41.174c0,0,0.868,7.193,6.948,7.366c0,0,6.86,1.737,10.16-3.386
	c0,0,6.6-0.26,8.511-7.555c0,0,3.755-2.03,3.067-8.682C411.224,196.532,414.837,191.848,411.224,187.673z M408.441,203.192
	c-0.488,0.608-0.934,1.016-1.111,1.17c-0.278,0.904-0.687,1.758-1.211,2.541c-2.205,3.847-4.986,4.11-5.276,4.128
	c-0.639,0.242-1.308,0.432-1.997,0.563c-2.377,3.564-7.322,3.604-7.322,3.604c-6.08,0.087-7.509-6.411-7.509-6.411v-15.397v-9.712
	v-5.123v-1.803v-9.189c0,0,2.9-5.826,8.396-2.162c0,0,1.442,1.564,1.611,3.596c0.005,0.054,0.002,3.832,0.001,6.271
	c0.243-0.103,0.512-0.161,0.792-0.161c0.217,0,0.426,0.034,0.622,0.097c0.006-2.604,0.009-6.733-0.005-6.982
	c0,0,4.602-0.608,6.858,4.342c0,0,5.124,0.955,4.95,6.773c0,0-0.017,0.398-0.126,1.016c0.543,0.262,1.051,0.599,1.508,1.009
	c0.006-0.018,0.008-0.028,0.008-0.028c3.04,2.433,1.043,6.774,1.043,6.774c2.639,3.983,1.67,6.426,0.455,7.749
	c0.098,0.564,0.155,1.153,0.155,1.763c0,0.468-0.032,0.923-0.089,1.366c-0.077,1.001-0.375,1.895-0.759,2.656
	C409.159,202.236,408.822,202.756,408.441,203.192z"/>
<rect x="383.904" y="182.22" fill="#EDECED" width="18.268" height="1.379"/>
<rect x="400.793" y="182.22" fill="#EDECED" width="1.379" height="5.608"/>
<path fill="#EDECED" d="M401.481,187.081c-1.128,0-2.044,0.914-2.044,2.043s0.916,2.044,2.044,2.044c1.13,0,2.044-0.915,2.044-2.044
	S402.611,187.081,401.481,187.081z M401.481,190.042c-0.506,0-0.916-0.412-0.916-0.917c0-0.506,0.41-0.917,0.916-0.917
	c0.505,0,0.917,0.411,0.917,0.917C402.398,189.629,401.986,190.042,401.481,190.042z"/>
<rect x="390.304" y="182.909" fill="#EDECED" width="1.378" height="9.394"/>
<path fill="#EDECED" d="M390.993,191.554c-1.129,0-2.044,0.916-2.044,2.045c0,1.128,0.915,2.044,2.044,2.044
	s2.045-0.916,2.045-2.044C393.038,192.47,392.122,191.554,390.993,191.554z M390.993,194.515c-0.505,0-0.917-0.411-0.917-0.916
	s0.412-0.916,0.917-0.916c0.506,0,0.916,0.411,0.916,0.916S391.499,194.515,390.993,194.515z"/>
<rect x="395.466" y="200.488" fill="#EDECED" width="1.378" height="5.607"/>
<path fill="#EDECED" d="M396.154,205.347c-1.129,0-2.044,0.916-2.044,2.045s0.915,2.045,2.044,2.045c1.13,0,2.046-0.916,2.046-2.045
	S397.284,205.347,396.154,205.347z M396.154,208.308c-0.505,0-0.916-0.41-0.916-0.916c0-0.504,0.411-0.916,0.916-0.916
	c0.507,0,0.917,0.412,0.917,0.916C397.071,207.897,396.661,208.308,396.154,208.308z"/>
<rect x="405.963" y="194.51" fill="#EDECED" width="1.378" height="5.608"/>
<path fill="#EDECED" d="M406.651,195.258c1.13,0,2.044-0.916,2.044-2.045c0-1.128-0.914-2.044-2.044-2.044
	c-1.129,0-2.045,0.916-2.045,2.044C404.606,194.342,405.522,195.258,406.651,195.258z M406.651,192.297
	c0.505,0,0.917,0.411,0.917,0.916c0,0.507-0.412,0.917-0.917,0.917c-0.506,0-0.916-0.41-0.916-0.917
	C405.735,192.708,406.146,192.297,406.651,192.297z"/>
<path fill="#EDECED" d="M391.561,199.798c0.077,0.215,0.121,0.447,0.121,0.69c0,0.241-0.043,0.472-0.121,0.688h19.055v-1.378
	H391.561z"/>
<path fill="#EDECED" d="M389.638,202.534c-0.242,0-0.473-0.045-0.688-0.125v12.977h1.377v-12.977
	C390.111,202.489,389.88,202.534,389.638,202.534z"/>
<path fill="#EDECED" d="M389.638,198.443c-1.129,0-2.044,0.915-2.044,2.044c0,1.129,0.915,2.045,2.044,2.045
	c1.13,0,2.044-0.916,2.044-2.045C391.682,199.358,390.768,198.443,389.638,198.443z M389.638,201.404
	c-0.505,0-0.917-0.412-0.917-0.917c0-0.506,0.412-0.916,0.917-0.916s0.917,0.41,0.917,0.916
	C390.555,200.992,390.143,201.404,389.638,201.404z"/>
<g>
	<path fill="#FFFFFF" d="M325.625,99.289h4.814v6.292c-0.78,0.254-1.515,0.433-2.204,0.536c-0.689,0.102-1.394,0.153-2.113,0.153
		c-1.832,0-3.23-0.538-4.196-1.614c-0.966-1.077-1.449-2.622-1.449-4.636c0-1.959,0.56-3.486,1.681-4.582
		c1.12-1.096,2.674-1.644,4.661-1.644c1.245,0,2.446,0.249,3.603,0.747l-0.855,2.059c-0.885-0.443-1.807-0.664-2.764-0.664
		c-1.112,0-2.003,0.374-2.673,1.121s-1.004,1.751-1.004,3.013c0,1.317,0.27,2.323,0.81,3.017c0.539,0.695,1.324,1.042,2.353,1.042
		c0.537,0,1.082-0.055,1.635-0.166v-2.532h-2.299V99.289z"/>
	<path fill="#FFFFFF" d="M338.308,96.649c0.343,0,0.628,0.025,0.855,0.075l-0.191,2.374c-0.205-0.055-0.454-0.083-0.747-0.083
		c-0.808,0-1.438,0.208-1.888,0.623c-0.451,0.415-0.677,0.996-0.677,1.743v4.723h-2.532v-9.28h1.917l0.374,1.561h0.125
		c0.288-0.52,0.677-0.939,1.166-1.258C337.2,96.808,337.732,96.649,338.308,96.649z"/>
	<path fill="#FFFFFF" d="M349.282,101.447c0,1.511-0.398,2.692-1.195,3.544s-1.906,1.278-3.329,1.278
		c-0.891,0-1.677-0.195-2.357-0.585c-0.681-0.391-1.204-0.951-1.569-1.681s-0.548-1.583-0.548-2.557
		c0-1.516,0.396-2.695,1.187-3.536s1.904-1.262,3.337-1.262c0.891,0,1.677,0.194,2.357,0.581s1.204,0.943,1.569,1.668
		S349.282,100.473,349.282,101.447z M342.865,101.447c0,0.918,0.151,1.613,0.452,2.083c0.302,0.47,0.793,0.706,1.474,0.706
		c0.675,0,1.161-0.234,1.457-0.702c0.296-0.467,0.444-1.163,0.444-2.087c0-0.918-0.149-1.607-0.448-2.067s-0.789-0.689-1.469-0.689
		c-0.675,0-1.162,0.228-1.461,0.685C343.015,99.832,342.865,100.522,342.865,101.447z"/>
	<path fill="#FFFFFF" d="M359.002,106.104l-0.714-3.246l-0.963-4.101h-0.058l-1.693,7.346h-2.723l-2.64-9.28h2.523l1.071,4.109
		c0.171,0.736,0.346,1.751,0.523,3.046h0.05c0.022-0.42,0.119-1.087,0.291-2l0.133-0.706l1.146-4.449h2.789l1.087,4.449
		c0.022,0.122,0.057,0.302,0.104,0.54c0.047,0.238,0.092,0.491,0.137,0.759c0.044,0.269,0.084,0.531,0.12,0.789
		c0.036,0.257,0.057,0.463,0.063,0.618h0.05c0.05-0.398,0.138-0.945,0.266-1.64c0.127-0.694,0.219-1.163,0.274-1.407l1.112-4.109
		h2.482l-2.673,9.28H359.002z"/>
	<path fill="#FFFFFF" d="M369.834,104.252c0.443,0,0.974-0.097,1.594-0.291v1.884c-0.631,0.282-1.406,0.423-2.324,0.423
		c-1.013,0-1.75-0.256-2.212-0.768c-0.462-0.512-0.693-1.28-0.693-2.304v-4.474h-1.212v-1.071l1.395-0.847l0.73-1.959h1.619v1.976
		h2.598v1.901h-2.598v4.474c0,0.36,0.101,0.625,0.303,0.797C369.235,104.167,369.502,104.252,369.834,104.252z"/>
	<path fill="#FFFFFF" d="M381.871,106.104h-2.532v-5.42c0-1.339-0.498-2.009-1.494-2.009c-0.708,0-1.22,0.241-1.536,0.722
		c-0.314,0.481-0.473,1.262-0.473,2.341v4.366h-2.531V93.188h2.531v2.631c0,0.205-0.02,0.686-0.059,1.444l-0.058,0.747h0.133
		c0.564-0.908,1.461-1.361,2.689-1.361c1.091,0,1.917,0.293,2.481,0.88s0.848,1.428,0.848,2.523V106.104z"/>
	<path fill="#FFFFFF" d="M383.655,102.584v-2.075h4.458v2.075H383.655z"/>
	<path fill="#FFFFFF" d="M400.215,99.919c0,1.998-0.568,3.528-1.705,4.59c-1.138,1.063-2.779,1.594-4.927,1.594h-3.437V93.968h3.811
		c1.98,0,3.52,0.523,4.615,1.569S400.215,98.043,400.215,99.919z M397.543,99.986c0-2.606-1.151-3.91-3.453-3.91h-1.37v7.902h1.104
		C396.303,103.979,397.543,102.647,397.543,99.986z"/>
	<path fill="#FFFFFF" d="M407.711,96.649c0.344,0,0.628,0.025,0.855,0.075l-0.191,2.374c-0.205-0.055-0.453-0.083-0.747-0.083
		c-0.808,0-1.438,0.208-1.889,0.623c-0.45,0.415-0.677,0.996-0.677,1.743v4.723h-2.531v-9.28h1.918l0.373,1.561h0.125
		c0.287-0.52,0.676-0.939,1.166-1.258C406.603,96.808,407.135,96.649,407.711,96.649z"/>
	<path fill="#FFFFFF" d="M410.143,94.424c0-0.825,0.46-1.237,1.379-1.237c0.918,0,1.377,0.412,1.377,1.237
		c0,0.393-0.114,0.699-0.344,0.917c-0.23,0.218-0.574,0.328-1.033,0.328C410.603,95.669,410.143,95.254,410.143,94.424z
		 M412.783,106.104h-2.532v-9.28h2.532V106.104z"/>
	<path fill="#FFFFFF" d="M417.646,106.104l-3.535-9.28h2.647l1.793,5.288c0.199,0.669,0.323,1.303,0.374,1.901h0.049
		c0.028-0.531,0.152-1.165,0.374-1.901l1.784-5.288h2.648l-3.536,9.28H417.646z"/>
	<path fill="#FFFFFF" d="M429.31,106.27c-1.494,0-2.662-0.412-3.503-1.237c-0.842-0.825-1.262-1.992-1.262-3.503
		c0-1.555,0.389-2.757,1.166-3.607c0.777-0.849,1.853-1.274,3.226-1.274c1.311,0,2.332,0.374,3.063,1.121s1.096,1.779,1.096,3.096
		v1.229h-5.984c0.027,0.719,0.24,1.281,0.639,1.685s0.957,0.606,1.677,0.606c0.559,0,1.087-0.058,1.585-0.174
		s1.019-0.302,1.561-0.556v1.959c-0.442,0.221-0.915,0.386-1.419,0.494C430.648,106.216,430.034,106.27,429.31,106.27z
		 M428.952,98.45c-0.536,0-0.957,0.17-1.262,0.511c-0.304,0.34-0.479,0.823-0.522,1.448h3.553c-0.011-0.625-0.175-1.108-0.489-1.448
		C429.915,98.62,429.489,98.45,428.952,98.45z"/>
	<path fill="#FFFFFF" d="M443.72,106.104h-2.531v-5.42c0-0.669-0.119-1.172-0.357-1.506c-0.238-0.335-0.617-0.502-1.137-0.502
		c-0.709,0-1.221,0.237-1.536,0.709c-0.315,0.474-0.474,1.258-0.474,2.354v4.366h-2.531v-9.28h1.934l0.341,1.187h0.142
		c0.281-0.448,0.671-0.787,1.166-1.017c0.495-0.229,1.059-0.344,1.689-0.344c1.078,0,1.897,0.292,2.457,0.875
		c0.559,0.584,0.838,1.427,0.838,2.528V106.104z"/>
	<path fill="#FFFFFF" d="M339.271,118.153c0,1.306-0.408,2.305-1.224,2.997c-0.816,0.692-1.977,1.038-3.482,1.038h-1.104v4.316
		h-2.573v-12.136h3.876c1.472,0,2.591,0.317,3.357,0.951C338.888,115.952,339.271,116.896,339.271,118.153z M333.46,120.079h0.847
		c0.792,0,1.383-0.156,1.776-0.469c0.393-0.313,0.589-0.768,0.589-1.365c0-0.603-0.165-1.049-0.494-1.336
		c-0.329-0.288-0.845-0.432-1.548-0.432h-1.17V120.079z"/>
	<path fill="#FFFFFF" d="M345.563,126.669c-1.494,0-2.662-0.412-3.503-1.237s-1.262-1.992-1.262-3.503
		c0-1.555,0.389-2.757,1.167-3.606c0.777-0.85,1.852-1.274,3.225-1.274c1.312,0,2.333,0.374,3.063,1.121s1.096,1.779,1.096,3.096
		v1.229h-5.985c0.028,0.719,0.241,1.281,0.639,1.685s0.958,0.606,1.677,0.606c0.559,0,1.087-0.058,1.585-0.174
		s1.018-0.302,1.561-0.556v1.959c-0.443,0.221-0.916,0.386-1.419,0.494C346.902,126.615,346.288,126.669,345.563,126.669z
		 M345.206,118.85c-0.537,0-0.958,0.17-1.262,0.51c-0.304,0.341-0.479,0.823-0.523,1.449h3.553c-0.011-0.625-0.174-1.108-0.49-1.449
		C346.169,119.021,345.743,118.85,345.206,118.85z"/>
	<path fill="#FFFFFF" d="M356.586,117.049c0.343,0,0.628,0.025,0.855,0.075l-0.191,2.374c-0.205-0.055-0.454-0.083-0.747-0.083
		c-0.808,0-1.438,0.208-1.888,0.623c-0.451,0.415-0.677,0.996-0.677,1.743v4.723h-2.532v-9.28h1.917l0.374,1.561h0.125
		c0.288-0.52,0.677-0.939,1.166-1.257C355.479,117.208,356.011,117.049,356.586,117.049z"/>
	<path fill="#FFFFFF" d="M364.256,119.124h-2.191v7.379h-2.532v-7.379h-1.395v-1.22l1.395-0.681v-0.681
		c0-1.057,0.26-1.829,0.78-2.316s1.353-0.73,2.499-0.73c0.875,0,1.652,0.13,2.333,0.39l-0.647,1.859
		c-0.509-0.161-0.979-0.241-1.411-0.241c-0.36,0-0.62,0.106-0.78,0.319c-0.161,0.213-0.241,0.486-0.241,0.818v0.581h2.191V119.124z"
		/>
	<path fill="#FFFFFF" d="M374.143,121.847c0,1.511-0.398,2.692-1.195,3.544s-1.906,1.278-3.329,1.278
		c-0.891,0-1.677-0.195-2.357-0.585c-0.681-0.39-1.204-0.95-1.569-1.681s-0.548-1.583-0.548-2.557c0-1.516,0.396-2.695,1.187-3.536
		s1.904-1.262,3.337-1.262c0.891,0,1.677,0.194,2.357,0.581c0.682,0.387,1.204,0.943,1.569,1.668S374.143,120.873,374.143,121.847z
		 M367.726,121.847c0,0.918,0.151,1.613,0.453,2.083c0.301,0.47,0.792,0.706,1.473,0.706c0.675,0,1.161-0.234,1.457-0.701
		c0.296-0.468,0.444-1.164,0.444-2.088c0-0.918-0.149-1.607-0.448-2.067s-0.789-0.689-1.469-0.689c-0.675,0-1.162,0.229-1.461,0.685
		C367.875,120.232,367.726,120.922,367.726,121.847z"/>
	<path fill="#FFFFFF" d="M381.414,117.049c0.344,0,0.628,0.025,0.855,0.075l-0.191,2.374c-0.205-0.055-0.453-0.083-0.747-0.083
		c-0.808,0-1.438,0.208-1.889,0.623c-0.45,0.415-0.677,0.996-0.677,1.743v4.723h-2.531v-9.28h1.918l0.373,1.561h0.125
		c0.287-0.52,0.676-0.939,1.166-1.257C380.306,117.208,380.838,117.049,381.414,117.049z"/>
	<path fill="#FFFFFF" d="M392.264,126.503h-2.532v-5.42c0-0.669-0.112-1.172-0.336-1.507c-0.225-0.334-0.577-0.502-1.059-0.502
		c-0.647,0-1.118,0.238-1.411,0.714s-0.439,1.259-0.439,2.349v4.366h-2.532v-9.28h1.935l0.34,1.187h0.141
		c0.25-0.426,0.609-0.76,1.08-1c0.47-0.241,1.01-0.361,1.618-0.361c1.39,0,2.329,0.454,2.822,1.361h0.224
		c0.25-0.432,0.616-0.767,1.101-1.004c0.483-0.238,1.03-0.357,1.64-0.357c1.051,0,1.847,0.27,2.386,0.81
		c0.54,0.539,0.81,1.404,0.81,2.594v6.051h-2.54v-5.42c0-0.669-0.112-1.172-0.336-1.507c-0.225-0.334-0.577-0.502-1.059-0.502
		c-0.62,0-1.083,0.221-1.391,0.664c-0.307,0.443-0.46,1.146-0.46,2.108V126.503z"/>
	<path fill="#FFFFFF" d="M406.541,126.503l-0.49-1.262h-0.066c-0.426,0.537-0.865,0.909-1.315,1.117
		c-0.451,0.207-1.039,0.311-1.765,0.311c-0.891,0-1.592-0.254-2.104-0.764s-0.768-1.234-0.768-2.175
		c0-0.985,0.344-1.711,1.033-2.179c0.688-0.467,1.728-0.726,3.117-0.776l1.609-0.05v-0.407c0-0.941-0.48-1.411-1.443-1.411
		c-0.742,0-1.613,0.224-2.615,0.672l-0.838-1.71c1.067-0.559,2.252-0.838,3.553-0.838c1.244,0,2.199,0.271,2.863,0.813
		s0.996,1.367,0.996,2.474v6.184H406.541z M405.793,122.204l-0.979,0.033c-0.736,0.022-1.284,0.155-1.645,0.398
		c-0.359,0.244-0.539,0.614-0.539,1.112c0,0.714,0.41,1.071,1.229,1.071c0.586,0,1.056-0.169,1.407-0.506
		c0.351-0.337,0.526-0.786,0.526-1.345V122.204z"/>
	<path fill="#FFFFFF" d="M419.481,126.503h-2.532v-5.42c0-0.669-0.119-1.172-0.356-1.507c-0.237-0.334-0.617-0.502-1.138-0.502
		c-0.708,0-1.22,0.236-1.535,0.71c-0.315,0.473-0.473,1.257-0.473,2.353v4.366h-2.532v-9.28h1.935l0.34,1.187h0.141
		c0.283-0.448,0.672-0.787,1.167-1.017c0.495-0.23,1.058-0.345,1.688-0.345c1.08,0,1.898,0.292,2.457,0.876
		c0.56,0.583,0.839,1.426,0.839,2.527V126.503z"/>
	<path fill="#FFFFFF" d="M425.856,126.669c-2.889,0-4.333-1.585-4.333-4.756c0-1.577,0.393-2.782,1.179-3.615
		c0.786-0.833,1.912-1.249,3.378-1.249c1.074,0,2.037,0.21,2.89,0.631l-0.748,1.959c-0.398-0.161-0.769-0.292-1.111-0.395
		c-0.344-0.102-0.687-0.153-1.03-0.153c-1.316,0-1.975,0.935-1.975,2.806c0,1.815,0.658,2.723,1.975,2.723
		c0.487,0,0.938-0.065,1.354-0.195c0.415-0.13,0.83-0.333,1.245-0.61v2.167c-0.409,0.26-0.823,0.44-1.241,0.54
		S426.493,126.669,425.856,126.669z"/>
	<path fill="#FFFFFF" d="M435.029,126.669c-1.494,0-2.662-0.412-3.503-1.237s-1.262-1.992-1.262-3.503
		c0-1.555,0.389-2.757,1.166-3.606c0.777-0.85,1.853-1.274,3.225-1.274c1.313,0,2.333,0.374,3.063,1.121s1.096,1.779,1.096,3.096
		v1.229h-5.985c0.028,0.719,0.241,1.281,0.64,1.685s0.957,0.606,1.677,0.606c0.559,0,1.088-0.058,1.586-0.174
		s1.018-0.302,1.561-0.556v1.959c-0.443,0.221-0.916,0.386-1.42,0.494C436.368,126.615,435.754,126.669,435.029,126.669z
		 M434.673,118.85c-0.537,0-0.958,0.17-1.262,0.51c-0.305,0.341-0.479,0.823-0.523,1.449h3.553c-0.011-0.625-0.174-1.108-0.49-1.449
		C435.636,119.021,435.209,118.85,434.673,118.85z"/>
</g>
<path fill="#FFFFFF" d="M107.957,264.771l-0.88-2.889h-4.424l-0.88,2.889H99l4.283-12.186h3.146l4.3,12.186H107.957z
	 M106.462,259.724c-0.813-2.617-1.271-4.098-1.374-4.441c-0.103-0.343-0.176-0.613-0.22-0.813c-0.183,0.708-0.706,2.459-1.569,5.254
	H106.462z"/>
<path fill="#FFFFFF" d="M120.134,255.49v1.286l-1.453,0.374c0.266,0.415,0.398,0.88,0.398,1.395c0,0.996-0.347,1.772-1.042,2.328
	c-0.695,0.557-1.659,0.835-2.893,0.835l-0.457-0.025l-0.374-0.041c-0.26,0.199-0.39,0.42-0.39,0.664
	c0,0.365,0.465,0.547,1.395,0.547h1.577c1.018,0,1.794,0.219,2.328,0.656c0.534,0.438,0.801,1.079,0.801,1.926
	c0,1.085-0.453,1.926-1.357,2.523c-0.905,0.598-2.204,0.896-3.897,0.896c-1.295,0-2.284-0.226-2.968-0.677
	c-0.683-0.451-1.025-1.083-1.025-1.896c0-0.559,0.174-1.026,0.523-1.403c0.349-0.376,0.86-0.645,1.536-0.805
	c-0.26-0.11-0.487-0.292-0.681-0.544s-0.291-0.519-0.291-0.801c0-0.354,0.103-0.648,0.307-0.884s0.501-0.467,0.888-0.693
	c-0.487-0.21-0.873-0.548-1.158-1.013c-0.285-0.465-0.427-1.013-0.427-1.644c0-1.013,0.329-1.796,0.988-2.35
	c0.659-0.553,1.599-0.83,2.822-0.83c0.26,0,0.568,0.024,0.926,0.071c0.356,0.047,0.585,0.081,0.685,0.104H120.134z M112.97,266.082
	c0,0.349,0.167,0.622,0.502,0.821c0.334,0.199,0.804,0.299,1.407,0.299c0.908,0,1.619-0.124,2.133-0.373s0.772-0.59,0.772-1.021
	c0-0.348-0.152-0.589-0.457-0.722s-0.775-0.199-1.411-0.199h-1.312c-0.465,0-0.854,0.109-1.166,0.328
	C113.126,265.434,112.97,265.723,112.97,266.082z M113.892,258.528c0,0.504,0.115,0.902,0.345,1.195
	c0.229,0.293,0.58,0.439,1.05,0.439c0.476,0,0.825-0.146,1.046-0.439s0.332-0.691,0.332-1.195c0-1.118-0.459-1.677-1.378-1.677
	C114.356,256.852,113.892,257.41,113.892,258.528z"/>
<path fill="#FFFFFF" d="M121.553,253.091c0-0.824,0.459-1.236,1.378-1.236s1.378,0.412,1.378,1.236c0,0.394-0.115,0.699-0.344,0.918
	c-0.23,0.219-0.574,0.328-1.034,0.328C122.013,254.337,121.553,253.921,121.553,253.091z M124.193,264.771h-2.532v-9.28h2.532
	V264.771z"/>
<path fill="#FFFFFF" d="M129.381,264.771h-2.532v-12.916h2.532V264.771z"/>
<path fill="#FFFFFF" d="M136.237,264.937c-1.494,0-2.662-0.412-3.503-1.236c-0.841-0.825-1.262-1.992-1.262-3.504
	c0-1.555,0.389-2.757,1.166-3.606c0.778-0.85,1.853-1.274,3.225-1.274c1.312,0,2.333,0.374,3.063,1.121s1.096,1.779,1.096,3.096
	v1.229h-5.985c0.028,0.72,0.241,1.281,0.639,1.686s0.958,0.605,1.677,0.605c0.559,0,1.087-0.058,1.585-0.174
	s1.018-0.302,1.561-0.557v1.959c-0.443,0.222-0.916,0.387-1.419,0.494C137.577,264.883,136.962,264.937,136.237,264.937z
	 M135.88,257.117c-0.537,0-0.958,0.17-1.262,0.511c-0.304,0.34-0.479,0.823-0.523,1.448h3.553c-0.011-0.625-0.174-1.108-0.49-1.448
	C136.843,257.287,136.417,257.117,135.88,257.117z"/>
<path fill="#FFFFFF" d="M146.696,264.771v-12.136h2.573v10.011h4.922v2.125H146.696z"/>
<path fill="#FFFFFF" d="M160.301,264.937c-1.494,0-2.662-0.412-3.503-1.236c-0.841-0.825-1.262-1.992-1.262-3.504
	c0-1.555,0.389-2.757,1.167-3.606c0.777-0.85,1.852-1.274,3.225-1.274c1.312,0,2.333,0.374,3.063,1.121s1.096,1.779,1.096,3.096
	v1.229h-5.985c0.028,0.72,0.241,1.281,0.639,1.686s0.958,0.605,1.677,0.605c0.559,0,1.087-0.058,1.585-0.174
	s1.018-0.302,1.561-0.557v1.959c-0.443,0.222-0.916,0.387-1.419,0.494C161.641,264.883,161.026,264.937,160.301,264.937z
	 M159.944,257.117c-0.537,0-0.958,0.17-1.262,0.511c-0.304,0.34-0.479,0.823-0.523,1.448h3.553c-0.011-0.625-0.174-1.108-0.49-1.448
	C160.907,257.287,160.481,257.117,159.944,257.117z"/>
<path fill="#FFFFFF" d="M172.039,264.771l-0.49-1.262h-0.066c-0.426,0.537-0.865,0.909-1.315,1.116
	c-0.451,0.208-1.039,0.312-1.764,0.312c-0.891,0-1.592-0.255-2.104-0.764c-0.512-0.509-0.768-1.234-0.768-2.175
	c0-0.985,0.344-1.711,1.034-2.179c0.688-0.468,1.728-0.727,3.117-0.776l1.61-0.05v-0.406c0-0.941-0.481-1.412-1.444-1.412
	c-0.742,0-1.613,0.225-2.615,0.673l-0.838-1.71c1.068-0.559,2.252-0.838,3.553-0.838c1.245,0,2.2,0.271,2.864,0.813
	c0.664,0.543,0.996,1.367,0.996,2.475v6.184H172.039z M171.292,260.471l-0.979,0.033c-0.736,0.022-1.284,0.155-1.644,0.398
	s-0.54,0.614-0.54,1.112c0,0.714,0.41,1.07,1.229,1.07c0.586,0,1.056-0.168,1.407-0.506c0.351-0.338,0.527-0.786,0.527-1.345
	V260.471z"/>
<path fill="#FFFFFF" d="M181.593,255.315c0.343,0,0.628,0.025,0.855,0.075l-0.191,2.374c-0.205-0.056-0.454-0.083-0.747-0.083
	c-0.808,0-1.438,0.208-1.889,0.622c-0.451,0.416-0.676,0.996-0.676,1.744v4.723h-2.532v-9.28h1.917l0.374,1.561h0.125
	c0.288-0.521,0.676-0.939,1.167-1.258C180.484,255.475,181.017,255.315,181.593,255.315z"/>
<path fill="#FFFFFF" d="M192.699,264.771h-2.532v-5.42c0-0.67-0.119-1.172-0.357-1.507s-0.617-0.503-1.137-0.503
	c-0.708,0-1.22,0.237-1.536,0.71c-0.315,0.474-0.473,1.258-0.473,2.354v4.366h-2.532v-9.28h1.934l0.34,1.187h0.141
	c0.282-0.447,0.671-0.787,1.167-1.017c0.495-0.229,1.058-0.345,1.689-0.345c1.079,0,1.898,0.292,2.457,0.876
	s0.838,1.427,0.838,2.528V264.771z"/>
<path fill="#FFFFFF" d="M195.198,253.091c0-0.824,0.459-1.236,1.378-1.236s1.378,0.412,1.378,1.236c0,0.394-0.115,0.699-0.344,0.918
	c-0.23,0.219-0.574,0.328-1.034,0.328C195.657,254.337,195.198,253.921,195.198,253.091z M197.837,264.771h-2.532v-9.28h2.532
	V264.771z"/>
<path fill="#FFFFFF" d="M209.06,264.771h-2.532v-5.42c0-0.67-0.119-1.172-0.357-1.507s-0.617-0.503-1.137-0.503
	c-0.708,0-1.22,0.237-1.536,0.71c-0.315,0.474-0.473,1.258-0.473,2.354v4.366h-2.532v-9.28h1.934l0.34,1.187h0.141
	c0.282-0.447,0.671-0.787,1.166-1.017c0.496-0.229,1.059-0.345,1.689-0.345c1.079,0,1.898,0.292,2.457,0.876
	s0.838,1.427,0.838,2.528V264.771z"/>
<path fill="#FFFFFF" d="M219.743,255.49v1.286l-1.453,0.374c0.266,0.415,0.398,0.88,0.398,1.395c0,0.996-0.347,1.772-1.042,2.328
	c-0.695,0.557-1.659,0.835-2.893,0.835l-0.457-0.025l-0.374-0.041c-0.26,0.199-0.39,0.42-0.39,0.664
	c0,0.365,0.465,0.547,1.395,0.547h1.577c1.018,0,1.794,0.219,2.328,0.656c0.534,0.438,0.801,1.079,0.801,1.926
	c0,1.085-0.453,1.926-1.357,2.523c-0.905,0.598-2.204,0.896-3.897,0.896c-1.295,0-2.284-0.226-2.968-0.677
	c-0.683-0.451-1.025-1.083-1.025-1.896c0-0.559,0.174-1.026,0.523-1.403c0.349-0.376,0.86-0.645,1.536-0.805
	c-0.26-0.11-0.487-0.292-0.681-0.544s-0.291-0.519-0.291-0.801c0-0.354,0.103-0.648,0.307-0.884s0.501-0.467,0.888-0.693
	c-0.487-0.21-0.873-0.548-1.158-1.013c-0.285-0.465-0.427-1.013-0.427-1.644c0-1.013,0.329-1.796,0.988-2.35
	c0.659-0.553,1.599-0.83,2.822-0.83c0.26,0,0.568,0.024,0.926,0.071c0.356,0.047,0.585,0.081,0.685,0.104H219.743z M212.58,266.082
	c0,0.349,0.167,0.622,0.502,0.821c0.334,0.199,0.804,0.299,1.407,0.299c0.908,0,1.619-0.124,2.133-0.373s0.772-0.59,0.772-1.021
	c0-0.348-0.152-0.589-0.457-0.722s-0.775-0.199-1.411-0.199h-1.312c-0.465,0-0.854,0.109-1.166,0.328
	C212.736,265.434,212.58,265.723,212.58,266.082z M213.501,258.528c0,0.504,0.115,0.902,0.345,1.195
	c0.229,0.293,0.58,0.439,1.05,0.439c0.476,0,0.825-0.146,1.046-0.439s0.332-0.691,0.332-1.195c0-1.118-0.459-1.677-1.378-1.677
	C213.966,256.852,213.501,257.41,213.501,258.528z"/>
<g>
	<path fill="#FFFFFF" d="M526.347,252.585l-4.283,12.186h2.772l0.88-2.889h4.425l0.879,2.889h2.773l-4.301-12.186H526.347z
		 M526.363,259.724c0.863-2.795,1.387-4.546,1.568-5.254c0.045,0.199,0.118,0.47,0.221,0.813c0.103,0.344,0.561,1.824,1.373,4.441
		H526.363z"/>
	<path fill="#FFFFFF" d="M539.113,257.358c0.344,0,0.687,0.051,1.029,0.153c0.344,0.103,0.715,0.233,1.113,0.394l0.746-1.959
		c-0.852-0.42-1.814-0.631-2.889-0.631c-1.466,0-2.592,0.417-3.378,1.25s-1.179,2.037-1.179,3.615c0,3.17,1.444,4.756,4.333,4.756
		c0.637,0,1.163-0.05,1.581-0.149s0.832-0.279,1.241-0.54v-2.166c-0.415,0.276-0.83,0.48-1.245,0.61s-0.866,0.194-1.354,0.194
		c-1.316,0-1.975-0.907-1.975-2.723C537.139,258.293,537.797,257.358,539.113,257.358z"/>
	<path fill="#FFFFFF" d="M549.1,255.315c-1.229,0-2.125,0.454-2.689,1.361h-0.133l0.058-0.746c0.039-0.759,0.058-1.24,0.058-1.445
		v-2.631h-2.531v12.916h2.531v-4.366c0-1.079,0.158-1.859,0.474-2.341s0.827-0.723,1.536-0.723c0.996,0,1.494,0.67,1.494,2.01v5.42
		h2.531v-6.051c0-1.096-0.282-1.938-0.847-2.523C551.017,255.609,550.189,255.315,549.1,255.315z"/>
	<path fill="#FFFFFF" d="M556.305,251.854c-0.919,0-1.379,0.412-1.379,1.236c0,0.83,0.46,1.246,1.379,1.246
		c0.459,0,0.804-0.109,1.033-0.328s0.344-0.524,0.344-0.918C557.682,252.267,557.223,251.854,556.305,251.854z"/>
	<rect x="555.034" y="255.49" fill="#FFFFFF" width="2.532" height="9.28"/>
	<path fill="#FFFFFF" d="M564.049,255.315c-1.372,0-2.447,0.425-3.225,1.274s-1.166,2.052-1.166,3.606
		c0,1.512,0.421,2.679,1.262,3.504c0.841,0.824,2.009,1.236,3.503,1.236c0.725,0,1.339-0.054,1.843-0.162
		c0.504-0.107,0.977-0.272,1.42-0.494v-1.959c-0.543,0.255-1.063,0.44-1.561,0.557s-1.027,0.174-1.586,0.174
		c-0.72,0-1.278-0.201-1.677-0.605s-0.611-0.966-0.64-1.686h5.985v-1.229c0-1.316-0.365-2.349-1.096-3.096
		S565.361,255.315,564.049,255.315z M562.281,259.076c0.044-0.625,0.219-1.108,0.523-1.448c0.304-0.341,0.725-0.511,1.262-0.511
		c0.536,0,0.963,0.17,1.277,0.511c0.316,0.34,0.479,0.823,0.49,1.448H562.281z"/>
	<path fill="#FFFFFF" d="M574.176,260.778c-0.222,0.735-0.347,1.369-0.374,1.9h-0.05c-0.05-0.598-0.174-1.231-0.373-1.9
		l-1.793-5.288h-2.648l3.536,9.28h2.599l3.535-9.28h-2.647L574.176,260.778z"/>
	<path fill="#FFFFFF" d="M583.764,255.315c-1.373,0-2.448,0.425-3.226,1.274s-1.166,2.052-1.166,3.606
		c0,1.512,0.421,2.679,1.262,3.504c0.841,0.824,2.009,1.236,3.503,1.236c0.725,0,1.339-0.054,1.843-0.162
		c0.504-0.107,0.977-0.272,1.419-0.494v-1.959c-0.542,0.255-1.063,0.44-1.561,0.557s-1.026,0.174-1.585,0.174
		c-0.72,0-1.278-0.201-1.677-0.605s-0.611-0.966-0.639-1.686h5.984v-1.229c0-1.316-0.365-2.349-1.096-3.096
		S585.074,255.315,583.764,255.315z M581.995,259.076c0.044-0.625,0.219-1.108,0.522-1.448c0.305-0.341,0.726-0.511,1.262-0.511
		c0.537,0,0.963,0.17,1.279,0.511c0.314,0.34,0.479,0.823,0.489,1.448H581.995z"/>
	<path fill="#FFFFFF" d="M598.473,252.635h-3.877v12.136h2.573v-4.316h1.104c1.505,0,2.665-0.346,3.481-1.037
		c0.816-0.692,1.225-1.691,1.225-2.997c0-1.256-0.383-2.201-1.149-2.835S599.944,252.635,598.473,252.635z M599.792,257.877
		c-0.393,0.313-0.985,0.469-1.776,0.469h-0.847v-3.603h1.171c0.702,0,1.219,0.144,1.548,0.432s0.493,0.733,0.493,1.336
		C600.381,257.108,600.185,257.564,599.792,257.877z"/>
	<path fill="#FFFFFF" d="M611.389,255.897c-0.682-0.388-1.467-0.582-2.357-0.582c-1.434,0-2.546,0.421-3.338,1.262
		c-0.791,0.842-1.187,2.021-1.187,3.537c0,0.974,0.183,1.826,0.548,2.557s0.889,1.29,1.568,1.681
		c0.682,0.39,1.467,0.585,2.357,0.585c1.423,0,2.532-0.426,3.329-1.278s1.195-2.034,1.195-3.544c0-0.975-0.183-1.824-0.548-2.549
		S612.068,256.284,611.389,255.897z M610.471,262.201c-0.296,0.468-0.781,0.702-1.457,0.702c-0.68,0-1.171-0.235-1.473-0.706
		s-0.453-1.165-0.453-2.083c0-0.925,0.15-1.615,0.449-2.071c0.299-0.457,0.785-0.685,1.461-0.685c0.68,0,1.17,0.229,1.469,0.688
		s0.448,1.148,0.448,2.067C610.915,261.038,610.767,261.733,610.471,262.201z"/>
	<path fill="#FFFFFF" d="M618.705,262.662c-0.202-0.172-0.303-0.438-0.303-0.797v-4.474H621v-1.901h-2.598v-1.976h-1.619
		l-0.73,1.959l-1.395,0.847v1.071h1.213v4.474c0,1.023,0.23,1.792,0.692,2.304s1.2,0.768,2.212,0.768
		c0.919,0,1.693-0.141,2.324-0.424v-1.884c-0.619,0.193-1.15,0.29-1.594,0.29C619.174,262.919,618.907,262.834,618.705,262.662z"/>
	<path fill="#FFFFFF" d="M626.803,255.315c-1.372,0-2.447,0.425-3.225,1.274s-1.166,2.052-1.166,3.606
		c0,1.512,0.421,2.679,1.262,3.504c0.841,0.824,2.009,1.236,3.503,1.236c0.725,0,1.339-0.054,1.843-0.162
		c0.504-0.107,0.977-0.272,1.42-0.494v-1.959c-0.543,0.255-1.063,0.44-1.561,0.557s-1.027,0.174-1.586,0.174
		c-0.72,0-1.278-0.201-1.677-0.605s-0.611-0.966-0.64-1.686h5.985v-1.229c0-1.316-0.365-2.349-1.096-3.096
		S628.115,255.315,626.803,255.315z M625.035,259.076c0.044-0.625,0.219-1.108,0.523-1.448c0.304-0.341,0.725-0.511,1.262-0.511
		c0.536,0,0.963,0.17,1.277,0.511c0.316,0.34,0.479,0.823,0.49,1.448H625.035z"/>
	<path fill="#FFFFFF" d="M638.291,255.315c-0.631,0-1.194,0.115-1.689,0.345s-0.885,0.569-1.166,1.017h-0.142l-0.341-1.187h-1.934
		v9.28h2.531v-4.366c0-1.096,0.158-1.88,0.474-2.354c0.315-0.473,0.827-0.71,1.536-0.71c0.52,0,0.898,0.168,1.137,0.503
		s0.357,0.837,0.357,1.507v5.42h2.531v-6.051c0-1.102-0.279-1.944-0.838-2.528C640.188,255.607,639.369,255.315,638.291,255.315z"/>
	<path fill="#FFFFFF" d="M647.302,262.662c-0.202-0.172-0.303-0.438-0.303-0.797v-4.474h2.599v-1.901h-2.599v-1.976h-1.618
		l-0.73,1.959l-1.395,0.847v1.071h1.211v4.474c0,1.023,0.231,1.792,0.693,2.304s1.199,0.768,2.213,0.768
		c0.918,0,1.693-0.141,2.324-0.424v-1.884c-0.62,0.193-1.151,0.29-1.594,0.29C647.771,262.919,647.504,262.834,647.302,262.662z"/>
	<rect x="651.572" y="255.49" fill="#FFFFFF" width="2.531" height="9.28"/>
	<path fill="#FFFFFF" d="M652.842,251.854c-0.918,0-1.377,0.412-1.377,1.236c0,0.83,0.459,1.246,1.377,1.246
		c0.46,0,0.805-0.109,1.034-0.328s0.345-0.524,0.345-0.918C654.221,252.267,653.761,251.854,652.842,251.854z"/>
	<path fill="#FFFFFF" d="M660.562,255.3c-1.301,0-2.484,0.279-3.553,0.838l0.839,1.71c1.001-0.448,1.873-0.673,2.614-0.673
		c0.963,0,1.444,0.471,1.444,1.412v0.406l-1.61,0.05c-1.389,0.05-2.428,0.309-3.117,0.776c-0.688,0.468-1.033,1.193-1.033,2.179
		c0,0.94,0.256,1.666,0.768,2.175s1.214,0.764,2.104,0.764c0.725,0,1.313-0.104,1.764-0.312c0.451-0.207,0.89-0.579,1.316-1.116
		h0.066l0.489,1.262h1.769v-6.184c0-1.107-0.332-1.932-0.996-2.475C662.762,255.57,661.807,255.3,660.562,255.3z M661.906,261.234
		c0,0.559-0.176,1.007-0.527,1.345s-0.82,0.506-1.406,0.506c-0.819,0-1.229-0.356-1.229-1.07c0-0.498,0.18-0.869,0.539-1.112
		s0.907-0.376,1.644-0.398l0.979-0.033V261.234z"/>
	<rect x="667.028" y="251.854" fill="#FFFFFF" width="2.532" height="12.916"/>
</g>
<g>
	<path fill="#7B808D" d="M79.333,249.437c-5.523,0-10.001,4.477-10.001,10s4.478,10,10.001,10c5.522,0,10-4.477,10-10
		S84.856,249.437,79.333,249.437z M79.333,267.437c-4.412,0-8.001-3.588-8.001-8s3.589-8,8.001-8c4.411,0,8,3.588,8,8
		S83.745,267.437,79.333,267.437z"/>
	<path fill="#7B808D" d="M79.333,255.437c-2.207,0-4.001,1.794-4.001,4s1.794,4,4.001,4c2.205,0,4-1.794,4-4
		S81.539,255.437,79.333,255.437z"/>
</g>
<g>
	<path fill="#7B808D" d="M688.334,249.437c-5.523,0-10.001,4.477-10.001,10s4.478,10,10.001,10c5.522,0,10-4.477,10-10
		S693.856,249.437,688.334,249.437z M688.334,267.437c-4.412,0-8.001-3.588-8.001-8s3.589-8,8.001-8c4.411,0,8,3.588,8,8
		S692.745,267.437,688.334,267.437z"/>
	<path fill="#7B808D" d="M688.334,255.437c-2.207,0-4.001,1.794-4.001,4s1.794,4,4.001,4c2.205,0,4-1.794,4-4
		S690.539,255.437,688.334,255.437z"/>
</g>
<g>
	<path fill="#FFFFFF" d="M148.513,191.437h-5.345v-9.28h5.345v1.612h-3.377v2.038h3.142v1.612h-3.142v2.393h3.377V191.437z"/>
	<path fill="#FFFFFF" d="M156.65,191.437h-1.936v-4.145c0-0.512-0.086-0.896-0.257-1.152c-0.172-0.256-0.441-0.384-0.81-0.384
		c-0.495,0-0.854,0.182-1.079,0.546s-0.337,0.963-0.337,1.796v3.339h-1.936v-7.097h1.479l0.261,0.908h0.108
		c0.189-0.326,0.465-0.581,0.824-0.765c0.36-0.184,0.772-0.276,1.238-0.276c1.063,0,1.781,0.347,2.158,1.041h0.172
		c0.189-0.33,0.471-0.586,0.841-0.768s0.788-0.273,1.253-0.273c0.805,0,1.413,0.207,1.825,0.619
		c0.413,0.413,0.619,1.074,0.619,1.984v4.627h-1.942v-4.145c0-0.512-0.086-0.896-0.257-1.152c-0.172-0.256-0.441-0.384-0.81-0.384
		c-0.474,0-0.828,0.169-1.063,0.508c-0.234,0.338-0.353,0.876-0.353,1.612V191.437z"/>
	<path fill="#FFFFFF" d="M166.959,191.563c-0.834,0-1.487-0.303-1.961-0.908h-0.102c0.067,0.592,0.102,0.935,0.102,1.029v2.875
		h-1.937v-10.22h1.574l0.272,0.92h0.09c0.452-0.703,1.123-1.054,2.012-1.054c0.838,0,1.494,0.324,1.968,0.971
		s0.711,1.547,0.711,2.698c0,0.757-0.111,1.416-0.333,1.974c-0.223,0.559-0.539,0.984-0.949,1.276S167.514,191.563,166.959,191.563z
		 M166.388,185.755c-0.479,0-0.827,0.147-1.048,0.441c-0.22,0.294-0.334,0.78-0.342,1.457v0.209c0,0.762,0.112,1.308,0.339,1.638
		s0.585,0.495,1.076,0.495c0.867,0,1.302-0.715,1.302-2.146c0-0.698-0.107-1.222-0.321-1.571
		C167.18,185.93,166.845,185.755,166.388,185.755z"/>
	<path fill="#FFFFFF" d="M177.737,187.875c0,1.155-0.305,2.059-0.914,2.71s-1.458,0.978-2.546,0.978
		c-0.681,0-1.281-0.149-1.803-0.447c-0.52-0.299-0.92-0.727-1.199-1.286s-0.419-1.21-0.419-1.955c0-1.16,0.303-2.061,0.907-2.704
		c0.605-0.643,1.456-0.965,2.553-0.965c0.681,0,1.281,0.148,1.803,0.444c0.52,0.296,0.92,0.722,1.199,1.276
		S177.737,187.131,177.737,187.875z M172.83,187.875c0,0.703,0.116,1.233,0.347,1.593s0.606,0.54,1.126,0.54
		c0.517,0,0.888-0.179,1.114-0.537c0.227-0.357,0.34-0.89,0.34-1.596c0-0.703-0.114-1.229-0.343-1.581s-0.604-0.527-1.123-0.527
		c-0.517,0-0.889,0.174-1.117,0.524C172.945,186.641,172.83,187.169,172.83,187.875z"/>
	<path fill="#FFFFFF" d="M185.17,191.437l-0.545-2.482l-0.736-3.136h-0.045l-1.295,5.618h-2.082l-2.019-7.097h1.93l0.819,3.142
		c0.131,0.563,0.264,1.339,0.399,2.33h0.038c0.017-0.322,0.091-0.832,0.223-1.53l0.102-0.54l0.875-3.402h2.133l0.832,3.402
		c0.017,0.093,0.043,0.23,0.079,0.413s0.071,0.375,0.104,0.581c0.034,0.206,0.065,0.406,0.093,0.604
		c0.027,0.196,0.043,0.354,0.048,0.473h0.037c0.039-0.305,0.106-0.723,0.203-1.254c0.098-0.531,0.168-0.89,0.21-1.076l0.851-3.142
		h1.898l-2.045,7.097H185.17z"/>
	<path fill="#FFFFFF" d="M193.677,191.563c-1.143,0-2.035-0.315-2.679-0.946s-0.965-1.523-0.965-2.679
		c0-1.189,0.297-2.108,0.892-2.758c0.595-0.649,1.417-0.974,2.466-0.974c1.004,0,1.784,0.286,2.343,0.857s0.838,1.36,0.838,2.368
		v0.939h-4.577c0.021,0.55,0.185,0.979,0.489,1.289s0.732,0.463,1.282,0.463c0.428,0,0.832-0.044,1.213-0.133
		s0.778-0.23,1.193-0.425v1.498c-0.339,0.169-0.701,0.295-1.086,0.377C194.701,191.522,194.231,191.563,193.677,191.563z
		 M193.404,185.584c-0.411,0-0.732,0.13-0.965,0.391c-0.233,0.26-0.366,0.629-0.4,1.107h2.717c-0.009-0.478-0.133-0.848-0.375-1.107
		C194.141,185.714,193.814,185.584,193.404,185.584z"/>
	<path fill="#FFFFFF" d="M202.105,184.207c0.263,0,0.48,0.019,0.654,0.057l-0.146,1.815c-0.156-0.042-0.347-0.063-0.571-0.063
		c-0.618,0-1.1,0.159-1.444,0.476s-0.518,0.762-0.518,1.333v3.612h-1.936v-7.097h1.467l0.285,1.193h0.096
		c0.22-0.398,0.517-0.718,0.892-0.962C201.258,184.328,201.665,184.207,202.105,184.207z"/>
	<path fill="#FFFFFF" d="M547.241,191.437h-5.345v-9.28h5.345v1.612h-3.377v2.038h3.142v1.612h-3.142v2.393h3.377V191.437z"/>
	<path fill="#FFFFFF" d="M555.575,191.437h-1.937v-4.145c0-0.512-0.091-0.896-0.272-1.152c-0.182-0.256-0.472-0.384-0.87-0.384
		c-0.541,0-0.933,0.181-1.174,0.542c-0.241,0.362-0.361,0.962-0.361,1.8v3.339h-1.937v-7.097h1.479l0.26,0.908h0.107
		c0.217-0.343,0.514-0.602,0.893-0.778c0.379-0.175,0.809-0.263,1.291-0.263c0.826,0,1.452,0.223,1.879,0.669
		c0.428,0.447,0.642,1.091,0.642,1.933V191.437z"/>
	<path fill="#FFFFFF" d="M563.744,184.34v0.984l-1.11,0.286c0.203,0.317,0.305,0.673,0.305,1.066c0,0.762-0.266,1.355-0.797,1.78
		c-0.531,0.426-1.269,0.638-2.212,0.638l-0.35-0.019l-0.285-0.032c-0.199,0.152-0.299,0.322-0.299,0.508
		c0,0.279,0.355,0.419,1.066,0.419h1.207c0.778,0,1.372,0.167,1.78,0.501s0.612,0.825,0.612,1.473c0,0.829-0.346,1.473-1.038,1.93
		c-0.691,0.457-1.685,0.686-2.979,0.686c-0.99,0-1.747-0.173-2.27-0.518s-0.784-0.828-0.784-1.45c0-0.428,0.134-0.785,0.399-1.073
		c0.268-0.287,0.658-0.493,1.175-0.615c-0.199-0.084-0.372-0.223-0.521-0.416c-0.148-0.192-0.223-0.396-0.223-0.612
		c0-0.271,0.079-0.496,0.235-0.676c0.156-0.18,0.383-0.357,0.679-0.53c-0.372-0.161-0.667-0.419-0.885-0.774
		s-0.327-0.774-0.327-1.257c0-0.774,0.252-1.373,0.755-1.796c0.504-0.423,1.224-0.635,2.158-0.635c0.199,0,0.436,0.018,0.708,0.054
		c0.273,0.036,0.448,0.062,0.524,0.079H563.744z M558.267,192.439c0,0.267,0.128,0.476,0.384,0.628s0.615,0.229,1.076,0.229
		c0.694,0,1.238-0.095,1.631-0.285c0.395-0.19,0.591-0.451,0.591-0.781c0-0.266-0.116-0.45-0.349-0.552
		c-0.233-0.102-0.593-0.152-1.08-0.152h-1.002c-0.355,0-0.653,0.084-0.893,0.251S558.267,192.164,558.267,192.439z M558.971,186.663
		c0,0.385,0.088,0.69,0.264,0.914s0.443,0.336,0.803,0.336c0.364,0,0.631-0.112,0.801-0.336c0.169-0.224,0.254-0.529,0.254-0.914
		c0-0.855-0.352-1.282-1.055-1.282C559.326,185.381,558.971,185.808,558.971,186.663z"/>
	<path fill="#FFFFFF" d="M569.419,191.437l-0.374-0.965h-0.051c-0.326,0.411-0.662,0.695-1.007,0.854
		c-0.345,0.159-0.794,0.238-1.349,0.238c-0.682,0-1.218-0.195-1.609-0.584s-0.587-0.944-0.587-1.663c0-0.753,0.264-1.309,0.79-1.666
		c0.527-0.358,1.321-0.556,2.384-0.594l1.231-0.038v-0.311c0-0.719-0.368-1.079-1.104-1.079c-0.567,0-1.233,0.171-1.999,0.514
		l-0.642-1.308c0.816-0.427,1.723-0.641,2.717-0.641c0.952,0,1.683,0.208,2.19,0.622s0.762,1.045,0.762,1.892v4.729H569.419z
		 M568.848,188.148l-0.749,0.025c-0.563,0.017-0.981,0.119-1.257,0.305s-0.412,0.47-0.412,0.851c0,0.546,0.313,0.819,0.939,0.819
		c0.448,0,0.807-0.129,1.075-0.387s0.403-0.601,0.403-1.028V188.148z"/>
	<path fill="#FFFFFF" d="M578.941,184.34v0.984l-1.111,0.286c0.203,0.317,0.305,0.673,0.305,1.066c0,0.762-0.266,1.355-0.797,1.78
		c-0.531,0.426-1.269,0.638-2.212,0.638l-0.349-0.019l-0.286-0.032c-0.199,0.152-0.298,0.322-0.298,0.508
		c0,0.279,0.355,0.419,1.066,0.419h1.205c0.779,0,1.373,0.167,1.781,0.501s0.612,0.825,0.612,1.473c0,0.829-0.346,1.473-1.038,1.93
		c-0.691,0.457-1.686,0.686-2.98,0.686c-0.99,0-1.746-0.173-2.269-0.518s-0.784-0.828-0.784-1.45c0-0.428,0.133-0.785,0.4-1.073
		c0.266-0.287,0.657-0.493,1.174-0.615c-0.199-0.084-0.372-0.223-0.521-0.416c-0.148-0.192-0.222-0.396-0.222-0.612
		c0-0.271,0.078-0.496,0.234-0.676c0.156-0.18,0.383-0.357,0.68-0.53c-0.373-0.161-0.668-0.419-0.886-0.774
		s-0.327-0.774-0.327-1.257c0-0.774,0.252-1.373,0.756-1.796c0.503-0.423,1.223-0.635,2.158-0.635c0.198,0,0.435,0.018,0.707,0.054
		c0.273,0.036,0.447,0.062,0.523,0.079H578.941z M573.463,192.439c0,0.267,0.128,0.476,0.384,0.628s0.615,0.229,1.076,0.229
		c0.694,0,1.237-0.095,1.632-0.285c0.393-0.19,0.59-0.451,0.59-0.781c0-0.266-0.116-0.45-0.35-0.552
		c-0.232-0.102-0.592-0.152-1.078-0.152h-1.004c-0.355,0-0.652,0.084-0.892,0.251S573.463,192.164,573.463,192.439z
		 M574.168,186.663c0,0.385,0.087,0.69,0.263,0.914s0.443,0.336,0.804,0.336c0.363,0,0.63-0.112,0.799-0.336
		c0.17-0.224,0.254-0.529,0.254-0.914c0-0.855-0.351-1.282-1.053-1.282C574.523,185.381,574.168,185.808,574.168,186.663z"/>
	<path fill="#FFFFFF" d="M583.321,191.563c-1.143,0-2.035-0.315-2.679-0.946s-0.965-1.523-0.965-2.679
		c0-1.189,0.297-2.108,0.892-2.758c0.595-0.649,1.417-0.974,2.466-0.974c1.004,0,1.784,0.286,2.343,0.857s0.838,1.36,0.838,2.368
		v0.939h-4.577c0.021,0.55,0.185,0.979,0.489,1.289s0.732,0.463,1.282,0.463c0.428,0,0.832-0.044,1.213-0.133
		s0.778-0.23,1.193-0.425v1.498c-0.339,0.169-0.701,0.295-1.086,0.377C584.346,191.522,583.876,191.563,583.321,191.563z
		 M583.049,185.584c-0.411,0-0.732,0.13-0.965,0.391c-0.233,0.26-0.366,0.629-0.4,1.107h2.717c-0.009-0.478-0.133-0.848-0.375-1.107
		C583.785,185.714,583.459,185.584,583.049,185.584z"/>
	<path fill="#FFFFFF" d="M594.143,191.437h-1.936v-4.145c0-0.512-0.086-0.896-0.257-1.152c-0.172-0.256-0.441-0.384-0.81-0.384
		c-0.495,0-0.854,0.182-1.079,0.546s-0.337,0.963-0.337,1.796v3.339h-1.936v-7.097h1.479l0.261,0.908h0.108
		c0.189-0.326,0.465-0.581,0.824-0.765c0.36-0.184,0.772-0.276,1.238-0.276c1.063,0,1.781,0.347,2.158,1.041h0.172
		c0.189-0.33,0.471-0.586,0.841-0.768s0.788-0.273,1.253-0.273c0.805,0,1.413,0.207,1.825,0.619
		c0.413,0.413,0.619,1.074,0.619,1.984v4.627h-1.942v-4.145c0-0.512-0.086-0.896-0.257-1.152c-0.172-0.256-0.441-0.384-0.81-0.384
		c-0.474,0-0.828,0.169-1.063,0.508c-0.234,0.338-0.353,0.876-0.353,1.612V191.437z"/>
	<path fill="#FFFFFF" d="M603.767,191.563c-1.143,0-2.035-0.315-2.679-0.946s-0.965-1.523-0.965-2.679
		c0-1.189,0.297-2.108,0.892-2.758c0.595-0.649,1.417-0.974,2.466-0.974c1.004,0,1.784,0.286,2.343,0.857s0.838,1.36,0.838,2.368
		v0.939h-4.577c0.021,0.55,0.185,0.979,0.489,1.289s0.732,0.463,1.282,0.463c0.428,0,0.832-0.044,1.213-0.133
		s0.778-0.23,1.193-0.425v1.498c-0.339,0.169-0.701,0.295-1.086,0.377C604.791,191.522,604.321,191.563,603.767,191.563z
		 M603.494,185.584c-0.411,0-0.732,0.13-0.965,0.391c-0.233,0.26-0.366,0.629-0.4,1.107h2.717c-0.009-0.478-0.133-0.848-0.375-1.107
		C604.23,185.714,603.904,185.584,603.494,185.584z"/>
	<path fill="#FFFFFF" d="M614.786,191.437h-1.937v-4.145c0-0.512-0.091-0.896-0.272-1.152c-0.182-0.256-0.472-0.384-0.87-0.384
		c-0.541,0-0.933,0.181-1.174,0.542c-0.241,0.362-0.361,0.962-0.361,1.8v3.339h-1.937v-7.097h1.479l0.26,0.908h0.107
		c0.217-0.343,0.514-0.602,0.893-0.778c0.379-0.175,0.809-0.263,1.291-0.263c0.826,0,1.452,0.223,1.879,0.669
		c0.428,0.447,0.642,1.091,0.642,1.933V191.437z"/>
	<path fill="#FFFFFF" d="M619.77,190.021c0.338,0,0.744-0.074,1.219-0.222v1.441c-0.482,0.216-1.075,0.324-1.777,0.324
		c-0.775,0-1.339-0.196-1.692-0.587c-0.354-0.392-0.53-0.979-0.53-1.762v-3.421h-0.926v-0.819l1.066-0.647l0.559-1.498h1.237v1.511
		h1.987v1.454h-1.987v3.421c0,0.275,0.077,0.478,0.231,0.609S619.516,190.021,619.77,190.021z"/>
</g>
<g>
	<path fill="#7B808D" d="M124.31,177.641c-5.523,0-10.002,4.477-10.002,10s4.479,10,10.002,10c5.521,0,10-4.477,10-10
		S129.832,177.641,124.31,177.641z M124.31,195.641c-4.412,0-8.002-3.588-8.002-8s3.59-8,8.002-8c4.41,0,8,3.588,8,8
		S128.72,195.641,124.31,195.641z"/>
	<path fill="#7B808D" d="M124.31,183.641c-2.207,0-4.002,1.794-4.002,4s1.795,4,4.002,4c2.205,0,4-1.794,4-4
		S126.515,183.641,124.31,183.641z"/>
</g>
<g>
	<path fill="#7B808D" d="M640.698,176.96c-5.523,0-10.002,4.477-10.002,10s4.479,10,10.002,10c5.521,0,10-4.477,10-10
		S646.22,176.96,640.698,176.96z M640.698,194.96c-4.412,0-8.002-3.588-8.002-8s3.59-8,8.002-8c4.41,0,8,3.588,8,8
		S645.108,194.96,640.698,194.96z"/>
	<path fill="#7B808D" d="M640.698,182.96c-2.207,0-4.002,1.794-4.002,4s1.795,4,4.002,4c2.205,0,4-1.794,4-4
		S642.903,182.96,640.698,182.96z"/>
</g>
<rect x="382" y="18.126" fill="#7B808D" width="2" height="40.31"/>
<rect x="650.283" y="185.49" fill="#7B808D" width="40.311" height="2"/>
<rect x="698.334" y="258.13" fill="#7B808D" width="40.311" height="2"/>
<rect x="74.178" y="186.49" fill="#7B808D" width="40.311" height="2"/>
<rect x="29.022" y="258.043" fill="#7B808D" width="40.311" height="2"/>
<polygon fill="#FFFFFF" points="118.231,197.896 119.325,204.015 120.866,203.747 119.542,196.041 111.833,197.364 112.091,198.866 
	"/>
<polygon fill="#FFFFFF" points="370.038,68.233 365.96,72.922 367.135,73.956 372.306,68.089 366.438,62.917 365.431,64.06 "/>
<polygon fill="#FFFFFF" points="632.626,177.028 626.422,176.684 626.325,178.246 634.131,178.73 634.615,170.923 633.096,170.83 
	"/>
<polygon fill="#FFFFFF" points="681.52,246.861 675.79,244.452 675.177,245.892 682.364,248.971 685.446,241.779 684.045,241.181 
	"/>
<circle fill="#7B808D" cx="25.648" cy="259.436" r="18.125"/>
<g>
	<path fill="#FFFFFF" d="M18.179,261.621c0-0.005,0.008-0.008,0.012-0.014c-0.081,0.122-0.125,0.249-0.125,0.372
		c0,0.875,3.543,3.175,5.912,4.131v-4.784l-5.238-2.866L18.179,261.621z"/>
	<path fill="#FFFFFF" d="M31.234,266.049c-1.489,0-2.802-0.767-3.559-1.933l1.749-1.606h-2.375h-1.476v3.539l1.047-0.966
		c1.026,1.441,2.713,2.383,4.614,2.383c2.889,0,5.271-2.165,5.62-4.956h-1.431C35.088,264.518,33.339,266.049,31.234,266.049z"/>
	<path fill="#FFFFFF" d="M31.234,254.547c1.281,0,2.518,0.343,3.601,0.961l1.484-0.756l-10.827-4.599l-11.093,4.599l0.801,0.398
		v1.902c-0.218,0.046-0.387,0.23-0.387,0.462c0,0.118,0.047,0.225,0.119,0.309c-0.001,0.013-0.006,0.02-0.006,0.03v0.901
		c0,0.206,0.165,0.37,0.37,0.37s0.372-0.164,0.372-0.37v-0.901c0-0.011-0.006-0.02-0.006-0.031c0.07-0.084,0.118-0.189,0.118-0.308
		c0-0.231-0.165-0.416-0.386-0.462v-1.807l8.908,4.43C25.215,256.68,28.004,254.547,31.234,254.547z"/>
	<path fill="#FFFFFF" d="M35.886,258.571c-1.023-1.47-2.727-2.43-4.652-2.43c-2.885,0-5.271,2.158-5.616,4.955h1.431
		c0.335-2.012,2.084-3.538,4.185-3.538c1.539,0,2.882,0.812,3.629,2.035l-1.503,1.503h3.539v-3.538L35.886,258.571z"/>
</g>
<circle fill="#7B808D" cx="61.568" cy="186.49" r="18.125"/>
<g>
	<path fill="#FFFFFF" d="M58.541,192.265c0.171-0.438,0.114-0.931-0.214-1.266c-0.295-0.303-0.725-0.382-1.134-0.288
		c0.115-0.407,0.051-0.839-0.245-1.144c-0.296-0.303-0.724-0.383-1.134-0.287c0.114-0.405,0.051-0.839-0.246-1.144
		c-0.463-0.476-1.266-0.455-1.793,0.048c-0.524,0.502-0.86,1.413-0.392,1.95c0.467,0.533,1.004,0.21,1.413,0.115
		c-0.113,0.407-0.455,0.784-0.034,1.315c0.419,0.531,1.003,0.209,1.413,0.115c-0.113,0.406-0.44,0.821-0.036,1.313
		c0.408,0.495,1.075,0.231,1.516,0.095c-0.17,0.437-0.534,0.909-0.066,1.438c0.467,0.532,1.547,0.286,2.074-0.217
		c0.526-0.504,0.577-1.301,0.114-1.779C59.456,192.205,58.98,192.128,58.541,192.265z"/>
	<path fill="#FFFFFF" d="M69.252,182.093c-0.528,0.112-0.86-0.164-0.86-0.164s-1.017-0.876-2.16-1.838
		c-0.927-0.781-1.415-0.75-2.09-0.391c-1.111,0.591-3.78,2.089-5.046,2.855c-0.468,0.262-0.794,0.618-0.794,1.142
		c0,0.676,0.87,1.562,1.92,1.003c0.555-0.27,1.885-0.963,2.781-1.436c0.977-0.516,1.585,0.081,1.585,0.081s3.529,3.51,4.522,4.461
		c0.645,0.62,1.533,0.333,1.816,0.298c0.284-0.035,1.661-0.308,1.661-0.308v-6.435C72.587,181.363,70.551,181.819,69.252,182.093z"
		/>
	<path fill="#FFFFFF" d="M68.163,188.918c-3.812-3.813-2.019-2.019-4.07-4.074c0,0-0.617-0.614-1.429-0.257
		c-0.571,0.249-1.305,0.591-1.857,0.851c-0.608,0.318-1.044,0.416-1.25,0.416c-1.174-0.01-2.126-0.952-2.126-2.124
		c0-0.762,0.404-1.423,1.006-1.799c0.847-0.586,2.797-1.624,2.797-1.624s-0.594-0.753-1.896-0.753c-1.3,0-4.018,1.78-4.018,1.78
		s-0.771,0.495-1.87,0.05l-2.118-0.738v7.363c0,0,0.604,0.176,1.148,0.396c0.123-0.35,0.321-0.672,0.596-0.94
		c0.902-0.857,2.396-0.866,3.216-0.022c0.247,0.256,0.419,0.563,0.507,0.901c0.331,0.103,0.63,0.283,0.871,0.531
		c0.248,0.255,0.419,0.563,0.508,0.9c0.33,0.102,0.629,0.283,0.871,0.531c0.272,0.279,0.453,0.619,0.538,0.985
		c0.345,0.101,0.656,0.289,0.908,0.545c0.493,0.506,0.668,1.192,0.562,1.855c0.001,0,0.002,0,0.003,0.002
		c0.007,0.011,0.305,0.342,0.491,0.528c0.363,0.364,0.957,0.364,1.321,0c0.362-0.363,0.364-0.956,0-1.321
		c-0.013-0.013-1.311-1.369-1.206-1.476c0.103-0.104,1.757,1.617,1.788,1.647c0.363,0.363,0.957,0.363,1.321,0
		c0.363-0.363,0.363-0.956,0-1.32c-0.018-0.018-0.093-0.088-0.12-0.116c0,0-1.64-1.46-1.515-1.586
		c0.126-0.126,2.163,1.775,2.167,1.775c0.366,0.329,0.93,0.327,1.282-0.025c0.343-0.343,0.35-0.884,0.046-1.25
		c-0.006-0.02-1.552-1.635-1.431-1.757c0.122-0.123,1.652,1.452,1.655,1.455c0.362,0.362,0.956,0.362,1.32,0
		c0.363-0.361,0.363-0.956,0-1.321C68.174,188.924,68.167,188.921,68.163,188.918z"/>
</g>
<path fill="#7B808D" d="M400.878,18.125c0,10.012-8.113,18.127-18.125,18.127c-10.011,0-18.125-8.115-18.125-18.127
	C364.628,8.117,372.742,0,382.753,0C392.765,0,400.878,8.117,400.878,18.125z"/>
<path fill="#FFFFFF" d="M382.543,15.061c0.82,0.002,1.487-0.656,1.49-1.474h-0.003l-0.725-2.886l-0.726-2.89l-0.758,2.882
	l-0.753,2.879h-0.005C381.061,14.389,381.723,15.055,382.543,15.061z"/>
<path fill="#FFFFFF" d="M384.528,8.024l0.475,1.89c1.985,0.543,3.687,1.779,4.817,3.438l-5.465,5.688l-3.293-3.411
	c-0.188-0.194-0.448-0.305-0.722-0.305c-0.271,0-0.534,0.113-0.724,0.311l-4.963,5.228c-0.288-0.854-0.449-1.763-0.449-2.711
	c0-3.782,2.475-6.995,5.888-8.117l0.51-1.945c-4.645,0.992-8.141,5.125-8.141,10.062c0,5.675,4.616,10.291,10.292,10.291
	c5.673,0,10.289-4.616,10.289-10.291C393.043,13.084,389.356,8.87,384.528,8.024z M391.3,18.152c0,4.713-3.834,8.547-8.546,8.547
	c-3.006,0-5.65-1.564-7.174-3.917c0.014-0.012,0.027-0.021,0.042-0.035l4.727-4.979l3.288,3.406
	c0.188,0.196,0.451,0.309,0.722,0.309s0.534-0.114,0.721-0.312l5.699-5.931C391.111,16.151,391.3,17.129,391.3,18.152z"/>
<circle fill="#7B808D" cx="702.677" cy="186.489" r="18.125"/>
<path fill="#FFFFFF" d="M709.219,185.434c1.142,0,2.066-1.084,2.066-2.421c0-1.852-0.925-2.419-2.066-2.419
	c-1.143,0-2.068,0.567-2.068,2.419C707.15,184.35,708.076,185.434,709.219,185.434z"/>
<path fill="#FFFFFF" d="M696.136,185.363c1.142,0,2.067-1.083,2.067-2.42c0-1.853-0.926-2.42-2.067-2.42s-2.068,0.567-2.068,2.42
	C694.067,184.279,694.994,185.363,696.136,185.363z"/>
<path fill="#FFFFFF" d="M702.801,186.243c1.59,0,2.878-1.508,2.878-3.369c0-2.58-1.288-3.369-2.878-3.369s-2.879,0.789-2.879,3.369
	C699.922,184.734,701.211,186.243,702.801,186.243z"/>
<path fill="#FFFFFF" d="M713.784,188.996l-1.043-2.351c-0.048-0.107-0.132-0.197-0.236-0.251l-1.618-0.843
	c-0.035-0.019-0.08-0.015-0.111,0.009c-0.458,0.347-0.996,0.529-1.557,0.529s-1.101-0.182-1.557-0.529
	c-0.033-0.024-0.076-0.028-0.111-0.009l-0.697,0.363l1.093,0.569c0.39,0.202,0.704,0.537,0.886,0.941l1.368,3.083
	c0.725-0.151,1.29-0.432,1.541-0.779h1.565c0.178,0,0.342-0.087,0.438-0.237C713.841,189.343,713.855,189.158,713.784,188.996z"/>
<path fill="#FFFFFF" d="M696.768,187.428c0.182-0.406,0.497-0.741,0.89-0.945l1.036-0.539l-0.891-0.463
	c-0.035-0.018-0.078-0.015-0.111,0.009c-0.457,0.348-0.996,0.53-1.556,0.53c-0.561,0-1.101-0.182-1.558-0.53
	c-0.032-0.024-0.075-0.027-0.11-0.009l-1.62,0.843c-0.104,0.055-0.188,0.144-0.234,0.251l-1.044,2.351
	c-0.071,0.162-0.058,0.348,0.04,0.496c0.096,0.148,0.26,0.236,0.438,0.236h1.14c0.324,0.448,1.165,0.788,2.202,0.877
	L696.768,187.428z"/>
<path fill="#FFFFFF" d="M709.156,191.201l-1.452-3.271c-0.067-0.149-0.183-0.274-0.329-0.35l-2.252-1.173
	c-0.051-0.026-0.111-0.021-0.156,0.013c-0.637,0.482-1.387,0.736-2.166,0.736s-1.53-0.254-2.167-0.736
	c-0.045-0.034-0.105-0.039-0.154-0.013l-2.254,1.173c-0.146,0.076-0.261,0.2-0.327,0.35l-1.453,3.271
	c-0.1,0.225-0.08,0.484,0.056,0.69c0.134,0.208,0.36,0.33,0.608,0.33h1.587c0.526,0.729,2.031,1.254,3.809,1.254
	c1.776,0,3.282-0.526,3.808-1.254h2.18c0.246,0,0.475-0.122,0.607-0.33C709.234,191.685,709.256,191.426,709.156,191.201z"/>
<path fill="#7B808D" d="M762.656,259.225c0,10.012-8.113,18.127-18.125,18.127c-10.011,0-18.125-8.115-18.125-18.127
	c0-10.008,8.114-18.125,18.125-18.125C754.543,241.1,762.656,249.217,762.656,259.225z"/>
<g>
	<path fill="#FFFFFF" d="M742.956,261.607c0.382-0.4,0.912-0.627,1.457-0.627c0.547,0,1.076,0.225,1.453,0.616l1.25,1.296
		l1.733-1.805l-1.224-1.076l4.723-1.594l1.264-1.231l-6.274-0.912l-2.807-5.687l-2.806,5.687l-6.275,0.912l4.541,4.426l-0.652,3.802
		L742.956,261.607z"/>
	<polygon fill="#FFFFFF" points="748.669,267.087 750.144,267.861 749.808,265.903 	"/>
	<path fill="#FFFFFF" d="M750.255,260.539l0.531,0.467l-3.668,3.818l-2.219-2.298c-0.125-0.13-0.301-0.205-0.486-0.205
		c-0.182,0-0.359,0.076-0.486,0.208l-3.669,3.863c-0.255,0.27-0.245,0.696,0.024,0.953c0.126,0.119,0.291,0.185,0.463,0.185
		c0.188,0,0.359-0.075,0.49-0.21l3.184-3.354l2.215,2.295c0.126,0.132,0.305,0.207,0.486,0.207s0.359-0.076,0.485-0.209l4.194-4.363
		l0.793,0.697l0.307-1.525l0.307-1.525l-1.476,0.497L750.255,260.539z"/>
</g>
<path opacity="0.25" fill="#FFFFFF" d="M718.604,402.437h1.999c0-47.655-9.934-92.98-27.804-134.059
	c-0.494,0.376-1.024,0.704-1.587,0.98c17.731,40.878,27.189,85.278,27.445,131.141h-0.054V402.437z"/>
<path opacity="0.25" fill="#FFFFFF" d="M648.981,194.931c-0.485,0.41-1.009,0.775-1.569,1.084
	c13.777,17.505,25.679,36.187,35.592,55.806c0.563-0.25,1.15-0.447,1.761-0.588C674.689,231.243,662.68,212.395,648.981,194.931z"/>
<path opacity="0.25" fill="#FFFFFF" d="M393.72,66.052c0.022,0.272,0.042,0.546,0.042,0.824c0,0.382-0.027,0.757-0.07,1.127
	c85.768,2.406,166.051,36.919,226.974,97.841c5.047,5.048,9.892,10.241,14.572,15.547c0.409-0.5,0.868-0.957,1.369-1.365
	C576.917,112.306,490.43,68.775,393.72,66.052z"/>
<path opacity="0.25" fill="#FFFFFF" d="M374.382,66.875c0-0.28,0.019-0.557,0.042-0.831
	c-96.759,2.724-183.292,46.294-242.985,114.073c0.551,0.34,1.063,0.734,1.522,1.184c4.659-5.278,9.496-10.436,14.518-15.458
	c60.923-60.922,141.204-95.445,226.971-97.852C374.408,67.625,374.382,67.254,374.382,66.875z"/>
<path opacity="0.25" fill="#FFFFFF" d="M84.994,252.145c9.997-19.848,22.025-38.739,35.969-56.426
	c-0.511-0.393-0.98-0.834-1.403-1.319c-13.913,17.664-26.098,36.751-36.293,57.016C83.871,251.603,84.448,251.849,84.994,252.145z"
	/>
<path opacity="0.25" fill="#FFFFFF" d="M75.125,268.801c-17.744,40.966-27.583,86.15-27.583,133.636h1.966v-1.938h-0.023
	c0.002-0.421,0.019-0.838,0.023-1.258v-0.987h0.017c0.546-44.947,9.927-88.463,27.271-128.591
	C76.208,269.429,75.65,269.14,75.125,268.801z"/>
<g>
</g>
<g>
</g>
<g>
</g>
<g>
</g>
<g>
</g>
<g>
</g>
</svg>
