<?xml version="1.0" encoding="utf-8"?>
<!-- Generator: Adobe Illustrator 19.0.0, SVG Export Plug-In . SVG Version: 6.00 Build 0)  -->
<svg version="1.1" id="Layer_1" xmlns="http://www.w3.org/2000/svg" xmlns:xlink="http://www.w3.org/1999/xlink" x="0px" y="0px"
	 viewBox="0 0 794 1122" style="enable-background:new 0 0 794 1122;" xml:space="preserve">
<style type="text/css">
	.st0{opacity:0.3;fill:#0075C9;}
	.st1{fill:#0075C9;}
	.st2{clip-path:url(#XMLID_29_);}
	.st3{opacity:0.3;fill:#00AFAA;}
	.st4{fill:#00AFAA;}
	.st5{opacity:0.45;fill:#0075C9;}
</style>
<g id="XMLID_32_">
	<rect id="XMLID_33_" x="205.1" y="128.4" class="st0" width="12.7" height="995.1"/>
</g>
<g id="XMLID_30_">
	<polygon id="XMLID_31_" class="st1" points="217.7,344 217.7,148.4 685.9,246.2 	"/>
</g>
<g id="XMLID_2_">
	<defs>
		<rect id="XMLID_3_" x="0.1" y="0" width="717.5" height="1121.8"/>
	</defs>
	<clipPath id="XMLID_29_">
		<use xlink:href="#XMLID_3_"  style="overflow:visible;"/>
	</clipPath>
	<g id="XMLID_24_" class="st2">
		<g id="XMLID_27_">
			<rect id="XMLID_28_" x="-17.5" y="694" class="st3" width="12" height="580.4"/>
		</g>
		<g id="XMLID_25_">
			<polygon id="XMLID_26_" class="st4" points="-5.4,835.9 -5.4,665 403.4,750.4 			"/>
		</g>
	</g>
	<g id="XMLID_19_" class="st2">
		<g id="XMLID_22_">
			<rect id="XMLID_23_" x="46.6" y="246.2" class="st3" width="14.1" height="887.4"/>
		</g>
		<g id="XMLID_20_">
			<polygon id="XMLID_21_" class="st4" points="60.7,478.9 60.7,267.7 598.1,373.3 			"/>
		</g>
	</g>
	<g id="XMLID_14_" class="st2">
		<g id="XMLID_17_">
			<rect id="XMLID_18_" x="115.4" y="77.3" class="st3" width="8.8" height="1054.9"/>
		</g>
		<g id="XMLID_15_">
			<polygon id="XMLID_16_" class="st4" points="124.3,204.9 124.3,89.1 461.1,147 			"/>
		</g>
	</g>
	<g id="XMLID_9_" class="st2">
		<g id="XMLID_12_">
			<rect id="XMLID_13_" x="20.6" y="405" class="st0" width="7.9" height="727.2"/>
		</g>
		<g id="XMLID_10_">
			<polygon id="XMLID_11_" class="st1" points="28.5,532.6 28.5,416.8 365.3,474.7 			"/>
		</g>
	</g>
	<g id="XMLID_4_" class="st2">
		<g id="XMLID_7_">
			<rect id="XMLID_8_" x="-67.2" y="201.8" class="st5" width="9.7" height="169.8"/>
		</g>
		<g id="XMLID_5_">
			<polygon id="XMLID_6_" class="st1" points="-57.5,295 -57.5,210.4 188.6,252.7 			"/>
		</g>
	</g>
</g>
</svg>
