<?xml version="1.0" encoding="utf-8"?>
<!-- Generator: Adobe Illustrator 19.0.0, SVG Export Plug-In . SVG Version: 6.00 Build 0)  -->
<svg version="1.1" id="Layer_1" xmlns="http://www.w3.org/2000/svg" xmlns:xlink="http://www.w3.org/1999/xlink" x="0px" y="0px"
	 viewBox="0 0 20 20" style="enable-background:new 0 0 20 20;" xml:space="preserve">
<style type="text/css">
	.st0{fill:#FFFFFF;}
</style>
<g id="XMLID_1_">
	<path id="XMLID_12_" class="st0" d="M16,17.4H1.4V6.4H16v2.4h1.2V2.2c0-0.3-0.3-0.6-0.6-0.6H0.8c-0.3,0-0.6,0.3-0.6,0.6V18
		c0,0.3,0.3,0.6,0.6,0.6h15.8c0.3,0,0.6-0.3,0.6-0.6v-3H16V17.4z M1.4,2.8H16v2.4H1.4V2.8z"/>
	<circle id="XMLID_14_" class="st0" cx="3.2" cy="4" r="0.6"/>
	<circle id="XMLID_15_" class="st0" cx="5.6" cy="4" r="0.6"/>
	<circle id="XMLID_16_" class="st0" cx="8.1" cy="4" r="0.6"/>
	<path id="XMLID_19_" class="st0" d="M19,10.1h-6.7v0l0-1.8c0-0.3-0.3-0.6-0.6-0.6c0,0,0,0,0,0v0c-0.2,0-0.3,0.1-0.4,0.2l-3.6,3.6
		c-0.2,0.2-0.2,0.6,0,0.9l3.6,3.7c0.2,0.2,0.6,0.2,0.9,0c0.1-0.1,0.2-0.3,0.2-0.4l0-1.8H19c0.3,0,0.6-0.3,0.6-0.6v-2.4
		C19.6,10.3,19.3,10.1,19,10.1z M18.4,12.5h-6.7c-0.3,0-0.6,0.3-0.6,0.6l0,0.6c0,0,0,0,0,0v0.3l-2.2-2.2l2.2-2.2v0.4c0,0,0,0,0,0
		l0,0.6c0,0.3,0.3,0.6,0.6,0.6h6.7V12.5z"/>
</g>
</svg>
