<?xml version="1.0" encoding="utf-8"?>
<!-- Generator: Adobe Illustrator 19.0.0, SVG Export Plug-In . SVG Version: 6.00 Build 0)  -->
<svg version="1.1" id="Layer_1" xmlns="http://www.w3.org/2000/svg" xmlns:xlink="http://www.w3.org/1999/xlink" x="0px" y="0px"
	 viewBox="0 0 20 20" style="enable-background:new 0 0 20 20;" xml:space="preserve">
<style type="text/css">
	.st0{fill:#FFFFFF;}
</style>
<path id="XMLID_24_" class="st0" d="M19.3,10h-6.9v0l0-1.9c0-0.3-0.3-0.6-0.6-0.6c0,0,0,0,0,0v0c-0.2,0-0.3,0.1-0.4,0.2l-3.7,3.7
	c-0.2,0.2-0.2,0.6,0,0.9l3.7,3.7c0.2,0.2,0.6,0.2,0.9,0c0.1-0.1,0.2-0.3,0.2-0.4l0-1.9h6.9c0.3,0,0.6-0.3,0.6-0.6v-2.5
	C19.9,10.3,19.6,10,19.3,10z"/>
<path id="XMLID_13_" class="st0" d="M17.4,8.8V1.9c0-0.3-0.3-0.6-0.6-0.6H0.6C0.3,1.3,0,1.6,0,1.9v16.2c0,0.3,0.3,0.6,0.6,0.6h16.2
	c0.3,0,0.6-0.3,0.6-0.6V15h-1.2v2.5H1.2V6.3h14.9v2.5H17.4z M3.1,4.6c-0.5,0-0.8-0.4-0.8-0.8S2.6,3,3.1,3s0.8,0.4,0.8,0.8
	S3.6,4.6,3.1,4.6z M5.6,4.6c-0.5,0-0.8-0.4-0.8-0.8S5.1,3,5.6,3s0.8,0.4,0.8,0.8S6.1,4.6,5.6,4.6z M8.1,4.6c-0.5,0-0.8-0.4-0.8-0.8
	S7.6,3,8.1,3s0.8,0.4,0.8,0.8S8.6,4.6,8.1,4.6z"/>
</svg>
