<?xml version="1.0" encoding="utf-8"?>
<!-- Generator: Adobe Illustrator 16.0.0, SVG Export Plug-In . SVG Version: 6.00 Build 0)  -->
<!DOCTYPE svg PUBLIC "-//W3C//DTD SVG 1.1//EN" "http://www.w3.org/Graphics/SVG/1.1/DTD/svg11.dtd">
<svg version="1.1" id="Layer_1" xmlns="http://www.w3.org/2000/svg" xmlns:xlink="http://www.w3.org/1999/xlink" x="0px" y="0px"
	 width="20px" height="20px" viewBox="0 0 20 20" enable-background="new 0 0 20 20" xml:space="preserve">
<path fill="#CFCFCF" d="M19.072,16.726l-2.071-4.67c-0.097-0.215-0.262-0.392-0.47-0.498l-3.216-1.676
	c-0.072-0.038-0.157-0.029-0.222,0.02c-0.91,0.687-1.979,1.051-3.094,1.051c-1.114,0-2.185-0.364-3.093-1.051
	c-0.065-0.049-0.15-0.057-0.221-0.02l-3.216,1.676C3.261,11.664,3.096,11.841,3,12.056l-2.072,4.67
	c-0.144,0.321-0.115,0.689,0.078,0.983c0.192,0.296,0.515,0.472,0.869,0.472h2.266c0.751,1.039,2.9,1.791,5.436,1.791
	c2.538,0,4.687-0.752,5.438-1.791h3.109c0.353,0,0.679-0.176,0.869-0.472C19.187,17.415,19.216,17.047,19.072,16.726z"/>
<path fill="#CFCFCF" d="M10,9.648c2.27,0,4.109-2.153,4.109-4.809c0-3.684-1.84-4.81-4.109-4.81s-4.108,1.125-4.108,4.81
	C5.892,7.495,7.73,9.648,10,9.648L10,9.648z M10,9.648"/>
<g>
</g>
<g>
</g>
<g>
</g>
<g>
</g>
<g>
</g>
<g>
</g>
</svg>
