<?xml version="1.0" encoding="utf-8"?>
<!-- Generator: Adobe Illustrator 19.0.0, SVG Export Plug-In . SVG Version: 6.00 Build 0)  -->
<svg version="1.1" id="Layer_1" xmlns="http://www.w3.org/2000/svg" xmlns:xlink="http://www.w3.org/1999/xlink" x="0px" y="0px"
	 viewBox="7 -6.8 33.8 33.8" style="enable-background:new 7 -6.8 33.8 33.8;" xml:space="preserve">
<style type="text/css">
	.st0{fill:#FFFFFF;}
	.st1{fill:#1F96D3;}
</style>
<path class="st0" d="M32.7,16.7l-2-4.5c-0.1-0.2-0.3-0.4-0.5-0.5L27.1,10c-0.1,0-0.2,0-0.2,0c-0.9,0.7-1.9,1-3,1c-1.1,0-2.1-0.4-3-1
	c-0.1,0-0.1-0.1-0.2,0l-3.1,1.6c-0.2,0.1-0.4,0.3-0.5,0.5l-2,4.5c-0.1,0.3-0.1,0.7,0.1,1c0.2,0.3,0.5,0.5,0.8,0.5h2.2
	c0.7,1,2.8,1.7,5.3,1.7c2.5,0,4.6-0.7,5.3-1.7h3c0.3,0,0.7-0.2,0.8-0.5C32.8,17.3,32.9,17,32.7,16.7z"/>
<circle class="st1" cx="23.9" cy="10.1" r="16.9"/>
<g id="XMLID_2_">
	<path id="XMLID_3_" class="st0" d="M25.4,0.9c1.2,0,1.8,0.8,1.8,1.8c0,1.2-1.1,2.3-2.4,2.3C23.7,5,23,4.3,23,3.2
		C23,2.2,23.8,0.9,25.4,0.9L25.4,0.9z M21.7,19c-1,0-1.7-0.6-1-3.2l1.1-4.6c0.2-0.7,0.2-1,0-1c-0.3,0-1.5,0.5-2.3,1L19,10.4
		c2.3-2,5-3.1,6.1-3.1c1,0,1.1,1.1,0.6,2.9L24.4,15c-0.2,0.9-0.1,1.1,0.1,1.1c0.3,0,1.2-0.4,2.1-1.1l0.5,0.7
		C25.1,18.1,22.6,19,21.7,19L21.7,19z"/>
</g>
</svg>
