<?xml version="1.0" encoding="utf-8"?>
<!-- Generator: Adobe Illustrator 19.0.0, SVG Export Plug-In . SVG Version: 6.00 Build 0)  -->
<svg version="1.1" id="Layer_1" xmlns="http://www.w3.org/2000/svg" xmlns:xlink="http://www.w3.org/1999/xlink" x="0px" y="0px"
	 viewBox="0 0 25 25" style="enable-background:new 0 0 25 25;" xml:space="preserve">
<style type="text/css">
	.st0{fill:#CFCFCF;}
</style>
<g id="XMLID_2_">
	<path id="XMLID_3_" class="st0" d="M14.7,1.5c1.2,0,1.8,0.8,1.8,1.8c0,1.2-1.1,2.3-2.4,2.3c-1.1,0-1.8-0.7-1.8-1.8
		C12.3,2.8,13.1,1.5,14.7,1.5L14.7,1.5z M11,19.6c-1,0-1.7-0.6-1-3.2l1.1-4.6c0.2-0.7,0.2-1,0-1c-0.3,0-1.5,0.5-2.3,1L8.3,11
		c2.3-2,5-3.1,6.1-3.1c1,0,1.1,1.1,0.6,2.9l-1.3,4.8c-0.2,0.9-0.1,1.1,0.1,1.1c0.3,0,1.2-0.4,2.1-1.1l0.5,0.7
		C14.4,18.7,11.9,19.6,11,19.6L11,19.6z M11,19.6"/>
</g>
<g id="XMLID_1_">
</g>
<g id="XMLID_7_">
</g>
<g id="XMLID_8_">
</g>
<g id="XMLID_9_">
</g>
<g id="XMLID_10_">
</g>
<g id="XMLID_11_">
</g>
</svg>
