<?xml version="1.0" encoding="utf-8"?>
<!-- Generator: Adobe Illustrator 19.0.0, SVG Export Plug-In . SVG Version: 6.00 Build 0)  -->
<svg version="1.1" id="Layer_1" xmlns="http://www.w3.org/2000/svg" xmlns:xlink="http://www.w3.org/1999/xlink" x="0px" y="0px"
	 viewBox="7 -6.8 33.8 33.8" style="enable-background:new 7 -6.8 33.8 33.8;" xml:space="preserve">
<style type="text/css">
	.st0{fill:#FFFFFF;}
	.st1{fill:#1F96D3;}
</style>
<path class="st0" d="M39.7,9.9l-2-4.5c-0.1-0.2-0.3-0.4-0.5-0.5l-3.1-1.7c-0.1,0-0.2,0-0.2,0c-0.9,0.7-1.9,1-3,1s-2.1-0.4-3-1
	c-0.1,0-0.1-0.1-0.2,0l-3.1,1.6c-0.2,0.1-0.4,0.3-0.5,0.5l-2,4.5c-0.1,0.3-0.1,0.7,0.1,1c0.2,0.3,0.5,0.5,0.8,0.5h2.2
	c0.7,1,2.8,1.7,5.3,1.7s4.6-0.7,5.3-1.7h3c0.3,0,0.7-0.2,0.8-0.5C39.8,10.5,39.9,10.2,39.7,9.9z"/>
<circle class="st1" cx="23.9" cy="10.1" r="16.9"/>
<g>
	<path class="st0" d="M23.7,0.6c1.2,0,2.3,1,2.3,2.3c0,1.2-1,2.3-2.3,2.3c-1.2,0-2.3-1-2.3-2.3C21.4,1.6,22.4,0.6,23.7,0.6L23.7,0.6
		z M25.7,6.5h-3.8c-0.7,0-1.3,0.6-1.3,1.3c0,0.7,0.6,1.3,1.3,1.3h0.1V17h-1.5v2.7h6.6V17h-1.5L25.7,6.5L25.7,6.5z M25.7,6.5"/>
</g>
</svg>
