<?xml version="1.0" encoding="utf-8"?>
<!-- Generator: Adobe Illustrator 19.0.0, SVG Export Plug-In . SVG Version: 6.00 Build 0)  -->
<svg version="1.1" id="Layer_1" xmlns="http://www.w3.org/2000/svg" xmlns:xlink="http://www.w3.org/1999/xlink" x="0px" y="0px"
	 viewBox="0 0 33.8 33.8" style="enable-background:new 0 0 33.8 33.8;" xml:space="preserve">
<style type="text/css">
	.st0{fill:#2097D4;}
	.st1{fill:#FFFFFF;}
</style>
<circle id="XMLID_47_" class="st0" cx="16.9" cy="16.9" r="16.9"/>
<path id="XMLID_48_" class="st1" d="M25.1,19.9c-0.3-0.2-0.5-0.5-0.7-0.7c0,0,0,0,0,0c-0.5-0.7-0.6-2.4-0.7-3.5c0-0.1,0-0.3,0-0.4
	c0,0,0,0,0,0c-0.2-1.4-0.7-3.4-1.9-5.1c-0.9-1.2-2-2-3.4-2.3V7.8c0-0.8-0.7-1.5-1.5-1.5c-0.8,0-1.5,0.7-1.5,1.5v0.1
	C14.1,8.2,13,9,12.1,10.2c-1.2,1.7-1.7,3.7-1.9,5.1c0,0,0,0,0,0c0,0.1,0,0.3,0,0.4c-0.1,1.1-0.3,2.7-0.7,3.5c0,0,0,0,0,0
	c-0.1,0.3-0.4,0.5-0.7,0.7c-0.6,0.5-1.5,1.3-0.7,2.8C8.1,22.9,8.3,23,8.5,23H14c0.1,1.5,1.4,2.6,2.9,2.6c1.5,0,2.8-1.2,2.9-2.6h5.4
	c0.2,0,0.4-0.1,0.5-0.3C26.5,21.2,25.6,20.5,25.1,19.9L25.1,19.9z M16.9,24.2c-0.7,0-1.2-0.5-1.3-1.1h2.7
	C18.1,23.7,17.5,24.2,16.9,24.2L16.9,24.2z M16.9,24.2"/>
<g id="XMLID_14_">
</g>
<g id="XMLID_15_">
</g>
<g id="XMLID_16_">
</g>
<g id="XMLID_17_">
</g>
<g id="XMLID_18_">
</g>
<g id="XMLID_19_">
</g>
</svg>
