<?xml version="1.0" encoding="utf-8"?>
<!-- Generator: Adobe Illustrator 19.0.0, SVG Export Plug-In . SVG Version: 6.00 Build 0)  -->
<svg version="1.1" id="Layer_1" xmlns="http://www.w3.org/2000/svg" xmlns:xlink="http://www.w3.org/1999/xlink" x="0px" y="0px"
	 viewBox="0 0 33.8 33.8" style="enable-background:new 0 0 33.8 33.8;" xml:space="preserve">
<style type="text/css">
	.st0{fill:#1F99D5;}
</style>
<g>
	<path class="st0" d="M16.9,11.8c-2.8,0-5,2.3-5,5c0,2.8,2.2,5,5,5c2.8,0,5-2.3,5-5S19.7,11.8,16.9,11.8z M16.9,19.4
		c-1.4,0-2.6-1.1-2.6-2.6c0-0.2,0-0.4,0.1-0.6c0.2,0.2,0.5,0.3,0.9,0.3c0.7,0,1.3-0.6,1.3-1.3c0-0.3-0.1-0.6-0.3-0.9
		c0.2,0,0.4-0.1,0.6-0.1c1.4,0,2.6,1.1,2.6,2.6C19.4,18.3,18.3,19.4,16.9,19.4z"/>
	<path class="st0" d="M16.9,0C7.6,0,0,7.6,0,16.9s7.6,16.9,16.9,16.9c9.3,0,16.9-7.6,16.9-16.9S26.2,0,16.9,0z M27.3,17.2
		c-2,3.7-5.9,6.2-10.5,6.2c-4.5,0-8.4-2.5-10.5-6.2c-0.1-0.2-0.1-0.4,0-0.6c2-3.7,5.9-6.2,10.5-6.2c4.5,0,8.4,2.5,10.5,6.2
		C27.5,16.7,27.5,17,27.3,17.2z"/>
</g>
</svg>
