<?xml version="1.0" encoding="utf-8"?>
<!-- Generator: Adobe Illustrator 19.0.0, SVG Export Plug-In . SVG Version: 6.00 Build 0)  -->
<svg version="1.1" id="Layer_1" xmlns="http://www.w3.org/2000/svg" xmlns:xlink="http://www.w3.org/1999/xlink" x="0px" y="0px"
	 viewBox="0 0 45 45" style="enable-background:new 0 0 45 45;" xml:space="preserve">
<style type="text/css">
	.st0{fill:#F4BB3E;}
</style>
<g id="XMLID_305_">
	<path id="XMLID_317_" class="st0" d="M29.8,8.7c-3.8-2.5-8.5-2.8-12.8-1c-2.8,1.2-4.9,3.3-6.1,6c-1.3,2.8-1.6,5.8-1,8.6
		c0.5,2.6,1.9,5,3.8,6.8c1.8,1.7,2.9,4.2,2.9,6.8v2.6c0,0.7,0.3,1.4,0.9,1.9l2,1.6c0.1,0.1,0.1,0.2,0.1,0.3c0,1.3,1.1,2.4,2.4,2.4
		h1.6c1.3,0,2.4-1.1,2.4-2.4c0-0.1,0-0.2,0.1-0.3l2-1.6c0.6-0.5,0.9-1.1,0.9-1.9v-2.7c0-2.6,1.1-5,2.9-6.8c2.6-2.5,4-5.8,4-9.4
		C35.6,15.2,33.4,11.1,29.8,8.7z M26.7,38.5c0,0.1,0,0.2-0.1,0.3l-2,1.6c-0.6,0.5-0.9,1.1-0.9,1.9c0,0.2-0.2,0.3-0.3,0.3h-1.6
		c-0.2,0-0.3-0.2-0.3-0.3c0-0.7-0.3-1.4-0.9-1.9l-2-1.6c-0.1-0.1-0.1-0.2-0.1-0.3v-1.7h8.2V38.5z M30.2,27.6c-2,1.9-3.2,4.5-3.5,7.2
		h-8.3c-0.3-2.7-1.5-5.3-3.4-7.2c-3.5-3.4-4.4-8.4-2.3-13.1c1-2.2,2.8-4,5.1-4.9c1.6-0.7,3.2-1,4.8-1c2.2,0,4.2,0.6,6.1,1.8
		c3.1,2.1,5,5.5,5,9.2C33.6,22.7,32.4,25.5,30.2,27.6z"/>
	<path id="XMLID_316_" class="st0" d="M22.6,5c0.6,0,1-0.5,1-1V1c0-0.6-0.5-1-1-1c-0.6,0-1,0.5-1,1v3C21.5,4.6,22,5,22.6,5z"/>
	<path id="XMLID_315_" class="st0" d="M35,5.7l-2.1,2.1c-0.4,0.4-0.4,1.1,0,1.5c0.2,0.2,0.5,0.3,0.7,0.3c0.3,0,0.5-0.1,0.7-0.3
		l2.1-2.1c0.4-0.4,0.4-1.1,0-1.5C36,5.3,35.4,5.3,35,5.7z"/>
	<path id="XMLID_314_" class="st0" d="M41.2,18.6h-3c-0.6,0-1,0.5-1,1c0,0.6,0.5,1,1,1h3c0.6,0,1-0.5,1-1
		C42.2,19.1,41.7,18.6,41.2,18.6z"/>
	<path id="XMLID_313_" class="st0" d="M34.3,29.9c-0.4-0.4-1.1-0.4-1.5,0c-0.4,0.4-0.4,1,0,1.5l2.1,2.1c0.2,0.2,0.5,0.3,0.7,0.3
		c0.3,0,0.5-0.1,0.7-0.3c0.4-0.4,0.4-1.1,0-1.5L34.3,29.9z"/>
	<path id="XMLID_312_" class="st0" d="M10.8,29.9L8.7,32c-0.4,0.4-0.4,1.1,0,1.5c0.2,0.2,0.5,0.3,0.7,0.3c0.3,0,0.5-0.1,0.7-0.3
		l2.1-2.1c0.4-0.4,0.4-1.1,0-1.5C11.8,29.5,11.2,29.5,10.8,29.9z"/>
	<path id="XMLID_311_" class="st0" d="M6.9,18.6H4c-0.6,0-1,0.5-1,1c0,0.6,0.5,1,1,1h3c0.6,0,1-0.5,1-1C8,19.1,7.5,18.6,6.9,18.6z"
		/>
	<path id="XMLID_310_" class="st0" d="M10.8,9.3c0.2,0.2,0.5,0.3,0.7,0.3c0.3,0,0.5-0.1,0.7-0.3c0.4-0.4,0.4-1,0-1.5l-2.1-2.1
		c-0.4-0.4-1.1-0.4-1.5,0c-0.4,0.4-0.4,1.1,0,1.5L10.8,9.3z"/>
	<path id="XMLID_307_" class="st0" d="M29.4,18.8h-0.7c-0.2,0-0.4-0.2-0.5-0.4c-0.1-0.2-0.2-0.4-0.2-0.6c-0.1-0.2-0.1-0.5,0.1-0.6
		l0.5-0.5c0.4-0.4,0.4-1,0-1.4l-0.9-0.9c-0.2-0.2-0.4-0.3-0.7-0.3c-0.3,0-0.5,0.1-0.7,0.3l-0.5,0.5c-0.1,0.1-0.2,0.1-0.4,0.1
		c-0.1,0-0.2,0-0.3-0.1c-0.2-0.1-0.4-0.2-0.6-0.2c-0.2-0.1-0.4-0.3-0.4-0.5v-0.7c0-0.5-0.4-1-1-1H22c-0.5,0-1,0.4-1,1v0.7
		c0,0.2-0.2,0.4-0.4,0.5c-0.2,0.1-0.4,0.2-0.6,0.2c-0.1,0-0.2,0.1-0.3,0.1c-0.2,0-0.3-0.1-0.4-0.1l-0.5-0.5
		c-0.2-0.2-0.4-0.3-0.7-0.3c-0.3,0-0.5,0.1-0.7,0.3l-0.9,0.9c-0.2,0.2-0.3,0.4-0.3,0.7c0,0.3,0.1,0.5,0.3,0.7l0.5,0.5
		c0.1,0.1,0.2,0.4,0.1,0.6c-0.1,0.2-0.2,0.4-0.2,0.6c-0.1,0.2-0.3,0.4-0.5,0.4h-0.7c-0.5,0-1,0.4-1,1V21c0,0.5,0.4,1,1,1h0.7
		c0.2,0,0.4,0.2,0.5,0.4c0.1,0.2,0.2,0.4,0.2,0.6c0.1,0.2,0.1,0.5-0.1,0.6l-0.5,0.5c-0.4,0.4-0.4,1,0,1.3l0.9,0.9
		c0.2,0.2,0.4,0.3,0.7,0.3c0.3,0,0.5-0.1,0.7-0.3l0.5-0.5c0.1-0.1,0.2-0.1,0.4-0.1c0.1,0,0.2,0,0.3,0.1c0.2,0.1,0.4,0.2,0.6,0.2
		c0.2,0.1,0.4,0.3,0.4,0.5v0.7c0,0.5,0.4,1,1,1h1.2c0.5,0,1-0.4,1-1v-0.7c0-0.2,0.2-0.4,0.4-0.5c0.2-0.1,0.4-0.2,0.6-0.2
		c0.1,0,0.2-0.1,0.3-0.1c0.2,0,0.3,0.1,0.4,0.1l0.5,0.5c0.2,0.2,0.4,0.3,0.7,0.3c0.3,0,0.5-0.1,0.7-0.3l0.9-0.9c0.4-0.4,0.4-1,0-1.3
		L28,23.6c-0.1-0.1-0.2-0.4-0.1-0.6c0.1-0.2,0.2-0.4,0.2-0.6c0.1-0.2,0.3-0.4,0.5-0.4h0.7c0.5,0,1-0.4,1-1v-1.2
		C30.4,19.2,29.9,18.8,29.4,18.8z M22.6,23.2c-1.5,0-2.8-1.3-2.8-2.8c0-1.5,1.3-2.8,2.8-2.8c1.5,0,2.8,1.3,2.8,2.8
		C25.4,21.9,24.1,23.2,22.6,23.2z"/>
</g>
</svg>
