<?xml version="1.0" encoding="utf-8"?>
<!-- Generator: Adobe Illustrator 19.0.0, SVG Export Plug-In . SVG Version: 6.00 Build 0)  -->
<svg version="1.1" xmlns="http://www.w3.org/2000/svg" xmlns:xlink="http://www.w3.org/1999/xlink" x="0px" y="0px"
	 viewBox="0 0 40 40" style="enable-background:new 0 0 40 40;" xml:space="preserve">
<style type="text/css">
	.st0{display:none;}
	.st1{display:inline;}
	.st2{fill:#D0D0CF;}
</style>
<g id="Layer_1" class="st0">
	<g id="XMLID_3_" class="st1">
		<path id="XMLID_35_" class="st2" d="M14.9,15.8c0,3.5,2.4,6.3,5.3,6.3c2.9,0,5.3-2.8,5.3-6.3c0-0.9-0.1-1.7-0.2-2.4
			c-0.2,0.2-0.5,0.2-0.8,0.2h-8.7c-0.3,0-0.5-0.1-0.7-0.2C14.9,14.1,14.9,14.9,14.9,15.8z"/>
		<path id="XMLID_36_" class="st2" d="M24.5,12.7c0.2,0,0.3-0.2,0.3-0.3v-0.8c0-0.2-0.2-0.3-0.3-0.3h-8.7c-0.2,0-0.3,0.2-0.3,0.3
			v0.8c0,0.2,0.2,0.3,0.3,0.3H24.5z"/>
		<path id="XMLID_37_" class="st2" d="M14.6,7.1c0,0,0,0.1,0,0.1l0.7,3c0,0.2,0.2,0.3,0.3,0.3h4.5l4.5,0c0.2,0,0.3-0.1,0.3-0.3
			l0.7-3c0,0,0-0.1,0-0.1C26,7,26.2,6.8,26.2,6.5c0-0.4-0.3-0.7-0.7-0.7c-0.4,0-0.7,0.3-0.7,0.7c0,0.2,0.1,0.4,0.3,0.6l-0.9,0.9
			c-0.2,0.2-0.6,0.4-0.9,0.4c-0.4,0-0.8-0.2-1-0.5l-1.5-2c0,0,0,0,0,0c0.1-0.1,0.2-0.3,0.2-0.5c0-0.4-0.3-0.7-0.7-0.7
			c-0.4,0-0.7,0.3-0.7,0.7c0,0.2,0.1,0.4,0.2,0.5l-1.5,2c-0.2,0.3-0.6,0.5-1,0.5c-0.3,0-0.7-0.1-0.9-0.4L15.3,7
			c0.2-0.1,0.3-0.3,0.3-0.5c0-0.4-0.3-0.7-0.7-0.7c-0.4,0-0.7,0.3-0.7,0.7C14.1,6.8,14.3,7,14.6,7.1z"/>
		<path id="XMLID_38_" class="st2" d="M29.3,25.2c-0.1-0.3-0.3-0.5-0.6-0.6l-4.2-2.2c-0.1,0-0.2,0-0.3,0c-0.2,0.2-0.5,0.3-0.8,0.5
			c-0.1,0.1-0.2,0.1-0.4,0.2c0,0,0,0,0,0c-0.4,0.2-0.7,0.3-1.1,0.4c0,0-0.1,0-0.1,0c-0.1,0-0.2,0-0.3,0.1c-0.1,0-0.2,0-0.2,0
			c-0.1,0-0.1,0-0.2,0c-0.1,0-0.2,0-0.3,0c-0.1,0-0.1,0-0.2,0c-0.2,0-0.3,0-0.5,0c-1.4,0-2.8-0.5-4-1.4c-0.1-0.1-0.2-0.1-0.3,0
			l-4.2,2.2c-0.3,0.1-0.5,0.4-0.6,0.6l-2.2,5c1,1.1,2.3,2.1,3.6,2.8c0,0,0.1,0.1,0.1,0.1c0.2,0.1,0.3,0.2,0.5,0.3
			c0.3,0.2,0.6,0.3,0.9,0.4c0,0,0.1,0,0.1,0c0.4,0.1,0.7,0.3,1.1,0.4c0,0,0.1,0,0.1,0c0.4,0.1,0.8,0.2,1.2,0.3c0.1,0,0.1,0,0.2,0
			c0.4,0.1,0.8,0.2,1.2,0.2h0l0,0c0.8,0.1,1.6,0.2,2.4,0.2c1,0,1.9-0.1,2.9-0.3l0-0.1c0.9-0.2,1.8-0.4,2.6-0.8
			c0.4-0.3,1.8-0.8,1.8-0.8c1.4-0.8,2.8-1.8,3.9-3L29.3,25.2z"/>
	</g>
</g>
<g id="Layer_2" class="st0">
	<g id="XMLID_346_" class="st1">
		<path id="XMLID_347_" class="st2" d="M32.5,8.1c-0.2-0.2-0.4-0.2-0.6-0.1L8.3,17c-0.5,0.2-0.9,0.7-1,1.3c-0.1,0.6,0.2,1.2,0.6,1.5
			l5.2,3.8L31.6,9.1L15.3,25.1l7.1,5.2c0.4,0.3,1,0.4,1.6,0.3c0.5-0.2,1-0.6,1.2-1.1l7.6-20.8C32.8,8.5,32.7,8.2,32.5,8.1z"/>
		<path id="XMLID_354_" class="st2" d="M11.9,25.1l1,5.5c0.1,0.4,0.3,0.8,0.7,0.9c0.4,0.2,0.8,0.1,1.2-0.1c1.4-0.9,3.2-2.1,3.2-2.2
			l-6.1-4.4L11.9,25.1z"/>
	</g>
</g>
<g id="Layer_3">
	<g id="XMLID_349_">
		<rect id="XMLID_361_" x="20.3" y="13" class="st2" width="7.3" height="2.1"/>
		<rect id="XMLID_360_" x="12.8" y="17.1" class="st2" width="14.8" height="2.1"/>
		<polygon id="XMLID_359_" class="st2" points="22.4,6 21,6 21.1,4.7 19.6,4.7 19.6,6 18.2,6 18.2,7.4 22.4,7.4 		"/>
		<path id="XMLID_358_" class="st2" d="M31.3,29.5H9.2c0,0-0.7,0-0.7,0.8c0,0.7,0.7,0.6,0.7,0.6h9.8L16.2,35h1.4l2.9-4.1H21l2.9,4.1
			h1.4l-2.9-4.1h8.9c0,0,0.7,0.1,0.7-0.6C32,29.5,31.3,29.5,31.3,29.5z"/>
		<path id="XMLID_355_" class="st2" d="M29.3,8.8H11.3c0,0-2.8,0-2.8,2.8v13.8c0,2.8,2.8,2.8,2.8,2.8h1.1h3.7h2.3h3.7h2.4h3.7h1.1
			c0,0,2.8,0,2.8-2.8V11.6C32,8.8,29.3,8.8,29.3,8.8z M30,25.4c0,0.3,0,0.7-0.8,0.8h-1h-3.7h-2.4h-3.7h-2.3h-3.7h-1.1h0
			c-0.8,0-0.8-0.5-0.8-0.8V11.6c0-0.2,0-0.8,0.8-0.8h17.9c0.8,0,0.8,0.5,0.8,0.8V25.4z"/>
		<rect id="XMLID_353_" x="12.8" y="21.5" class="st2" width="14.8" height="2.1"/>
	</g>
</g>
</svg>
