<?xml version="1.0" encoding="utf-8"?>
<!-- Generator: Adobe Illustrator 19.0.0, SVG Export Plug-In . SVG Version: 6.00 Build 0)  -->
<svg version="1.1" id="Layer_1" xmlns="http://www.w3.org/2000/svg" xmlns:xlink="http://www.w3.org/1999/xlink" x="0px" y="0px"
	 viewBox="0 0 45 45" style="enable-background:new 0 0 45 45;" xml:space="preserve">
<style type="text/css">
	.st0{fill:#1F99D5;}
</style>
<g id="XMLID_348_">
	<path id="XMLID_405_" class="st0" d="M2,19.9v-3.7l20.7,10.3l22.1-11.3L22.7,5.8L0,15.2L1.6,16v3.9c-0.4,0.1-0.8,0.5-0.8,0.9
		c0,0.2,0.1,0.5,0.2,0.6c0,0,0,0,0,0.1v1.8c0,0.4,0.3,0.8,0.8,0.8c0.4,0,0.8-0.3,0.8-0.8v-1.8c0,0,0,0,0-0.1
		c0.1-0.2,0.2-0.4,0.2-0.6C2.8,20.4,2.5,20,2,19.9z"/>
	<path id="XMLID_406_" class="st0" d="M36.8,22.8l-14.1,7.6L8.9,22.8l-1.1,6.5c0,0,0,0,0,0c-0.2,0.2-0.3,0.5-0.3,0.8
		c0,2.3,11.8,9.3,15.4,9.3c3.6,0,15.4-7,15.4-9.3c0-0.2-0.1-0.5-0.2-1.2L36.8,22.8z"/>
</g>
</svg>
