<?xml version="1.0" encoding="utf-8"?>
<!-- Generator: Adobe Illustrator 19.0.0, SVG Export Plug-In . SVG Version: 6.00 Build 0)  -->
<svg version="1.1" id="Layer_1" xmlns="http://www.w3.org/2000/svg" xmlns:xlink="http://www.w3.org/1999/xlink" x="0px" y="0px"
	 viewBox="0 0 45 45" style="enable-background:new 0 0 45 45;" xml:space="preserve">
<style type="text/css">
	.st0{fill:#38AB74;}
</style>
<g id="XMLID_321_">
	<path id="XMLID_337_" class="st0" d="M2.1,9.3v0.9c0,0.6,0.5,1.2,1.2,1.2h4.3V8.1H3.3C2.6,8.1,2.1,8.7,2.1,9.3L2.1,9.3z M2.1,9.3"
		/>
	<path id="XMLID_334_" class="st0" d="M23.5,17.4c1.5,0,2.7-1.2,2.7-2.7S24.9,12,23.5,12c-1.5,0-2.7,1.2-2.7,2.7S22,17.4,23.5,17.4
		L23.5,17.4z M23.5,17.4"/>
	<path id="XMLID_331_" class="st0" d="M20.9,10.8V6.5H10.8c-0.6,0-1.2,0.5-1.2,1.2v4.3c0,0.6,0.5,1.2,1.2,1.2h8.3
		C19.4,12.1,20.1,11.3,20.9,10.8L20.9,10.8z M20.9,10.8"/>
	<path id="XMLID_328_" class="st0" d="M27,17.8c-0.7,0.7-1.6,1.3-2.6,1.5l2.4,8h-6.8l2.4-8c-1-0.2-1.9-0.7-2.6-1.5l-7.8,25.3
		c-0.2,0.8,0.2,1.6,1,1.8c0.1,0,0.3,0.1,0.4,0.1c0.6,0,1.2-0.4,1.4-1l4.2-13.8h8.5L32,44c0.2,0.6,0.8,1,1.4,1c0.1,0,0.3,0,0.4-0.1
		c0.8-0.2,1.2-1,1-1.8L27,17.8z M27,17.8"/>
	<path id="XMLID_325_" class="st0" d="M22.9,5.9v4.2c0.2,0,0.4,0,0.5,0c2.6,0,4.7,2.2,4.7,4.8h9.9V4.7h-14
		C23.4,4.7,22.9,5.2,22.9,5.9L22.9,5.9z M22.9,5.9"/>
	<path id="XMLID_322_" class="st0" d="M41.7,0c-0.8,0-1.4,0.6-1.4,1.4V18c0,0.8,0.6,1.4,1.4,1.4c0.8,0,1.4-0.6,1.4-1.4V1.5
		C43.1,0.7,42.5,0,41.7,0L41.7,0z M41.7,0"/>
</g>
</svg>
