<?xml version="1.0" encoding="utf-8"?>
<!-- Generator: Adobe Illustrator 19.0.0, SVG Export Plug-In . SVG Version: 6.00 Build 0)  -->
<svg version="1.1" id="Layer_1" xmlns="http://www.w3.org/2000/svg" xmlns:xlink="http://www.w3.org/1999/xlink" x="0px" y="0px"
	 viewBox="0 0 33.1 33.1" style="enable-background:new 0 0 33.1 33.1;" xml:space="preserve">
<style type="text/css">
	.st0{fill:#2097D4;}
</style>
<path class="st0" d="M16.5,0C7.4,0,0,7.4,0,16.5c0,9.1,7.4,16.5,16.5,16.5c9.1,0,16.5-7.4,16.5-16.5C33.1,7.4,25.6,0,16.5,0z
	 M22.2,22.7H10.9c-3.4,0-6.2-2.8-6.2-6.2s2.8-6.2,6.2-6.2h11.3c3.4,0,6.2,2.8,6.2,6.2S25.6,22.7,22.2,22.7z"/>
<path class="st0" d="M10.9,18.5C10.9,18.5,10.9,18.5,10.9,18.5l-1.8-1.8c0,0,0-0.1,0-0.1L9.7,16c0,0,0,0,0,0c0,0,0,0,0,0l1.2,1.2
	l2.6-2.6c0,0,0,0,0,0s0,0,0,0l0.6,0.6c0,0,0,0,0,0c0,0,0,0,0,0L10.9,18.5C10.9,18.5,10.9,18.5,10.9,18.5z"/>
<path class="st0" d="M22.3,11.3c-2.9,0-5.3,2.4-5.3,5.3s2.4,5.3,5.3,5.3c2.9,0,5.3-2.4,5.3-5.3S25.2,11.3,22.3,11.3z M22.3,17.9
	c-0.8,0-1.4-0.6-1.4-1.4c0-0.8,0.6-1.4,1.4-1.4c0.8,0,1.4,0.6,1.4,1.4C23.6,17.3,23,17.9,22.3,17.9z"/>
</svg>
