<?xml version="1.0" encoding="utf-8"?>
<!-- Generator: Adobe Illustrator 16.0.0, SVG Export Plug-In . SVG Version: 6.00 Build 0)  -->
<!DOCTYPE svg PUBLIC "-//W3C//DTD SVG 1.1//EN" "http://www.w3.org/Graphics/SVG/1.1/DTD/svg11.dtd">
<svg version="1.1" id="Layer_1" xmlns="http://www.w3.org/2000/svg" xmlns:xlink="http://www.w3.org/1999/xlink" x="0px" y="0px"
	 width="20px" height="20px" viewBox="0 0 20 20" enable-background="new 0 0 20 20" xml:space="preserve">
<path fill="#CFCFD1" d="M10,9.646c2.274,0,4.118-2.158,4.118-4.82c0-3.691-1.844-4.819-4.118-4.819S5.883,1.135,5.883,4.826
	C5.883,7.488,7.727,9.646,10,9.646L10,9.646z M10,9.646"/>
<path fill="#CFCFD1" d="M19.092,16.739l-2.077-4.682c-0.095-0.212-0.261-0.391-0.47-0.498l-3.224-1.678
	c-0.07-0.038-0.156-0.032-0.221,0.019c-0.911,0.69-1.985,1.052-3.1,1.052c-1.117,0-2.188-0.362-3.101-1.052
	C6.836,9.85,6.75,9.844,6.679,9.882L3.455,11.56c-0.208,0.107-0.375,0.286-0.468,0.498l-2.078,4.682
	c-0.143,0.321-0.115,0.69,0.078,0.986s0.517,0.472,0.871,0.472h2.271c0.753,1.043,2.907,1.796,5.449,1.796
	c2.542,0,4.695-0.753,5.449-1.796h3.116c0.352,0,0.68-0.176,0.871-0.472S19.234,17.061,19.092,16.739z M10.657,18.04L10,19.074
	L9.344,18.04l-0.657-1.036L10,11.481l1.312,5.522L10.657,18.04z"/>
<g>
</g>
<g>
</g>
<g>
</g>
<g>
</g>
<g>
</g>
<g>
</g>
</svg>
