<?xml version="1.0" encoding="utf-8"?>
<!-- Generator: Adobe Illustrator 16.0.0, SVG Export Plug-In . SVG Version: 6.00 Build 0)  -->
<!DOCTYPE svg PUBLIC "-//W3C//DTD SVG 1.1//EN" "http://www.w3.org/Graphics/SVG/1.1/DTD/svg11.dtd">
<svg version="1.1" id="Layer_1" xmlns="http://www.w3.org/2000/svg" xmlns:xlink="http://www.w3.org/1999/xlink" x="0px" y="0px"
	 width="24px" height="24px" viewBox="0 0 24 24" enable-background="new 0 0 24 24" xml:space="preserve">
<g>
	<path fill="#CFCFCF" d="M1.146,3.869C1.336,3.8,1.537,3.754,1.75,3.754h20.538c0.216,0,0.417,0.045,0.606,0.115l-9.204,8.669
		c-0.935,0.883-2.404,0.883-3.34,0L1.146,3.869z M23.771,19.274c0.161-0.264,0.258-0.568,0.258-0.898V5.496
		c0-0.233-0.047-0.456-0.13-0.661l-8.613,8.113L23.771,19.274z M14.507,13.67c-0.714,0.612-1.6,0.923-2.486,0.923
		c-0.889,0-1.776-0.311-2.488-0.923l-8.464,6.308c0.208,0.089,0.439,0.14,0.681,0.14h20.538c0.244,0,0.474-0.051,0.683-0.14
		L14.507,13.67z M0.141,4.835C0.058,5.04,0.01,5.262,0.01,5.496v12.88c0,0.33,0.098,0.635,0.257,0.898l8.486-6.326L0.141,4.835z
		 M0.141,4.835"/>
</g>
<g>
</g>
<g>
</g>
<g>
</g>
<g>
</g>
<g>
</g>
<g>
</g>
</svg>
