<?xml version="1.0" encoding="utf-8"?>
<!-- Generator: Adobe Illustrator 16.0.0, SVG Export Plug-In . SVG Version: 6.00 Build 0)  -->
<!DOCTYPE svg PUBLIC "-//W3C//DTD SVG 1.1//EN" "http://www.w3.org/Graphics/SVG/1.1/DTD/svg11.dtd">
<svg version="1.1" id="Layer_1" xmlns="http://www.w3.org/2000/svg" xmlns:xlink="http://www.w3.org/1999/xlink" x="0px" y="0px"
	 width="23px" height="23px" viewBox="0 0 23 23" enable-background="new 0 0 23 23" xml:space="preserve">
<g>
	<path fill="#FFFFFF" d="M10.496,16.41H7.86L3.606,9.012H3.546c0.085,1.306,0.127,2.238,0.127,2.796v4.602H1.82V6.631h2.615
		l4.247,7.325h0.047c-0.065-1.272-0.1-2.17-0.1-2.697V6.631h1.866V16.41z"/>
	<path fill="#FFFFFF" d="M18.944,16.41l-0.708-2.327H14.67l-0.709,2.327h-2.233l3.451-9.819h2.535l3.465,9.819H18.944z
		 M17.74,12.344c-0.655-2.109-1.025-3.303-1.107-3.58c-0.081-0.276-0.143-0.495-0.177-0.655c-0.146,0.57-0.567,1.982-1.265,4.234
		H17.74z"/>
</g>
</svg>
