<?xml version="1.0" encoding="utf-8"?>
<!-- Generator: Adobe Illustrator 16.0.0, SVG Export Plug-In . SVG Version: 6.00 Build 0)  -->
<!DOCTYPE svg PUBLIC "-//W3C//DTD SVG 1.1//EN" "http://www.w3.org/Graphics/SVG/1.1/DTD/svg11.dtd">
<svg version="1.1" id="Layer_1" xmlns="http://www.w3.org/2000/svg" xmlns:xlink="http://www.w3.org/1999/xlink" x="0px" y="0px"
	 width="23px" height="23px" viewBox="0 0 23 23" enable-background="new 0 0 23 23" xml:space="preserve">
<g>
	<path fill="#FFFFFF" d="M17.178,16.056c0.67-2.606,4.168-3.877,3.054-9.18c-1.136-5.303-7.374-5.838-10.605-5.013
		C6.283,2.73,3.61,6.296,4.5,9.259c0.067,0.223,0.023,0.468-0.111,0.668c-0.401,0.624-1.515,2.006-1.804,2.807
		c-0.112,0.291,0.067,0.604,0.356,0.691c0.088,0.023,0.668,0.245,0.757,0.267c0.78,0.245,0.624,1.961,0.624,3.521
		c0,1.625,1.738,1.403,2.295,1.292c0.58-0.133,1.85-0.244,1.85,1.313c0,0.202,0,0.379,0.022,0.514
		c0.022,0.313,0.223,0.579,0.512,0.691c1.137,0.444,4.457,1.135,8.468-0.312c0.244-0.091,0.333-0.357,0.223-0.58
		C17.335,19.419,16.666,17.993,17.178,16.056z M12.546,15.454h-0.091c-0.624,0-1.137-0.513-1.137-1.137
		c0-0.625,0.513-1.136,1.137-1.136h0.091c0.623,0,1.135,0.511,1.135,1.136C13.681,14.941,13.169,15.454,12.546,15.454z
		 M15.932,8.836c-0.2,0.289-0.58,0.646-1.138,1.091l-0.556,0.424c-0.313,0.245-0.514,0.512-0.603,0.823
		c0,0.023-0.021,0.068-0.021,0.09c-0.112,0.489-0.534,0.847-1.024,0.847h-0.044c-0.648,0-1.138-0.579-1.026-1.204
		c0.044-0.267,0.089-0.467,0.156-0.624c0.133-0.334,0.49-0.736,1.047-1.159l0.579-0.445c0.178-0.134,0.334-0.29,0.446-0.468
		c0.513-0.757,0.4-1.827-0.424-2.339c-0.646-0.401-1.76-0.268-2.183,0.424c-0.111,0.178-0.201,0.356-0.246,0.534
		c-0.155,0.446-0.601,0.736-1.069,0.736c-0.758,0-1.315-0.736-1.07-1.471C9.001,5.36,9.447,4.781,10.071,4.38
		c1.515-0.958,3.787-0.78,5.236,0.245c0.78,0.557,1.179,1.403,1.179,2.518C16.443,7.789,16.266,8.368,15.932,8.836z"/>
</g>
</svg>
