<?xml version="1.0" encoding="utf-8"?>
<!-- Generator: Adobe Illustrator 19.0.0, SVG Export Plug-In . SVG Version: 6.00 Build 0)  -->
<svg version="1.1" id="Layer_1" xmlns="http://www.w3.org/2000/svg" xmlns:xlink="http://www.w3.org/1999/xlink" x="0px" y="0px"
	 viewBox="0 0 23 23" style="enable-background:new 0 0 23 23;" xml:space="preserve">
<style type="text/css">
	.st0{fill:#FB6A31;}
</style>
<path id="XMLID_54_" class="st0" d="M22.8,20.7l-10-19.9C12.5,0.3,12.1,0,11.5,0c-0.5,0-1,0.3-1.3,0.8L0.2,20.7
	c-0.2,0.5-0.2,1,0,1.5C0.5,22.7,0.9,23,1.4,23h20.1c0.5,0,1-0.3,1.2-0.7C23.1,21.8,23.1,21.2,22.8,20.7L22.8,20.7z M11.5,19.9
	c-0.8,0-1.4-0.7-1.4-1.5c0-0.8,0.7-1.5,1.4-1.5c0.8,0,1.4,0.7,1.4,1.5C13,19.2,12.3,19.9,11.5,19.9L11.5,19.9z M13,13.8
	c0,0.9-0.6,1.5-1.4,1.5c-0.8,0-1.4-0.7-1.4-1.5V7.7c0-0.8,0.7-1.5,1.4-1.5c0.8,0,1.4,0.7,1.4,1.5V13.8z M13,13.8"/>
<g id="XMLID_14_">
</g>
<g id="XMLID_15_">
</g>
<g id="XMLID_16_">
</g>
<g id="XMLID_17_">
</g>
<g id="XMLID_18_">
</g>
<g id="XMLID_19_">
</g>
</svg>
