<?xml version="1.0" encoding="utf-8"?>
<!-- Generator: Adobe Illustrator 16.0.0, SVG Export Plug-In . SVG Version: 6.00 Build 0)  -->
<!DOCTYPE svg PUBLIC "-//W3C//DTD SVG 1.1//EN" "http://www.w3.org/Graphics/SVG/1.1/DTD/svg11.dtd">
<svg version="1.1" id="Layer_1" xmlns="http://www.w3.org/2000/svg" xmlns:xlink="http://www.w3.org/1999/xlink" x="0px" y="0px"
	 width="24px" height="24px" viewBox="0 0 24 24" enable-background="new 0 0 24 24" xml:space="preserve">
<path fill="#CFCFCF" d="M20.188,15.939c-0.264-0.232-0.516-0.451-0.664-0.719c-0.004-0.01-0.01-0.02-0.016-0.027
	c-0.467-0.746-0.619-2.376-0.721-3.455c-0.014-0.146-0.027-0.282-0.039-0.413c-0.002-0.008-0.002-0.018-0.004-0.025
	c-0.201-1.406-0.697-3.432-1.924-5.091c-0.898-1.216-2.043-2.008-3.361-2.337V3.777c0-0.804-0.655-1.457-1.459-1.457
	c-0.804,0-1.458,0.653-1.458,1.457v0.096C9.223,4.202,8.078,4.994,7.181,6.209C5.954,7.869,5.457,9.894,5.256,11.3
	c-0.001,0.008-0.002,0.018-0.004,0.025c-0.013,0.131-0.025,0.268-0.039,0.413c-0.101,1.078-0.254,2.708-0.721,3.455
	c-0.006,0.008-0.011,0.018-0.016,0.027c-0.148,0.268-0.399,0.486-0.664,0.719c-0.587,0.516-1.476,1.293-0.676,2.777
	c0.106,0.197,0.312,0.318,0.534,0.318H9.12c0.127,1.479,1.369,2.645,2.88,2.645c1.512,0,2.754-1.166,2.879-2.645h5.449
	c0.225,0,0.428-0.121,0.535-0.318C21.664,17.232,20.775,16.455,20.188,15.939L20.188,15.939z M12,20.148
	c-0.665,0-1.219-0.48-1.336-1.113h2.672C13.219,19.668,12.666,20.148,12,20.148L12,20.148z M12,20.148"/>
<g>
</g>
<g>
</g>
<g>
</g>
<g>
</g>
<g>
</g>
<g>
</g>
</svg>
