<?xml version="1.0" encoding="utf-8"?>
<!-- Generator: Adobe Illustrator 19.0.0, SVG Export Plug-In . SVG Version: 6.00 Build 0)  -->
<svg version="1.1" id="Layer_1" xmlns="http://www.w3.org/2000/svg" xmlns:xlink="http://www.w3.org/1999/xlink" x="0px" y="0px"
	 viewBox="0 0 33.8 33.8" style="enable-background:new 0 0 33.8 33.8;" xml:space="preserve">
<style type="text/css">
	.st0{fill:#1F96D3;}
	.st1{fill:#FFFFFF;}
</style>
<circle id="XMLID_26_" class="st0" cx="16.9" cy="16.9" r="16.9"/>
<path id="XMLID_37_" class="st1" d="M18.7,24.3H9.6V9h12.7v5.9c0.2,0,0.4,0,0.7,0c0.2,0,0.4,0,0.6,0v-3.4h0v-1.3h0V9
	c0-0.7-0.6-1.3-1.3-1.3H9.6C8.9,7.7,8.3,8.3,8.3,9v15.3c0,0.7,0.6,1.3,1.3,1.3h1.3h1.3h8.1C19.7,25.2,19.1,24.8,18.7,24.3z"/>
<rect id="XMLID_33_" x="12.7" y="10.6" class="st1" width="8.3" height="1.2"/>
<circle id="XMLID_32_" class="st1" cx="11.6" cy="11.2" r="0.6"/>
<path id="XMLID_31_" class="st1" d="M20.3,15.4c0.1-0.1,0.2-0.1,0.3-0.2c0,0,0,0,0.1,0c0.1,0,0.2-0.1,0.3-0.1c0,0,0,0,0,0v-0.9h-8.3
	v1.2H20.3L20.3,15.4z"/>
<path id="XMLID_30_" class="st1" d="M18,17.8h-5.3V19h4.8C17.6,18.6,17.8,18.2,18,17.8z"/>
<path id="XMLID_29_" class="st1" d="M17.4,21.5h-4.7v1.2h5C17.6,22.3,17.5,21.9,17.4,21.5z"/>
<circle id="XMLID_28_" class="st1" cx="11.6" cy="14.8" r="0.6"/>
<circle id="XMLID_27_" class="st1" cx="11.6" cy="18.4" r="0.6"/>
<circle id="XMLID_25_" class="st1" cx="11.6" cy="22.1" r="0.6"/>
<g id="XMLID_39_">
	<path id="XMLID_43_" class="st1" d="M23,15.6c-2.8,0-5,2.2-5,5c0,2.8,2.2,5,5,5c2.8,0,5-2.2,5-5C28,17.8,25.8,15.6,23,15.6L23,15.6
		z M23,24.5c-2.2,0-3.9-1.8-3.9-3.9c0-2.2,1.8-3.9,3.9-3.9c2.2,0,3.9,1.8,3.9,3.9C27,22.8,25.2,24.5,23,24.5L23,24.5z M23,24.5"/>
	<path id="XMLID_40_" class="st1" d="M25.6,20.4h-2.2v-2.7c0-0.2-0.2-0.4-0.4-0.4c-0.2,0-0.4,0.2-0.4,0.4v3.1c0,0.2,0.2,0.4,0.4,0.4
		h2.7c0.2,0,0.4-0.2,0.4-0.4C26,20.6,25.9,20.4,25.6,20.4L25.6,20.4z M25.6,20.4"/>
</g>
<g id="XMLID_14_">
</g>
<g id="XMLID_15_">
</g>
<g id="XMLID_16_">
</g>
<g id="XMLID_17_">
</g>
<g id="XMLID_18_">
</g>
<g id="XMLID_19_">
</g>
</svg>
