<?xml version="1.0" encoding="utf-8"?>
<!-- Generator: Adobe Illustrator 20.1.0, SVG Export Plug-In . SVG Version: 6.00 Build 0)  -->
<svg version="1.1" id="Layer_1" xmlns="http://www.w3.org/2000/svg" xmlns:xlink="http://www.w3.org/1999/xlink" x="0px" y="0px"
	 viewBox="0 0 25 25" style="enable-background:new 0 0 25 25;" xml:space="preserve">
<style type="text/css">
	.st0{fill:#CFCFCF;}
</style>
<path id="XMLID_594_" class="st0" d="M12.5,12.9c1.8,0,3.2-1.7,3.2-3.8c0-2.9-1.4-3.8-3.2-3.8S9.3,6.2,9.3,9.1
	C9.3,11.2,10.7,12.9,12.5,12.9z"/>
<path id="XMLID_593_" class="st0" d="M18,14.8c-0.1-0.2-0.2-0.3-0.4-0.4l-2.5-1.3c-0.1,0-0.1,0-0.2,0c-0.7,0.5-1.6,0.8-2.4,0.8
	c-0.9,0-1.7-0.3-2.4-0.8c0,0-0.1,0-0.2,0l-2.5,1.3c-0.2,0.1-0.3,0.2-0.4,0.4l-1.3,3c1.7,1.8,4.1,2.9,6.8,2.9c1.2,0,2.3-0.2,3.4-0.6
	c0.2-0.2,1.1-0.5,1.1-0.5c0.9-0.5,1.7-1.1,2.3-1.8L18,14.8z"/>
<path id="XMLID_592_" class="st0" d="M5.8,11.4c1.4,0,2.6-1.4,2.6-3.1c0-2.3-1.2-3.1-2.6-3.1C4.3,5.3,3.2,6,3.2,8.4
	C3.2,10.1,4.3,11.4,5.8,11.4z"/>
<path id="XMLID_596_" class="st0" d="M19.3,11.5c1.4,0,2.6-1.4,2.6-3.1c0-2.3-1.2-3.1-2.6-3.1S16.7,6,16.7,8.4
	C16.7,10.1,17.8,11.5,19.3,11.5z"/>
<path class="st0" d="M6.5,14.6c0.1-0.3,0.4-0.5,0.6-0.7l2.5-1.3h0.1l-1.8-1H7.8c-0.6,0.4-1.3,0.7-2,0.7s-1.4-0.2-2-0.7H3.7l-2,1.1
	c-0.1,0.1-0.2,0.2-0.3,0.3l-1.1,2.4c1.2,1.3,2.9,2.2,4.8,2.3L6.5,14.6z"/>
<path class="st0" d="M23.7,13c-0.1-0.1-0.2-0.2-0.3-0.3l-2-1.1h-0.1c-0.6,0.4-1.3,0.7-2,0.7s-1.4-0.2-2-0.7h-0.1l-1.8,0.9l2.5,1.3
	c0.3,0.1,0.5,0.4,0.6,0.7l1.4,3.3c0.7-0.1,1.4-0.2,2.1-0.5c0.2-0.1,0.9-0.4,0.9-0.4c0.7-0.4,1.3-0.9,1.9-1.5L23.7,13z"/>
</svg>
