<?xml version="1.0" encoding="utf-8"?>
<!-- Generator: Adobe Illustrator 20.1.0, SVG Export Plug-In . SVG Version: 6.00 Build 0)  -->
<svg version="1.1" id="Layer_1" xmlns="http://www.w3.org/2000/svg" xmlns:xlink="http://www.w3.org/1999/xlink" x="0px" y="0px"
	 viewBox="0 0 25 25" style="enable-background:new 0 0 25 25;" xml:space="preserve">
<style type="text/css">
	.st0{fill:#FFFFFF;}
</style>
<path class="st0" d="M22.4,5.5C22.4,5.5,22.4,5.5,22.4,5.5V4.2V2.4c0,0,0-0.1,0.1-0.1c0.2,0,0.4-0.2,0.4-0.4V1.3
	c0-0.2-0.2-0.4-0.4-0.4H9.6c-0.2,0-0.4,0.2-0.4,0.4V2c0,0.2,0.2,0.4,0.4,0.4c0.1,0,0.1,0.1,0.1,0.1v2.9c0,0,0,0.3-0.1,0.3h-6
	C3.1,5.7,2.8,6,2.8,6.4v15.8c0,0.1-0.1,0.2-0.2,0.2H2.3c-0.2,0-0.4,0.2-0.4,0.4v0.8c0,0.2,0.2,0.4,0.4,0.4h20.1V5.5z M8.3,20
	c0,0.2-0.1,0.3-0.3,0.3H5.6c-0.2,0-0.3-0.1-0.3-0.3v-2.4c0-0.2,0.1-0.3,0.3-0.3H8c0.2,0,0.3,0.1,0.3,0.3V20z M8.3,16
	c0,0.2-0.1,0.3-0.3,0.3H5.6c-0.2,0-0.3-0.1-0.3-0.3v-2.4c0-0.2,0.1-0.3,0.3-0.3H8c0.2,0,0.3,0.1,0.3,0.3V16z M8.3,11.8
	c0,0.2-0.1,0.3-0.3,0.3H5.6c-0.2,0-0.3-0.1-0.3-0.3V9.4C5.3,9.2,5.5,9,5.6,9H8c0.2,0,0.3,0.1,0.3,0.3V11.8z M11.8,5.2
	c0-0.2,0.1-0.3,0.3-0.3h2.4c0.2,0,0.3,0.1,0.3,0.3v2.4c0,0.2-0.1,0.3-0.3,0.3h-2.4c-0.2,0-0.3-0.1-0.3-0.3V5.2z M11.8,9.4
	c0-0.2,0.1-0.3,0.3-0.3h2.4c0.2,0,0.3,0.1,0.3,0.3v2.4c0,0.2-0.1,0.3-0.3,0.3h-2.4c-0.2,0-0.3-0.1-0.3-0.3V9.4z M11.8,15.9v-2.4
	c0-0.2,0.1-0.3,0.3-0.3h2.4c0.2,0,0.3,0.1,0.3,0.3v2.4c0,0.2-0.1,0.3-0.3,0.3h-2.4C11.9,16.2,11.8,16.1,11.8,15.9z M18.2,22
	c0,0.2-0.1,0.3-0.3,0.3h-3.7c-0.2,0-0.3-0.1-0.3-0.3v-3.7c0-0.2,0.1-0.3,0.3-0.3h3.7c0.2,0,0.3,0.1,0.3,0.3V22z M20.3,15.9
	c0,0.2-0.1,0.3-0.3,0.3h-2.4c-0.2,0-0.3-0.1-0.3-0.3v-2.4c0-0.2,0.1-0.3,0.3-0.3H20c0.2,0,0.3,0.1,0.3,0.3V15.9z M20.3,11.8
	c0,0.2-0.1,0.3-0.3,0.3h-2.4c-0.2,0-0.3-0.1-0.3-0.3V9.4c0-0.2,0.1-0.3,0.3-0.3H20c0.2,0,0.3,0.1,0.3,0.3V11.8z M20.3,7.6
	C20.3,7.8,20.1,8,20,8h-2.4c-0.2,0-0.3-0.1-0.3-0.3V5.2c0-0.2,0.1-0.3,0.3-0.3H20c0.2,0,0.3,0.1,0.3,0.3V7.6z"/>
</svg>
