<?xml version="1.0" encoding="utf-8"?>
<!-- Generator: Adobe Illustrator 19.0.0, SVG Export Plug-In . SVG Version: 6.00 Build 0)  -->
<svg version="1.1" id="Layer_1" xmlns="http://www.w3.org/2000/svg" xmlns:xlink="http://www.w3.org/1999/xlink" x="0px" y="0px"
	 viewBox="0 0 40 40" style="enable-background:new 0 0 40 40;" xml:space="preserve">
<style type="text/css">
	.st0{fill:#CFD0D0;}
</style>
<g id="XMLID_9_">
	<path id="XMLID_7_" class="st0" d="M12.1,25.5c0-0.6-0.4-1-1.2-1c-0.3,0-0.5,0-0.6,0.1v2c0.1,0,0.3,0,0.5,0
		C11.6,26.7,12.1,26.2,12.1,25.5z"/>
	<path id="XMLID_6_" class="st0" d="M16.9,24.6c-0.3,0-0.6,0-0.7,0.1v4.5c0.1,0,0.3,0,0.5,0c1.4,0,2.3-0.8,2.3-2.4
		C19,25.3,18.2,24.6,16.9,24.6z"/>
	<path id="XMLID_10_" class="st0" d="M25.7,1.2H10.5c-2.2,0-4,1.8-4,4v14.9H6.1c-0.9,0-1.6,0.7-1.6,1.6v9.9c0,0.9,0.7,1.6,1.6,1.6
		h0.4V35c0,2.2,1.8,4,4,4h20.8c2.2,0,4-1.8,4-4V10.7L25.7,1.2z M8.7,23.5c0.5-0.1,1.1-0.1,2.1-0.1c1,0,1.6,0.2,2.1,0.5
		c0.4,0.3,0.7,0.9,0.7,1.6c0,0.7-0.2,1.2-0.6,1.6c-0.5,0.5-1.3,0.7-2.2,0.7c-0.2,0-0.4,0-0.5,0v2.4H8.7V23.5z M31.3,36.6H10.5
		c-0.9,0-1.6-0.7-1.6-1.6v-1.8h19.4c0.9,0,1.6-0.7,1.6-1.6v-9.9c0-0.9-0.7-1.6-1.6-1.6H8.9V5.2c0-0.9,0.7-1.6,1.6-1.6l14.3,0v5.3
		c0,1.5,1.3,2.8,2.8,2.8l5.2,0L32.8,35C32.8,35.9,32.1,36.6,31.3,36.6z M14.6,30.2v-6.7c0.6-0.1,1.3-0.1,2.1-0.1
		c1.3,0,2.1,0.2,2.8,0.7c0.7,0.5,1.2,1.4,1.2,2.6c0,1.3-0.5,2.2-1.1,2.8c-0.7,0.6-1.8,0.9-3.2,0.9C15.6,30.3,15,30.3,14.6,30.2z
		 M25.7,26.3v1.3h-2.5v2.7h-1.6v-6.8h4.2v1.3h-2.6v1.6H25.7z"/>
</g>
</svg>
