<?xml version="1.0" encoding="utf-8"?>
<!-- Generator: Adobe Illustrator 19.0.0, SVG Export Plug-In . SVG Version: 6.00 Build 0)  -->
<svg version="1.1" id="Layer_1" xmlns="http://www.w3.org/2000/svg" xmlns:xlink="http://www.w3.org/1999/xlink" x="0px" y="0px"
	 viewBox="0 0 20 20" style="enable-background:new 0 0 20 20;" xml:space="preserve">
<style type="text/css">
	.st0{fill:#FFFFFF;}
</style>
<g id="XMLID_15_">
	<path id="XMLID_27_" class="st0" d="M5.8,10.2c0-0.5-0.4-0.9-1-0.9c-0.3,0-0.5,0-0.5,0.1v1.7c0.1,0,0.3,0,0.4,0
		C5.4,11.2,5.8,10.8,5.8,10.2L5.8,10.2z M5.8,10.2"/>
	<path id="XMLID_24_" class="st0" d="M9.9,9.4c-0.3,0-0.5,0-0.6,0.1v3.8c0.1,0,0.3,0,0.5,0c1.2,0,2-0.7,2-2.1
		C11.8,10,11,9.4,9.9,9.4L9.9,9.4z M9.9,9.4"/>
	<path id="XMLID_16_" class="st0" d="M17.7,7.2h-0.5V4.8c0,0,0,0,0,0c0-0.1,0-0.2-0.1-0.3l-3.9-4.4c0,0,0,0,0,0c0,0,0,0-0.1-0.1
		c0,0,0,0,0,0c0,0-0.1,0-0.1,0c0,0,0,0,0,0c0,0-0.1,0-0.1,0H3.5C3.1,0,2.7,0.4,2.7,0.8v6.4H2.3c-0.6,0-1.1,0.5-1.1,1.1v5.8
		c0,0.6,0.5,1.1,1.1,1.1h0.5v4c0,0.4,0.4,0.8,0.8,0.8h12.9c0.4,0,0.8-0.4,0.8-0.8v-4h0.5c0.6,0,1.1-0.5,1.1-1.1V8.3
		C18.9,7.7,18.4,7.2,17.7,7.2L17.7,7.2z M3.5,0.8h9.1v4c0,0.2,0.2,0.4,0.4,0.4h3.5v2H3.5V0.8z M13.2,11.2c0,1.1-0.4,1.9-1,2.4
		c-0.6,0.5-1.6,0.8-2.7,0.8c-0.7,0-1.2,0-1.5-0.1V8.5c0.5-0.1,1.1-0.1,1.8-0.1c1.1,0,1.8,0.2,2.4,0.6C12.8,9.5,13.2,10.2,13.2,11.2
		L13.2,11.2z M2.9,14.3V8.5c0.4-0.1,1-0.1,1.8-0.1c0.8,0,1.4,0.2,1.8,0.5c0.4,0.3,0.6,0.8,0.6,1.4c0,0.6-0.2,1.1-0.5,1.4
		c-0.5,0.4-1.1,0.6-1.9,0.6c-0.2,0-0.3,0-0.5,0v2.1H2.9z M16.5,19H3.5v-3.8h12.9V19z M17.6,9.5h-2.2v1.3h2.1v1.1h-2.1v2.4H14V8.4
		h3.6V9.5z M17.6,9.5"/>
</g>
<g id="XMLID_1_">
</g>
<g id="XMLID_2_">
</g>
<g id="XMLID_3_">
</g>
<g id="XMLID_4_">
</g>
<g id="XMLID_5_">
</g>
<g id="XMLID_6_">
</g>
</svg>
