<?xml version="1.0" encoding="utf-8"?>
<!-- Generator: Adobe Illustrator 19.0.0, SVG Export Plug-In . SVG Version: 6.00 Build 0)  -->
<svg version="1.1" id="Layer_1" xmlns="http://www.w3.org/2000/svg" xmlns:xlink="http://www.w3.org/1999/xlink" x="0px" y="0px"
	 viewBox="0 0 662.2 353" style="enable-background:new 0 0 662.2 353;" xml:space="preserve">
<style type="text/css">
	.st0{fill:url(#XMLID_190_);}
	.st1{fill:url(#XMLID_191_);}
	.st2{fill:url(#XMLID_192_);}
	.st3{fill:url(#XMLID_193_);}
	.st4{fill:url(#XMLID_194_);}
	.st5{fill:url(#XMLID_195_);}
	.st6{fill:url(#XMLID_196_);}
	.st7{fill:url(#XMLID_197_);}
	.st8{fill:url(#XMLID_198_);}
	.st9{fill:url(#XMLID_199_);}
	.st10{fill:#0C4E97;}
	.st11{fill:#FFFFFF;}
	.st12{fill:#0A4F97;}
	.st13{fill:#00B2AC;}
	.st14{fill:#1689CA;}
</style>
<linearGradient id="XMLID_190_" gradientUnits="userSpaceOnUse" x1="232.9839" y1="77.8724" x2="519.7756" y2="76.8947">
	<stop  offset="0" style="stop-color:#FFFFFF"/>
	<stop  offset="0.5" style="stop-color:#22B0AB;stop-opacity:0.5"/>
</linearGradient>
<polygon id="XMLID_30_" class="st0" points="486.5,47.7 233.1,47.7 233.1,107 520.7,107 "/>
<linearGradient id="XMLID_191_" gradientUnits="userSpaceOnUse" x1="269.187" y1="139.5682" x2="555.7652" y2="138.5912">
	<stop  offset="0" style="stop-color:#FFFFFF"/>
	<stop  offset="0.5" style="stop-color:#22B0AB;stop-opacity:0.5"/>
</linearGradient>
<polygon id="XMLID_29_" class="st1" points="521.9,108.9 269.3,108.9 269.3,169.3 556.7,169.3 "/>
<linearGradient id="XMLID_192_" gradientUnits="userSpaceOnUse" x1="304.9375" y1="201.4436" x2="591.4094" y2="200.467">
	<stop  offset="0" style="stop-color:#FFFFFF"/>
	<stop  offset="0.5" style="stop-color:#22B0AB;stop-opacity:0.5"/>
</linearGradient>
<polygon id="XMLID_28_" class="st2" points="557.7,170.9 305,170.9 305,231 592.4,231 "/>
<linearGradient id="XMLID_193_" gradientUnits="userSpaceOnUse" x1="340.9375" y1="262.7754" x2="627.1975" y2="261.7995">
	<stop  offset="0" style="stop-color:#FFFFFF"/>
	<stop  offset="0.5" style="stop-color:#22B0AB;stop-opacity:0.5"/>
</linearGradient>
<polygon id="XMLID_27_" class="st3" points="593.5,232.3 341,232.3 341,292.3 628.1,292.3 "/>
<linearGradient id="XMLID_194_" gradientUnits="userSpaceOnUse" x1="376.3142" y1="323.1115" x2="661.2487" y2="322.1401">
	<stop  offset="0" style="stop-color:#FFFFFF"/>
	<stop  offset="0.5" style="stop-color:#22B0AB;stop-opacity:0.5"/>
</linearGradient>
<polygon id="XMLID_26_" class="st4" points="628.8,293.7 376.4,293.7 376.4,351.5 662.2,351.5 "/>
<linearGradient id="XMLID_195_" gradientUnits="userSpaceOnUse" x1="141.8235" y1="334.9107" x2="187.1568" y2="95.5774">
	<stop  offset="7.000000e-002" style="stop-color:#FFFFFF"/>
	<stop  offset="0.5" style="stop-color:#22B0AB"/>
	<stop  offset="0.9847" style="stop-color:#1689CA"/>
</linearGradient>
<polygon id="XMLID_25_" class="st5" points="233.2,47.7 58.6,346.1 58.7,346.1 55.6,351.5 125.3,351.5 265.1,112.6 265,112.5 
	268.1,107.2 "/>
<linearGradient id="XMLID_196_" gradientUnits="userSpaceOnUse" x1="199.5004" y1="345.9059" x2="244.6694" y2="107.4405">
	<stop  offset="7.000000e-002" style="stop-color:#FFFFFF"/>
	<stop  offset="0.5" style="stop-color:#22B0AB"/>
	<stop  offset="0.9847" style="stop-color:#1689CA"/>
</linearGradient>
<polygon id="XMLID_24_" class="st6" points="304.1,169.2 269.3,108.9 130,346.8 130.1,346.8 127.3,351.5 197.4,351.5 301.9,173.1 
	301.9,173.1 "/>
<linearGradient id="XMLID_197_" gradientUnits="userSpaceOnUse" x1="257.0946" y1="356.7913" x2="302.0613" y2="119.3934">
	<stop  offset="7.000000e-002" style="stop-color:#FFFFFF"/>
	<stop  offset="0.5" style="stop-color:#22B0AB"/>
	<stop  offset="0.9847" style="stop-color:#1689CA"/>
</linearGradient>
<polygon id="XMLID_23_" class="st7" points="305.2,170.9 303.9,173.1 303.8,173 199.3,351.5 234.6,351.5 268.9,351.5 271,348 
	271.2,348 339.8,230.9 "/>
<linearGradient id="XMLID_198_" gradientUnits="userSpaceOnUse" x1="314.6915" y1="367.5907" x2="359.6559" y2="130.2049">
	<stop  offset="7.000000e-002" style="stop-color:#FFFFFF"/>
	<stop  offset="0.5" style="stop-color:#22B0AB"/>
	<stop  offset="0.9847" style="stop-color:#1689CA"/>
</linearGradient>
<polygon id="XMLID_22_" class="st8" points="341,232.3 340.7,232.9 340.6,232.7 271.1,351.5 340.7,351.5 341.5,350.1 341.7,350.1 
	375.6,292.2 "/>
<linearGradient id="XMLID_199_" gradientUnits="userSpaceOnUse" x1="371.2669" y1="377.8217" x2="415.4372" y2="144.6288">
	<stop  offset="7.000000e-002" style="stop-color:#FFFFFF"/>
	<stop  offset="0.5" style="stop-color:#22B0AB"/>
	<stop  offset="0.9847" style="stop-color:#1689CA"/>
</linearGradient>
<polygon id="XMLID_21_" class="st9" points="376.5,293.7 342.6,351.5 409.9,351.5 "/>
<g id="XMLID_20_">
	<path id="XMLID_167_" class="st10" d="M283,83.6h-1.2V74h-3.4v-1.1h8V74H283V83.6z"/>
	<path id="XMLID_169_" class="st10" d="M296.2,83.6h-1.2v-5h-5.6v5H288V72.9h1.2v4.6h5.6v-4.6h1.2V83.6z"/>
	<path id="XMLID_171_" class="st10" d="M300.3,79.2v4.5h-1.2V72.9h2.9c1.3,0,2.3,0.3,2.9,0.8c0.6,0.5,0.9,1.3,0.9,2.3
		c0,1.4-0.7,2.4-2.2,2.9l2.9,4.8h-1.5l-2.6-4.5H300.3z M300.3,78.1h1.7c0.9,0,1.5-0.2,1.9-0.5s0.6-0.9,0.6-1.6
		c0-0.7-0.2-1.2-0.6-1.5c-0.4-0.3-1.1-0.5-2-0.5h-1.6V78.1z"/>
	<path id="XMLID_174_" class="st10" d="M308.4,83.6V72.9h1.2v10.7H308.4z"/>
	<path id="XMLID_176_" class="st10" d="M318.7,72.9h1.3l-3.9,10.7h-1.2l-3.8-10.7h1.3l2.5,6.9c0.3,0.8,0.5,1.6,0.7,2.3
		c0.2-0.8,0.4-1.6,0.7-2.4L318.7,72.9z"/>
	<path id="XMLID_178_" class="st10" d="M321.5,83.6V72.9h1.2v10.7H321.5z"/>
	<path id="XMLID_180_" class="st10" d="M334,83.6h-1.4l-5.9-9h-0.1c0.1,1.1,0.1,2,0.1,2.9v6.1h-1.1V72.9h1.4l5.8,9h0.1
		c0-0.1,0-0.6-0.1-1.3c0-0.7,0-1.2,0-1.5v-6.1h1.2V83.6z"/>
	<path id="XMLID_182_" class="st10" d="M341.7,78h3.6v5.2c-0.6,0.2-1.1,0.3-1.7,0.4s-1.3,0.1-2,0.1c-1.6,0-2.9-0.5-3.8-1.4
		s-1.4-2.3-1.4-4.1c0-1.1,0.2-2.1,0.7-2.9c0.4-0.8,1.1-1.5,1.9-1.9c0.8-0.4,1.8-0.7,3-0.7c1.1,0,2.2,0.2,3.2,0.6l-0.5,1.1
		c-1-0.4-1.9-0.6-2.8-0.6c-1.3,0-2.3,0.4-3.1,1.2s-1.1,1.9-1.1,3.2c0,1.4,0.4,2.5,1.1,3.3c0.7,0.7,1.7,1.1,3.1,1.1
		c0.7,0,1.5-0.1,2.2-0.3v-3.3h-2.4V78z"/>
</g>
<g id="XMLID_19_">
	<path id="XMLID_124_" class="st10" d="M357.7,206.4l-3.6-9.5H354c0.1,0.8,0.1,1.6,0.1,2.7v6.8H353v-10.7h1.9l3.4,8.8h0.1l3.4-8.8
		h1.9v10.7h-1.2v-6.9c0-0.8,0-1.7,0.1-2.6h-0.1l-3.7,9.5H357.7z"/>
	<path id="XMLID_126_" class="st10" d="M373.2,206.4l-1.3-3.4h-4.3l-1.3,3.4H365l4.2-10.8h1l4.2,10.8H373.2z M371.5,201.9l-1.2-3.3
		c-0.2-0.4-0.3-0.9-0.5-1.5c-0.1,0.5-0.3,1-0.5,1.5l-1.3,3.3H371.5z"/>
	<path id="XMLID_129_" class="st10" d="M384.4,206.4H383l-5.9-9H377c0.1,1.1,0.1,2,0.1,2.9v6.1H376v-10.7h1.4l5.8,9h0.1
		c0-0.1,0-0.6-0.1-1.3c0-0.7,0-1.2,0-1.5v-6.1h1.2V206.4z"/>
	<path id="XMLID_131_" class="st10" d="M394,206.4l-1.3-3.4h-4.3l-1.3,3.4h-1.3l4.2-10.8h1l4.2,10.8H394z M392.3,201.9l-1.2-3.3
		c-0.2-0.4-0.3-0.9-0.5-1.5c-0.1,0.5-0.3,1-0.5,1.5l-1.3,3.3H392.3z"/>
	<path id="XMLID_134_" class="st10" d="M401.5,200.8h3.6v5.2c-0.6,0.2-1.1,0.3-1.7,0.4s-1.3,0.1-2,0.1c-1.6,0-2.9-0.5-3.8-1.4
		c-0.9-1-1.4-2.3-1.4-4.1c0-1.1,0.2-2.1,0.7-2.9c0.4-0.8,1.1-1.5,1.9-1.9c0.8-0.4,1.8-0.7,3-0.7c1.1,0,2.2,0.2,3.2,0.6l-0.5,1.1
		c-1-0.4-1.9-0.6-2.8-0.6c-1.3,0-2.3,0.4-3.1,1.2s-1.1,1.9-1.1,3.2c0,1.4,0.4,2.5,1.1,3.3c0.7,0.7,1.7,1.1,3.1,1.1
		c0.7,0,1.5-0.1,2.2-0.3v-3.3h-2.4V200.8z"/>
	<path id="XMLID_136_" class="st10" d="M413.7,206.4h-6v-10.7h6v1.1H409v3.5h4.4v1.1H409v3.9h4.7V206.4z"/>
	<path id="XMLID_138_" class="st10" d="M417.3,202v4.5h-1.2v-10.7h2.9c1.3,0,2.3,0.3,2.9,0.8c0.6,0.5,0.9,1.3,0.9,2.3
		c0,1.4-0.7,2.4-2.2,2.9l2.9,4.8h-1.5l-2.6-4.5H417.3z M417.3,200.9h1.7c0.9,0,1.5-0.2,1.9-0.5c0.4-0.3,0.6-0.9,0.6-1.6
		c0-0.7-0.2-1.2-0.6-1.5c-0.4-0.3-1.1-0.5-2-0.5h-1.6V200.9z"/>
	<path id="XMLID_141_" class="st10" d="M435.2,206.4h-6v-10.7h6v1.1h-4.7v3.5h4.4v1.1h-4.4v3.9h4.7V206.4z"/>
	<path id="XMLID_143_" class="st10" d="M438.8,206.4h-1.2v-10.7h6v1.1h-4.7v3.9h4.4v1.1h-4.4V206.4z"/>
	<path id="XMLID_145_" class="st10" d="M446.6,206.4h-1.2v-10.7h6v1.1h-4.7v3.9h4.4v1.1h-4.4V206.4z"/>
	<path id="XMLID_147_" class="st10" d="M459,206.4h-6v-10.7h6v1.1h-4.7v3.5h4.4v1.1h-4.4v3.9h4.7V206.4z"/>
	<path id="XMLID_149_" class="st10" d="M466,196.7c-1.2,0-2.1,0.4-2.8,1.2c-0.7,0.8-1,1.9-1,3.2c0,1.4,0.3,2.5,1,3.2
		c0.7,0.8,1.6,1.1,2.8,1.1c0.7,0,1.6-0.1,2.6-0.4v1.1c-0.7,0.3-1.7,0.4-2.7,0.4c-1.6,0-2.8-0.5-3.7-1.4c-0.9-1-1.3-2.3-1.3-4.1
		c0-1.1,0.2-2.1,0.6-2.9c0.4-0.8,1-1.5,1.8-1.9c0.8-0.4,1.7-0.7,2.8-0.7c1.1,0,2.1,0.2,2.9,0.6l-0.5,1.1
		C467.6,196.9,466.8,196.7,466,196.7z"/>
	<path id="XMLID_151_" class="st10" d="M474.2,206.4h-1.2v-9.6h-3.4v-1.1h8v1.1h-3.4V206.4z"/>
	<path id="XMLID_153_" class="st10" d="M479.2,206.4v-10.7h1.2v10.7H479.2z"/>
	<path id="XMLID_155_" class="st10" d="M489.5,195.7h1.3l-3.9,10.7h-1.2l-3.8-10.7h1.3l2.5,6.9c0.3,0.8,0.5,1.6,0.7,2.3
		c0.2-0.8,0.4-1.6,0.7-2.4L489.5,195.7z"/>
	<path id="XMLID_157_" class="st10" d="M498.2,206.4h-6v-10.7h6v1.1h-4.7v3.5h4.4v1.1h-4.4v3.9h4.7V206.4z"/>
	<path id="XMLID_159_" class="st10" d="M509,206.4h-1.4l-5.9-9h-0.1c0.1,1.1,0.1,2,0.1,2.9v6.1h-1.1v-10.7h1.4l5.8,9h0.1
		c0-0.1,0-0.6-0.1-1.3c0-0.7,0-1.2,0-1.5v-6.1h1.2V206.4z"/>
	<path id="XMLID_161_" class="st10" d="M517.9,206.4h-6v-10.7h6v1.1h-4.7v3.5h4.4v1.1h-4.4v3.9h4.7V206.4z"/>
	<path id="XMLID_163_" class="st10" d="M526.3,203.6c0,0.9-0.3,1.7-1,2.2s-1.6,0.8-2.8,0.8c-1.3,0-2.2-0.2-2.9-0.5v-1.2
		c0.4,0.2,0.9,0.3,1.4,0.4s1,0.2,1.5,0.2c0.8,0,1.5-0.2,1.9-0.5c0.4-0.3,0.6-0.8,0.6-1.3c0-0.4-0.1-0.7-0.2-0.9
		c-0.1-0.2-0.4-0.5-0.7-0.7c-0.3-0.2-0.9-0.4-1.6-0.7c-1-0.4-1.7-0.8-2.1-1.3c-0.4-0.5-0.6-1.1-0.6-1.9c0-0.8,0.3-1.5,0.9-2
		s1.4-0.7,2.5-0.7c1.1,0,2,0.2,2.9,0.6l-0.4,1.1c-0.9-0.4-1.7-0.6-2.6-0.6c-0.7,0-1.2,0.1-1.5,0.4c-0.4,0.3-0.6,0.7-0.6,1.2
		c0,0.4,0.1,0.7,0.2,0.9c0.1,0.2,0.4,0.5,0.7,0.7c0.3,0.2,0.8,0.4,1.5,0.7c1.1,0.4,1.9,0.8,2.3,1.3
		C526.1,202.2,526.3,202.8,526.3,203.6z"/>
	<path id="XMLID_165_" class="st10" d="M534.5,203.6c0,0.9-0.3,1.7-1,2.2s-1.6,0.8-2.8,0.8c-1.3,0-2.2-0.2-2.9-0.5v-1.2
		c0.4,0.2,0.9,0.3,1.4,0.4s1,0.2,1.5,0.2c0.8,0,1.5-0.2,1.9-0.5c0.4-0.3,0.6-0.8,0.6-1.3c0-0.4-0.1-0.7-0.2-0.9
		c-0.1-0.2-0.4-0.5-0.7-0.7c-0.3-0.2-0.9-0.4-1.6-0.7c-1-0.4-1.7-0.8-2.1-1.3c-0.4-0.5-0.6-1.1-0.6-1.9c0-0.8,0.3-1.5,0.9-2
		s1.4-0.7,2.5-0.7c1.1,0,2,0.2,2.9,0.6l-0.4,1.1c-0.9-0.4-1.7-0.6-2.6-0.6c-0.7,0-1.2,0.1-1.5,0.4c-0.4,0.3-0.6,0.7-0.6,1.2
		c0,0.4,0.1,0.7,0.2,0.9c0.1,0.2,0.4,0.5,0.7,0.7c0.3,0.2,0.8,0.4,1.5,0.7c1.1,0.4,1.9,0.8,2.3,1.3
		C534.3,202.2,534.5,202.8,534.5,203.6z"/>
</g>
<g id="XMLID_18_">
	<path id="XMLID_89_" class="st10" d="M319.6,144.4h-1.2v-9.6H315v-1.1h8v1.1h-3.4V144.4z"/>
	<path id="XMLID_91_" class="st10" d="M330.6,144.4h-6v-10.7h6v1.1h-4.7v3.4h4.4v1.1h-4.4v3.9h4.7V144.4z"/>
	<path id="XMLID_93_" class="st10" d="M339.7,144.4l-1.3-3.4h-4.3l-1.3,3.4h-1.3l4.2-10.8h1l4.2,10.8H339.7z M338,139.9l-1.2-3.3
		c-0.2-0.4-0.3-0.9-0.5-1.5c-0.1,0.5-0.3,1-0.5,1.5l-1.3,3.3H338z"/>
	<path id="XMLID_96_" class="st10" d="M347.2,144.4l-3.6-9.5h-0.1c0.1,0.8,0.1,1.6,0.1,2.7v6.8h-1.2v-10.7h1.9l3.4,8.8h0.1l3.4-8.8
		h1.9v10.7h-1.2v-6.9c0-0.8,0-1.7,0.1-2.6h-0.1l-3.7,9.5H347.2z"/>
	<path id="XMLID_98_" class="st10" d="M365.9,144.4h-6v-10.7h6v1.1h-4.7v3.4h4.4v1.1h-4.4v3.9h4.7V144.4z"/>
	<path id="XMLID_100_" class="st10" d="M369.5,144.4h-1.2v-10.7h6v1.1h-4.7v3.9h4.4v1.1h-4.4V144.4z"/>
	<path id="XMLID_102_" class="st10" d="M377.3,144.4H376v-10.7h6v1.1h-4.7v3.9h4.4v1.1h-4.4V144.4z"/>
	<path id="XMLID_104_" class="st10" d="M389.7,144.4h-6v-10.7h6v1.1H385v3.4h4.4v1.1H385v3.9h4.7V144.4z"/>
	<path id="XMLID_106_" class="st10" d="M396.7,134.7c-1.2,0-2.1,0.4-2.8,1.2c-0.7,0.8-1,1.9-1,3.2c0,1.4,0.3,2.5,1,3.2
		c0.7,0.8,1.6,1.1,2.8,1.1c0.7,0,1.6-0.1,2.6-0.4v1.1c-0.7,0.3-1.7,0.4-2.7,0.4c-1.6,0-2.8-0.5-3.7-1.4s-1.3-2.3-1.3-4.1
		c0-1.1,0.2-2.1,0.6-2.9s1-1.5,1.8-1.9s1.7-0.7,2.8-0.7c1.1,0,2.1,0.2,2.9,0.6l-0.5,1.1C398.3,134.9,397.5,134.7,396.7,134.7z"/>
	<path id="XMLID_108_" class="st10" d="M404.9,144.4h-1.2v-9.6h-3.4v-1.1h8v1.1h-3.4V144.4z"/>
	<path id="XMLID_110_" class="st10" d="M409.9,144.4v-10.7h1.2v10.7H409.9z"/>
	<path id="XMLID_112_" class="st10" d="M420.2,133.7h1.3l-3.9,10.7h-1.2l-3.8-10.7h1.3l2.5,6.9c0.3,0.8,0.5,1.6,0.7,2.3
		c0.2-0.8,0.4-1.6,0.7-2.4L420.2,133.7z"/>
	<path id="XMLID_114_" class="st10" d="M428.9,144.4h-6v-10.7h6v1.1h-4.7v3.4h4.4v1.1h-4.4v3.9h4.7V144.4z"/>
	<path id="XMLID_116_" class="st10" d="M439.7,144.4h-1.4l-5.9-9h-0.1c0.1,1.1,0.1,2,0.1,2.9v6.1h-1.2v-10.7h1.4l5.8,9h0.1
		c0-0.1,0-0.6-0.1-1.3c0-0.7,0-1.2,0-1.5v-6.1h1.2V144.4z"/>
	<path id="XMLID_118_" class="st10" d="M448.6,144.4h-6v-10.7h6v1.1h-4.7v3.4h4.4v1.1h-4.4v3.9h4.7V144.4z"/>
	<path id="XMLID_120_" class="st10" d="M457,141.6c0,0.9-0.3,1.7-1,2.2s-1.6,0.8-2.8,0.8c-1.3,0-2.2-0.2-2.9-0.5v-1.2
		c0.4,0.2,0.9,0.3,1.4,0.4s1,0.2,1.5,0.2c0.8,0,1.5-0.2,1.9-0.5c0.4-0.3,0.6-0.8,0.6-1.3c0-0.4-0.1-0.7-0.2-0.9
		c-0.1-0.2-0.4-0.5-0.7-0.7c-0.3-0.2-0.9-0.4-1.6-0.7c-1-0.4-1.7-0.8-2.1-1.3c-0.4-0.5-0.6-1.1-0.6-1.9c0-0.8,0.3-1.5,0.9-2
		c0.6-0.5,1.4-0.7,2.5-0.7c1.1,0,2,0.2,2.9,0.6l-0.4,1.1c-0.9-0.4-1.7-0.6-2.6-0.6c-0.7,0-1.2,0.1-1.5,0.4c-0.4,0.3-0.6,0.7-0.6,1.2
		c0,0.4,0.1,0.7,0.2,0.9c0.1,0.2,0.4,0.5,0.7,0.7c0.3,0.2,0.8,0.4,1.5,0.7c1.1,0.4,1.9,0.8,2.3,1.3S457,140.8,457,141.6z"/>
	<path id="XMLID_122_" class="st10" d="M465.2,141.6c0,0.9-0.3,1.7-1,2.2s-1.6,0.8-2.8,0.8c-1.3,0-2.2-0.2-2.9-0.5v-1.2
		c0.4,0.2,0.9,0.3,1.4,0.4s1,0.2,1.5,0.2c0.8,0,1.5-0.2,1.9-0.5c0.4-0.3,0.6-0.8,0.6-1.3c0-0.4-0.1-0.7-0.2-0.9
		c-0.1-0.2-0.4-0.5-0.7-0.7c-0.3-0.2-0.9-0.4-1.6-0.7c-1-0.4-1.7-0.8-2.1-1.3c-0.4-0.5-0.6-1.1-0.6-1.9c0-0.8,0.3-1.5,0.9-2
		c0.6-0.5,1.4-0.7,2.5-0.7c1.1,0,2,0.2,2.9,0.6l-0.4,1.1c-0.9-0.4-1.7-0.6-2.6-0.6c-0.7,0-1.2,0.1-1.5,0.4c-0.4,0.3-0.6,0.7-0.6,1.2
		c0,0.4,0.1,0.7,0.2,0.9c0.1,0.2,0.4,0.5,0.7,0.7c0.3,0.2,0.8,0.4,1.5,0.7c1.1,0.4,1.9,0.8,2.3,1.3S465.2,140.8,465.2,141.6z"/>
</g>
<g id="XMLID_11_">
	<path id="XMLID_57_" class="st10" d="M388.5,256.8h3c1.4,0,2.4,0.2,3.1,0.6s1,1.1,1,2c0,0.6-0.2,1.2-0.5,1.6
		c-0.4,0.4-0.9,0.7-1.5,0.8v0.1c1.6,0.3,2.4,1.1,2.4,2.6c0,1-0.3,1.7-1,2.2c-0.6,0.5-1.6,0.8-2.7,0.8h-3.7V256.8z M389.8,261.4h2.1
		c0.9,0,1.5-0.1,1.9-0.4c0.4-0.3,0.6-0.7,0.6-1.4c0-0.6-0.2-1-0.6-1.3c-0.4-0.3-1.1-0.4-2.1-0.4h-1.8V261.4z M389.8,262.4v4h2.2
		c0.9,0,1.5-0.2,2-0.5c0.4-0.3,0.7-0.9,0.7-1.6c0-0.7-0.2-1.2-0.7-1.5c-0.4-0.3-1.1-0.5-2-0.5H389.8z"/>
	<path id="XMLID_63_" class="st10" d="M404.2,267.5h-6v-10.7h6v1.1h-4.7v3.4h4.4v1.1h-4.4v3.9h4.7V267.5z"/>
	<path id="XMLID_65_" class="st10" d="M414.7,267.5h-1.2v-5h-5.6v5h-1.2v-10.7h1.2v4.6h5.6v-4.6h1.2V267.5z"/>
	<path id="XMLID_74_" class="st10" d="M424.4,267.5l-1.3-3.4h-4.3l-1.3,3.4h-1.3l4.2-10.8h1l4.2,10.8H424.4z M422.7,263l-1.2-3.3
		c-0.2-0.4-0.3-0.9-0.5-1.5c-0.1,0.5-0.3,1-0.5,1.5l-1.3,3.3H422.7z"/>
	<path id="XMLID_77_" class="st10" d="M433.3,256.8h1.3l-3.9,10.7h-1.2l-3.8-10.7h1.3l2.5,6.9c0.3,0.8,0.5,1.6,0.7,2.3
		c0.2-0.8,0.4-1.6,0.7-2.4L433.3,256.8z"/>
	<path id="XMLID_79_" class="st10" d="M436.1,267.5v-10.7h1.2v10.7H436.1z"/>
	<path id="XMLID_81_" class="st10" d="M449.6,262.1c0,1.7-0.4,3.1-1.3,4c-0.9,1-2.1,1.5-3.6,1.5c-1.6,0-2.8-0.5-3.7-1.4
		c-0.9-1-1.3-2.3-1.3-4.1c0-1.7,0.4-3.1,1.3-4.1c0.9-1,2.1-1.4,3.7-1.4c1.5,0,2.7,0.5,3.6,1.5C449.1,259.1,449.6,260.4,449.6,262.1z
		 M441,262.1c0,1.5,0.3,2.5,0.9,3.3c0.6,0.8,1.5,1.1,2.7,1.1c1.2,0,2.1-0.4,2.7-1.1s0.9-1.8,0.9-3.3c0-1.4-0.3-2.5-0.9-3.3
		c-0.6-0.7-1.5-1.1-2.7-1.1c-1.2,0-2.1,0.4-2.7,1.1C441.3,259.6,441,260.7,441,262.1z"/>
	<path id="XMLID_84_" class="st10" d="M453.2,263.1v4.5h-1.2v-10.7h2.9c1.3,0,2.3,0.3,2.9,0.8c0.6,0.5,0.9,1.3,0.9,2.3
		c0,1.4-0.7,2.4-2.2,2.9l2.9,4.8H458l-2.6-4.5H453.2z M453.2,262h1.7c0.9,0,1.5-0.2,1.9-0.5c0.4-0.3,0.6-0.9,0.6-1.6
		c0-0.7-0.2-1.2-0.6-1.5c-0.4-0.3-1.1-0.5-2-0.5h-1.6V262z"/>
	<path id="XMLID_87_" class="st10" d="M467.3,264.7c0,0.9-0.3,1.7-1,2.2s-1.6,0.8-2.8,0.8c-1.3,0-2.2-0.2-2.9-0.5V266
		c0.4,0.2,0.9,0.3,1.4,0.4s1,0.2,1.5,0.2c0.8,0,1.5-0.2,1.9-0.5c0.4-0.3,0.6-0.8,0.6-1.3c0-0.4-0.1-0.7-0.2-0.9
		c-0.1-0.2-0.4-0.5-0.7-0.7c-0.3-0.2-0.9-0.4-1.6-0.7c-1-0.4-1.7-0.8-2.1-1.3c-0.4-0.5-0.6-1.1-0.6-1.9c0-0.8,0.3-1.5,0.9-2
		s1.4-0.7,2.5-0.7c1.1,0,2,0.2,2.9,0.6l-0.4,1.1c-0.9-0.4-1.7-0.6-2.6-0.6c-0.7,0-1.2,0.1-1.5,0.4c-0.4,0.3-0.6,0.7-0.6,1.2
		c0,0.4,0.1,0.7,0.2,0.9c0.1,0.2,0.4,0.5,0.7,0.7c0.3,0.2,0.8,0.4,1.5,0.7c1.1,0.4,1.9,0.8,2.3,1.3
		C467.1,263.3,467.3,263.9,467.3,264.7z"/>
</g>
<g id="XMLID_1_">
	<path id="XMLID_17_" class="st10" d="M428.5,324.8c0,0.9-0.3,1.7-1,2.2s-1.6,0.8-2.8,0.8c-1.3,0-2.2-0.2-2.9-0.5v-1.2
		c0.4,0.2,0.9,0.3,1.4,0.4s1,0.2,1.5,0.2c0.8,0,1.5-0.2,1.9-0.5c0.4-0.3,0.6-0.8,0.6-1.3c0-0.4-0.1-0.7-0.2-0.9
		c-0.1-0.2-0.4-0.5-0.7-0.7c-0.3-0.2-0.9-0.4-1.6-0.7c-1-0.4-1.7-0.8-2.1-1.3c-0.4-0.5-0.6-1.1-0.6-1.9c0-0.8,0.3-1.5,0.9-2
		s1.4-0.7,2.5-0.7c1.1,0,2,0.2,2.9,0.6l-0.4,1.1c-0.9-0.4-1.7-0.6-2.6-0.6c-0.7,0-1.2,0.1-1.5,0.4c-0.4,0.3-0.6,0.7-0.6,1.2
		c0,0.4,0.1,0.7,0.2,0.9c0.1,0.2,0.4,0.5,0.7,0.7c0.3,0.2,0.8,0.4,1.5,0.7c1.1,0.4,1.9,0.8,2.3,1.3
		C428.3,323.4,428.5,324,428.5,324.8z"/>
	<path id="XMLID_45_" class="st10" d="M438.4,327.6H437l-3.9-5.2l-1.1,1v4.2h-1.2v-10.7h1.2v5.3l4.9-5.3h1.5l-4.3,4.7L438.4,327.6z"
		/>
	<path id="XMLID_49_" class="st10" d="M439.9,327.6v-10.7h1.2v10.7H439.9z"/>
	<path id="XMLID_51_" class="st10" d="M444.1,327.6v-10.7h1.2v9.6h4.7v1.1H444.1z"/>
	<path id="XMLID_53_" class="st10" d="M451.9,327.6v-10.7h1.2v9.6h4.7v1.1H451.9z"/>
	<path id="XMLID_55_" class="st10" d="M465.7,324.8c0,0.9-0.3,1.7-1,2.2s-1.6,0.8-2.8,0.8c-1.3,0-2.2-0.2-2.9-0.5v-1.2
		c0.4,0.2,0.9,0.3,1.4,0.4s1,0.2,1.5,0.2c0.8,0,1.5-0.2,1.9-0.5c0.4-0.3,0.6-0.8,0.6-1.3c0-0.4-0.1-0.7-0.2-0.9
		c-0.1-0.2-0.4-0.5-0.7-0.7c-0.3-0.2-0.9-0.4-1.6-0.7c-1-0.4-1.7-0.8-2.1-1.3c-0.4-0.5-0.6-1.1-0.6-1.9c0-0.8,0.3-1.5,0.9-2
		s1.4-0.7,2.5-0.7c1.1,0,2,0.2,2.9,0.6l-0.4,1.1c-0.9-0.4-1.7-0.6-2.6-0.6c-0.7,0-1.2,0.1-1.5,0.4c-0.4,0.3-0.6,0.7-0.6,1.2
		c0,0.4,0.1,0.7,0.2,0.9c0.1,0.2,0.4,0.5,0.7,0.7c0.3,0.2,0.8,0.4,1.5,0.7c1.1,0.4,1.9,0.8,2.3,1.3
		C465.5,323.4,465.7,324,465.7,324.8z"/>
</g>
<path id="XMLID_33_" class="st11" d="M250.1,87c-4.6,0-8.3-3.7-8.3-8.3s3.7-8.3,8.3-8.3c4.6,0,8.3,3.7,8.3,8.3S254.7,87,250.1,87z"
	/>
<circle id="XMLID_31_" class="st12" cx="250.1" cy="78.6" r="6.3"/>
<path id="XMLID_34_" class="st11" d="M285.6,147.4c-4.6,0-8.3-3.7-8.3-8.3s3.7-8.3,8.3-8.3c4.6,0,8.3,3.7,8.3,8.3
	S290.2,147.4,285.6,147.4z"/>
<circle id="XMLID_32_" class="st12" cx="285.6" cy="139.1" r="6.3"/>
<path id="XMLID_36_" class="st11" d="M322.4,210.3c-4.6,0-8.3-3.7-8.3-8.3s3.7-8.3,8.3-8.3c4.6,0,8.3,3.7,8.3,8.3
	S326.9,210.3,322.4,210.3z"/>
<circle id="XMLID_35_" class="st12" cx="322.4" cy="202" r="6.3"/>
<path id="XMLID_38_" class="st11" d="M358.1,270.6c-4.6,0-8.3-3.7-8.3-8.3s3.7-8.3,8.3-8.3c4.6,0,8.3,3.7,8.3,8.3
	S362.7,270.6,358.1,270.6z"/>
<circle id="XMLID_37_" class="st12" cx="358.1" cy="262.3" r="6.3"/>
<path id="XMLID_40_" class="st11" d="M392.4,331c-4.6,0-8.3-3.7-8.3-8.3s3.7-8.3,8.3-8.3c4.6,0,8.3,3.7,8.3,8.3S397,331,392.4,331z"
	/>
<circle id="XMLID_39_" class="st12" cx="392.4" cy="322.6" r="6.3"/>
<g id="XMLID_43_">
	<path id="XMLID_48_" class="st13" d="M27.1,325.6h18.1v22.8l-0.5,0.2c-4,1.6-8.9,2.4-14.6,2.4c-8.8,0-15.6-2.4-20.2-7.2
		c-4.6-4.8-6.9-11.9-6.9-21.2c0-8.6,2.4-15.5,7.3-20.6c4.8-5.1,11.4-7.7,19.7-7.7c5.4,0,10.7,1.1,15.8,3.3l0.1,0.1l1-2.2l-0.1-0.1
		c-4.9-2.1-10.5-3.2-16.5-3.2c-5.9,0-11.3,1.3-15.8,3.8c-4.5,2.5-8.1,6.1-10.5,10.7c-2.5,4.6-3.7,10-3.7,16c0,9.6,2.5,17.2,7.4,22.4
		c4.9,5.2,12.1,7.8,21.4,7.8c6.9,0,13.3-1.1,18.9-3.4l0.1,0v-26.2H27.1V325.6z"/>
	<path id="XMLID_66_" class="st13" d="M87.1,324.6c4.2-1.2,7.3-3.1,9.3-5.7c2-2.6,3-5.9,3-9.8c0-5.3-1.7-9.3-5.1-11.9
		c-3.4-2.6-8.9-4-16.2-4H64.7v59h2.5v-26.4h16.4l15.6,26.4h3.1l-16.3-27.3L87.1,324.6z M67.2,323.8v-28.5h10.9
		c6.4,0,11.1,1.1,14.1,3.3c3,2.3,4.5,5.9,4.5,10.8c0,4.7-1.5,8.3-4.6,10.8c-3,2.4-7.2,3.6-12.5,3.6H67.2z"/>
	<path id="XMLID_69_" class="st13" d="M138.3,292.3c-8.1,0-14.6,2.7-19.3,8c-4.7,5.4-7.1,12.8-7.1,22.2c0,9.4,2.4,17,7,22.4
		c4.6,5.4,11.1,8.1,19.2,8.1c8.2,0,14.6-2.7,19.3-8.1c4.7-5.4,7-12.9,7-22.3c0-9.4-2.3-16.9-7-22.3
		C152.9,295,146.5,292.3,138.3,292.3z M138.2,350.7c-7.5,0-13.3-2.5-17.4-7.4c-4-4.9-6-11.8-6-20.7c0-8.8,2-15.8,6.1-20.6
		c4.1-4.9,9.9-7.4,17.4-7.4c7.5,0,13.3,2.5,17.3,7.3c4,4.8,6,11.8,6,20.7c0,8.9-2,15.9-6,20.8C151.6,348.3,145.8,350.7,138.2,350.7z
		"/>
	<path id="XMLID_70_" class="st13" d="M240.8,293.3c-7.9,29.4-12,44.7-12.6,46.9c-0.6,2.2-1,4.3-1.4,6.3l-0.1,0.5l-1.5,0l-0.1-0.5
		c-0.6-2.9-1.6-6.9-3-11.7l-12-41.6h-3.4l-10.2,36.2c-2.1,7.6-3.6,13.3-4.2,17.1l-0.1,0.5h-1.5l-0.1-0.5c-0.2-1.1-0.4-2.2-0.6-3.3
		c-0.2-1.1-0.5-2.2-0.8-3.4c-0.3-1.2-0.6-2.4-1-3.8c-0.4-1.3-0.7-2.8-1.2-4.4l-10.5-38.5H174l16.2,59h2.3l0-0.1
		c7.9-28.3,12.4-44.2,13.2-47.2c0.8-3.1,1.4-5.9,1.9-8.2l0.1-0.5l1.5,0l0.1,0.5c0.5,2.4,1.4,5.6,2.5,9.4l13.1,46.2h2.2l16.3-59h-2.5
		L240.8,293.3z"/>
	<polygon id="XMLID_71_" class="st13" points="247.8,295.5 267.5,295.5 267.5,352.2 270.1,352.2 270.1,295.5 289.8,295.5 
		289.8,293.2 247.8,293.2 	"/>
	<polygon id="XMLID_72_" class="st13" points="340.2,293.2 340.2,320.1 303,320.1 303,293.2 300.5,293.2 300.5,352.2 303,352.2 
		303,322.3 340.2,322.3 340.2,352.2 342.8,352.2 342.8,293.2 	"/>
</g>
<circle id="XMLID_41_" class="st14" cx="233.1" cy="18.3" r="18.3"/>
<polygon id="XMLID_44_" class="st11" points="223.4,27.9 223.4,9.9 226,9.9 226,11 243.2,14.8 247.6,15.8 243.2,16.6 226,20.4 
	226,27.9 "/>
<polygon id="XMLID_47_" class="st13" points="243,15.7 225.1,11.8 225.1,10.9 224.4,10.9 224.4,27 225.1,27 225.1,19.6 "/>
<g id="XMLID_16_">
</g>
<g id="XMLID_184_">
</g>
<g id="XMLID_185_">
</g>
<g id="XMLID_186_">
</g>
<g id="XMLID_187_">
</g>
<g id="XMLID_188_">
</g>
</svg>
