<?xml version="1.0" encoding="utf-8"?>
<!-- Generator: Adobe Illustrator 20.1.0, SVG Export Plug-In . SVG Version: 6.00 Build 0)  -->
<svg version="1.1" id="Layer_1" xmlns="http://www.w3.org/2000/svg" xmlns:xlink="http://www.w3.org/1999/xlink" x="0px" y="0px"
	 viewBox="0 0 25 25" style="enable-background:new 0 0 25 25;" xml:space="preserve">
<style type="text/css">
	.st0{fill:#D0D0CF;}
</style>
<path id="XMLID_29_" class="st0" d="M18.2,20.3h0.3v3.5c1.3-0.5,2.4-1.1,3.5-1.9v-1.3c0-1.7-1.2-3.7-3.1-4.8c0-0.1,0.1-0.3,0.1-0.4
	c0-0.1,0.1-0.3,0.1-0.4c0.2-1.3,0.3-3.3,0.3-6.3c0-4.7-3.1-8.6-6.9-8.6c-1.4,0-2.7,0.5-3.7,1.4C8.6,1.6,8.4,1.7,8.3,1.9
	c-1.6,1.6-2.6,4-2.6,6.8c0,3.2,0.1,5.3,0.3,6.6c0,0.2,0.1,0.3,0.1,0.4c0,0.2,0.1,0.3,0.1,0.4c-1.8,1.2-3.1,3-3.1,4.6V22
	c1.1,0.8,2.2,1.4,3.5,1.9v-3.5h0.3v3.6c1.8,0.7,3.7,1,5.7,1c2,0,3.9-0.4,5.6-1V20.3z M12.5,22.8c-0.3,0-0.5-0.2-0.5-0.5
	c0-0.3,0.2-0.5,0.5-0.5c0.3,0,0.5,0.2,0.5,0.5C13,22.5,12.8,22.8,12.5,22.8z M12.5,21.2c-0.3,0-0.5-0.2-0.5-0.5
	c0-0.3,0.2-0.5,0.5-0.5c0.3,0,0.5,0.2,0.5,0.5C13,21,12.8,21.2,12.5,21.2z M15.5,17.4c-1.6,0.9-2.7,1.5-2.9,1.6
	c-0.5-0.1-3-1.5-3-1.5c-0.6-0.3-1-0.5-1.7-1.2c0.1-0.1,0.4-0.6,0.5-0.7c0.1-0.1,0.2-0.2,0.3-0.3c0.4-0.5,0.8-1.1,1.3-1.6
	c0.8,0.6,1.6,1,2.5,1c0.9,0,1.8-0.4,2.5-1c0.6,0.7,1.1,1.4,1.6,2c0.1,0.1,0.2,0.2,0.3,0.3c0.1,0.1,0.2,0.2,0.3,0.3
	C16.9,16.7,16,17.1,15.5,17.4z M17,8.5L17,8.8c-0.4,1.6-1.4,3.2-2.5,4.2c-0.6,0.5-1.2,0.8-1.9,0.8c-0.7,0-1.3-0.3-1.9-0.8
	C9.5,12,8.5,10.3,8.1,8.8L8,8.5l-0.3,0C7.4,8.4,7,8,6.8,7.4C6.7,6.9,6.7,6.5,6.9,6.2C7,6.1,7.1,5.9,7.3,5.9c0,0,0.1,0,0.1,0
	c0,0,0,0,0.1,0l0.4,0l0.1-0.4C8,5.2,8,4.9,8.1,4.6C8.6,6.2,10,6,12,6.3c0.6,0.1,1.4,0.1,1.8,0.1c0.1-1.3-1.4-2.7-1.4-2.7s0,0,0.2,0
	c0.2,0,0.7,0.2,0.8,0.3c1.6,0.9,1.9,2.2,1.9,2.2C16.1,6,16.8,5.5,17,4.8c0.1,0.2,0.1,0.5,0.2,0.7l0.1,0.4l0.4,0c0.1,0,0.1,0,0.2,0
	c0.2,0,0.3,0.2,0.4,0.3c0.2,0.3,0.2,0.7,0.1,1.2c-0.2,0.7-0.6,1-0.9,1.1L17,8.5z"/>
</svg>
