<?xml version="1.0" encoding="utf-8"?>
<!-- Generator: Adobe Illustrator 20.1.0, SVG Export Plug-In . SVG Version: 6.00 Build 0)  -->
<svg version="1.1" id="Layer_1" xmlns="http://www.w3.org/2000/svg" xmlns:xlink="http://www.w3.org/1999/xlink" x="0px" y="0px"
	 viewBox="0 0 25 25" style="enable-background:new 0 0 25 25;" xml:space="preserve">
<style type="text/css">
	.st0{fill:#CFCFCF;}
</style>
<g>
	<path class="st0" d="M12.5,12.3c2.9,0,5.2-2.7,5.2-6.1c0-4.7-2.3-6.1-5.2-6.1S7.3,1.5,7.3,6.2C7.3,9.6,9.6,12.3,12.5,12.3z"/>
	<path class="st0" d="M21.4,15.3c-0.1-0.3-0.3-0.5-0.6-0.6l-4.1-2.1c-0.1,0-0.2,0-0.3,0c-1.1,0.9-2.5,1.3-3.9,1.3s-2.8-0.5-3.9-1.3
		c-0.1-0.1-0.2-0.1-0.3,0l-4.1,2.1c-0.3,0.1-0.5,0.4-0.6,0.6l-2.2,4.9c2.8,2.9,6.7,4.7,11,4.7c1.9,0,3.8-0.4,5.5-1
		c0.4-0.2,1.8-0.8,1.8-0.8c1.4-0.8,2.7-1.7,3.8-2.9L21.4,15.3z"/>
</g>
</svg>
