<?xml version="1.0" encoding="utf-8"?>
<!-- Generator: Adobe Illustrator 16.0.0, SVG Export Plug-In . SVG Version: 6.00 Build 0)  -->
<!DOCTYPE svg PUBLIC "-//W3C//DTD SVG 1.1//EN" "http://www.w3.org/Graphics/SVG/1.1/DTD/svg11.dtd">
<svg version="1.1" id="Layer_1" xmlns="http://www.w3.org/2000/svg" xmlns:xlink="http://www.w3.org/1999/xlink" x="0px" y="0px"
	 width="126.901px" height="41.468px" viewBox="0 0 126.901 41.468" enable-background="new 0 0 126.901 41.468"
	 xml:space="preserve">
<g>
	<path fill="#FFFFFF" d="M49.053,9.732c0-0.396,0.141-0.562,0.595-0.562h3.462c4.406,0,6.434,1.947,6.434,6.533
		c0,5.443-2.938,7.192-6.434,7.192h-1.223v8.84c0,0.529,0,0.529-2.833,0.529V9.732z M53.633,11.514h-1.747v8.906h1.537
		c1.958,0,2.973-1.352,2.973-5.014C56.397,13.064,55.697,11.514,53.633,11.514z"/>
	<path fill="#FFFFFF" d="M67.868,8.874c4.545,0,6.223,2.705,6.223,11.612c0,9.072-1.992,12.076-6.606,12.076
		c-4.512,0-6.296-2.475-6.296-11.978C61.188,11.809,63.355,8.874,67.868,8.874z M67.623,29.824c2.519,0,3.393-2.541,3.393-9.271
		c0-6.599-0.7-8.94-3.218-8.94c-2.447,0-3.428,2.507-3.428,9.633C64.37,27.382,65.141,29.824,67.623,29.824z"/>
	<path fill="#FFFFFF" d="M76.612,9.732c0-0.396,0.139-0.562,0.596-0.562h3.459c4.408,0,6.436,1.947,6.436,6.533
		c0,5.443-2.938,7.192-6.436,7.192h-1.223v8.84c0,0.529,0,0.529-2.832,0.529V9.732z M81.192,11.514h-1.748v8.906h1.539
		c1.957,0,2.973-1.352,2.973-5.014C83.956,13.064,83.256,11.514,81.192,11.514z"/>
	<path fill="#FFFFFF" d="M92.139,25.601c0,2.673,0.418,4.52,3.355,4.52c1.223,0,2.484-0.297,3.078-0.594V9.732
		c0-0.562,0.035-0.562,2.867-0.562v22.236c-0.873,0.528-3.182,1.188-5.945,1.188c-5.594,0-6.293-3.233-6.293-7.06V9.732
		c0-0.562,0-0.562,2.938-0.562V25.601z"/>
	<path fill="#FFFFFF" d="M107.352,29.756h6.016v1.979c0,0.43-0.246,0.529-0.596,0.529h-8.287V9.93c0-0.759,0.07-0.759,2.867-0.759
		V29.756z"/>
	<path fill="#FFFFFF" d="M120.676,8.874c4.547,0,6.225,2.705,6.225,11.612c0,9.072-1.992,12.076-6.609,12.076
		c-4.51,0-6.293-2.475-6.293-11.978C113.999,11.809,116.167,8.874,120.676,8.874z M120.432,29.824c2.516,0,3.393-2.541,3.393-9.271
		c0-6.599-0.701-8.94-3.217-8.94c-2.449,0-3.428,2.507-3.428,9.633C117.18,27.382,117.948,29.824,120.432,29.824z"/>
</g>
<g>
	<path fill="#FFFFFF" d="M35.36,1.92c-2.246,2.677-0.208,6.649,3.207,6.25c2.963-0.344,4.795-3.926,2.452-6.562
		C38.915-0.321,36.443,0.629,35.36,1.92"/>
	<path fill="#FFFFFF" d="M29.44,7.841c-2.056,2.582,0.007,6.451,3.292,6.178c2.89-0.241,4.657-3.804,2.304-6.449
		C32.892,5.6,30.474,6.542,29.44,7.841"/>
	<path fill="#FFFFFF" d="M24.137,13.387c-1.821,2.448,0.555,6.273,3.633,5.849c2.301-0.318,3.912-3.298,1.566-5.915
		C27.232,11.375,25.029,12.187,24.137,13.387"/>
	<path fill="#FFFFFF" d="M19.596,18.393c-1.594,2.317,0.946,5.931,3.778,5.372c1.903-0.374,3.07-2.887,0.915-5.271
		C22.287,16.629,20.34,17.312,19.596,18.393"/>
	<path fill="#FFFFFF" d="M15.865,22.789c-1.309,2.109,1.269,5.402,3.727,4.76c1.642-0.428,2.168-2.545,0.359-4.531
		C18.11,21.287,16.455,21.841,15.865,22.789"/>
	<path fill="#FFFFFF" d="M13.006,26.494c-0.961,1.81,1.502,4.682,3.468,4.043c1.072-0.347,1.555-1.93-0.083-3.717
		C14.756,25.275,13.426,25.699,13.006,26.494"/>
	<path fill="#FFFFFF" d="M11.064,29.435c-0.545,1.396,1.654,3.763,3.017,3.246c0.776-0.293,0.797-1.533-0.415-2.844
		C12.423,28.652,11.349,28.706,11.064,29.435"/>
	<path fill="#FFFFFF" d="M10.099,31.535c-0.103,0.926,1.809,2.787,2.435,2.371c0.278-0.185,0.247-0.899-0.697-1.904
		C10.797,30.996,10.149,31.088,10.099,31.535"/>
</g>
<g>
	<path fill="#FFFFFF" d="M23.973,1.734c-2.048,2.63-0.131,6.646,3.063,6.413c2.793-0.204,4.579-3.84,2.364-6.592
		C27.36-0.512,24.998,0.416,23.973,1.734"/>
	<path fill="#FFFFFF" d="M18.828,7.456c-1.745,2.573,0.503,6.579,3.435,6.119c2.182-0.34,3.722-3.464,1.509-6.189
		C21.776,5.346,19.677,6.199,18.828,7.456"/>
	<path fill="#FFFFFF" d="M14.603,12.815c-1.444,2.524,0.982,6.33,3.606,5.653c1.754-0.451,2.793-3.164,0.757-5.651
		C17.071,10.866,15.274,11.641,14.603,12.815"/>
	<path fill="#FFFFFF" d="M11.333,17.724c-1.088,2.4,1.383,5.881,3.574,5.029c1.277-0.495,1.979-2.737,0.124-4.986
		C13.287,15.958,11.817,16.652,11.333,17.724"/>
	<path fill="#FFFFFF" d="M9.059,22.085c-0.647,2.108,1.75,5.188,3.331,4.279c0.884-0.507,1.166-2.356-0.381-4.219
		C10.621,20.697,9.396,20.987,9.059,22.085"/>
	<path fill="#FFFFFF" d="M7.819,25.811c-0.196,1.819,1.909,4.318,2.886,3.427c0.491-0.448,0.5-1.866-0.756-3.365
		C8.8,24.664,7.922,24.865,7.819,25.811"/>
	<path fill="#FFFFFF" d="M7.652,28.802c0.235,1.104,1.816,3.107,2.208,2.575c0.193-0.266,0.038-1.335-0.967-2.519
		c-0.884-0.941-1.275-0.744-1.272-0.305C7.621,28.628,7.636,28.73,7.652,28.802"/>
</g>
<g>
	<path fill="#FFFFFF" d="M13.942,1.37c-1.68,2.7,0.36,6.823,3.12,6.3c2.044-0.384,3.535-3.644,1.513-6.429
		C16.736-0.851,14.757,0.056,13.942,1.37"/>
	<path fill="#FFFFFF" d="M10.008,7.091c-1.313,2.738,0.921,6.673,3.32,5.851c1.6-0.55,2.535-3.454,0.67-6
		C12.255,4.944,10.614,5.826,10.008,7.091"/>
	<path fill="#FFFFFF" d="M7.161,12.527c-0.863,2.618,1.462,6.275,3.316,5.221c1.11-0.631,1.658-3.112-0.042-5.414
		C8.982,10.653,7.628,11.113,7.161,12.527"/>
	<path fill="#FFFFFF" d="M5.43,17.563c-0.343,2.177,1.546,5.557,2.976,4.548c0.806-0.568,1.022-2.775-0.486-4.802
		C6.642,15.823,5.631,16.282,5.43,17.563"/>
	<path fill="#FFFFFF" d="M4.834,22.091c0.103,1.817,1.769,4.572,2.551,3.746c0.478-0.504,0.361-2.385-0.908-4.07
		c-1.069-1.256-1.564-0.736-1.636-0.079C4.828,21.81,4.827,21.972,4.834,22.091"/>
	<path fill="#FFFFFF" d="M5.401,25.999c0.387,1.086,1.827,3.349,2.035,2.888c0.134-0.297-0.228-1.882-1.292-3.279
		c-0.836-0.996-0.893-0.402-0.896-0.33C5.239,25.433,5.295,25.704,5.401,25.999"/>
</g>
<g>
	<path fill="#FFFFFF" d="M6.125,1.599C4.927,4.461,6.772,8.295,8.868,7.298c1.57-0.746,2.2-3.901,0.717-6.227
		C8.136-0.801,6.689,0.253,6.125,1.599"/>
	<path fill="#FFFFFF" d="M3.637,7.541c-0.679,2.722,1.067,6.176,2.631,5.204c1.087-0.675,1.555-3.56,0.087-5.843
		C5.022,5.168,3.964,6.232,3.637,7.541"/>
	<path fill="#FFFFFF" d="M2.361,13.224c-0.154,2.313,1.352,5.574,2.441,4.572c0.726-0.672,0.784-3.321-0.519-5.323
		c-1.138-1.495-1.768-0.5-1.896,0.481C2.378,13.035,2.367,13.142,2.361,13.224"/>
	<path fill="#FFFFFF" d="M2.312,18.522c0.274,1.883,1.614,4.567,2.13,3.891c0.375-0.496,0.136-2.952-1.048-4.75
		c-0.964-1.282-1.108-0.152-1.122-0.019C2.255,17.806,2.249,18.09,2.312,18.522"/>
	<path fill="#FFFFFF" d="M3.499,23.308c0.54,1.297,1.646,3.085,1.843,3.152c0.136-0.172-0.673-2.659-1.643-4.104
		c-0.414-0.561-0.525-0.48-0.548-0.316C3.122,22.247,3.25,22.709,3.499,23.308"/>
</g>
<g>
	<path fill="#FFFFFF" d="M0.923,3.017c-0.55,2.792,0.64,5.98,1.874,5.018c0.956-0.743,1.454-3.992,0.3-6.138
		C2.06,0.328,1.202,1.607,0.923,3.017"/>
	<path fill="#FFFFFF" d="M0,9.287c-0.027,2.306,0.987,5.321,1.767,4.555c0.636-0.626,0.687-3.865-0.382-5.825
		C0.528,6.702,0.174,7.953,0.11,8.218C0.064,8.419,0.006,8.767,0,9.287"/>
	<path fill="#FFFFFF" d="M0.371,15.286c0.339,1.773,1.352,4.338,1.68,4.002c0.313-0.319-0.14-3.644-1.118-5.406
		c-0.454-0.708-0.62-0.465-0.676-0.14C0.23,13.892,0.187,14.341,0.371,15.286"/>
	<path fill="#FFFFFF" d="M2.036,20.867c0.208,0.478,0.462,1.006,0.755,1.565c0.283,0.509,0.654,1.19,0.95,1.691
		c0.009,0.015,0.023,0.03,0.035,0.042C3.77,24.14,2.481,20.643,1.75,19.361c-0.149-0.241-0.206-0.307-0.271-0.317
		C1.345,19.178,1.766,20.252,2.036,20.867"/>
</g>
<g>
	<path fill="#FFFFFF" d="M35.716,33.225c-1.756,1.442-0.501,3.654,2.27,4.011c2.873,0.371,4.988-1.538,3.717-3.346
		c-0.197-0.278-0.442-0.479-0.639-0.644C39.034,31.871,36.713,32.406,35.716,33.225"/>
	<path fill="#FFFFFF" d="M30.501,36.254c-1.608,1.035-0.527,2.866,1.998,3.378c2.676,0.543,4.703-0.822,3.555-2.395
		c-0.177-0.242-0.403-0.429-0.586-0.578C33.596,35.38,31.438,35.654,30.501,36.254"/>
	<path fill="#FFFFFF" d="M25.742,38.212c-1.289,0.559-0.743,1.766,1.123,2.484c2.297,0.883,4.568,0.377,4.052-0.901
		c-0.153-0.374-0.502-0.657-0.711-0.828C28.555,37.828,26.603,37.839,25.742,38.212"/>
	<path fill="#FFFFFF" d="M21.538,39.074c-0.662,0.11-0.954,0.504-0.108,1.137c1.509,1.13,4.789,1.795,4.579,0.697
		c-0.061-0.313-0.411-0.593-0.622-0.76C23.949,39.138,22.262,38.953,21.538,39.074"/>
	<path fill="#FFFFFF" d="M17.997,38.802c-0.435-0.095-0.615-0.078-0.539,0.053c0.348,0.585,3.925,2.467,4.123,1.885
		c0.057-0.165-0.316-0.459-0.456-0.571C20.026,39.386,18.597,38.932,17.997,38.802"/>
</g>
<g>
	<path fill="#FFFFFF" d="M35.498,24.35c-1.946,2.128,0.109,5.254,3.332,5.069c2.884-0.168,4.597-3.089,2.199-5.301
		C38.86,22.478,36.488,23.265,35.498,24.35"/>
	<path fill="#FFFFFF" d="M30.279,28.705c-1.764,1.749,0.14,4.535,3.135,4.584c2.851,0.048,4.167-2.369,2.306-4.242
		c-0.073-0.071-0.177-0.16-0.252-0.23C33.399,27.239,31.189,27.801,30.279,28.705"/>
	<path fill="#FFFFFF" d="M25.566,32.147c-1.543,1.344,0.152,3.729,2.834,3.988c2.429,0.236,3.712-1.495,2.327-3.14
		c-0.118-0.141-0.3-0.309-0.437-0.434C28.387,31.096,26.381,31.439,25.566,32.147"/>
	<path fill="#FFFFFF" d="M21.447,34.64c-1.308,0.93,0.11,2.832,2.444,3.285c2.054,0.397,3.229-0.667,2.248-2.031
		c-0.17-0.239-0.378-0.424-0.543-0.573C23.911,34.013,22.154,34.135,21.447,34.64"/>
	<path fill="#FFFFFF" d="M18.005,36.134c-0.985,0.473-0.06,1.736,1.767,2.416c1.642,0.608,2.807,0.248,2.35-0.729
		c-0.159-0.338-0.463-0.609-0.645-0.773C20.068,35.946,18.6,35.849,18.005,36.134"/>
	<path fill="#FFFFFF" d="M15.333,36.585c-0.25,0.021-0.558,0.146,0.184,0.769c1.295,1.085,3.166,1.751,3.078,1.101
		c-0.038-0.271-0.423-0.611-0.567-0.739C16.865,36.792,15.71,36.556,15.333,36.585"/>
</g>
<g>
	<path fill="#FFFFFF" d="M35.208,13.678c-2.071,2.531,0.063,6.192,3.408,5.846c2.952-0.303,4.725-3.778,2.293-6.266
		C38.712,11.429,36.252,12.402,35.208,13.678"/>
	<path fill="#FFFFFF" d="M29.74,19.055c-1.964,2.384,0.429,5.923,3.714,5.487c2.632-0.35,3.944-3.308,1.68-5.605
		C32.974,17.124,30.68,17.916,29.74,19.055"/>
	<path fill="#FFFFFF" d="M24.864,23.724c-1.697,2.039,0.546,5.238,3.529,5.035c2.439-0.164,3.594-2.727,1.438-4.898
		C27.774,22.122,25.689,22.734,24.864,23.724"/>
	<path fill="#FFFFFF" d="M20.65,27.628c-1.486,1.756,0.806,4.662,3.504,4.445c2.027-0.164,2.838-2.18,0.923-4.094
		C23.185,26.366,21.349,26.803,20.65,27.628"/>
	<path fill="#FFFFFF" d="M17.167,30.706c-1.209,1.39,1.01,3.92,3.295,3.763c1.41-0.098,2.238-1.496,0.493-3.229
		C19.277,29.798,17.729,30.061,17.167,30.706"/>
	<path fill="#FFFFFF" d="M14.488,32.9c-0.887,0.964,1.091,3.021,2.898,3.014c1.196-0.005,1.358-1.07,0.33-2.152
		c-0.051-0.053-0.125-0.121-0.176-0.173C16.14,32.375,14.892,32.46,14.488,32.9"/>
	<path fill="#FFFFFF" d="M12.68,34.148c-0.515,0.482,1.508,2.27,2.544,2.252c0.474-0.008,0.626-0.51-0.319-1.426
		C13.859,34.054,12.94,33.904,12.68,34.148"/>
</g>
<g>
</g>
<g>
</g>
<g>
</g>
<g>
</g>
<g>
</g>
<g>
</g>
</svg>
