<?xml version="1.0" encoding="utf-8"?>
<!-- Generator: Adobe Illustrator 20.1.0, SVG Export Plug-In . SVG Version: 6.00 Build 0)  -->
<svg version="1.1" id="Layer_1" xmlns="http://www.w3.org/2000/svg" xmlns:xlink="http://www.w3.org/1999/xlink" x="0px" y="0px"
	 viewBox="0 0 50 50" style="enable-background:new 0 0 50 50;" xml:space="preserve">
<style type="text/css">
	.st0{fill:url(#SVGID_1_);}
	.st1{fill:url(#SVGID_2_);}
	.st2{fill:url(#SVGID_3_);}
	.st3{fill:url(#SVGID_4_);}
	.st4{fill:url(#SVGID_5_);}
	.st5{fill:url(#SVGID_6_);}
	.st6{fill:url(#SVGID_7_);}
	.st7{fill:url(#SVGID_8_);}
	.st8{fill:url(#SVGID_9_);}
	.st9{fill:url(#SVGID_10_);}
	.st10{fill:url(#SVGID_11_);}
	.st11{fill:url(#SVGID_12_);}
	.st12{fill:url(#SVGID_13_);}
	.st13{fill:url(#SVGID_14_);}
	.st14{fill:url(#SVGID_15_);}
	.st15{fill:url(#SVGID_16_);}
	.st16{fill:url(#SVGID_17_);}
	.st17{fill:url(#SVGID_18_);}
	.st18{fill:url(#SVGID_19_);}
	.st19{fill:url(#SVGID_20_);}
	.st20{fill:url(#SVGID_21_);}
	.st21{fill:url(#SVGID_22_);}
	.st22{fill:url(#SVGID_23_);}
	.st23{fill:url(#SVGID_24_);}
	.st24{fill:url(#SVGID_25_);}
	.st25{fill:url(#SVGID_26_);}
	.st26{fill:url(#SVGID_27_);}
	.st27{fill:url(#SVGID_28_);}
	.st28{fill:url(#SVGID_29_);}
	.st29{fill:url(#SVGID_30_);}
	.st30{fill:url(#SVGID_31_);}
	.st31{fill:url(#SVGID_32_);}
	.st32{fill:url(#SVGID_33_);}
	.st33{fill:url(#SVGID_34_);}
	.st34{fill:url(#SVGID_35_);}
	.st35{fill:url(#SVGID_36_);}
	.st36{fill:url(#SVGID_37_);}
	.st37{fill:url(#SVGID_38_);}
	.st38{fill:url(#SVGID_39_);}
	.st39{fill:url(#SVGID_40_);}
	.st40{fill:url(#SVGID_41_);}
	.st41{fill:url(#SVGID_42_);}
	.st42{fill:url(#SVGID_43_);}
	.st43{fill:url(#SVGID_44_);}
	.st44{fill:url(#SVGID_45_);}
	.st45{fill:url(#SVGID_46_);}
	.st46{fill:url(#SVGID_47_);}
	.st47{fill:url(#SVGID_48_);}
</style>
<g>
	<g>
		
			<radialGradient id="SVGID_1_" cx="25.9409" cy="25.7791" r="38.6018" gradientTransform="matrix(1 0 0 -1 0 51)" gradientUnits="userSpaceOnUse">
			<stop  offset="0.1505" style="stop-color:#CB83A9"/>
			<stop  offset="0.5323" style="stop-color:#B21F66"/>
			<stop  offset="1" style="stop-color:#B21F66"/>
		</radialGradient>
		<path class="st0" d="M42,2.8c-2.7,3.2-0.2,7.9,3.8,7.4c3.5-0.4,5.7-4.6,2.9-7.8C46.2,0.2,43.2,1.3,42,2.8"/>
		
			<radialGradient id="SVGID_2_" cx="25.9403" cy="25.7749" r="38.6043" gradientTransform="matrix(1 0 0 -1 0 51)" gradientUnits="userSpaceOnUse">
			<stop  offset="0.1505" style="stop-color:#CB83A9"/>
			<stop  offset="0.5323" style="stop-color:#B21F66"/>
			<stop  offset="1" style="stop-color:#B21F66"/>
		</radialGradient>
		<path class="st1" d="M35,9.8c-2.4,3.1,0,7.6,3.9,7.3c3.4-0.3,5.5-4.5,2.7-7.6C39.1,7.2,36.2,8.3,35,9.8"/>
		
			<radialGradient id="SVGID_3_" cx="25.9396" cy="25.7773" r="38.603" gradientTransform="matrix(1 0 0 -1 0 51)" gradientUnits="userSpaceOnUse">
			<stop  offset="0.1505" style="stop-color:#CB83A9"/>
			<stop  offset="0.5323" style="stop-color:#B21F66"/>
			<stop  offset="1" style="stop-color:#B21F66"/>
		</radialGradient>
		<path class="st2" d="M28.7,16.4c-2.1,2.9,0.7,7.4,4.3,6.9c2.7-0.4,4.6-3.9,1.9-7C32.4,14,29.8,15,28.7,16.4"/>
		
			<radialGradient id="SVGID_4_" cx="25.9396" cy="25.7767" r="38.6038" gradientTransform="matrix(1 0 0 -1 0 51)" gradientUnits="userSpaceOnUse">
			<stop  offset="0.1505" style="stop-color:#CB83A9"/>
			<stop  offset="0.5323" style="stop-color:#B21F66"/>
			<stop  offset="1" style="stop-color:#B21F66"/>
		</radialGradient>
		<path class="st3" d="M23.3,22.3c-1.9,2.7,1.1,7,4.5,6.4c2.3-0.4,3.6-3.4,1.1-6.2C26.5,20.2,24.2,21,23.3,22.3"/>
		
			<radialGradient id="SVGID_5_" cx="25.9396" cy="25.7767" r="38.5967" gradientTransform="matrix(1 0 0 -1 0 51)" gradientUnits="userSpaceOnUse">
			<stop  offset="0.1505" style="stop-color:#CB83A9"/>
			<stop  offset="0.5323" style="stop-color:#B21F66"/>
			<stop  offset="1" style="stop-color:#B21F66"/>
		</radialGradient>
		<path class="st4" d="M18.9,27.5c-1.5,2.5,1.5,6.4,4.4,5.6c1.9-0.5,2.6-3,0.4-5.4C21.6,25.7,19.6,26.4,18.9,27.5"/>
		
			<radialGradient id="SVGID_6_" cx="25.9409" cy="25.7797" r="38.6127" gradientTransform="matrix(1 0 0 -1 0 51)" gradientUnits="userSpaceOnUse">
			<stop  offset="0.1505" style="stop-color:#CB83A9"/>
			<stop  offset="0.5323" style="stop-color:#B21F66"/>
			<stop  offset="1" style="stop-color:#B21F66"/>
		</radialGradient>
		<path class="st5" d="M15.5,31.9c-1.1,2.1,1.8,5.5,4.1,4.8c1.3-0.4,1.8-2.3-0.1-4.4C17.6,30.4,16,30.9,15.5,31.9"/>
		
			<radialGradient id="SVGID_7_" cx="25.9378" cy="25.7773" r="38.6046" gradientTransform="matrix(1 0 0 -1 0 51)" gradientUnits="userSpaceOnUse">
			<stop  offset="0.1505" style="stop-color:#CB83A9"/>
			<stop  offset="0.5323" style="stop-color:#B21F66"/>
			<stop  offset="1" style="stop-color:#B21F66"/>
		</radialGradient>
		<path class="st6" d="M13.3,35.4c-0.6,1.6,2,4.4,3.6,3.8c0.9-0.4,0.9-1.8-0.5-3.4C14.9,34.4,13.6,34.5,13.3,35.4"/>
		
			<radialGradient id="SVGID_8_" cx="25.9403" cy="25.7713" r="38.593" gradientTransform="matrix(1 0 0 -1 0 51)" gradientUnits="userSpaceOnUse">
			<stop  offset="0.1505" style="stop-color:#CB83A9"/>
			<stop  offset="0.5323" style="stop-color:#B21F66"/>
			<stop  offset="1" style="stop-color:#B21F66"/>
		</radialGradient>
		<path class="st7" d="M12.1,37.8c-0.1,1.1,2.1,3.3,2.9,2.8c0.3-0.2,0.3-1.1-0.8-2.3C12.9,37.2,12.2,37.3,12.1,37.8"/>
	</g>
	<g>
		
			<radialGradient id="SVGID_9_" cx="25.9396" cy="25.7778" r="38.6036" gradientTransform="matrix(1 0 0 -1 0 51)" gradientUnits="userSpaceOnUse">
			<stop  offset="0" style="stop-color:#C8C9D8"/>
			<stop  offset="0.4355" style="stop-color:#5B5896"/>
			<stop  offset="1" style="stop-color:#312F7A"/>
		</radialGradient>
		<path class="st8" d="M28.5,2.6c-2.4,3.1-0.2,7.9,3.6,7.6c3.3-0.2,5.4-4.5,2.8-7.8C32.5,0,29.7,1.1,28.5,2.6"/>
		
			<radialGradient id="SVGID_10_" cx="25.9403" cy="25.7784" r="38.6006" gradientTransform="matrix(1 0 0 -1 0 51)" gradientUnits="userSpaceOnUse">
			<stop  offset="0" style="stop-color:#C8C9D8"/>
			<stop  offset="0.4355" style="stop-color:#5B5896"/>
			<stop  offset="1" style="stop-color:#312F7A"/>
		</radialGradient>
		<path class="st9" d="M22.4,9.4c-2.1,3,0.6,7.8,4.1,7.2c2.6-0.4,4.4-4.1,1.8-7.3C25.9,6.9,23.4,7.9,22.4,9.4"/>
		
			<radialGradient id="SVGID_11_" cx="25.939" cy="25.7778" r="38.6031" gradientTransform="matrix(1 0 0 -1 0 51)" gradientUnits="userSpaceOnUse">
			<stop  offset="0" style="stop-color:#C8C9D8"/>
			<stop  offset="0.4355" style="stop-color:#5B5896"/>
			<stop  offset="1" style="stop-color:#312F7A"/>
		</radialGradient>
		<path class="st10" d="M17.4,15.7c-1.7,3,1.2,7.5,4.3,6.7c2.1-0.5,3.3-3.7,0.9-6.7C20.4,13.4,18.2,14.3,17.4,15.7"/>
		
			<radialGradient id="SVGID_12_" cx="25.9396" cy="25.7778" r="38.604" gradientTransform="matrix(1 0 0 -1 0 51)" gradientUnits="userSpaceOnUse">
			<stop  offset="0" style="stop-color:#C8C9D8"/>
			<stop  offset="0.4355" style="stop-color:#5B5896"/>
			<stop  offset="1" style="stop-color:#312F7A"/>
		</radialGradient>
		<path class="st11" d="M13.6,21.5c-1.3,2.8,1.6,6.9,4.2,5.9c1.5-0.6,2.3-3.2,0.1-5.9C15.9,19.4,14.1,20.2,13.6,21.5"/>
		
			<radialGradient id="SVGID_13_" cx="25.9426" cy="25.7767" r="38.6102" gradientTransform="matrix(1 0 0 -1 0 51)" gradientUnits="userSpaceOnUse">
			<stop  offset="0" style="stop-color:#C8C9D8"/>
			<stop  offset="0.4355" style="stop-color:#5B5896"/>
			<stop  offset="1" style="stop-color:#312F7A"/>
		</radialGradient>
		<path class="st12" d="M10.9,26.7c-0.8,2.5,2.1,6.1,3.9,5.1c1-0.6,1.4-2.8-0.5-5C12.7,25,11.3,25.4,10.9,26.7"/>
		
			<radialGradient id="SVGID_14_" cx="25.9384" cy="25.7773" r="38.6008" gradientTransform="matrix(1 0 0 -1 0 51)" gradientUnits="userSpaceOnUse">
			<stop  offset="0" style="stop-color:#C8C9D8"/>
			<stop  offset="0.4355" style="stop-color:#5B5896"/>
			<stop  offset="1" style="stop-color:#312F7A"/>
		</radialGradient>
		<path class="st13" d="M9.4,31.1c-0.2,2.1,2.3,5.1,3.4,4c0.6-0.5,0.6-2.2-0.9-4C10.6,29.7,9.5,29.9,9.4,31.1"/>
		
			<radialGradient id="SVGID_15_" cx="25.9409" cy="25.7778" r="38.6058" gradientTransform="matrix(1 0 0 -1 0 51)" gradientUnits="userSpaceOnUse">
			<stop  offset="0" style="stop-color:#C8C9D8"/>
			<stop  offset="0.4355" style="stop-color:#5B5896"/>
			<stop  offset="1" style="stop-color:#312F7A"/>
		</radialGradient>
		<path class="st14" d="M9.2,34.6c0.3,1.3,2.1,3.7,2.6,3c0.2-0.3,0-1.6-1.1-3c-1-1.1-1.5-0.9-1.5-0.4C9.2,34.4,9.2,34.5,9.2,34.6"/>
	</g>
	<g>
		
			<radialGradient id="SVGID_16_" cx="25.9403" cy="25.7778" r="38.6043" gradientTransform="matrix(1 0 0 -1 0 51)" gradientUnits="userSpaceOnUse">
			<stop  offset="0.2204" style="stop-color:#D59EBC"/>
			<stop  offset="0.5806" style="stop-color:#B21F66"/>
			<stop  offset="1" style="stop-color:#B21F66"/>
		</radialGradient>
		<path class="st15" d="M16.7,2.2c-2,3.2,0.4,8.1,3.7,7.4c2.4-0.5,4.2-4.3,1.8-7.6C20-0.4,17.6,0.6,16.7,2.2"/>
		
			<radialGradient id="SVGID_17_" cx="25.939" cy="25.7743" r="38.6085" gradientTransform="matrix(1 0 0 -1 0 51)" gradientUnits="userSpaceOnUse">
			<stop  offset="0.2204" style="stop-color:#D59EBC"/>
			<stop  offset="0.5806" style="stop-color:#B21F66"/>
			<stop  offset="1" style="stop-color:#B21F66"/>
		</radialGradient>
		<path class="st16" d="M12,8.9c-1.6,3.2,1.1,7.9,3.9,6.9c1.9-0.7,3-4.1,0.8-7.1C14.7,6.4,12.7,7.4,12,8.9"/>
		
			<radialGradient id="SVGID_18_" cx="25.942" cy="25.7767" r="38.6105" gradientTransform="matrix(1 0 0 -1 0 51)" gradientUnits="userSpaceOnUse">
			<stop  offset="0.2204" style="stop-color:#D59EBC"/>
			<stop  offset="0.5806" style="stop-color:#B21F66"/>
			<stop  offset="1" style="stop-color:#B21F66"/>
		</radialGradient>
		<path class="st17" d="M8.6,15.4c-1,3.1,1.7,7.4,3.9,6.2c1.3-0.7,2-3.7-0.1-6.4C10.8,13.2,9.2,13.7,8.6,15.4"/>
		
			<radialGradient id="SVGID_19_" cx="25.9409" cy="25.7773" r="38.6079" gradientTransform="matrix(1 0 0 -1 0 51)" gradientUnits="userSpaceOnUse">
			<stop  offset="0.2204" style="stop-color:#D59EBC"/>
			<stop  offset="0.5806" style="stop-color:#B21F66"/>
			<stop  offset="1" style="stop-color:#B21F66"/>
		</radialGradient>
		<path class="st18" d="M6.6,21.3c-0.4,2.6,1.8,6.6,3.5,5.4c1-0.7,1.2-3.3-0.6-5.7C8,19.3,6.8,19.8,6.6,21.3"/>
		
			<radialGradient id="SVGID_20_" cx="25.9384" cy="25.7778" r="38.602" gradientTransform="matrix(1 0 0 -1 0 51)" gradientUnits="userSpaceOnUse">
			<stop  offset="0.2204" style="stop-color:#D59EBC"/>
			<stop  offset="0.5806" style="stop-color:#B21F66"/>
			<stop  offset="1" style="stop-color:#B21F66"/>
		</radialGradient>
		<path class="st19" d="M5.9,26.7c0.1,2.1,2.1,5.4,3,4.4c0.6-0.6,0.4-2.8-1.1-4.8c-1.3-1.5-1.8-0.9-1.9-0.1
			C5.9,26.3,5.9,26.5,5.9,26.7"/>
		
			<radialGradient id="SVGID_21_" cx="25.9403" cy="25.7773" r="38.6042" gradientTransform="matrix(1 0 0 -1 0 51)" gradientUnits="userSpaceOnUse">
			<stop  offset="0.2204" style="stop-color:#D59EBC"/>
			<stop  offset="0.5806" style="stop-color:#B21F66"/>
			<stop  offset="1" style="stop-color:#B21F66"/>
		</radialGradient>
		<path class="st20" d="M6.6,31.3c0.5,1.3,2.2,4,2.4,3.4c0.2-0.3-0.3-2.2-1.5-3.9c-1-1.2-1.1-0.5-1.1-0.4
			C6.4,30.6,6.4,30.9,6.6,31.3"/>
	</g>
	<g>
		
			<radialGradient id="SVGID_22_" cx="25.9403" cy="25.7791" r="38.6036" gradientTransform="matrix(1 0 0 -1 0 51)" gradientUnits="userSpaceOnUse">
			<stop  offset="0" style="stop-color:#FBD7CB"/>
			<stop  offset="0.6966" style="stop-color:#F15B2A"/>
			<stop  offset="1" style="stop-color:#7F3019"/>
		</radialGradient>
		<path class="st21" d="M7.4,2.5C6,5.8,8.2,10.4,10.7,9.2c1.9-0.9,2.6-4.6,0.8-7.4C9.8-0.4,8.1,0.9,7.4,2.5"/>
		
			<radialGradient id="SVGID_23_" cx="25.9426" cy="25.7773" r="38.6099" gradientTransform="matrix(1 0 0 -1 0 51)" gradientUnits="userSpaceOnUse">
			<stop  offset="0" style="stop-color:#FBD7CB"/>
			<stop  offset="0.6966" style="stop-color:#F15B2A"/>
			<stop  offset="1" style="stop-color:#7F3019"/>
		</radialGradient>
		<path class="st22" d="M4.5,9.5c-0.8,3.2,1.3,7.3,3.1,6.1c1.3-0.8,1.8-4.2,0.1-6.9C6.1,6.7,4.9,7.9,4.5,9.5"/>
		
			<radialGradient id="SVGID_24_" cx="25.9409" cy="25.7767" r="38.6066" gradientTransform="matrix(1 0 0 -1 0 51)" gradientUnits="userSpaceOnUse">
			<stop  offset="0" style="stop-color:#FBD7CB"/>
			<stop  offset="0.6966" style="stop-color:#F15B2A"/>
			<stop  offset="1" style="stop-color:#7F3019"/>
		</radialGradient>
		<path class="st23" d="M3,16.2c-0.2,2.7,1.6,6.6,2.9,5.4c0.9-0.8,0.9-3.9-0.6-6.3c-1.3-1.8-2.1-0.6-2.2,0.6C3,16,3,16.1,3,16.2"/>
		
			<radialGradient id="SVGID_25_" cx="25.9372" cy="25.7778" r="38.6003" gradientTransform="matrix(1 0 0 -1 0 51)" gradientUnits="userSpaceOnUse">
			<stop  offset="0" style="stop-color:#FBD7CB"/>
			<stop  offset="0.6966" style="stop-color:#F15B2A"/>
			<stop  offset="1" style="stop-color:#7F3019"/>
		</radialGradient>
		<path class="st24" d="M2.9,22.5c0.3,2.2,1.9,5.4,2.5,4.6c0.4-0.6,0.2-3.5-1.2-5.6c-1.1-1.5-1.3-0.2-1.3,0
			C2.8,21.6,2.8,21.9,2.9,22.5"/>
		
			<radialGradient id="SVGID_26_" cx="25.9396" cy="25.7784" r="38.6056" gradientTransform="matrix(1 0 0 -1 0 51)" gradientUnits="userSpaceOnUse">
			<stop  offset="0" style="stop-color:#FBD7CB"/>
			<stop  offset="0.6966" style="stop-color:#F15B2A"/>
			<stop  offset="1" style="stop-color:#7F3019"/>
		</radialGradient>
		<path class="st25" d="M4.3,28.1c0.6,1.5,1.9,3.6,2.2,3.7c0.2-0.2-0.8-3.1-1.9-4.8c-0.5-0.7-0.6-0.6-0.6-0.4
			C3.9,26.9,4,27.4,4.3,28.1"/>
	</g>
	<g>
		
			<radialGradient id="SVGID_27_" cx="25.9432" cy="25.7797" r="38.6073" gradientTransform="matrix(1 0 0 -1 0 51)" gradientUnits="userSpaceOnUse">
			<stop  offset="0.1989" style="stop-color:#DBF1FA"/>
			<stop  offset="0.7611" style="stop-color:#28A8E0"/>
			<stop  offset="1" style="stop-color:#1C698B"/>
		</radialGradient>
		<path class="st26" d="M1.3,4.1C0.6,7.4,2,11.2,3.5,10.1c1.1-0.9,1.7-4.7,0.4-7.3C2.6,0.9,1.6,2.5,1.3,4.1"/>
		
			<radialGradient id="SVGID_28_" cx="25.9444" cy="25.7784" r="38.6106" gradientTransform="matrix(1 0 0 -1 0 51)" gradientUnits="userSpaceOnUse">
			<stop  offset="0.1989" style="stop-color:#DBF1FA"/>
			<stop  offset="0.7611" style="stop-color:#28A8E0"/>
			<stop  offset="1" style="stop-color:#1C698B"/>
		</radialGradient>
		<path class="st27" d="M0.2,11.5c0,2.7,1.2,6.3,2.1,5.4C3,16.2,3.1,12.4,1.8,10c-1-1.6-1.4-0.1-1.5,0.2C0.3,10.5,0.2,10.9,0.2,11.5
			"/>
		
			<radialGradient id="SVGID_29_" cx="25.9451" cy="25.7761" r="38.6131" gradientTransform="matrix(1 0 0 -1 0 51)" gradientUnits="userSpaceOnUse">
			<stop  offset="0.1989" style="stop-color:#DBF1FA"/>
			<stop  offset="0.7611" style="stop-color:#28A8E0"/>
			<stop  offset="1" style="stop-color:#1C698B"/>
		</radialGradient>
		<path class="st28" d="M0.6,18.6c0.4,2.1,1.6,5.1,2,4.7C3,23,2.4,19,1.3,17c-0.5-0.8-0.7-0.6-0.8-0.2C0.5,17,0.4,17.5,0.6,18.6"/>
		
			<radialGradient id="SVGID_30_" cx="25.9372" cy="25.7778" r="38.601" gradientTransform="matrix(1 0 0 -1 0 51)" gradientUnits="userSpaceOnUse">
			<stop  offset="0.1989" style="stop-color:#DBF1FA"/>
			<stop  offset="0.7611" style="stop-color:#28A8E0"/>
			<stop  offset="1" style="stop-color:#1C698B"/>
		</radialGradient>
		<path class="st29" d="M2.6,25.2c0.2,0.6,0.5,1.2,0.9,1.8c0.3,0.6,0.8,1.4,1.1,2c0,0,0,0,0,0c0,0-1.5-4.2-2.4-5.7
			c-0.2-0.3-0.2-0.4-0.3-0.4C1.8,23.2,2.3,24.5,2.6,25.2"/>
	</g>
	<g>
		
			<radialGradient id="SVGID_31_" cx="25.9396" cy="25.7761" r="38.6029" gradientTransform="matrix(1 0 0 -1 0 51)" gradientUnits="userSpaceOnUse">
			<stop  offset="0" style="stop-color:#A4DBD8"/>
			<stop  offset="0.6321" style="stop-color:#00A79C"/>
			<stop  offset="1" style="stop-color:#008780"/>
		</radialGradient>
		<path class="st30" d="M42.4,39.8c-2.1,1.7-0.6,4.3,2.7,4.7c3.4,0.4,5.9-1.8,4.4-4c-0.2-0.3-0.5-0.6-0.8-0.8
			C46.3,38.2,43.6,38.9,42.4,39.8"/>
		
			<radialGradient id="SVGID_32_" cx="25.9403" cy="25.7743" r="38.5995" gradientTransform="matrix(1 0 0 -1 0 51)" gradientUnits="userSpaceOnUse">
			<stop  offset="0" style="stop-color:#A4DBD8"/>
			<stop  offset="0.6321" style="stop-color:#00A79C"/>
			<stop  offset="1" style="stop-color:#008780"/>
		</radialGradient>
		<path class="st31" d="M36.2,43.4c-1.9,1.2-0.6,3.4,2.4,4c3.2,0.6,5.6-1,4.2-2.8c-0.2-0.3-0.5-0.5-0.7-0.7
			C39.9,42.4,37.3,42.7,36.2,43.4"/>
		
			<radialGradient id="SVGID_33_" cx="25.9403" cy="25.7743" r="38.6008" gradientTransform="matrix(1 0 0 -1 0 51)" gradientUnits="userSpaceOnUse">
			<stop  offset="0" style="stop-color:#A4DBD8"/>
			<stop  offset="0.6321" style="stop-color:#00A79C"/>
			<stop  offset="1" style="stop-color:#008780"/>
		</radialGradient>
		<path class="st32" d="M30.6,45.7c-1.5,0.7-0.9,2.1,1.3,2.9c2.7,1,5.4,0.4,4.8-1.1c-0.2-0.4-0.6-0.8-0.8-1
			C33.9,45.3,31.6,45.3,30.6,45.7"/>
		
			<radialGradient id="SVGID_34_" cx="25.9396" cy="25.7719" r="38.596" gradientTransform="matrix(1 0 0 -1 0 51)" gradientUnits="userSpaceOnUse">
			<stop  offset="0" style="stop-color:#A4DBD8"/>
			<stop  offset="0.6321" style="stop-color:#00A79C"/>
			<stop  offset="1" style="stop-color:#008780"/>
		</radialGradient>
		<path class="st33" d="M25.6,46.7c-0.8,0.1-1.1,0.6-0.1,1.3c1.8,1.3,5.7,2.1,5.4,0.8c-0.1-0.4-0.5-0.7-0.7-0.9
			C28.5,46.8,26.5,46.6,25.6,46.7"/>
		
			<radialGradient id="SVGID_35_" cx="25.939" cy="25.7736" r="38.5989" gradientTransform="matrix(1 0 0 -1 0 51)" gradientUnits="userSpaceOnUse">
			<stop  offset="0" style="stop-color:#A4DBD8"/>
			<stop  offset="0.6321" style="stop-color:#00A79C"/>
			<stop  offset="1" style="stop-color:#008780"/>
		</radialGradient>
		<path class="st34" d="M21.4,46.4c-0.5-0.1-0.7-0.1-0.6,0.1c0.4,0.7,4.6,2.9,4.9,2.2c0.1-0.2-0.4-0.5-0.5-0.7
			C23.8,47.1,22.2,46.6,21.4,46.4"/>
	</g>
	<g>
		
			<radialGradient id="SVGID_36_" cx="25.9403" cy="25.7767" r="38.6036" gradientTransform="matrix(1 0 0 -1 0 51)" gradientUnits="userSpaceOnUse">
			<stop  offset="0" style="stop-color:#FCE2BA"/>
			<stop  offset="0.6482" style="stop-color:#FAAF43"/>
			<stop  offset="0.9946" style="stop-color:#B07C2D"/>
		</radialGradient>
		<path class="st35" d="M42.1,29.3c-2.3,2.5,0.1,6.2,3.9,6c3.4-0.2,5.4-3.7,2.6-6.3C46.1,27.1,43.3,28.1,42.1,29.3"/>
		
			<radialGradient id="SVGID_37_" cx="25.9396" cy="25.7803" r="38.6083" gradientTransform="matrix(1 0 0 -1 0 51)" gradientUnits="userSpaceOnUse">
			<stop  offset="0" style="stop-color:#FCE2BA"/>
			<stop  offset="0.6482" style="stop-color:#FAAF43"/>
			<stop  offset="0.9946" style="stop-color:#B07C2D"/>
		</radialGradient>
		<path class="st36" d="M36,34.5c-2.1,2.1,0.2,5.4,3.7,5.4c3.4,0.1,4.9-2.8,2.7-5c-0.1-0.1-0.2-0.2-0.3-0.3
			C39.7,32.8,37,33.4,36,34.5"/>
		
			<radialGradient id="SVGID_38_" cx="25.9396" cy="25.7797" r="38.6082" gradientTransform="matrix(1 0 0 -1 0 51)" gradientUnits="userSpaceOnUse">
			<stop  offset="0" style="stop-color:#FCE2BA"/>
			<stop  offset="0.6482" style="stop-color:#FAAF43"/>
			<stop  offset="0.9946" style="stop-color:#B07C2D"/>
		</radialGradient>
		<path class="st37" d="M30.4,38.6c-1.8,1.6,0.2,4.4,3.3,4.7c2.9,0.3,4.4-1.8,2.7-3.7c-0.1-0.2-0.4-0.4-0.5-0.5
			C33.7,37.3,31.4,37.7,30.4,38.6"/>
		
			<radialGradient id="SVGID_39_" cx="25.9403" cy="25.7778" r="38.6051" gradientTransform="matrix(1 0 0 -1 0 51)" gradientUnits="userSpaceOnUse">
			<stop  offset="0" style="stop-color:#FCE2BA"/>
			<stop  offset="0.6482" style="stop-color:#FAAF43"/>
			<stop  offset="0.9946" style="stop-color:#B07C2D"/>
		</radialGradient>
		<path class="st38" d="M25.5,41.5c-1.5,1.1,0.1,3.3,2.9,3.9c2.4,0.5,3.8-0.8,2.7-2.4c-0.2-0.3-0.4-0.5-0.6-0.7
			C28.4,40.8,26.4,40.9,25.5,41.5"/>
		
			<radialGradient id="SVGID_40_" cx="25.939" cy="25.7736" r="38.5993" gradientTransform="matrix(1 0 0 -1 0 51)" gradientUnits="userSpaceOnUse">
			<stop  offset="0" style="stop-color:#FCE2BA"/>
			<stop  offset="0.6482" style="stop-color:#FAAF43"/>
			<stop  offset="0.9946" style="stop-color:#B07C2D"/>
		</radialGradient>
		<path class="st39" d="M21.5,43.3c-1.2,0.6-0.1,2.1,2.1,2.9c1.9,0.7,3.3,0.3,2.8-0.9c-0.2-0.4-0.5-0.7-0.8-0.9
			C23.9,43,22.2,42.9,21.5,43.3"/>
		
			<radialGradient id="SVGID_41_" cx="25.9415" cy="25.7767" r="38.6006" gradientTransform="matrix(1 0 0 -1 0 51)" gradientUnits="userSpaceOnUse">
			<stop  offset="0" style="stop-color:#FCE2BA"/>
			<stop  offset="0.6482" style="stop-color:#FAAF43"/>
			<stop  offset="0.9946" style="stop-color:#B07C2D"/>
		</radialGradient>
		<path class="st40" d="M18.3,43.8c-0.3,0-0.7,0.2,0.2,0.9c1.5,1.3,3.7,2.1,3.6,1.3c0-0.3-0.5-0.7-0.7-0.9
			C20.1,44,18.7,43.8,18.3,43.8"/>
	</g>
	<g>
		
			<radialGradient id="SVGID_42_" cx="25.9403" cy="25.7767" r="38.6037" gradientTransform="matrix(1 0 0 -1 0 51)" gradientUnits="userSpaceOnUse">
			<stop  offset="0" style="stop-color:#E0959D"/>
			<stop  offset="0.4624" style="stop-color:#DE3457"/>
			<stop  offset="1" style="stop-color:#D71F30"/>
		</radialGradient>
		<path class="st41" d="M41.8,16.7c-2.4,3,0.1,7.3,4,6.9c3.5-0.4,5.6-4.5,2.7-7.4C45.9,14.1,43,15.2,41.8,16.7"/>
		
			<radialGradient id="SVGID_43_" cx="25.9396" cy="25.7778" r="38.6048" gradientTransform="matrix(1 0 0 -1 0 51)" gradientUnits="userSpaceOnUse">
			<stop  offset="0" style="stop-color:#E0959D"/>
			<stop  offset="0.4624" style="stop-color:#DE3457"/>
			<stop  offset="1" style="stop-color:#D71F30"/>
		</radialGradient>
		<path class="st42" d="M35.3,23.1c-2.3,2.8,0.5,7,4.4,6.5c3.1-0.4,4.7-3.9,2-6.6C39.1,20.8,36.4,21.7,35.3,23.1"/>
		
			<radialGradient id="SVGID_44_" cx="25.9409" cy="25.7767" r="38.6009" gradientTransform="matrix(1 0 0 -1 0 51)" gradientUnits="userSpaceOnUse">
			<stop  offset="0" style="stop-color:#E0959D"/>
			<stop  offset="0.4624" style="stop-color:#DE3457"/>
			<stop  offset="1" style="stop-color:#D71F30"/>
		</radialGradient>
		<path class="st43" d="M29.6,28.6c-2,2.4,0.6,6.2,4.2,6c2.9-0.2,4.2-3.2,1.7-5.8C33,26.7,30.5,27.4,29.6,28.6"/>
		
			<radialGradient id="SVGID_45_" cx="25.9396" cy="25.7797" r="38.6115" gradientTransform="matrix(1 0 0 -1 0 51)" gradientUnits="userSpaceOnUse">
			<stop  offset="0" style="stop-color:#E0959D"/>
			<stop  offset="0.4624" style="stop-color:#DE3457"/>
			<stop  offset="1" style="stop-color:#D71F30"/>
		</radialGradient>
		<path class="st44" d="M24.6,33.2c-1.8,2.1,1,5.5,4.1,5.3c2.4-0.2,3.4-2.6,1.1-4.8C27.6,31.7,25.4,32.2,24.6,33.2"/>
		
			<radialGradient id="SVGID_46_" cx="25.9403" cy="25.7797" r="38.6104" gradientTransform="matrix(1 0 0 -1 0 51)" gradientUnits="userSpaceOnUse">
			<stop  offset="0" style="stop-color:#E0959D"/>
			<stop  offset="0.4624" style="stop-color:#DE3457"/>
			<stop  offset="1" style="stop-color:#D71F30"/>
		</radialGradient>
		<path class="st45" d="M20.5,36.8c-1.4,1.6,1.2,4.6,3.9,4.4c1.7-0.1,2.6-1.8,0.6-3.8C23,35.8,21.1,36.1,20.5,36.8"/>
		
			<radialGradient id="SVGID_47_" cx="25.9403" cy="25.7755" r="38.6002" gradientTransform="matrix(1 0 0 -1 0 51)" gradientUnits="userSpaceOnUse">
			<stop  offset="0" style="stop-color:#E0959D"/>
			<stop  offset="0.4624" style="stop-color:#DE3457"/>
			<stop  offset="1" style="stop-color:#D71F30"/>
		</radialGradient>
		<path class="st46" d="M17.3,39.4c-1,1.1,1.3,3.6,3.4,3.6c1.4,0,1.6-1.3,0.4-2.5c-0.1-0.1-0.2-0.1-0.2-0.2
			C19.3,38.8,17.8,38.9,17.3,39.4"/>
		
			<radialGradient id="SVGID_48_" cx="25.9415" cy="25.773" r="38.5976" gradientTransform="matrix(1 0 0 -1 0 51)" gradientUnits="userSpaceOnUse">
			<stop  offset="0" style="stop-color:#E0959D"/>
			<stop  offset="0.4624" style="stop-color:#DE3457"/>
			<stop  offset="1" style="stop-color:#D71F30"/>
		</radialGradient>
		<path class="st47" d="M15.2,40.9c-0.6,0.6,1.8,2.7,3,2.7c0.6,0,0.7-0.6-0.4-1.7C16.6,40.8,15.5,40.6,15.2,40.9"/>
	</g>
</g>
</svg>
