<?xml version="1.0" encoding="utf-8"?>
<!-- Generator: Adobe Illustrator 16.0.0, SVG Export Plug-In . SVG Version: 6.00 Build 0)  -->
<!DOCTYPE svg PUBLIC "-//W3C//DTD SVG 1.1//EN" "http://www.w3.org/Graphics/SVG/1.1/DTD/svg11.dtd">
<svg version="1.1" id="Layer_1" xmlns="http://www.w3.org/2000/svg" xmlns:xlink="http://www.w3.org/1999/xlink" x="0px" y="0px"
	 width="122.258px" height="39.81px" viewBox="0 0 122.258 39.81" enable-background="new 0 0 122.258 39.81" xml:space="preserve">
<g>
	<g>
		<path fill="#F1F2F2" d="M47.202,9.313c0-0.383,0.137-0.542,0.574-0.542h3.338c4.248,0,6.203,1.877,6.203,6.3
			c0,5.247-2.833,6.935-6.203,6.935h-1.18v8.523c0,0.51,0,0.51-2.732,0.51V9.313z M51.619,11.03h-1.685v8.588h1.482
			c1.888,0,2.867-1.304,2.867-4.834C54.283,12.524,53.608,11.03,51.619,11.03z"/>
		<path fill="#F1F2F2" d="M65.342,8.485c4.381,0,6,2.608,6,11.195c0,8.746-1.92,11.643-6.371,11.643
			c-4.349,0-6.069-2.385-6.069-11.547C58.902,11.315,60.993,8.485,65.342,8.485z M65.106,28.685c2.428,0,3.271-2.451,3.271-8.939
			c0-6.361-0.676-8.619-3.102-8.619c-2.359,0-3.306,2.416-3.306,9.287C61.969,26.329,62.712,28.685,65.106,28.685z"/>
		<path fill="#F1F2F2" d="M73.772,9.313c0-0.383,0.137-0.542,0.573-0.542h3.338c4.249,0,6.204,1.877,6.204,6.3
			c0,5.247-2.831,6.935-6.204,6.935h-1.18v8.523c0,0.51,0,0.51-2.731,0.51V9.313z M78.188,11.03h-1.685v8.588h1.484
			c1.888,0,2.865-1.304,2.865-4.834C80.853,12.524,80.179,11.03,78.188,11.03z"/>
		<path fill="#F1F2F2" d="M88.743,24.612c0,2.576,0.404,4.357,3.236,4.357c1.18,0,2.395-0.285,2.967-0.572V9.313
			c0-0.542,0.035-0.542,2.765-0.542V30.21c-0.843,0.51-3.067,1.145-5.731,1.145c-5.395,0-6.068-3.117-6.068-6.805V9.313
			c0-0.542,0-0.542,2.832-0.542V24.612z"/>
		<path fill="#F1F2F2" d="M103.41,28.62h5.801v1.908c0,0.414-0.236,0.51-0.574,0.51h-7.99V9.503c0-0.732,0.068-0.732,2.764-0.732
			V28.62z"/>
		<path fill="#F1F2F2" d="M116.258,8.485c4.381,0,6,2.608,6,11.195c0,8.746-1.921,11.643-6.372,11.643
			c-4.348,0-6.067-2.385-6.067-11.547C109.819,11.315,111.908,8.485,116.258,8.485z M116.023,28.685
			c2.425,0,3.269-2.451,3.269-8.939c0-6.361-0.674-8.619-3.102-8.619c-2.361,0-3.304,2.416-3.304,9.287
			C112.886,26.329,113.628,28.685,116.023,28.685z"/>
	</g>
	<g>
		<g>
			<radialGradient id="SVGID_1_" cx="20.9263" cy="20.0303" r="31.355" gradientUnits="userSpaceOnUse">
				<stop  offset="0.1505" style="stop-color:#CA83A9"/>
				<stop  offset="0.5323" style="stop-color:#B20063"/>
				<stop  offset="1" style="stop-color:#B20063"/>
			</radialGradient>
			<path fill="url(#SVGID_1_)" d="M33.946,1.843c-2.156,2.57-0.2,6.384,3.08,6c2.843-0.33,4.601-3.766,2.353-6.299
				C37.357-0.31,34.984,0.604,33.946,1.843"/>
			<radialGradient id="SVGID_2_" cx="20.9258" cy="20.0337" r="31.3571" gradientUnits="userSpaceOnUse">
				<stop  offset="0.1505" style="stop-color:#CA83A9"/>
				<stop  offset="0.5323" style="stop-color:#B20063"/>
				<stop  offset="1" style="stop-color:#B20063"/>
			</radialGradient>
			<path fill="url(#SVGID_2_)" d="M28.262,7.526c-1.973,2.479,0.007,6.193,3.161,5.932c2.773-0.232,4.471-3.654,2.212-6.191
				C31.575,5.377,29.252,6.281,28.262,7.526"/>
			<radialGradient id="SVGID_3_" cx="20.9253" cy="20.0317" r="31.356" gradientUnits="userSpaceOnUse">
				<stop  offset="0.1505" style="stop-color:#CA83A9"/>
				<stop  offset="0.5323" style="stop-color:#B20063"/>
				<stop  offset="1" style="stop-color:#B20063"/>
			</radialGradient>
			<path fill="url(#SVGID_3_)" d="M23.169,12.853c-1.746,2.35,0.533,6.021,3.49,5.614c2.208-0.305,3.756-3.167,1.503-5.678
				C26.144,10.919,24.029,11.7,23.169,12.853"/>
			<radialGradient id="SVGID_4_" cx="20.9253" cy="20.0322" r="31.3567" gradientUnits="userSpaceOnUse">
				<stop  offset="0.1505" style="stop-color:#CA83A9"/>
				<stop  offset="0.5323" style="stop-color:#B20063"/>
				<stop  offset="1" style="stop-color:#B20063"/>
			</radialGradient>
			<path fill="url(#SVGID_4_)" d="M18.813,17.655c-1.531,2.226,0.907,5.697,3.625,5.158c1.829-0.363,2.948-2.772,0.878-5.061
				C21.396,15.962,19.525,16.62,18.813,17.655"/>
			<radialGradient id="SVGID_5_" cx="20.9253" cy="20.0322" r="31.3509" gradientUnits="userSpaceOnUse">
				<stop  offset="0.1505" style="stop-color:#CA83A9"/>
				<stop  offset="0.5323" style="stop-color:#B20063"/>
				<stop  offset="1" style="stop-color:#B20063"/>
			</radialGradient>
			<path fill="url(#SVGID_5_)" d="M15.231,21.878c-1.256,2.023,1.216,5.186,3.576,4.568c1.575-0.41,2.082-2.443,0.346-4.35
				C17.387,20.434,15.795,20.966,15.231,21.878"/>
			<radialGradient id="SVGID_6_" cx="20.9263" cy="20.0298" r="31.3639" gradientUnits="userSpaceOnUse">
				<stop  offset="0.1505" style="stop-color:#CA83A9"/>
				<stop  offset="0.5323" style="stop-color:#B20063"/>
				<stop  offset="1" style="stop-color:#B20063"/>
			</radialGradient>
			<path fill="url(#SVGID_6_)" d="M12.485,25.433c-0.923,1.738,1.443,4.496,3.331,3.883c1.027-0.334,1.492-1.854-0.08-3.57
				C14.167,24.263,12.891,24.669,12.485,25.433"/>
			<radialGradient id="SVGID_7_" cx="20.9238" cy="20.0317" r="31.3573" gradientUnits="userSpaceOnUse">
				<stop  offset="0.1505" style="stop-color:#CA83A9"/>
				<stop  offset="0.5323" style="stop-color:#B20063"/>
				<stop  offset="1" style="stop-color:#B20063"/>
			</radialGradient>
			<path fill="url(#SVGID_7_)" d="M10.623,28.259c-0.525,1.338,1.584,3.611,2.894,3.117c0.747-0.285,0.766-1.475-0.399-2.732
				C11.925,27.505,10.895,27.56,10.623,28.259"/>
			<radialGradient id="SVGID_8_" cx="20.9258" cy="20.0366" r="31.3479" gradientUnits="userSpaceOnUse">
				<stop  offset="0.1505" style="stop-color:#CA83A9"/>
				<stop  offset="0.5323" style="stop-color:#B20063"/>
				<stop  offset="1" style="stop-color:#B20063"/>
			</radialGradient>
			<path fill="url(#SVGID_8_)" d="M9.693,30.274c-0.096,0.889,1.738,2.674,2.341,2.275c0.264-0.18,0.233-0.861-0.67-1.828
				C10.363,29.755,9.745,29.845,9.693,30.274"/>
		</g>
		<g>
			<radialGradient id="SVGID_9_" cx="20.9253" cy="20.0313" r="31.3565" gradientUnits="userSpaceOnUse">
				<stop  offset="0" style="stop-color:#C9C9D8"/>
				<stop  offset="0.4355" style="stop-color:#5A5795"/>
				<stop  offset="1" style="stop-color:#312D7A"/>
			</radialGradient>
			<path fill="url(#SVGID_9_)" d="M23.012,1.663c-1.963,2.525-0.123,6.38,2.942,6.158c2.683-0.196,4.396-3.688,2.27-6.33
				C26.264-0.491,23.997,0.398,23.012,1.663"/>
			<radialGradient id="SVGID_10_" cx="20.9258" cy="20.0308" r="31.3541" gradientUnits="userSpaceOnUse">
				<stop  offset="0" style="stop-color:#C9C9D8"/>
				<stop  offset="0.4355" style="stop-color:#5A5795"/>
				<stop  offset="1" style="stop-color:#312D7A"/>
			</radialGradient>
			<path fill="url(#SVGID_10_)" d="M18.076,7.157c-1.676,2.471,0.48,6.313,3.295,5.875c2.095-0.326,3.574-3.328,1.448-5.941
				C20.905,5.132,18.892,5.95,18.076,7.157"/>
			<radialGradient id="SVGID_11_" cx="20.9248" cy="20.0313" r="31.3561" gradientUnits="userSpaceOnUse">
				<stop  offset="0" style="stop-color:#C9C9D8"/>
				<stop  offset="0.4355" style="stop-color:#5A5795"/>
				<stop  offset="1" style="stop-color:#312D7A"/>
			</radialGradient>
			<path fill="url(#SVGID_11_)" d="M14.021,12.302c-1.39,2.423,0.94,6.078,3.459,5.426c1.685-0.433,2.683-3.036,0.727-5.423
				C16.388,10.431,14.663,11.173,14.021,12.302"/>
			<radialGradient id="SVGID_12_" cx="20.9253" cy="20.0313" r="31.3568" gradientUnits="userSpaceOnUse">
				<stop  offset="0" style="stop-color:#C9C9D8"/>
				<stop  offset="0.4355" style="stop-color:#5A5795"/>
				<stop  offset="1" style="stop-color:#312D7A"/>
			</radialGradient>
			<path fill="url(#SVGID_12_)" d="M10.88,17.015c-1.045,2.305,1.327,5.645,3.432,4.828c1.226-0.475,1.898-2.629,0.119-4.785
				C12.756,15.319,11.346,15.985,10.88,17.015"/>
			<radialGradient id="SVGID_13_" cx="20.9277" cy="20.0322" r="31.3619" gradientUnits="userSpaceOnUse">
				<stop  offset="0" style="stop-color:#C9C9D8"/>
				<stop  offset="0.4355" style="stop-color:#5A5795"/>
				<stop  offset="1" style="stop-color:#312D7A"/>
			</radialGradient>
			<path fill="url(#SVGID_13_)" d="M8.696,21.202c-0.622,2.023,1.68,4.98,3.198,4.105c0.849-0.482,1.121-2.262-0.367-4.049
				C10.197,19.87,9.021,20.147,8.696,21.202"/>
			<radialGradient id="SVGID_14_" cx="20.9243" cy="20.0317" r="31.3542" gradientUnits="userSpaceOnUse">
				<stop  offset="0" style="stop-color:#C9C9D8"/>
				<stop  offset="0.4355" style="stop-color:#5A5795"/>
				<stop  offset="1" style="stop-color:#312D7A"/>
			</radialGradient>
			<path fill="url(#SVGID_14_)" d="M7.507,24.776c-0.188,1.746,1.833,4.146,2.769,3.289c0.474-0.428,0.481-1.787-0.724-3.229
				C8.448,23.675,7.605,23.868,7.507,24.776"/>
			<radialGradient id="SVGID_15_" cx="20.9263" cy="20.0313" r="31.3583" gradientUnits="userSpaceOnUse">
				<stop  offset="0" style="stop-color:#C9C9D8"/>
				<stop  offset="0.4355" style="stop-color:#5A5795"/>
				<stop  offset="1" style="stop-color:#312D7A"/>
			</radialGradient>
			<path fill="url(#SVGID_15_)" d="M7.346,27.651c0.226,1.057,1.744,2.98,2.121,2.471c0.185-0.256,0.036-1.281-0.929-2.416
				c-0.848-0.906-1.224-0.717-1.22-0.295C7.317,27.481,7.333,27.581,7.346,27.651"/>
		</g>
		<g>
			<radialGradient id="SVGID_16_" cx="20.9258" cy="20.0313" r="31.3571" gradientUnits="userSpaceOnUse">
				<stop  offset="0.2204" style="stop-color:#D59EBB"/>
				<stop  offset="0.5806" style="stop-color:#B20063"/>
				<stop  offset="1" style="stop-color:#B20063"/>
			</radialGradient>
			<path fill="url(#SVGID_16_)" d="M13.387,1.314c-1.616,2.595,0.342,6.55,2.993,6.049c1.962-0.37,3.392-3.499,1.455-6.171
				C16.067-0.817,14.167,0.054,13.387,1.314"/>
			<radialGradient id="SVGID_17_" cx="20.9248" cy="20.0342" r="31.3605" gradientUnits="userSpaceOnUse">
				<stop  offset="0.2204" style="stop-color:#D59EBB"/>
				<stop  offset="0.5806" style="stop-color:#B20063"/>
				<stop  offset="1" style="stop-color:#B20063"/>
			</radialGradient>
			<path fill="url(#SVGID_17_)" d="M9.611,6.808c-1.264,2.63,0.881,6.406,3.185,5.619c1.535-0.531,2.434-3.318,0.644-5.763
				C11.766,4.747,10.191,5.593,9.611,6.808"/>
			<radialGradient id="SVGID_18_" cx="20.9272" cy="20.0322" r="31.3621" gradientUnits="userSpaceOnUse">
				<stop  offset="0.2204" style="stop-color:#D59EBB"/>
				<stop  offset="0.5806" style="stop-color:#B20063"/>
				<stop  offset="1" style="stop-color:#B20063"/>
			</radialGradient>
			<path fill="url(#SVGID_18_)" d="M6.875,12.027c-0.828,2.513,1.405,6.022,3.184,5.012c1.067-0.606,1.59-2.989-0.041-5.2
				C8.625,10.226,7.322,10.666,6.875,12.027"/>
			<radialGradient id="SVGID_19_" cx="20.9263" cy="20.0317" r="31.36" gradientUnits="userSpaceOnUse">
				<stop  offset="0.2204" style="stop-color:#D59EBB"/>
				<stop  offset="0.5806" style="stop-color:#B20063"/>
				<stop  offset="1" style="stop-color:#B20063"/>
			</radialGradient>
			<path fill="url(#SVGID_19_)" d="M5.212,16.858c-0.329,2.09,1.485,5.338,2.857,4.367c0.773-0.545,0.982-2.664-0.469-4.609
				C6.377,15.19,5.406,15.63,5.212,16.858"/>
			<radialGradient id="SVGID_20_" cx="20.9243" cy="20.0313" r="31.3552" gradientUnits="userSpaceOnUse">
				<stop  offset="0.2204" style="stop-color:#D59EBB"/>
				<stop  offset="0.5806" style="stop-color:#B20063"/>
				<stop  offset="1" style="stop-color:#B20063"/>
			</radialGradient>
			<path fill="url(#SVGID_20_)" d="M4.641,21.206c0.101,1.746,1.698,4.391,2.45,3.596c0.458-0.482,0.346-2.287-0.873-3.904
				c-1.026-1.208-1.501-0.707-1.569-0.078C4.636,20.938,4.633,21.093,4.641,21.206"/>
			<radialGradient id="SVGID_21_" cx="20.9258" cy="20.0317" r="31.357" gradientUnits="userSpaceOnUse">
				<stop  offset="0.2204" style="stop-color:#D59EBB"/>
				<stop  offset="0.5806" style="stop-color:#B20063"/>
				<stop  offset="1" style="stop-color:#B20063"/>
			</radialGradient>
			<path fill="url(#SVGID_21_)" d="M5.186,24.958c0.37,1.043,1.753,3.215,1.952,2.771c0.131-0.283-0.217-1.807-1.24-3.146
				c-0.804-0.957-0.859-0.389-0.859-0.318C5.029,24.417,5.083,24.675,5.186,24.958"/>
		</g>
		<g>
			<radialGradient id="SVGID_22_" cx="20.9258" cy="20.0303" r="31.3565" gradientUnits="userSpaceOnUse">
				<stop  offset="0" style="stop-color:#FBD7CB"/>
				<stop  offset="0.6966" style="stop-color:#F05A28"/>
				<stop  offset="1" style="stop-color:#7E2F15"/>
			</radialGradient>
			<path fill="url(#SVGID_22_)" d="M5.879,1.535c-1.15,2.747,0.623,6.427,2.636,5.47c1.505-0.717,2.112-3.746,0.686-5.979
				C7.812-0.771,6.423,0.242,5.879,1.535"/>
			<radialGradient id="SVGID_23_" cx="20.9277" cy="20.0317" r="31.3616" gradientUnits="userSpaceOnUse">
				<stop  offset="0" style="stop-color:#FBD7CB"/>
				<stop  offset="0.6966" style="stop-color:#F05A28"/>
				<stop  offset="1" style="stop-color:#7E2F15"/>
			</radialGradient>
			<path fill="url(#SVGID_23_)" d="M3.491,7.239c-0.652,2.613,1.027,5.928,2.526,4.995c1.045-0.647,1.494-3.419,0.086-5.607
				C4.82,4.96,3.806,5.981,3.491,7.239"/>
			<radialGradient id="SVGID_24_" cx="20.9263" cy="20.0322" r="31.3589" gradientUnits="userSpaceOnUse">
				<stop  offset="0" style="stop-color:#FBD7CB"/>
				<stop  offset="0.6966" style="stop-color:#F05A28"/>
				<stop  offset="1" style="stop-color:#7E2F15"/>
			</radialGradient>
			<path fill="url(#SVGID_24_)" d="M2.269,12.696c-0.149,2.218,1.295,5.352,2.343,4.388c0.698-0.646,0.75-3.188-0.499-5.11
				c-1.092-1.436-1.698-0.479-1.82,0.461C2.284,12.513,2.273,12.617,2.269,12.696"/>
			<radialGradient id="SVGID_25_" cx="20.9233" cy="20.0313" r="31.3538" gradientUnits="userSpaceOnUse">
				<stop  offset="0" style="stop-color:#FBD7CB"/>
				<stop  offset="0.6966" style="stop-color:#F05A28"/>
				<stop  offset="1" style="stop-color:#7E2F15"/>
			</radialGradient>
			<path fill="url(#SVGID_25_)" d="M2.218,17.78c0.267,1.809,1.552,4.385,2.046,3.736c0.363-0.479,0.131-2.834-1.006-4.559
				c-0.925-1.232-1.063-0.145-1.076-0.02C2.163,17.095,2.159,17.366,2.218,17.78"/>
			<radialGradient id="SVGID_26_" cx="20.9253" cy="20.0308" r="31.3581" gradientUnits="userSpaceOnUse">
				<stop  offset="0" style="stop-color:#FBD7CB"/>
				<stop  offset="0.6966" style="stop-color:#F05A28"/>
				<stop  offset="1" style="stop-color:#7E2F15"/>
			</radialGradient>
			<path fill="url(#SVGID_26_)" d="M3.359,22.374c0.519,1.244,1.581,2.961,1.769,3.027c0.132-0.166-0.646-2.553-1.577-3.939
				c-0.396-0.537-0.505-0.461-0.526-0.303C2.997,21.356,3.121,21.802,3.359,22.374"/>
		</g>
		<g>
			<radialGradient id="SVGID_27_" cx="20.9282" cy="20.0298" r="31.3595" gradientUnits="userSpaceOnUse">
				<stop  offset="0.1989" style="stop-color:#DCF1FA"/>
				<stop  offset="0.7611" style="stop-color:#26A9E0"/>
				<stop  offset="1" style="stop-color:#18688A"/>
			</radialGradient>
			<path fill="url(#SVGID_27_)" d="M0.884,2.896C0.357,5.575,1.498,8.638,2.686,7.712C3.602,7.001,4.08,3.88,2.973,1.819
				C1.978,0.315,1.154,1.542,0.884,2.896"/>
			<radialGradient id="SVGID_28_" cx="20.9292" cy="20.0308" r="31.3622" gradientUnits="userSpaceOnUse">
				<stop  offset="0.1989" style="stop-color:#DCF1FA"/>
				<stop  offset="0.7611" style="stop-color:#26A9E0"/>
				<stop  offset="1" style="stop-color:#18688A"/>
			</radialGradient>
			<path fill="url(#SVGID_28_)" d="M0,8.916c-0.026,2.214,0.949,5.107,1.697,4.37c0.61-0.6,0.66-3.709-0.368-5.591
				C0.508,6.434,0.166,7.633,0.104,7.888C0.06,8.083,0.005,8.415,0,8.916"/>
			<radialGradient id="SVGID_29_" cx="20.9297" cy="20.0327" r="31.3642" gradientUnits="userSpaceOnUse">
				<stop  offset="0.1989" style="stop-color:#DCF1FA"/>
				<stop  offset="0.7611" style="stop-color:#26A9E0"/>
				<stop  offset="1" style="stop-color:#18688A"/>
			</radialGradient>
			<path fill="url(#SVGID_29_)" d="M0.355,14.675c0.326,1.7,1.299,4.164,1.612,3.842c0.304-0.307-0.134-3.5-1.071-5.189
				c-0.438-0.68-0.597-0.449-0.651-0.135C0.221,13.336,0.181,13.769,0.355,14.675"/>
			<radialGradient id="SVGID_30_" cx="20.9233" cy="20.0313" r="31.3544" gradientUnits="userSpaceOnUse">
				<stop  offset="0.1989" style="stop-color:#DCF1FA"/>
				<stop  offset="0.7611" style="stop-color:#26A9E0"/>
				<stop  offset="1" style="stop-color:#18688A"/>
			</radialGradient>
			<path fill="url(#SVGID_30_)" d="M1.955,20.032c0.201,0.457,0.443,0.965,0.725,1.502c0.272,0.49,0.629,1.145,0.911,1.625
				c0.01,0.016,0.022,0.027,0.034,0.039c-0.006-0.023-1.242-3.381-1.946-4.613c-0.139-0.23-0.196-0.292-0.26-0.304
				C1.29,18.411,1.696,19.442,1.955,20.032"/>
		</g>
		<g>
			<radialGradient id="SVGID_31_" cx="20.9253" cy="20.0327" r="31.3559" gradientUnits="userSpaceOnUse">
				<stop  offset="0" style="stop-color:#A2DFDB"/>
				<stop  offset="0.6321" style="stop-color:#00A69C"/>
				<stop  offset="1" style="stop-color:#00877F"/>
			</radialGradient>
			<path fill="url(#SVGID_31_)" d="M34.288,31.896c-1.686,1.385-0.482,3.508,2.18,3.852c2.756,0.357,4.79-1.477,3.566-3.211
				c-0.189-0.27-0.424-0.461-0.611-0.619C37.472,30.595,35.245,31.11,34.288,31.896"/>
			<radialGradient id="SVGID_32_" cx="20.9258" cy="20.0342" r="31.3532" gradientUnits="userSpaceOnUse">
				<stop  offset="0" style="stop-color:#A2DFDB"/>
				<stop  offset="0.6321" style="stop-color:#00A69C"/>
				<stop  offset="1" style="stop-color:#00877F"/>
			</radialGradient>
			<path fill="url(#SVGID_32_)" d="M29.282,34.804c-1.547,0.994-0.508,2.75,1.916,3.242c2.569,0.521,4.516-0.789,3.412-2.297
				c-0.168-0.234-0.385-0.412-0.562-0.555C32.252,33.966,30.18,34.226,29.282,34.804"/>
			<radialGradient id="SVGID_33_" cx="20.9258" cy="20.0342" r="31.3542" gradientUnits="userSpaceOnUse">
				<stop  offset="0" style="stop-color:#A2DFDB"/>
				<stop  offset="0.6321" style="stop-color:#00A69C"/>
				<stop  offset="1" style="stop-color:#00877F"/>
			</radialGradient>
			<path fill="url(#SVGID_33_)" d="M24.712,36.685C23.478,37.22,24,38.38,25.789,39.067c2.205,0.852,4.386,0.365,3.891-0.865
				c-0.146-0.357-0.481-0.631-0.684-0.793C27.413,36.315,25.538,36.325,24.712,36.685"/>
			<radialGradient id="SVGID_34_" cx="20.9253" cy="20.0361" r="31.3503" gradientUnits="userSpaceOnUse">
				<stop  offset="0" style="stop-color:#A2DFDB"/>
				<stop  offset="0.6321" style="stop-color:#00A69C"/>
				<stop  offset="1" style="stop-color:#00877F"/>
			</radialGradient>
			<path fill="url(#SVGID_34_)" d="M20.677,37.511c-0.636,0.104-0.915,0.482-0.106,1.09c1.449,1.086,4.599,1.725,4.396,0.672
				c-0.057-0.301-0.394-0.572-0.599-0.732C22.99,37.571,21.371,37.396,20.677,37.511"/>
			<radialGradient id="SVGID_35_" cx="20.9248" cy="20.0347" r="31.3527" gradientUnits="userSpaceOnUse">
				<stop  offset="0" style="stop-color:#A2DFDB"/>
				<stop  offset="0.6321" style="stop-color:#00A69C"/>
				<stop  offset="1" style="stop-color:#00877F"/>
			</radialGradient>
			<path fill="url(#SVGID_35_)" d="M17.276,37.253c-0.416-0.094-0.59-0.076-0.517,0.047c0.333,0.563,3.767,2.367,3.96,1.811
				c0.053-0.158-0.304-0.439-0.439-0.547C19.224,37.81,17.853,37.374,17.276,37.253"/>
		</g>
		<g>
			<radialGradient id="SVGID_36_" cx="20.9258" cy="20.0322" r="31.3565" gradientUnits="userSpaceOnUse">
				<stop  offset="0" style="stop-color:#FDE2BA"/>
				<stop  offset="0.6482" style="stop-color:#FAAF40"/>
				<stop  offset="0.9946" style="stop-color:#B07B2D"/>
			</radialGradient>
			<path fill="url(#SVGID_36_)" d="M34.076,23.374c-1.866,2.043,0.107,5.045,3.2,4.867c2.769-0.16,4.412-2.965,2.112-5.088
				C37.306,21.579,35.028,22.335,34.076,23.374"/>
			<radialGradient id="SVGID_37_" cx="20.9253" cy="20.0293" r="31.3603" gradientUnits="userSpaceOnUse">
				<stop  offset="0" style="stop-color:#FDE2BA"/>
				<stop  offset="0.6482" style="stop-color:#FAAF40"/>
				<stop  offset="0.9946" style="stop-color:#B07B2D"/>
			</radialGradient>
			<path fill="url(#SVGID_37_)" d="M29.067,27.556c-1.692,1.68,0.135,4.354,3.01,4.4c2.738,0.047,4-2.275,2.213-4.072
				c-0.068-0.068-0.171-0.154-0.242-0.223C32.063,26.147,29.941,26.688,29.067,27.556"/>
			<radialGradient id="SVGID_38_" cx="20.9253" cy="20.0298" r="31.3602" gradientUnits="userSpaceOnUse">
				<stop  offset="0" style="stop-color:#FDE2BA"/>
				<stop  offset="0.6482" style="stop-color:#FAAF40"/>
				<stop  offset="0.9946" style="stop-color:#B07B2D"/>
			</radialGradient>
			<path fill="url(#SVGID_38_)" d="M24.543,30.862c-1.482,1.287,0.147,3.578,2.721,3.826c2.333,0.229,3.562-1.436,2.233-3.014
				c-0.111-0.135-0.285-0.297-0.418-0.416C27.25,29.853,25.325,30.181,24.543,30.862"/>
			<radialGradient id="SVGID_39_" cx="20.9258" cy="20.0313" r="31.3577" gradientUnits="userSpaceOnUse">
				<stop  offset="0" style="stop-color:#FDE2BA"/>
				<stop  offset="0.6482" style="stop-color:#FAAF40"/>
				<stop  offset="0.9946" style="stop-color:#B07B2D"/>
			</radialGradient>
			<path fill="url(#SVGID_39_)" d="M20.59,33.253c-1.256,0.895,0.105,2.719,2.347,3.154c1.972,0.383,3.097-0.641,2.157-1.949
				c-0.164-0.229-0.361-0.408-0.521-0.553C22.954,32.651,21.268,32.771,20.59,33.253"/>
			<radialGradient id="SVGID_40_" cx="20.9248" cy="20.0347" r="31.353" gradientUnits="userSpaceOnUse">
				<stop  offset="0" style="stop-color:#FDE2BA"/>
				<stop  offset="0.6482" style="stop-color:#FAAF40"/>
				<stop  offset="0.9946" style="stop-color:#B07B2D"/>
			</radialGradient>
			<path fill="url(#SVGID_40_)" d="M17.286,34.688c-0.947,0.453-0.056,1.668,1.696,2.32c1.575,0.584,2.694,0.236,2.254-0.699
				c-0.152-0.326-0.443-0.584-0.616-0.744C19.266,34.507,17.855,34.415,17.286,34.688"/>
			<radialGradient id="SVGID_41_" cx="20.9268" cy="20.0322" r="31.3541" gradientUnits="userSpaceOnUse">
				<stop  offset="0" style="stop-color:#FDE2BA"/>
				<stop  offset="0.6482" style="stop-color:#FAAF40"/>
				<stop  offset="0.9946" style="stop-color:#B07B2D"/>
			</radialGradient>
			<path fill="url(#SVGID_41_)" d="M14.721,35.122c-0.242,0.02-0.539,0.139,0.174,0.738c1.246,1.039,3.038,1.68,2.955,1.055
				c-0.036-0.26-0.404-0.588-0.544-0.707C16.19,35.319,15.083,35.093,14.721,35.122"/>
		</g>
		<g>
			<radialGradient id="SVGID_42_" cx="20.9258" cy="20.0322" r="31.3566" gradientUnits="userSpaceOnUse">
				<stop  offset="0" style="stop-color:#E0949C"/>
				<stop  offset="0.4624" style="stop-color:#DE3357"/>
				<stop  offset="1" style="stop-color:#D6002D"/>
			</radialGradient>
			<path fill="url(#SVGID_42_)" d="M33.8,13.13c-1.99,2.43,0.058,5.945,3.273,5.613c2.832-0.293,4.534-3.628,2.2-6.018
				C37.164,10.972,34.8,11.906,33.8,13.13"/>
			<radialGradient id="SVGID_43_" cx="20.9253" cy="20.0313" r="31.3575" gradientUnits="userSpaceOnUse">
				<stop  offset="0" style="stop-color:#E0949C"/>
				<stop  offset="0.4624" style="stop-color:#DE3357"/>
				<stop  offset="1" style="stop-color:#D6002D"/>
			</radialGradient>
			<path fill="url(#SVGID_43_)" d="M28.551,18.293c-1.888,2.286,0.41,5.687,3.563,5.267c2.529-0.334,3.787-3.175,1.615-5.381
				C31.654,16.438,29.452,17.196,28.551,18.293"/>
			<radialGradient id="SVGID_44_" cx="20.9263" cy="20.0322" r="31.3543" gradientUnits="userSpaceOnUse">
				<stop  offset="0" style="stop-color:#E0949C"/>
				<stop  offset="0.4624" style="stop-color:#DE3357"/>
				<stop  offset="1" style="stop-color:#D6002D"/>
			</radialGradient>
			<path fill="url(#SVGID_44_)" d="M23.871,22.774c-1.63,1.957,0.521,5.029,3.385,4.834c2.343-0.156,3.451-2.617,1.38-4.701
				C26.662,21.237,24.661,21.825,23.871,22.774"/>
			<radialGradient id="SVGID_45_" cx="20.9253" cy="20.0298" r="31.3629" gradientUnits="userSpaceOnUse">
				<stop  offset="0" style="stop-color:#E0949C"/>
				<stop  offset="0.4624" style="stop-color:#DE3357"/>
				<stop  offset="1" style="stop-color:#D6002D"/>
			</radialGradient>
			<path fill="url(#SVGID_45_)" d="M19.824,26.522c-1.425,1.686,0.775,4.477,3.364,4.268c1.947-0.158,2.725-2.092,0.887-3.932
				C22.257,25.312,20.495,25.729,19.824,26.522"/>
			<radialGradient id="SVGID_46_" cx="20.9258" cy="20.0298" r="31.362" gradientUnits="userSpaceOnUse">
				<stop  offset="0" style="stop-color:#E0949C"/>
				<stop  offset="0.4624" style="stop-color:#DE3357"/>
				<stop  offset="1" style="stop-color:#D6002D"/>
			</radialGradient>
			<path fill="url(#SVGID_46_)" d="M16.479,29.476c-1.16,1.336,0.969,3.766,3.165,3.613c1.352-0.094,2.146-1.438,0.471-3.1
				C18.505,28.604,17.021,28.858,16.479,29.476"/>
			<radialGradient id="SVGID_47_" cx="20.9258" cy="20.0332" r="31.3537" gradientUnits="userSpaceOnUse">
				<stop  offset="0" style="stop-color:#E0949C"/>
				<stop  offset="0.4624" style="stop-color:#DE3357"/>
				<stop  offset="1" style="stop-color:#D6002D"/>
			</radialGradient>
			<path fill="url(#SVGID_47_)" d="M13.907,31.583c-0.85,0.926,1.049,2.9,2.784,2.893c1.148-0.002,1.302-1.025,0.316-2.064
				c-0.05-0.051-0.122-0.115-0.169-0.168C15.496,31.079,14.296,31.163,13.907,31.583"/>
			<radialGradient id="SVGID_48_" cx="20.9268" cy="20.0352" r="31.3516" gradientUnits="userSpaceOnUse">
				<stop  offset="0" style="stop-color:#E0949C"/>
				<stop  offset="0.4624" style="stop-color:#DE3357"/>
				<stop  offset="1" style="stop-color:#D6002D"/>
			</radialGradient>
			<path fill="url(#SVGID_48_)" d="M12.173,32.782c-0.493,0.463,1.448,2.18,2.443,2.16c0.455-0.006,0.601-0.486-0.306-1.369
				C13.305,32.692,12.42,32.546,12.173,32.782"/>
		</g>
	</g>
</g>
<g>
</g>
<g>
</g>
<g>
</g>
<g>
</g>
<g>
</g>
<g>
</g>
</svg>
