<?xml version="1.0" encoding="utf-8"?>
<!-- Generator: Adobe Illustrator 19.0.0, SVG Export Plug-In . SVG Version: 6.00 Build 0)  -->
<svg version="1.1" id="Layer_1" xmlns="http://www.w3.org/2000/svg" xmlns:xlink="http://www.w3.org/1999/xlink" x="0px" y="0px"
	 viewBox="0 0 23.4 20.5" style="enable-background:new 0 0 23.4 20.5;" xml:space="preserve">
<style type="text/css">
	.st0{fill:#FFFFFF;}
</style>
<g id="XMLID_114_">
	<path id="XMLID_115_" class="st0" d="M5.9,0h11.7v2.9H5.9V0z M22,4.4H1.5C0.7,4.4,0,5.1,0,5.9v7.3c0,0.8,0.7,1.5,1.5,1.5h4.4v5.9
		h11.7v-5.9H22c0.8,0,1.5-0.7,1.5-1.5V5.9C23.4,5.1,22.8,4.4,22,4.4L22,4.4z M16.1,19H7.3v-7.3h8.8V19z M22.3,6.6
		c0,0.6-0.5,1.1-1.1,1.1c-0.6,0-1.1-0.5-1.1-1.1c0-0.6,0.5-1.1,1.1-1.1C21.8,5.5,22.3,6,22.3,6.6L22.3,6.6z M22.3,6.6"/>
</g>
<g id="XMLID_14_">
</g>
<g id="XMLID_15_">
</g>
<g id="XMLID_16_">
</g>
<g id="XMLID_17_">
</g>
<g id="XMLID_18_">
</g>
<g id="XMLID_19_">
</g>
</svg>
