<?xml version="1.0" encoding="utf-8"?>
<!-- Generator: Adobe Illustrator 19.0.0, SVG Export Plug-In . SVG Version: 6.00 Build 0)  -->
<svg version="1.1" id="Layer_1" xmlns="http://www.w3.org/2000/svg" xmlns:xlink="http://www.w3.org/1999/xlink" x="0px" y="0px"
	 viewBox="0 0 35 35" style="enable-background:new 0 0 35 35;" xml:space="preserve">
<style type="text/css">
	.st0{fill:#FFFFFF;}
</style>
<g id="XMLID_126_">
	<path id="XMLID_127_" class="st0" d="M17.5,0C7.9,0,0,7.9,0,17.5C0,27.1,7.9,35,17.5,35C27.1,35,35,27.1,35,17.5
		C35,7.9,27.1,0,17.5,0L17.5,0z M8.9,26.1c-0.2,0.1-0.7,0.3-1-0.1l-0.5-0.7c-0.3-0.4,0.1-0.8,0.3-1c1-0.8,1.7-1.4,2.1-1.9
		c0.9-0.9,1.5-1.8,1.9-2.7c0.1-0.2-0.1-0.3-0.3-0.4c-3.2-1-4.7-2.9-4.7-5.5c0-1.5,0.5-2.8,1.5-3.7c1-1,2.3-1.4,3.8-1.4
		c1.4,0,2.6,0.6,3.6,1.9c1,1.2,1.6,2.5,1.6,3.8C17.2,18.5,14.5,22.4,8.9,26.1L8.9,26.1z M20.9,26.1c-0.2,0.1-0.7,0.3-1-0.1l-0.5-0.7
		c-0.3-0.4,0.1-0.8,0.3-1c1-0.8,1.7-1.4,2.1-1.9c0.9-0.9,1.5-1.8,1.9-2.7c0.1-0.2-0.1-0.3-0.3-0.4c-3.2-1-4.7-2.9-4.7-5.5
		c0-1.5,0.5-2.8,1.5-3.7c1-1,2.3-1.4,3.8-1.4c1.4,0,2.6,0.6,3.6,1.9c1,1.2,1.6,2.5,1.6,3.8C29.2,18.5,26.5,22.4,20.9,26.1L20.9,26.1
		z M20.9,26.1"/>
</g>
</svg>
