<?xml version="1.0" encoding="utf-8"?>
<!-- Generator: Adobe Illustrator 19.0.0, SVG Export Plug-In . SVG Version: 6.00 Build 0)  -->
<svg version="1.1" id="Layer_1" xmlns="http://www.w3.org/2000/svg" xmlns:xlink="http://www.w3.org/1999/xlink" x="0px" y="0px"
	 viewBox="0 0 23.5 11.3" style="enable-background:new 0 0 23.5 11.3;" xml:space="preserve">
<style type="text/css">
	.st0{fill:#CFCFD1;}
</style>
<path class="st0" d="M21.4,0c-1.2,0-2.1,0.9-2.1,2.1c0,0.1,0,0.1,0,0.1c-1.6,1.2-3.2,2.6-5,4.4C14.3,6.7,14.2,6.8,14,7
	c-0.4,0.4-1.1,1.3-1.6,1.3c0,0,0,0,0,0c-0.6-0.5-0.9-1.4-1.1-2.1L11,5.6c-0.4-1-0.8-2.2-1.6-3.2C9,1.9,8.5,1.7,7.8,1.7
	C7.2,1.7,6.6,1.9,6,2.3C4.7,3.2,4,4.5,3.3,5.7c-0.3,0.5-0.6,1-1,1.5c-0.1,0-0.1,0-0.2,0C0.9,7.1,0,8.1,0,9.2c0,1.2,0.9,2.1,2.1,2.1
	c1.2,0,2.1-0.9,2.1-2.1C4.2,9,4.1,8.7,4,8.4C4.3,8,4.6,7.5,4.8,7.1C5.5,5.9,6.2,4.8,7.3,4c0.2-0.1,0.3-0.2,0.4-0.2
	c0.1,0,0.2,0,0.4,0.4C8.5,4.7,8.7,5.4,8.9,6l0.2,0.6c0.3,0.9,0.6,1.7,1.1,2.5c0.6,0.9,1.4,1.4,2.2,1.4l0.2,0c1.1-0.1,2-1,2.6-1.7
	l0.2-0.2c1.6-1.7,3.3-3.2,5-4.5c0.3,0.1,0.6,0.2,0.9,0.2c1.2,0,2.1-0.9,2.1-2.1C23.5,0.9,22.6,0,21.4,0z"/>
<g id="XMLID_14_">
</g>
<g id="XMLID_15_">
</g>
<g id="XMLID_16_">
</g>
<g id="XMLID_17_">
</g>
<g id="XMLID_18_">
</g>
<g id="XMLID_19_">
</g>
</svg>
