<?xml version="1.0" encoding="utf-8"?>
<!-- Generator: Adobe Illustrator 16.0.0, SVG Export Plug-In . SVG Version: 6.00 Build 0)  -->
<!DOCTYPE svg PUBLIC "-//W3C//DTD SVG 1.1//EN" "http://www.w3.org/Graphics/SVG/1.1/DTD/svg11.dtd">
<svg version="1.1" id="Layer_1" xmlns="http://www.w3.org/2000/svg" xmlns:xlink="http://www.w3.org/1999/xlink" x="0px" y="0px"
	 width="25px" height="25px" viewBox="0 0 25 25" enable-background="new 0 0 25 25" xml:space="preserve">
<path fill="#1E92CB" d="M6.058,22.296c-0.351,0.082-0.694,0.147-1.046,0.2c-0.85,0.129-1.727,0.169-2.589,0.134
	c-0.07,0-0.142-0.091-0.144-0.149c0.002-0.135,0.013-0.32,0.019-0.453c0.008-0.188,0.021-0.381,0.036-0.568
	c0.03-0.432,0.078-0.863,0.152-1.289C2.61,19.426,2.794,18.693,3.095,18c0.037-0.098,0.081-0.188,0.119-0.288
	c-0.791,0.317-1.417,0.972-1.863,1.679c-0.434,0.691-0.723,1.465-0.892,2.264C0.36,22.121,0.305,22.6,0.287,23.077
	c-0.008,0.265-0.034,0.585,0.054,0.841c0.123,0.364,0.455,0.614,0.833,0.648c0.338,0.029,0.684,0.033,1.024,0.019
	c1.555-0.067,3.227-0.573,4.344-1.703c0.273-0.297,0.517-0.604,0.686-0.972C6.838,22.044,6.455,22.193,6.058,22.296z"/>
<path fill="#1E92CB" d="M15.835,17.611l-0.147-0.773l2.502-2.502c5.582-5.58,6.594-11.318,6.77-13.47
	c0.02-0.234-0.061-0.462-0.23-0.632c-0.164-0.164-0.39-0.247-0.621-0.232c-2.168,0.16-7.951,1.126-13.538,6.713L8.063,9.221
	L7.292,9.066C5.8,8.776,4.259,9.246,3.185,10.32l-2.987,2.987c-0.176,0.176-0.24,0.44-0.167,0.68c0.071,0.238,0.27,0.42,0.514,0.468
	l2.503,0.5c0.699,0.144,1.345,0.487,1.853,0.994l0.555,0.558l0.546,0.546L7.85,18.9l0.642,0.643l0.458,0.459
	c0.508,0.509,0.858,1.152,0.997,1.852l0.501,2.504c0.046,0.246,0.228,0.445,0.468,0.518c0.241,0.075,0.501,0.006,0.677-0.17
	l2.987-2.987C15.652,20.641,16.121,19.104,15.835,17.611z M23.005,1.946c-0.204,1.19-0.626,2.813-1.487,4.657
	c-0.158-0.766-0.535-1.497-1.127-2.091c-0.584-0.58-1.293-0.955-2.043-1.119C20.188,2.55,21.813,2.143,23.005,1.946z M15.793,9.107
	c-0.915-0.916-0.917-2.406,0-3.322c0.919-0.92,2.406-0.915,3.322,0.001c0.918,0.918,0.918,2.402-0.002,3.321
	C18.197,10.023,16.714,10.026,15.793,9.107z"/>
</svg>
