<?xml version="1.0" encoding="utf-8"?>
<!-- Generator: Adobe Illustrator 16.0.0, SVG Export Plug-In . SVG Version: 6.00 Build 0)  -->
<!DOCTYPE svg PUBLIC "-//W3C//DTD SVG 1.1//EN" "http://www.w3.org/Graphics/SVG/1.1/DTD/svg11.dtd">
<svg version="1.1" id="Layer_1" xmlns="http://www.w3.org/2000/svg" xmlns:xlink="http://www.w3.org/1999/xlink" x="0px" y="0px"
	 width="20px" height="20px" viewBox="0 0 20 20" enable-background="new 0 0 20 20" xml:space="preserve">
<g>
	<path fill="#FFFFFF" d="M0.772,6.118h2.23H7.3h0.703C8.191,5.747,8.41,5.381,8.669,5.032c0.043-0.059,0.094-0.108,0.138-0.164H7.3
		H3.003h-2.23c-0.345,0-0.626,0.279-0.626,0.625S0.427,6.118,0.772,6.118z"/>
	<path fill="#FFFFFF" d="M4.835,7.676h-2.23c-0.346,0-0.626,0.28-0.626,0.625c0,0.346,0.28,0.625,0.626,0.625h2.23h1.67h0.591
		c0.07-0.389,0.165-0.81,0.297-1.251H6.505H4.835z"/>
	<path fill="#FFFFFF" d="M6.609,11.8l0.029-0.043c0.113-0.184,0.2-0.705,0.262-1.199H3.003H0.648c-0.345,0-0.625,0.279-0.625,0.625
		s0.28,0.625,0.625,0.625h2.354h3.603L6.609,11.8z"/>
	<path fill="#FFFFFF" d="M3.676,13.366c-0.345,0-0.625,0.279-0.625,0.627c0,0.344,0.28,0.623,0.625,0.623h1.573
		c-0.089-0.48-0.026-0.896,0.11-1.25H3.676z"/>
	<path fill="#FFFFFF" d="M19.237,12.929c-0.196-0.172-0.384-0.334-0.493-0.533c-0.005-0.008-0.009-0.016-0.013-0.021
		c-0.347-0.553-0.461-1.766-0.536-2.568c-0.01-0.108-0.021-0.21-0.029-0.307c-0.001-0.006-0.002-0.014-0.002-0.02
		c-0.149-1.045-0.52-2.552-1.431-3.785c-0.669-0.904-1.52-1.493-2.499-1.738V3.886c0-0.598-0.488-1.084-1.085-1.084
		s-1.085,0.486-1.085,1.084v0.071c-0.98,0.245-1.831,0.833-2.498,1.738C8.653,6.928,8.284,8.435,8.135,9.48
		C8.133,9.486,8.133,9.494,8.132,9.5c-0.01,0.097-0.019,0.198-0.03,0.307c-0.074,0.802-0.188,2.015-0.536,2.568
		c-0.004,0.006-0.008,0.014-0.012,0.021c-0.11,0.199-0.296,0.361-0.493,0.533c-0.437,0.385-1.098,0.963-0.503,2.066
		c0.079,0.146,0.232,0.236,0.397,0.236h4.052c0.094,1.1,1.018,1.967,2.142,1.967c1.123,0,2.047-0.867,2.141-1.967h4.052
		c0.166,0,0.317-0.09,0.398-0.236C20.334,13.892,19.674,13.313,19.237,12.929z M13.149,16.06c-0.494,0-0.906-0.357-0.993-0.828
		h1.985C14.056,15.702,13.644,16.06,13.149,16.06z"/>
</g>
<g>
</g>
<g>
</g>
<g>
</g>
<g>
</g>
<g>
</g>
<g>
</g>
</svg>
