<?xml version="1.0" encoding="utf-8"?>
<!-- Generator: Adobe Illustrator 16.0.0, SVG Export Plug-In . SVG Version: 6.00 Build 0)  -->
<!DOCTYPE svg PUBLIC "-//W3C//DTD SVG 1.1//EN" "http://www.w3.org/Graphics/SVG/1.1/DTD/svg11.dtd">
<svg version="1.1" id="Layer_1" xmlns="http://www.w3.org/2000/svg" xmlns:xlink="http://www.w3.org/1999/xlink" x="0px" y="0px"
	 width="20px" height="20px" viewBox="0 0 20 20" enable-background="new 0 0 20 20" xml:space="preserve">
<g>
	<path fill="#FFFFFF" d="M17.643,1.894H2.544c-0.307,0-0.557,0.249-0.557,0.555v15.1c0,0.307,0.25,0.558,0.557,0.558h15.099
		c0.308,0,0.557-0.251,0.557-0.558v-15.1C18.199,2.143,17.95,1.894,17.643,1.894L17.643,1.894z M5.091,2.727h10.003v4.678H5.091
		V2.727z M15.583,16.923H4.605V9.998h10.978V16.923z M12.271,3.422h1.389v3.335h-1.389V3.422z M14.575,11.713H5.612v-0.556h8.963
		V11.713z M14.575,13.659H5.612v-0.558h8.963V13.659z M14.575,15.534H5.612v-0.556h8.963V15.534z M14.575,15.534"/>
</g>
<g>
</g>
<g>
</g>
<g>
</g>
<g>
</g>
<g>
</g>
<g>
</g>
</svg>
