<?xml version="1.0" encoding="utf-8"?>
<!-- Generator: Adobe Illustrator 20.1.0, SVG Export Plug-In . SVG Version: 6.00 Build 0)  -->
<svg version="1.1" id="Layer_1" xmlns="http://www.w3.org/2000/svg" xmlns:xlink="http://www.w3.org/1999/xlink" x="0px" y="0px"
	 viewBox="0 0 25.4 23.7" style="enable-background:new 0 0 25.4 23.7;" xml:space="preserve">
<style type="text/css">
	.st0{fill:#CFCFCF;}
</style>
<g>
	<path class="st0" d="M25.3,0.2C25.1,0,24.9,0,24.7,0L1,9.1c-0.5,0.2-0.9,0.7-1,1.3c-0.1,0.6,0.2,1.2,0.6,1.5l5.2,3.8L24.3,1.2
		L8,17.2l7.1,5.2c0.4,0.3,1,0.4,1.6,0.3c0.5-0.2,1-0.6,1.2-1.1l7.6-20.8C25.5,0.6,25.4,0.3,25.3,0.2z"/>
	<path class="st0" d="M4.7,17.2l1,5.5c0.1,0.4,0.3,0.8,0.7,0.9c0.4,0.2,0.8,0.1,1.2-0.1c1.4-0.9,3.2-2.1,3.2-2.2l-6.1-4.4L4.7,17.2z
		"/>
</g>
</svg>
