<?xml version="1.0" encoding="utf-8"?>
<!-- Generator: Adobe Illustrator 16.0.0, SVG Export Plug-In . SVG Version: 6.00 Build 0)  -->
<!DOCTYPE svg PUBLIC "-//W3C//DTD SVG 1.1//EN" "http://www.w3.org/Graphics/SVG/1.1/DTD/svg11.dtd">
<svg version="1.1" id="Layer_1" xmlns="http://www.w3.org/2000/svg" xmlns:xlink="http://www.w3.org/1999/xlink" x="0px" y="0px"
	 width="25.443px" height="23.694px" viewBox="0 0 25.443 23.694" enable-background="new 0 0 25.443 23.694" xml:space="preserve">
<g>
	<path fill="#FFFFFF" d="M25.271,0.164c-0.16-0.157-0.395-0.207-0.605-0.125L1.025,9.097C0.478,9.308,0.088,9.8,0.014,10.382
		c-0.078,0.582,0.168,1.161,0.644,1.504l5.192,3.778L24.299,1.152L7.986,17.223l7.102,5.164c0.449,0.326,1.031,0.43,1.57,0.266
		c0.535-0.164,0.961-0.57,1.156-1.094l7.594-20.79C25.486,0.558,25.432,0.32,25.271,0.164z"/>
	<path fill="#FFFFFF" d="M4.662,17.164L5.67,22.67c0.074,0.412,0.348,0.756,0.73,0.924c0.379,0.162,0.821,0.129,1.168-0.098
		c1.403-0.908,3.239-2.105,3.188-2.176l-6.137-4.4L4.662,17.164z"/>
</g>
<g>
</g>
<g>
</g>
<g>
</g>
<g>
</g>
<g>
</g>
<g>
</g>
</svg>
