<?xml version="1.0" encoding="utf-8"?>
<!-- Generator: Adobe Illustrator 19.0.0, SVG Export Plug-In . SVG Version: 6.00 Build 0)  -->
<svg version="1.1" id="Layer_1" xmlns="http://www.w3.org/2000/svg" xmlns:xlink="http://www.w3.org/1999/xlink" x="0px" y="0px"
	 viewBox="0 0 20 20" style="enable-background:new 0 0 20 20;" xml:space="preserve">
<style type="text/css">
	.st0{fill:#FFFFFF;}
</style>
<path id="XMLID_5_" class="st0" d="M15.5,12.5c-0.8,0-1.6,0.3-2.1,0.9l-6.2-3c0-0.1,0-0.3,0-0.4c0-0.1,0-0.3,0-0.4l6.2-3
	c0.5,0.6,1.3,0.9,2.1,0.9c1.6,0,2.9-1.3,2.9-2.9c0-1.6-1.3-2.9-2.9-2.9c-1.6,0-2.9,1.3-2.9,2.9c0,0.1,0,0.3,0,0.4L6.4,8
	C5.9,7.4,5.2,7.1,4.3,7.1c-1.6,0-2.9,1.3-2.9,2.9c0,1.6,1.3,2.9,2.9,2.9c0.8,0,1.6-0.3,2.1-0.9l6.2,3c0,0.1,0,0.3,0,0.4
	c0,1.6,1.3,2.9,2.9,2.9c1.6,0,2.9-1.3,2.9-2.9C18.4,13.8,17.1,12.5,15.5,12.5L15.5,12.5z M15.5,12.5"/>
</svg>
