<?xml version="1.0" encoding="utf-8"?>
<!-- Generator: Adobe Illustrator 19.0.0, SVG Export Plug-In . SVG Version: 6.00 Build 0)  -->
<svg version="1.1" id="Layer_1" xmlns="http://www.w3.org/2000/svg" xmlns:xlink="http://www.w3.org/1999/xlink" x="0px" y="0px"
	 viewBox="0 0 40 40" style="enable-background:new 0 0 40 40;" xml:space="preserve">
<style type="text/css">
	.st0{fill:#CFCFCF;}
</style>
<g id="XMLID_556_">
	<path id="XMLID_584_" class="st0" d="M25.6,0c-7.9,0-14.4,6.4-14.4,14.4c0,3.7,1.4,7.2,3.8,9.7l-1.8,1.8c0,0-0.1,0.1-0.1,0.1
		c-0.4-0.2-0.8-0.4-1.3-0.4c-0.7,0-1.3,0.3-1.7,0.7l-9.4,9.4C0.3,36.3,0,36.9,0,37.5c0,0.7,0.3,1.3,0.7,1.7C1.2,39.7,1.8,40,2.5,40
		c0.7,0,1.3-0.3,1.7-0.7l9.4-9.4c0.5-0.5,0.7-1.1,0.7-1.7c0-0.5-0.1-0.9-0.4-1.3c0,0,0.1-0.1,0.1-0.1l1.8-1.8c2.6,2.4,6,3.8,9.7,3.8
		c7.9,0,14.4-6.4,14.4-14.4C40,6.5,33.5,0,25.6,0L25.6,0z M3.4,38.4c-0.2,0.2-0.6,0.4-0.9,0.4c-0.3,0-0.7-0.1-0.9-0.4
		c-0.2-0.2-0.4-0.6-0.4-0.9c0-0.3,0.1-0.7,0.4-0.9l8.3-8.3l1.8,1.8L3.4,38.4z M12.8,29.1l-0.2,0.2l-1.8-1.8l0.2-0.2
		c0.2-0.2,0.6-0.4,0.9-0.4c0.3,0,0.7,0.1,0.9,0.4c0.2,0.2,0.4,0.6,0.4,0.9C13.1,28.5,13,28.8,12.8,29.1L12.8,29.1z M25.6,27.6
		c-7.3,0-13.2-5.9-13.2-13.2S18.3,1.2,25.6,1.2s13.2,5.9,13.2,13.2S32.9,27.6,25.6,27.6L25.6,27.6z M25.6,27.6"/>
	<path id="XMLID_581_" class="st0" d="M21.9,19.4c0.2,0,0.3-0.1,0.4-0.2c0.2-0.2,0.2-0.6,0-0.8l-4-4l4-4c0.2-0.2,0.2-0.6,0-0.8
		c-0.2-0.2-0.6-0.2-0.8,0L17.1,14c-0.2,0.2-0.2,0.6,0,0.8l4.4,4.4C21.6,19.3,21.7,19.4,21.9,19.4L21.9,19.4z M21.9,19.4"/>
	<path id="XMLID_578_" class="st0" d="M29.8,9.6c-0.2-0.2-0.6-0.2-0.8,0c-0.2,0.2-0.2,0.6,0,0.8l4,4l-4,4c-0.2,0.2-0.2,0.6,0,0.8
		c0.1,0.1,0.3,0.2,0.4,0.2c0.2,0,0.3-0.1,0.4-0.2l4.4-4.4c0.2-0.2,0.2-0.6,0-0.8L29.8,9.6z M29.8,9.6"/>
	<path id="XMLID_575_" class="st0" d="M25.6,15.7c-0.2,0-0.3,0.1-0.4,0.2C25.1,16,25,16.1,25,16.3c0,0.2,0.1,0.3,0.2,0.4
		c0.1,0.1,0.3,0.2,0.4,0.2s0.3-0.1,0.4-0.2c0.1-0.1,0.2-0.3,0.2-0.4c0-0.2-0.1-0.3-0.2-0.4C25.9,15.7,25.8,15.7,25.6,15.7L25.6,15.7
		z M25.6,15.7"/>
	<path id="XMLID_572_" class="st0" d="M28.1,15.7c-0.2,0-0.3,0.1-0.4,0.2c-0.1,0.1-0.2,0.3-0.2,0.4c0,0.2,0.1,0.3,0.2,0.4
		c0.1,0.1,0.3,0.2,0.4,0.2c0.2,0,0.3-0.1,0.4-0.2c0.1-0.1,0.2-0.3,0.2-0.4c0-0.2-0.1-0.3-0.2-0.4C28.4,15.7,28.3,15.7,28.1,15.7
		L28.1,15.7z M28.1,15.7"/>
	<path id="XMLID_569_" class="st0" d="M23.1,16.8c0.2,0,0.3-0.1,0.4-0.2c0.1-0.1,0.2-0.3,0.2-0.4c0-0.2-0.1-0.3-0.2-0.4
		c-0.1-0.1-0.3-0.2-0.4-0.2c-0.2,0-0.3,0.1-0.4,0.2c-0.1,0.1-0.2,0.3-0.2,0.4c0,0.2,0.1,0.3,0.2,0.4C22.8,16.8,23,16.8,23.1,16.8
		L23.1,16.8z M23.1,16.8"/>
	<path id="XMLID_566_" class="st0" d="M37,11.1c-0.8-2.7-2.5-5-4.8-6.6c-0.3-0.2-0.6-0.1-0.8,0.2c-0.2,0.3-0.1,0.6,0.2,0.8
		c2.1,1.4,3.6,3.5,4.3,5.9c0.1,0.3,0.3,0.4,0.6,0.4c0.1,0,0.1,0,0.2,0C36.9,11.7,37.1,11.4,37,11.1L37,11.1z M37,11.1"/>
	<path id="XMLID_563_" class="st0" d="M24.4,25c-2.3-0.3-4.5-1.3-6.2-2.9c-0.2-0.2-0.6-0.2-0.8,0c-0.2,0.2-0.2,0.6,0,0.8
		c1.9,1.8,4.3,2.9,6.9,3.2c0,0,0,0,0.1,0c0.3,0,0.5-0.2,0.6-0.5C25,25.3,24.8,25,24.4,25L24.4,25z M24.4,25"/>
	<path id="XMLID_560_" class="st0" d="M16.1,19.3C16,19,15.6,18.9,15.3,19c-0.3,0.1-0.4,0.5-0.3,0.8c0.2,0.4,0.4,0.8,0.7,1.1
		c0.1,0.2,0.3,0.3,0.5,0.3c0.1,0,0.2,0,0.3-0.1c0.3-0.2,0.3-0.5,0.2-0.8C16.5,20,16.3,19.6,16.1,19.3L16.1,19.3z M16.1,19.3"/>
	<path id="XMLID_557_" class="st0" d="M28,4c0.4,0.1,0.8,0.2,1.1,0.3c0.1,0,0.1,0,0.2,0c0.2,0,0.5-0.2,0.6-0.4
		c0.1-0.3-0.1-0.6-0.4-0.7c-0.4-0.1-0.8-0.3-1.3-0.4c-0.3-0.1-0.6,0.1-0.7,0.4C27.5,3.6,27.7,3.9,28,4L28,4z M28,4"/>
</g>
</svg>
