<?xml version="1.0" encoding="utf-8"?>
<!-- Generator: Adobe Illustrator 19.0.0, SVG Export Plug-In . SVG Version: 6.00 Build 0)  -->
<svg version="1.1" id="Layer_1" xmlns="http://www.w3.org/2000/svg" xmlns:xlink="http://www.w3.org/1999/xlink" x="0px" y="0px"
	 viewBox="0 0 20 20" style="enable-background:new 0 0 20 20;" xml:space="preserve">
<style type="text/css">
	.st0{fill:#FFFFFF;}
</style>
<g id="XMLID_1_">
	<path id="XMLID_3_" class="st0" d="M4.1,17.5L4.1,17.5c-0.1,0-0.1,0-0.2,0c-0.8,0-1.4-0.6-1.4-1.3l0-0.6V3.8l0-0.1c0,0,0-0.1,0-0.1
		c0-0.7,0.6-1.3,1.4-1.3l0.1,0v0h5.5v0h3.1l0.4,0c0.7,0,1.3,0.6,1.4,1.3l0,1v3.6c0.5,0.1,0.9,0.5,1.2,1V3.6h0
		c-0.1-1.3-1.1-2.3-2.5-2.3v0H3.8v0c-1.4,0-2.5,1.1-2.5,2.4c0,0.1,0,0.2,0,0.2v12.4h0c0.1,1.3,1.2,2.3,2.6,2.3c0.1,0,0.2,0,0.2,0h4
		c-0.2-0.3-0.3-0.7-0.2-1.1H4.1z"/>
	<path id="XMLID_10_" class="st0" d="M18,13.7h-0.5c-0.1,0-0.3-0.1-0.3-0.3c0-0.1-0.1-0.3-0.2-0.4c-0.1-0.1,0-0.3,0.1-0.4l0.3-0.3
		c0.2-0.2,0.2-0.6,0-0.9l-0.6-0.6c-0.1-0.1-0.3-0.2-0.4-0.2c-0.2,0-0.3,0.1-0.4,0.2l-0.3,0.3c-0.1,0.1-0.1,0.1-0.2,0.1
		c-0.1,0-0.1,0-0.2,0c-0.1-0.1-0.3-0.1-0.4-0.2c-0.1-0.1-0.3-0.2-0.3-0.3v-0.5c0-0.3-0.3-0.6-0.6-0.6H13c-0.3,0-0.6,0.3-0.6,0.6v0.5
		c0,0.1-0.1,0.3-0.3,0.3c-0.1,0-0.3,0.1-0.4,0.2c0,0-0.1,0-0.2,0c-0.1,0-0.2,0-0.2-0.1l-0.3-0.3c-0.1-0.1-0.3-0.2-0.4-0.2
		c-0.2,0-0.3,0.1-0.4,0.2l-0.6,0.6c-0.1,0.1-0.2,0.3-0.2,0.4s0.1,0.3,0.2,0.4l0.3,0.3c0.1,0.1,0.1,0.3,0.1,0.4
		c-0.1,0.1-0.1,0.3-0.2,0.4c-0.1,0.1-0.2,0.3-0.3,0.3H8.8c-0.3,0-0.6,0.3-0.6,0.6v0.8c0,0.3,0.3,0.6,0.6,0.6h0.5
		c0.1,0,0.3,0.1,0.3,0.3c0,0.1,0.1,0.3,0.2,0.4c0.1,0.1,0,0.3-0.1,0.4l-0.3,0.3c-0.2,0.2-0.2,0.6,0,0.9l0.6,0.6
		c0.1,0.1,0.3,0.2,0.4,0.2c0.2,0,0.3-0.1,0.4-0.2l0.3-0.3c0.1-0.1,0.2-0.1,0.2-0.1s0.1,0,0.2,0c0.1,0.1,0.3,0.1,0.4,0.2
		c0.1,0.1,0.3,0.2,0.3,0.3v0.5c0,0.3,0.3,0.6,0.6,0.6h0.8c0.3,0,0.6-0.3,0.6-0.6v-0.5c0-0.1,0.1-0.3,0.3-0.3c0.1,0,0.3-0.1,0.4-0.2
		c0,0,0.1,0,0.2,0c0.1,0,0.2,0,0.2,0.1l0.3,0.3c0.1,0.1,0.3,0.2,0.4,0.2c0.2,0,0.3-0.1,0.4-0.2l0.6-0.6c0.2-0.2,0.2-0.6,0-0.9
		L17,16.9c-0.1-0.1-0.1-0.3-0.1-0.4c0.1-0.1,0.1-0.3,0.2-0.4c0-0.1,0.2-0.3,0.3-0.3H18c0.3,0,0.6-0.3,0.6-0.6v-0.8
		C18.6,14,18.4,13.7,18,13.7z M13.4,16.6c-1,0-1.9-0.9-1.9-1.9c0-1,0.9-1.9,1.9-1.9c1,0,1.9,0.9,1.9,1.9
		C15.3,15.7,14.4,16.6,13.4,16.6z"/>
</g>
</svg>
