<?xml version="1.0" encoding="utf-8"?>
<!-- Generator: Adobe Illustrator 19.0.0, SVG Export Plug-In . SVG Version: 6.00 Build 0)  -->
<svg version="1.1" id="Layer_1" xmlns="http://www.w3.org/2000/svg" xmlns:xlink="http://www.w3.org/1999/xlink" x="0px" y="0px"
	 viewBox="0 0 28.2 28.2" style="enable-background:new 0 0 28.2 28.2;" xml:space="preserve">
<style type="text/css">
	.st0{fill:#CFCFD1;}
</style>
<path id="XMLID_7_" class="st0" d="M25.8,9.5c-0.2,0.2-0.5,0.4-0.7,0.5c0.5,1.3,0.8,2.7,0.8,4.1c0,6.5-5.3,11.7-11.7,11.7
	c-6.5,0-11.7-5.3-11.7-11.7c0-6.5,5.2-11.7,11.7-11.7c1.4,0,2.8,0.3,4,0.7c0.1-0.3,0.3-0.5,0.5-0.8l1.1-1.1
	c-1.7-0.8-3.7-1.2-5.7-1.2C6.3,0.1,0,6.4,0,14.2c0,7.8,6.3,14.1,14.1,14.1c7.8,0,14.1-6.3,14.1-14.1c0-2.1-0.5-4-1.3-5.8L25.8,9.5z"
	/>
<path id="XMLID_8_" class="st0" d="M20,12.4c0.2,0.6,0.3,1.2,0.3,1.8c0,3.4-2.8,6.1-6.1,6.1c-3.4,0-6.1-2.8-6.1-6.1
	C8,10.8,10.7,8,14.1,8c0.6,0,1.3,0.1,1.9,0.3l1.8-1.8c-1.1-0.5-2.4-0.9-3.7-0.9c-4.7,0-8.5,3.8-8.5,8.5c0,4.7,3.8,8.5,8.5,8.5
	c4.7,0,8.5-3.8,8.5-8.5c0-1.3-0.3-2.5-0.8-3.6L20,12.4z"/>
<path id="XMLID_9_" class="st0" d="M25.8,4.3l0.8-0.8c0.3-0.3,0.3-0.9,0-1.3L26,1.7c-0.2-0.2-0.4-0.3-0.6-0.3
	c-0.2,0-0.5,0.1-0.6,0.3l-0.9,0.9l-0.2-2.3c0-0.2-0.2-0.3-0.3-0.3c-0.1,0-0.1,0-0.2,0.1l-3.4,3.4c-0.3,0.3-0.5,0.7-0.4,1.2l0,0.1
	L19.5,7l-1.2,1.2L16,10.5L16,10.5l-2.2,2.2l-1,1c-0.1,0.1-0.2,0.3-0.2,0.5l-0.1,0.8c0,0.4,0.3,0.8,0.7,0.8h0l0.8,0
	c0.2,0,0.4-0.1,0.5-0.2l6.8-6.8l2,0.2l0.1,0c0,0,0.1,0,0.1,0c0.4,0,0.8-0.2,1.1-0.4L28.1,5c0.2-0.2,0.1-0.5-0.2-0.5L25.8,4.3z
	 M25.8,4.3"/>
</svg>
