<?xml version="1.0" encoding="utf-8"?>
<!-- Generator: Adobe Illustrator 19.0.0, SVG Export Plug-In . SVG Version: 6.00 Build 0)  -->
<svg version="1.1" id="Layer_1" xmlns="http://www.w3.org/2000/svg" xmlns:xlink="http://www.w3.org/1999/xlink" x="0px" y="0px"
	 viewBox="0 0 28.2 28.2" style="enable-background:new 0 0 28.2 28.2;" xml:space="preserve">
<style type="text/css">
	.st0{fill:#CFCFD1;}
</style>
<path id="XMLID_1_" class="st0" d="M14.1,0C6.3,0,0,6.3,0,14.1c0,7.8,6.3,14.1,14.1,14.1c7.8,0,14.1-6.3,14.1-14.1
	C28.2,6.3,21.9,0,14.1,0z M14.1,25.8c-6.5,0-11.7-5.3-11.7-11.7c0-6.5,5.3-11.7,11.7-11.7c6.5,0,11.7,5.3,11.7,11.7
	C25.8,20.5,20.5,25.8,14.1,25.8z"/>
<path id="XMLID_4_" class="st0" d="M14.1,5.6c-4.7,0-8.5,3.8-8.5,8.5c0,4.7,3.8,8.5,8.5,8.5c4.7,0,8.5-3.8,8.5-8.5
	C22.6,9.4,18.8,5.6,14.1,5.6z M14.1,20.2c-3.4,0-6.1-2.8-6.1-6.1C8,10.7,10.7,8,14.1,8c3.4,0,6.1,2.8,6.1,6.1
	C20.2,17.5,17.5,20.2,14.1,20.2z"/>
</svg>
