<?xml version="1.0" encoding="utf-8"?>
<!-- Generator: Adobe Illustrator 19.0.0, SVG Export Plug-In . SVG Version: 6.00 Build 0)  -->
<svg version="1.1" id="Layer_1" xmlns="http://www.w3.org/2000/svg" xmlns:xlink="http://www.w3.org/1999/xlink" x="0px" y="0px"
	 viewBox="0 0 21.8 21.8" style="enable-background:new 0 0 21.8 21.8;" xml:space="preserve">
<style type="text/css">
	.st0{fill:#00A651;}
</style>
<path id="XMLID_51_" class="st0" d="M10.9,0C4.9,0,0,4.9,0,10.9c0,6,4.9,10.9,10.9,10.9c6,0,10.9-4.9,10.9-10.9
	C21.8,4.9,16.9,0,10.9,0z M17.3,8.2L9.5,16C9.4,16,9.3,16.2,9,16.2c-0.2,0-0.4-0.1-0.4-0.2l-4.1-4.1c-0.1-0.1-0.2-0.3-0.2-0.4
	c0-0.2,0.1-0.3,0.2-0.4l1.1-1.1C5.6,9.8,5.8,9.7,6,9.7s0.3,0.1,0.5,0.2L9,12.5l6.3-6.3C15.5,6.1,15.6,6,15.8,6
	c0.2,0,0.3,0.1,0.4,0.2l1.1,1.1c0.1,0.1,0.2,0.3,0.2,0.5C17.5,7.9,17.4,8,17.3,8.2z"/>
<g id="XMLID_14_">
</g>
<g id="XMLID_15_">
</g>
<g id="XMLID_16_">
</g>
<g id="XMLID_17_">
</g>
<g id="XMLID_18_">
</g>
<g id="XMLID_19_">
</g>
</svg>
