<?xml version="1.0" encoding="utf-8"?>
<!-- Generator: Adobe Illustrator 20.1.0, SVG Export Plug-In . SVG Version: 6.00 Build 0)  -->
<svg version="1.1" id="Layer_1" xmlns="http://www.w3.org/2000/svg" xmlns:xlink="http://www.w3.org/1999/xlink" x="0px" y="0px"
	 viewBox="0 0 20 20" style="enable-background:new 0 0 20 20;" xml:space="preserve">
<style type="text/css">
	.st0{fill:#FFFFFF;}
</style>
<path class="st0" d="M7.3,16.9c-0.3,0-0.5-0.1-0.6-0.3l-5.2-5.6l-0.2-0.2C1.1,10.7,1,10.4,1,10.2C1,10,1.1,9.8,1.3,9.6l0.9-0.9
	c0.2-0.2,0.4-0.3,0.6-0.3c0.2,0,0.5,0.1,0.6,0.3l3.8,4l0.3,0.2l-0.2-0.2l9-9.4h0.1c0.2-0.1,0.4-0.2,0.6-0.2c0.2,0,0.5,0.1,0.6,0.3
	l0.9,0.9c0.4,0.4,0.4,0.9,0,1.3L8,16.7C7.8,16.9,7.6,16.9,7.3,16.9z"/>
<path class="st0" d="M1.5,10.7c-0.1-0.1-0.2-0.3-0.2-0.5c0-0.1,0.1-0.3,0.2-0.5l0.9-0.9c0.3-0.3,0.7-0.3,0.9,0l0.1,0.1l3.7,3.9
	c0.1,0.1,0.3,0.1,0.5,0l9-9.3h0.1c0.3-0.3,0.7-0.3,0.9,0l0.9,0.9c0.3,0.3,0.3,0.7,0,0.9L7.8,16.5c-0.1,0.1-0.3,0.2-0.5,0.2
	c-0.2,0-0.3-0.1-0.5-0.2l-5.2-5.6L1.5,10.7z M1.5,10.7"/>
</svg>
