<?xml version="1.0" encoding="utf-8"?>
<!-- Generator: Adobe Illustrator 16.0.0, SVG Export Plug-In . SVG Version: 6.00 Build 0)  -->
<!DOCTYPE svg PUBLIC "-//W3C//DTD SVG 1.1//EN" "http://www.w3.org/Graphics/SVG/1.1/DTD/svg11.dtd">
<svg version="1.1" id="Layer_1" xmlns="http://www.w3.org/2000/svg" xmlns:xlink="http://www.w3.org/1999/xlink" x="0px" y="0px"
	 width="20px" height="20px" viewBox="0 0 20 20" enable-background="new 0 0 20 20" xml:space="preserve">
<g>
	<g>
		<path fill="#FFFFFF" d="M19.755,4.762l-2.224-2.224c-0.263-0.263-0.689-0.263-0.953,0l-9.264,9.263l-3.94-3.939
			c-0.263-0.263-0.69-0.263-0.953,0l-2.224,2.224c-0.263,0.264-0.263,0.69,0,0.953l6.641,6.64c0.131,0.132,0.304,0.198,0.477,0.198
			s0.345-0.066,0.477-0.198L19.755,5.715c0.126-0.126,0.197-0.298,0.197-0.477C19.952,5.059,19.881,4.888,19.755,4.762L19.755,4.762
			z M19.755,4.762"/>
	</g>
</g>
<g>
</g>
<g>
</g>
<g>
</g>
<g>
</g>
<g>
</g>
<g>
</g>
</svg>
