<?xml version="1.0" encoding="utf-8"?>
<!-- Generator: Adobe Illustrator 16.0.0, SVG Export Plug-In . SVG Version: 6.00 Build 0)  -->
<!DOCTYPE svg PUBLIC "-//W3C//DTD SVG 1.1//EN" "http://www.w3.org/Graphics/SVG/1.1/DTD/svg11.dtd">
<svg version="1.1" id="Layer_1" xmlns="http://www.w3.org/2000/svg" xmlns:xlink="http://www.w3.org/1999/xlink" x="0px" y="0px"
	 width="20px" height="20px" viewBox="0 0 20 20" enable-background="new 0 0 20 20" xml:space="preserve">
<path fill="#CFCFD1" d="M10.002,2.09c-5.101,0-9.238,3.178-9.238,7.107c0,1.922,0.999,3.672,2.616,4.952
	c-0.097,1.305-0.41,2.9-1.318,3.762c1.812,0,3.659-1.131,4.831-2.021c0.973,0.273,2.021,0.418,3.11,0.418
	c5.103,0,9.24-3.188,9.24-7.11C19.242,5.268,15.105,2.09,10.002,2.09z M4.903,5.752h6.314v2.021H4.903V5.752z M16.061,11.816H4.903
	V9.794h11.157V11.816z"/>
<g>
</g>
<g>
</g>
<g>
</g>
<g>
</g>
<g>
</g>
<g>
</g>
</svg>
