<?xml version="1.0" encoding="utf-8"?>
<!-- Generator: Adobe Illustrator 19.0.0, SVG Export Plug-In . SVG Version: 6.00 Build 0)  -->
<svg version="1.1" id="Layer_1" xmlns="http://www.w3.org/2000/svg" xmlns:xlink="http://www.w3.org/1999/xlink" x="0px" y="0px"
	 viewBox="0 0 35 35" style="enable-background:new 0 0 35 35;" xml:space="preserve">
<style type="text/css">
	.st0{fill:#CFCFCF;}
</style>
<g id="XMLID_2_">
	<path id="XMLID_6_" class="st0" d="M27.4,10.3c-0.3-2.1-1.4-4-2.9-5.4c-1.7-1.6-4-2.5-6.4-2.5c-1.8,0-3.6,0.5-5.1,1.5
		c-1.3,0.8-2.3,1.9-3.1,3.2c-0.3-0.1-0.7-0.1-1-0.1c-2.9,0-5.2,2.3-5.2,5.2c0,0.4,0,0.7,0.1,1.1c-1.8,1.3-3,3.5-3,5.8
		c0,1.9,0.7,3.7,2,5.1c1.3,1.5,3,2.3,4.8,2.4h5.8c0.5,0,0.9-0.4,0.9-0.9c0-0.5-0.4-0.9-0.9-0.9H7.8C5,24.7,2.7,22,2.7,19.1
		c0-1.9,1-3.7,2.7-4.6c0.4-0.2,0.5-0.7,0.4-1.1c-0.1-0.4-0.2-0.7-0.2-1.2c0-1.9,1.5-3.4,3.4-3.4c0.4,0,0.8,0.1,1.1,0.2
		c0.4,0.2,0.9,0,1.1-0.5c1.3-2.7,4-4.4,6.9-4.4c4,0,7.2,3,7.6,6.9c0,0.4,0.3,0.7,0.8,0.8c3,0.5,5.2,3.3,5.2,6.4
		c0,3.3-2.6,6.2-5.9,6.5h-4.9c-0.5,0-0.9,0.4-0.9,0.9s0.4,0.9,0.9,0.9h5c2-0.1,4-1.1,5.4-2.7c1.4-1.6,2.2-3.6,2.2-5.6
		C33.5,14.6,31,11.2,27.4,10.3L27.4,10.3z M27.4,10.3"/>
	<path id="XMLID_3_" class="st0" d="M22.7,20c0.4-0.4,0.4-0.9,0-1.3l-4.8-4.8c-0.2-0.2-0.4-0.3-0.6-0.3c-0.2,0-0.5,0.1-0.6,0.3
		l-4.8,4.8c-0.4,0.4-0.4,0.9,0,1.3c0.2,0.2,0.4,0.3,0.6,0.3c0.2,0,0.5-0.1,0.6-0.3l3.3-3.3v15c0,0.5,0.4,0.9,0.9,0.9
		c0.5,0,0.9-0.4,0.9-0.9v-15l3.3,3.3C21.7,20.3,22.3,20.3,22.7,20L22.7,20z M22.7,20"/>
</g>
</svg>
