<?xml version="1.0" encoding="utf-8"?>
<!-- Generator: Adobe Illustrator 19.0.0, SVG Export Plug-In . SVG Version: 6.00 Build 0)  -->
<svg version="1.1" id="Layer_1" xmlns="http://www.w3.org/2000/svg" xmlns:xlink="http://www.w3.org/1999/xlink" x="0px" y="0px"
	 viewBox="0 0 20 20" style="enable-background:new 0 0 20 20;" xml:space="preserve">
<style type="text/css">
	.st0{fill:#FFFFFF;}
</style>
<g id="XMLID_2_">
	<g id="XMLID_3_">
		<path id="XMLID_5_" class="st0" d="M16.3,5.8c-0.2-1.3-0.8-2.4-1.8-3.3C13.4,1.6,12,1,10.5,1C9.4,1,8.3,1.3,7.4,1.9
			C6.6,2.4,6,3.1,5.5,3.9c-0.2,0-0.4-0.1-0.6-0.1C3.2,3.9,1.8,5.3,1.8,7c0,0.2,0,0.4,0.1,0.7C0.7,8.5,0,9.8,0,11.2
			c0,1.1,0.4,2.2,1.2,3.1c0.8,0.9,1.8,1.4,3,1.5c0,0,0,0,0,0h3.5c0.3,0,0.6-0.2,0.6-0.6c0-0.3-0.2-0.6-0.6-0.6H4.2
			c-1.7-0.1-3.1-1.7-3.1-3.5c0-1.2,0.6-2.2,1.6-2.8C3,8.3,3.1,8,3,7.7C2.9,7.5,2.9,7.3,2.9,7C2.9,5.9,3.8,5,4.9,5
			c0.2,0,0.5,0,0.7,0.1c0.3,0.1,0.6,0,0.7-0.3c0.8-1.6,2.4-2.7,4.2-2.7c2.4,0,4.4,1.8,4.7,4.2c0,0.3,0.2,0.5,0.5,0.5
			c1.8,0.3,3.2,2,3.2,3.9c0,2-1.6,3.8-3.6,4h-3c-0.3,0-0.6,0.2-0.6,0.6c0,0.3,0.2,0.6,0.6,0.6h3c0,0,0,0,0,0
			c1.3-0.1,2.4-0.7,3.3-1.6c0.9-1,1.3-2.2,1.3-3.5C20,8.5,18.4,6.4,16.3,5.8z"/>
		<path id="XMLID_4_" class="st0" d="M13.3,11.8c0.2-0.2,0.2-0.6,0-0.8L10.4,8c-0.1-0.1-0.2-0.2-0.4-0.2C9.9,7.9,9.7,7.9,9.6,8
			L6.7,11c-0.2,0.2-0.2,0.6,0,0.8c0.1,0.1,0.3,0.2,0.4,0.2c0.1,0,0.3-0.1,0.4-0.2l2-2v9.2c0,0.3,0.2,0.6,0.6,0.6
			c0.3,0,0.6-0.2,0.6-0.6V9.8l2,2C12.8,12,13.1,12,13.3,11.8z"/>
	</g>
</g>
</svg>
