<?xml version="1.0" encoding="utf-8"?>
<!-- Generator: Adobe Illustrator 19.0.0, SVG Export Plug-In . SVG Version: 6.00 Build 0)  -->
<svg version="1.1" id="Layer_1" xmlns="http://www.w3.org/2000/svg" xmlns:xlink="http://www.w3.org/1999/xlink" x="0px" y="0px"
	 viewBox="0 0 20 20" height="20px" width="20px" style="enable-background:new 0 0 20 20;" xml:space="preserve">
 <g style="fill: currentColor" >
<path id="XMLID_9_" class="st0" d="M8.5,9.7c2,0,3.6-2,3.6-4.4c0-3.4-1.6-4.4-3.6-4.4c-2,0-3.6,1-3.6,4.4C4.9,7.8,6.5,9.7,8.5,9.7z"
	/>
<path id="XMLID_8_" class="st0" d="M12.5,17.9c-0.1,0-0.2-0.1-0.3-0.1L12,18.1c-0.2,0.2-0.5,0.3-0.8,0.3c-0.3,0-0.6-0.1-0.8-0.3
	l-0.6-0.6c-0.4-0.5-0.4-1.2,0-1.7l0.3-0.3c0-0.1-0.1-0.2-0.1-0.3H9.6c-0.6,0-1.1-0.5-1.1-1.2v-0.8C8.5,12.6,9,12,9.6,12H10
	c0-0.1,0.1-0.2,0.1-0.3l-0.3-0.3c-0.2-0.2-0.3-0.5-0.3-0.7c-0.3,0.1-0.7,0.1-1.1,0.1c-1,0-1.9-0.3-2.7-1c-0.1,0-0.1,0-0.2,0
	l-2.8,1.6c-0.2,0.1-0.3,0.3-0.4,0.5l-1.5,3.6c1.9,2.1,4.6,3.4,7.6,3.4c1.3,0,2.6-0.3,3.8-0.7c0.1,0,0.1-0.1,0.3-0.1L12.5,17.9
	L12.5,17.9z"/>
<path id="XMLID_5_" class="st0" d="M18.4,12.6h-0.5c-0.1,0-0.3-0.1-0.3-0.3c0-0.1-0.1-0.3-0.2-0.4c-0.1-0.1,0-0.3,0.1-0.5l0.3-0.3
	c0.2-0.2,0.2-0.7,0-0.9l-0.6-0.6c-0.1-0.1-0.3-0.2-0.4-0.2s-0.3,0.1-0.4,0.2L16.1,10c-0.1,0.1-0.1,0.1-0.2,0.1c-0.1,0-0.1,0-0.2,0
	c-0.1-0.1-0.3-0.1-0.4-0.2C15.2,9.8,15,9.7,15,9.5V9c0-0.3-0.3-0.7-0.6-0.7h-0.8C13.3,8.4,13,8.6,13,9v0.5c0,0.1-0.1,0.3-0.3,0.3
	c-0.1,0-0.3,0.1-0.4,0.2c0,0-0.1,0-0.2,0c-0.1,0-0.2,0-0.2-0.1l-0.3-0.3c-0.1-0.1-0.3-0.2-0.4-0.2s-0.3,0.1-0.4,0.2l-0.6,0.6
	c-0.1,0.1-0.2,0.3-0.2,0.5c0,0.2,0.1,0.3,0.2,0.5l0.3,0.3c0.1,0.1,0.1,0.3,0.1,0.5c-0.1,0.1-0.1,0.3-0.2,0.4
	c-0.1,0.1-0.2,0.3-0.3,0.3H9.6c-0.3,0-0.6,0.3-0.6,0.7v0.8c0,0.3,0.3,0.7,0.6,0.7h0.5c0.1,0,0.3,0.1,0.3,0.3c0,0.1,0.1,0.3,0.2,0.4
	c0.1,0.1,0,0.3-0.1,0.5l-0.3,0.3c-0.2,0.2-0.2,0.7,0,0.9l0.6,0.6c0.1,0.1,0.3,0.2,0.4,0.2s0.3-0.1,0.4-0.2l0.3-0.3
	c0.1-0.1,0.2-0.1,0.2-0.1s0.1,0,0.2,0c0.1,0.1,0.3,0.1,0.4,0.2c0.1,0.1,0.3,0.2,0.3,0.3v0.5c0,0.3,0.3,0.7,0.6,0.7h0.8
	c0.3,0,0.6-0.3,0.6-0.7v-0.5c0-0.1,0.1-0.3,0.3-0.3c0.1,0,0.3-0.1,0.4-0.2c0,0,0.1,0,0.2,0c0.1,0,0.2,0,0.2,0.1l0.3,0.3
	c0.1,0.1,0.3,0.2,0.4,0.2s0.3-0.1,0.4-0.2l0.6-0.6c0.2-0.2,0.2-0.7,0-0.9l-0.3-0.3c-0.1-0.1-0.1-0.3-0.1-0.5
	c0.1-0.1,0.1-0.3,0.2-0.4c0-0.1,0.2-0.3,0.3-0.3h0.5c0.3,0,0.6-0.3,0.6-0.7v-0.8C19.1,12.9,18.8,12.6,18.4,12.6z M14,15.6
	c-1,0-1.8-0.9-1.8-1.9s0.8-1.9,1.8-1.9s1.8,0.9,1.8,1.9S15,15.6,14,15.6z"/>
</g>
</svg>
