<?xml version="1.0" encoding="utf-8"?>
<!-- Generator: Adobe Illustrator 16.0.0, SVG Export Plug-In . SVG Version: 6.00 Build 0)  -->
<!DOCTYPE svg PUBLIC "-//W3C//DTD SVG 1.1//EN" "http://www.w3.org/Graphics/SVG/1.1/DTD/svg11.dtd">
<svg version="1.1" id="Layer_1" xmlns="http://www.w3.org/2000/svg" xmlns:xlink="http://www.w3.org/1999/xlink" x="0px" y="0px"
	 width="20px" height="20px" viewBox="0 0 20 20" enable-background="new 0 0 20 20" xml:space="preserve">
<path fill="#FFFFFF" d="M19.913,9.821c0.103-0.192,0.103-0.422,0-0.614c-1.902-3.503-5.613-5.88-9.88-5.88
	c-4.266,0-7.977,2.377-9.878,5.88c-0.104,0.191-0.104,0.422,0,0.614c1.902,3.502,5.612,5.88,9.878,5.88
	C14.3,15.701,18.011,13.323,19.913,9.821L19.913,9.821z M10.033,14.261c-2.621,0-4.745-2.126-4.745-4.746
	c0-2.622,2.124-4.746,4.745-4.746c2.622,0,4.745,2.124,4.745,4.746C14.778,12.136,12.655,14.261,10.033,14.261L10.033,14.261z
	 M10.033,14.261"/>
<path fill="#FFFFFF" d="M10.033,7.096c-0.2,0-0.393,0.024-0.579,0.07c0.19,0.22,0.306,0.506,0.306,0.819
	c0,0.693-0.562,1.255-1.254,1.255c-0.314,0-0.601-0.115-0.821-0.306c-0.046,0.186-0.07,0.38-0.07,0.58
	c0,1.336,1.083,2.418,2.418,2.418c1.337,0,2.419-1.082,2.419-2.418C12.452,8.178,11.37,7.096,10.033,7.096L10.033,7.096z
	 M10.033,7.096"/>
<g>
</g>
<g>
</g>
<g>
</g>
<g>
</g>
<g>
</g>
<g>
</g>
</svg>
