<?xml version="1.0" encoding="utf-8"?>
<!-- Generator: Adobe Illustrator 19.0.0, SVG Export Plug-In . SVG Version: 6.00 Build 0)  -->
<svg version="1.1" id="Layer_1" xmlns="http://www.w3.org/2000/svg" xmlns:xlink="http://www.w3.org/1999/xlink" x="0px" y="0px"
	 viewBox="0 0 35 35" style="enable-background:new 0 0 35 35;" xml:space="preserve">
<style type="text/css">
	.st0{fill:#2097D4;}
</style>
<g>
	<path class="st0" d="M17.5,12.3c-2.9,0-5.2,2.3-5.2,5.2c0,2.9,2.3,5.2,5.2,5.2c2.9,0,5.2-2.3,5.2-5.2S20.4,12.3,17.5,12.3z
		 M17.5,20.1c-1.5,0-2.7-1.2-2.7-2.7c0-0.2,0-0.4,0.1-0.6c0.2,0.2,0.6,0.3,0.9,0.3c0.8,0,1.4-0.6,1.4-1.4c0-0.3-0.1-0.7-0.3-0.9
		c0.2-0.1,0.4-0.1,0.6-0.1c1.5,0,2.7,1.2,2.7,2.7C20.2,18.9,19,20.1,17.5,20.1z"/>
	<path class="st0" d="M17.5,0C7.8,0,0,7.8,0,17.5S7.8,35,17.5,35C27.2,35,35,27.2,35,17.5S27.2,0,17.5,0z M28.3,17.8
		c-2.1,3.8-6.2,6.5-10.8,6.5c-4.7,0-8.8-2.6-10.8-6.5c-0.1-0.2-0.1-0.5,0-0.7c2.1-3.8,6.2-6.5,10.8-6.5c4.7,0,8.8,2.6,10.8,6.5
		C28.5,17.4,28.5,17.6,28.3,17.8z"/>
</g>
</svg>
